<svg fill="#000000" height="30" viewBox="0 0 30 30" width="30" xmlns="http://www.w3.org/2000/svg">
<path d="M 8.5,0 C 7.6776487,0 7,0.67764862 7,1.5 l 0,6 c 0,0.6653579 1,0.6708801 1,0 l 0,-6 C 8,1.2143514 8.2143515,1 8.5,1 l 20,0 C 28.785649,1 29,1.2143514 29,1.5 l 0,27 c 0,0.285649 -0.214351,0.5 -0.5,0.5 l -20,0 C 8.2143515,29 8,28.785649 8,28.5 l 0,-7 c 0,-0.659625 -1,-0.654101 -1,0 l 0,7 C 7,29.322351 7.6776487,30 8.5,30 l 20,0 c 0.822351,0 1.5,-0.677649 1.5,-1.5 l 0,-27 C 30,0.67764862 29.322351,0 28.5,0 Z m -4,19 c 0.449403,-9e-5 0.6430534,-0.562713 0.353516,-0.853516 L 1.207031,14.5 4.853516,10.853516 C 5.296343,10.4283 4.599897,9.693071 4.146484,10.146484 l -4,4 c -0.195185,0.195265 -0.195185,0.511767 0,0.707032 l 4,4 C 4.240691,18.950886 4.364517,19 4.5,19 Z m 13,-4 -14,0 C 3.223,15 3,14.777 3,14.5 3,14.223 3.223,14 3.5,14 l 14,0 c 0.277,0 0.5,0.223 0.5,0.5 0,0.277 -0.223,0.5 -0.5,0.5 z"/>
</svg>