<svg fill="#000000" height="30" viewBox="0 0 30 30" width="30" xmlns="http://www.w3.org/2000/svg">
<path d="m 15,1 c -0.379101,-2e-8 -0.691536,0.1836352 -0.962891,0.4160156 -0.271355,0.2323805 -0.518573,0.5337731 -0.765625,0.8828125 -0.494104,0.6980789 -0.981118,1.5970439 -1.457031,2.5195313 -0.475912,0.9224874 -0.939737,1.8672732 -1.357422,2.625 C 10.039347,8.2010862 9.6078695,8.7811224 9.4589844,8.8867188 9.3100993,8.9923151 8.6065691,9.2153283 7.7382812,9.3691406 6.8699934,9.5229529 5.8071279,9.6616368 4.7617188,9.8183594 3.7163096,9.9750819 2.6901635,10.148192 1.859375,10.390625 c -0.4153942,0.121216 -0.782256,0.25779 -1.09179688,0.4375 -0.30954088,0.17971 -0.59012291,0.412413 -0.7109375,0.775391 -0.12081473,0.362977 -0.03396306,0.717423 0.109375,1.042968 0.14333807,0.325546 0.35938854,0.647212 0.62304688,0.984375 0.5273167,0.674326 1.2523511,1.406012 2.0039063,2.132813 0.7515551,0.726801 1.5292826,1.446172 2.1386718,2.068359 0.6093893,0.622188 1.0436349,1.208791 1.0976563,1.371094 0.054021,0.162303 0.055787,0.881986 -0.0625,1.734375 -0.1182874,0.852389 -0.313934,1.880916 -0.484375,2.900391 -0.1704411,1.019474 -0.3172746,2.027513 -0.3378907,2.876953 -0.010308,0.424719 0.00967,0.810113 0.089844,1.15625 0.080174,0.346137 0.2249135,0.682304 0.5351562,0.902344 0.310243,0.220038 0.6718329,0.246963 1.0292969,0.214843 0.357464,-0.03212 0.7354392,-0.131185 1.1445313,-0.271484 0.8181842,-0.280599 1.7531587,-0.730027 2.6933594,-1.203125 0.9402,-0.473098 1.882847,-0.970057 2.677734,-1.34375 0.794887,-0.373693 1.496121,-0.59961 1.685547,-0.59961 0.189426,0 0.89066,0.225917 1.685547,0.59961 0.794886,0.373693 1.737534,0.870652 2.677734,1.34375 0.940201,0.473098 1.875175,0.922526 2.69336,1.203125 0.409092,0.140299 0.787067,0.239365 1.144531,0.271484 0.357464,0.03212 0.719054,0.0052 1.029297,-0.214843 0.310243,-0.220039 0.454982,-0.556207 0.535156,-0.902344 0.08017,-0.346137 0.100152,-0.731531 0.08984,-1.15625 -0.02062,-0.849439 -0.16745,-1.857479 -0.337891,-2.876953 -0.170441,-1.019475 -0.366088,-2.048002 -0.484375,-2.900391 -0.118287,-0.852389 -0.116521,-1.572072 -0.0625,-1.734375 0.05402,-0.162303 0.488267,-0.748906 1.097656,-1.371094 0.60939,-0.622187 1.387117,-1.341558 2.138672,-2.068359 0.751555,-0.726801 1.47659,-1.458487 2.003907,-2.132813 0.263658,-0.337163 0.479708,-0.658829 0.623046,-0.984375 0.143338,-0.325545 0.23019,-0.679991 0.109375,-1.042968 -0.120814,-0.362978 -0.401396,-0.595682 -0.710937,-0.775391 -0.309541,-0.179709 -0.676403,-0.316284 -1.091797,-0.4375 C 27.309837,10.148193 26.28369,9.975082 25.238281,9.8183594 24.192872,9.6616368 23.130006,9.522953 22.261719,9.3691406 21.393431,9.2153283 20.689901,8.992315 20.541016,8.8867188 20.392131,8.7811225 19.960653,8.2010862 19.542969,7.4433594 19.125284,6.6856325 18.661459,5.7408468 18.185547,4.8183594 17.709634,3.8958719 17.22262,2.996907 16.728516,2.2988281 16.481463,1.9497887 16.234246,1.6483961 15.962891,1.4160156 15.691536,1.1836352 15.379101,1 15,1 Z m 0.3125,1.1757812 c 0.171182,0.1465954 0.380928,0.3902616 0.599609,0.6992188 0.437364,0.6179143 0.915369,1.4924852 1.384766,2.4023438 0.469397,0.9098585 0.932932,1.8571059 1.369141,2.6484374 0.436208,0.7913316 0.786588,1.4168097 1.294922,1.7773438 0.508333,0.360534 1.222205,0.49012 2.126953,0.650391 0.904748,0.160271 1.970084,0.298432 3.001953,0.453125 1.031868,0.154692 2.032328,0.329228 2.771484,0.544921 0.369578,0.107847 0.672713,0.227758 0.869141,0.341797 0.309235,0.136171 0.269531,0.382501 0.187502,0.550782 -0.08913,0.202423 -0.260667,0.47292 -0.494141,0.771484 -0.466949,0.597128 -1.170621,1.312231 -1.912109,2.029297 -0.741489,0.717066 -1.522292,1.438624 -2.158203,2.08789 -0.635912,0.649267 -1.135018,1.161995 -1.332032,1.753907 -0.197013,0.591912 -0.102131,1.298669 0.02148,2.189453 0.123615,0.890784 0.320204,1.922398 0.488281,2.927734 0.168077,1.005337 0.306024,1.986637 0.324219,2.736328 0.0091,0.374846 -0.01284,0.691865 -0.0625,0.90625 C 23.709624,28 23.5,28 23.291013,27.992191 23.062268,27.971641 22.744743,27.896281 22.380856,27.771487 21.653086,27.521892 20.740361,27.087983 19.8125,26.621094 18.884639,26.154205 17.939973,25.653235 17.111328,25.263672 16.282683,24.874108 15.622941,24.570312 15,24.570312 c -0.622941,0 -1.282683,0.303796 -2.111328,0.69336 -0.828645,0.389563 -1.773311,0.890533 -2.701172,1.357422 -0.9278611,0.466889 -1.8405862,0.900798 -2.5683594,1.15039 C 7.255254,27.896281 6.9377291,27.971634 6.7089844,27.992188 6.3954027,28 6.2768795,27.882604 6.2070312,27.646481 6.1573742,27.432096 6.1354332,27.115077 6.1445312,26.740231 6.1627264,25.990543 6.3006726,25.009243 6.46875,24.003906 6.6368274,22.99857 6.8334157,21.966956 6.9570312,21.076172 7.0806468,20.185388 7.1755293,19.478631 6.9785156,18.886719 6.7815017,18.294807 6.2823957,17.782079 5.6464844,17.132812 5.010573,16.483546 4.22977,15.761988 3.4882812,15.044922 2.7467925,14.327856 2.0431205,13.612753 1.5761719,13.015625 1.3426975,12.717061 1.1711583,12.446564 1.0820312,12.244141 0.95460277,12 1.0994035,11.791582 1.269531,11.693359 1.4659584,11.57932 1.7690939,11.459409 2.1386717,11.351562 2.8778272,11.135869 3.8782877,10.961333 4.910156,10.806641 5.9420246,10.651948 7.0073614,10.513787 7.9121094,10.353516 8.8168573,10.193245 9.5307289,10.063659 10.039062,9.703125 10.547396,9.3425909 10.897776,8.7171128 11.333984,7.9257812 11.770193,7.1344497 12.233728,6.1872023 12.703125,5.2773438 13.172522,4.3674852 13.650527,3.4929143 14.087891,2.875 14.306572,2.5660429 14.516318,2.3223766 14.6875,2.1757812 15,1.9166755 15.140375,2 15.3125,2.1757812 Z"/>
</svg>