<svg fill="#000000" height="30" viewBox="0 0 30 30" width="30" xmlns="http://www.w3.org/2000/svg">
<path d="m 4.5,21.999999 c -1.6137747,0 -2.5969382,0.884211 -3.0413115,1.867188 -0.4443732,0.982976 -0.458667,2.047807 -0.458667,2.632812 0,0.497157 -0.11395092,1.141466 -0.28544158,1.664062 -0.11211419,0.418434 -0.30483618,0.795858 -0.4628707,0.902344 -0.44436969,0.255409 -0.26254561,0.934438 0.24998924,0.933594 L 4,29.999999 c 1.4154818,0 2.4570036,-0.727623 3.0893055,-1.568359 0.6323019,-0.840737 0.9106729,-1.759308 0.9106729,-2.431641 0,-0.525004 -0.01048,-1.479863 -0.4673326,-2.361328 C 7.0757932,22.757206 6.0921348,21.999999 4.5,21.999999 Z m 0,1 c 1.3066182,0 1.8256177,0.485289 2.1440122,1.099609 0.3183946,0.61432 0.3560094,1.408535 0.3560094,1.900391 0,0.344527 -0.2188131,1.175029 -0.7114628,1.830078 C 5.7959091,28.485126 5.0844106,28.999999 4,28.999999 l -2.5608419,0 c 0.077836,-0.170786 0.1611364,-0.331994 0.2245998,-0.525391 0.2034931,-0.62012 0.3362206,-1.331312 0.3362206,-1.974609 0,-0.555449 0.039906,-1.490746 0.3707801,-2.222656 C 2.7016326,23.545433 3.2150217,22.999999 4.5,22.999999 Z M 29.424281,0.00195234 C 29.322359,-0.0038262 29.242169,0.00753111 29.160621,0.02343671 28.997525,0.05524791 28.82953,0.11171565 28.627441,0.18945233 28.223263,0.3449257 27.697709,0.59120763 27.061102,0.92187421 25.787889,1.5832074 24.077151,2.5796735 22.149204,3.824218 18.293309,6.3133069 13.576391,9.7860719 9.8450463,13.517577 c -1.310273,1.31033 -1.8569832,2.706081 -1.8450248,3.972656 0.011958,1.266576 0.5686589,2.377877 1.3509054,3.160157 0.7822461,0.782281 1.8825521,1.33765 3.1490731,1.349609 1.266522,0.01196 2.673159,-0.53342 3.983432,-1.84375 3.731345,-3.731505 7.20396,-8.448627 9.692942,-12.3046873 1.244491,-1.9280303 2.240915,-3.6388419 2.902219,-4.9121094 0.330653,-0.6366337 0.576923,-1.1622109 0.732391,-1.5664062 0.07774,-0.2020977 0.134198,-0.3701001 0.166007,-0.53320314 0.01591,-0.0815515 0.02726,-0.16174476 0.02148,-0.26367187 -0.0058,-0.10192712 -0.0234,-0.25387938 -0.171863,-0.40234376 C 29.67815,0.02536349 29.526204,0.00773087 29.424281,0.00195234 Z M 28.781731,1.2187492 C 28.643977,1.551463 28.467382,1.9481288 28.191912,2.4785148 27.551339,3.7118679 26.566784,5.4026758 25.336567,7.308593 22.876132,11.120427 19.4289,15.796592 15.776432,19.449218 14.615661,20.610038 13.478616,21.009239 12.5,20.999999 11.521384,20.990799 10.673514,20.558972 10.057928,19.943358 9.4423408,19.327745 9.0092185,18.459126 8.9999785,17.480468 8.9907385,16.50181 9.391277,15.385429 10.552047,14.224608 14.204515,10.571982 18.880479,7.1246025 22.692149,4.6640617 24.597984,3.4337913 26.288719,2.4491946 27.522019,1.808593 28.052382,1.5331113 28.449031,1.3565094 28.781731,1.2187492 Z"/>
</svg>