<svg fill="#000000" height="30" viewBox="0 0 30 30" width="30" xmlns="http://www.w3.org/2000/svg">
<path d="M 12.5,15 A 0.50005,0.50005 0 0 0 12,15.5 l 0,5 a 0.50005,0.50005 0 0 0 0.5,0.5 l 2,0 c 0.823035,0 1.669468,-0.173186 2.349609,-0.650391 C 17.52975,19.872405 18,19.057015 18,18 18,16.942985 17.52975,16.127595 16.849609,15.650391 16.169468,15.173186 15.323035,15 14.5,15 l -2,0 z m 0.5,1 1.5,0 c 0.676965,0 1.330532,0.156626 1.775391,0.46875 C 16.72025,16.780874 17,17.214329 17,18 17,18.785671 16.72025,19.219126 16.275391,19.53125 15.830532,19.843374 15.176965,20 14.5,20 L 13,20 13,16 Z M 10.5,7 c -0.276131,2.76e-5 -0.499972,0.2238691 -0.5,0.5 l 0,15 c 2.8e-5,0.276131 0.223869,0.499972 0.5,0.5 l 4.5,0 c 1.638889,0 2.919686,-0.700571 3.753906,-1.673828 C 19.588126,20.352915 20,19.125 20,18 20,15.899272 18.733864,14.811582 18.222195,14.435547 18.365094,14.24605 18.317937,14.318183 18.441406,14.087891 18.731314,13.547163 19,12.708262 19,11.5 19,10.416667 18.732717,9.2972296 18.009766,8.4296875 17.286814,7.5621454 16.111111,7 14.5,7 Z m 0.5,1 3.5,0 c 1.388889,0 2.213186,0.4378546 2.740234,1.0703125 C 17.767283,9.7027704 18,10.583333 18,11.5 c 0,1.061397 -0.231314,1.723377 -0.441406,2.115234 -0.210092,0.391858 -0.353516,0.480469 -0.353516,0.480469 -0.287356,0.209728 -0.269988,0.64397 0.0332,0.830078 0,0 1.761719,1.098291 1.761719,3.074219 0,0.875 -0.338126,1.897085 -1.003906,2.673828 C 17.330314,21.450571 16.361111,22 15,22 l -4,0 z m 1.5,1 A 0.50005,0.50005 0 0 0 12,9.5 l 0,4 a 0.50005,0.50005 0 0 0 0.5,0.5 l 2,0 c 0.861111,0 1.536814,-0.312145 1.947266,-0.804688 C 16.857717,12.70277 17,12.083333 17,11.5 17,10.916667 16.857717,10.29723 16.447266,9.8046875 16.036814,9.3121454 15.361111,9 14.5,9 l -2,0 z m 0.5,1 1.5,0 c 0.638889,0 0.963186,0.187855 1.177734,0.445312 C 15.892283,10.70277 16,11.083333 16,11.5 16,11.916667 15.892283,12.29723 15.677734,12.554688 15.463186,12.812145 15.138889,13 14.5,13 L 13,13 13,10 Z M 1.5,0 C 0.67764862,0 0,0.67764862 0,1.5 l 0,27 C 0,29.322351 0.67764862,30 1.5,30 l 27,0 c 0.822351,0 1.5,-0.677649 1.5,-1.5 l 0,-27 C 30,0.67764862 29.322351,0 28.5,0 l -27,0 z m 0,1 27,0 C 28.785649,1 29,1.2143514 29,1.5 l 0,27 c 0,0.285649 -0.214351,0.5 -0.5,0.5 l -27,0 C 1.2143514,29 1,28.785649 1,28.5 L 1,1.5 C 1,1.2143514 1.2143514,1 1.5,1 Z"/>
</svg>