<svg fill="#000000" height="30" viewBox="0 0 30 30" width="30" xmlns="http://www.w3.org/2000/svg">
<path d="m 19.5,10 c 0.277,0 0.5,0.223 0.5,0.5 l 0,3 C 20,13.777 19.777,14 19.5,14 19.223,14 19,13.777 19,13.5 l 0,-3 C 19,10.223 19.223,10 19.5,10 Z m -9,0 c 0.277,0 0.5,0.223 0.5,0.5 l 0,3 C 11,13.777 10.777,14 10.5,14 10.223,14 10,13.777 10,13.5 l 0,-3 C 10,10.223 10.223,10 10.5,10 Z m 4.499999,10 c -2.10354,0 -4.185768,0.755925 -5.7979688,2.103616 -0.5416486,0.39935 0.1475506,1.222973 0.6381657,0.760716 C 11.268025,21.670765 13.137022,21 14.999999,21 c 1.862976,0 3.731974,0.670765 5.159803,1.864332 0.47799,0.450367 1.1758,-0.364332 0.638165,-0.760716 C 19.185766,20.755925 17.103538,20 14.999999,20 Z M 15,0 C 6.7216511,0 0,6.7216511 0,15 0,23.278349 6.7216511,30 15,30 23.278349,30 30,23.278349 30,15 30,6.7216511 23.278349,0 15,0 Z m 0,1 C 22.737909,1 29,7.2620912 29,15 29,22.737909 22.737909,29 15,29 7.2620912,29 1,22.737909 1,15 1,7.2620912 7.2620912,1 15,1 Z"/>
</svg>