<svg fill="#000000" height="30" viewBox="0 0 30 30" width="30" xmlns="http://www.w3.org/2000/svg">
<path d="M 1.5,11 C 0.67764862,11 0,11.677649 0,12.5 l 0,15 C 0,28.322351 0.67764862,29 1.5,29 l 7,0 C 9.3223514,29 10,28.322351 10,27.5 l 0,-15 C 10,11.677649 9.3223514,11 8.5,11 Z m 0,1 7,0 C 8.7856486,12 9,12.214351 9,12.5 l 0,15 C 9,27.785649 8.7856486,28 8.5,28 l -7,0 C 1.2143514,28 1,27.785649 1,27.5 l 0,-15 C 1,12.214351 1.2143514,12 1.5,12 Z M 17.5,1 C 17.138177,1 16.780928,1.039695 16.441406,1.1894531 16.101885,1.3392114 15.798153,1.6068015 15.583984,1.9707031 15.155648,2.6985064 15,3.7656237 15,5.5 c 0,3.1542205 -2.268891,5.578349 -3.777344,6.583984 -0.529366,0.34109 0.01988,1.200764 0.554688,0.832032 C 13.268891,11.921651 16,9.144508 16,5.5 c 0,-1.6649881 0.196742,-2.5991288 0.445312,-3.0214844 0.124286,-0.2111778 0.2418,-0.305909 0.398438,-0.375 C 17.000388,2.0344246 17.215636,2 17.5,2 17.976788,2 18.248027,2.157516 18.53125,2.765625 18.814473,3.373734 19,4.4437921 19,6 19,8.9772212 17.121094,12.173828 17.121094,12.173828 16.842241,12.497955 17.072428,12.999859 17.5,13 l 10,0 c 0.581037,0 0.924774,0.148206 1.144531,0.375 C 28.864288,13.601794 29,13.956403 29,14.5 c 0,0.995859 -0.796875,1.597656 -0.796875,1.597656 -0.272931,0.201701 -0.269945,0.610898 0.0059,0.808594 0,0 0.791016,0.568544 0.791016,1.59375 0,1.025206 -0.791016,1.59375 -0.791016,1.59375 -0.302296,0.218 -0.268443,0.678192 0.0625,0.849609 0,0 0.728516,0.343198 0.728516,1.306641 0,0.963443 -0.728516,1.306641 -0.728516,1.306641 -0.354024,0.183215 -0.361838,0.686747 -0.01367,0.880859 0,0 0.742188,0.395048 0.742188,1.3125 0,0.458726 -0.163561,0.723361 -0.429688,0.927734 C 28.304186,26.882108 27.907688,27 27.5,27 l -16,0 c -0.676592,0 -0.642456,1 0,1 l 16,0 c 0.592312,0 1.195814,-0.157703 1.679688,-0.529297 C 29.663561,27.099109 30,26.487403 30,25.75 30,24.875889 29.613825,24.352834 29.253906,24.003906 29.615759,23.657006 30,23.133698 30,22.25 30,21.323513 29.587096,20.804572 29.216797,20.466797 29.574159,20.087528 30,19.499515 30,18.5 30,17.457447 29.54167,16.863491 29.183594,16.498047 29.539594,16.131496 30,15.534697 30,14.5 30,13.783259 29.807189,13.137809 29.363281,12.679688 28.919373,12.221566 28.264302,12 27.5,12 l -9.085938,0 C 19.012489,11.1528 20,8.5394462 20,6 20,4.3697672 19.831184,3.1890308 19.4375,2.34375 19.043816,1.4984692 18.315585,1 17.5,1 Z"/>
</svg>