<svg fill="#000000" height="30" viewBox="0 0 30 30" width="30" xmlns="http://www.w3.org/2000/svg">
<path d="M 27.5,18 C 27.223,18 27,18.223 27,18.5 l 0,3 c 0,0.277 0.223,0.5 0.5,0.5 0.277,0 0.5,-0.223 0.5,-0.5 l 0,-3 C 28,18.223 27.777,18 27.5,18 Z m 0,-5 C 27.223,13 27,13.223 27,13.5 l 0,3 c 0,0.277 0.223,0.5 0.5,0.5 0.277,0 0.5,-0.223 0.5,-0.5 l 0,-3 C 28,13.223 27.777,13 27.5,13 Z m 2,10 -2,0 c -0.277,0 -0.5,0.223 -0.5,0.5 0,0.277 0.223,0.5 0.5,0.5 l 2,0 C 29.777,24 30,23.777 30,23.5 30,23.223 29.777,23 29.5,23 Z M 27.5,8 C 27.223,8 27,8.223 27,8.5 l 0,3 c 0,0.277 0.223,0.5 0.5,0.5 0.277,0 0.5,-0.223 0.5,-0.5 l 0,-3 C 28,8.223 27.777,8 27.5,8 Z m 2,-2 -2,0 C 27.223,6 27,6.223 27,6.5 27,6.777 27.223,7 27.5,7 l 2,0 C 29.777,7 30,6.777 30,6.5 30,6.223 29.777,6 29.5,6 Z M 2.5,18 C 2.777,18 3,18.223 3,18.5 l 0,3 C 3,21.777 2.777,22 2.5,22 2.223,22 2,21.777 2,21.5 l 0,-3 C 2,18.223 2.223,18 2.5,18 Z m 0,-5 C 2.777,13 3,13.223 3,13.5 l 0,3 C 3,16.777 2.777,17 2.5,17 2.223,17 2,16.777 2,16.5 l 0,-3 C 2,13.223 2.223,13 2.5,13 Z m -2,10 2,0 C 2.777,23 3,23.223 3,23.5 3,23.777 2.777,24 2.5,24 l -2,0 C 0.223,24 0,23.777 0,23.5 0,23.223 0.223,23 0.5,23 Z M 2.5,8 C 2.777,8 3,8.223 3,8.5 l 0,3 C 3,11.777 2.777,12 2.5,12 2.223,12 2,11.777 2,11.5 l 0,-3 C 2,8.223 2.223,8 2.5,8 Z m -2,-2 2,0 C 2.777,6 3,6.223 3,6.5 3,6.777 2.777,7 2.5,7 l -2,0 C 0.223,7 0,6.777 0,6.5 0,6.223 0.223,6 0.5,6 Z m 5,0 C 4.6776486,6 4,6.6776486 4,7.5 l 0,15 C 4,23.322351 4.6776486,24 5.5,24 l 19,0 c 0.822351,0 1.5,-0.677649 1.5,-1.5 l 0,-15 C 26,6.6776486 25.322351,6 24.5,6 l -19,0 z m 0,1 19,0 C 24.785649,7 25,7.2143514 25,7.5 l 0,15 c 0,0.285649 -0.214351,0.5 -0.5,0.5 l -19,0 C 5.2143514,23 5,22.785649 5,22.5 L 5,7.5 C 5,7.2143514 5.2143514,7 5.5,7 Z m 7.355469,3.064003 C 12.350247,10.227476 12,10.743991 12,11.311904 l 0,7.373962 c 0,0.57379 0.354151,1.094547 0.861328,1.25377 0.507178,0.159222 1.081826,-0.0034 1.574219,-0.40684 l 3.5625,-2.918289 C 18.582545,16.135578 18.998064,15.622514 19,15 19.0019,14.377487 18.58548,13.854522 17.994141,13.379352 17.36542,12.874143 15.624134,11.436926 14.435547,10.463018 13.938982,10.056141 13.36069,9.9005279 12.855469,10.064003 Z m 0.947265,1.17553 c 1.185961,0.971757 2.91712,2.400081 3.564454,2.920246 C 17.85172,14.549124 18.000534,14.828189 18,15 c -5.34e-4,0.171811 -0.155225,0.445419 -0.636719,0.839947 l -3.560547,2.918289 C 13.364405,19.197201 13,18.94124 13,18.685866 l 0,-7.373962 c 0,-0.543106 0.475555,-0.400024 0.802734,-0.07237 z"/>
</svg>