<svg fill="#000000" height="30" viewBox="0 0 30 30" width="30" xmlns="http://www.w3.org/2000/svg">
<path d="m 27.484481,12.000249 a 0.49983936,0.49967784 0 0 0 -0.343605,0.15223 l -8.496419,8.58345 c -0.04302,0.04347 -0.214261,0.120539 -0.39827,0.121004 -0.184008,4.66e-4 -0.346339,-0.07517 -0.384603,-0.115148 l -3.998315,-4.176577 c -0.307287,-0.320994 -0.71755,-0.424536 -1.108908,-0.423513 -0.391358,9.99e-4 -0.798408,0.106291 -1.106956,0.417658 L 2.1514072,26.14206 a 0.49983936,0.49967784 0 1 0 0.7106381,0.702601 l 9.4959987,-9.582706 c 0.04319,-0.04358 0.214266,-0.120522 0.398269,-0.121004 0.184003,-4.82e-4 0.346337,0.07517 0.384604,0.115148 l 3.998315,4.176578 c 0.307288,0.320995 0.717506,0.424502 1.108908,0.423512 0.391402,-9.9e-4 0.79844,-0.105981 1.106955,-0.417658 l 8.49642,-8.583451 A 0.49983936,0.49967784 0 0 0 27.484481,12.000249 Z M 26.5,10 c -0.664494,0 -0.652331,1 0,1 l 2.5,0 0,2.5 c 0,0.672436 1,0.652329 1,0 l 0,-3 C 29.999972,10.223869 29.776131,10.000028 29.5,10 Z M 0.5,0 C 0.22385501,0.00430867 -0.00432086,0.2238552 0,0.5 l 0,29 c 2.7608953e-5,0.276131 0.22386906,0.499972 0.5,0.5 l 29,0 c 0.676161,0.0096 0.676161,-1.009563 0,-1 L 1,29 1,0.5 C 1.0044168,0.21773363 0.78226637,-0.00441684 0.5,0 Z"/>
</svg>