<svg fill="#000000" height="30" viewBox="0 0 30 30" width="30" xmlns="http://www.w3.org/2000/svg">
<path d="m 29.484375,0 a 0.50005,0.50005 0 0 0 -0.05078,0.00390625 l -15,1.99999995 A 0.50005,0.50005 0 0 0 14,2.5 l 0,11 a 0.50005,0.50005 0 0 0 0.5,0.5 l 15,0 A 0.50005,0.50005 0 0 0 30,13.5 l 0,-13 A 0.50005,0.50005 0 0 0 29.484375,0 Z M 29,1.0722656 29,13 15,13 15,2.9375 29,1.0722656 Z M 14.5,16 A 0.50005,0.50005 0 0 0 14,16.5 l 0,10.806641 a 0.50005,0.50005 0 0 0 0.427734,0.49414 l 15,2.19336 A 0.50005,0.50005 0 0 0 30,29.5 l 0,-13 A 0.50005,0.50005 0 0 0 29.5,16 l -15,0 z M 15,17 29,17 29,28.921875 15,26.875 15,17 Z M 0.5,16 A 0.50005,0.50005 0 0 0 0,16.5 l 0,8 a 0.50005,0.50005 0 0 0 0.41015625,0.492188 l 10.99999975,2 A 0.50005,0.50005 0 0 0 12,26.5 l 0,-10 A 0.50005,0.50005 0 0 0 11.5,16 l -11,0 z M 1,17 11,17 11,25.900391 1,24.082031 1,17 Z M 11.484375,3 a 0.50005,0.50005 0 0 0 -0.07422,0.00781 l -10.99999975,2 A 0.50005,0.50005 0 0 0 0,5.5 l 0,8 A 0.50005,0.50005 0 0 0 0.5,14 l 11,0 A 0.50005,0.50005 0 0 0 12,13.5 l 0,-10 A 0.50005,0.50005 0 0 0 11.484375,3 Z M 11,4.0996094 11,13 1,13 1,5.9179688 11,4.0996094 Z"/>
</svg>