<svg fill="#000000" height="30" viewBox="0 0 30 30" width="30" xmlns="http://www.w3.org/2000/svg">
<path d="M 17.96875,2 C 17.827198,2.00184 17.693056,2.063583 17.599609,2.1699219 L 14.429688,5.8105469 12.3125,4.1171875 c -0.182673,-0.1462314 -0.442327,-0.1462314 -0.625,0 L 9.1777344,6.109375 c -0.489765,0.3887629 0.1327492,1.1750507 0.625,0.78125 L 12,5.1484375 14.177734,6.890625 c 0.208918,0.1678115 0.512983,0.1411089 0.689454,-0.060547 L 18,3.2324218 21.609375,6.8496093 c 0.180118,0.1802668 0.466986,0.1962504 0.666015,0.037109 l 2.177735,-1.7167969 1.683594,1.6835937 c 0.448225,0.466864 1.173895,-0.2588052 0.707031,-0.7070307 l -2,-2 C 24.663632,3.9662169 24.376764,3.950233 24.177734,4.109375 L 22,5.8261719 18.328125,2.1464844 C 18.232938,2.0512674 18.103377,1.9984572 17.96875,2 Z M 9.5,13 l 16,0 c 0.277,0 0.5,0.223 0.5,0.5 0,0.277 -0.223,0.5 -0.5,0.5 l -16,0 C 9.223,14 9,13.777 9,13.5 9,13.223 9.223,13 9.5,13 Z M 0.49023438,5 c -0.63717687,0 -0.66444609,1 0,1 L 4.0859375,6 c 0.074687,0.355269 0.6426559,3.0549143 1.3164063,6.228516 0.3583214,1.68782 0.7235276,3.407092 1.0175781,4.767578 0.2940505,1.360486 0.5057849,2.32639 0.5878906,2.632812 0.1325297,0.494608 0.2557717,1.056534 0.6191406,1.544922 C 7.990322,21.662216 8.6291233,22 9.4902344,22 l 15.9999996,0 c 0.861111,0 1.499913,-0.337784 1.863282,-0.826172 0.363369,-0.488388 0.488564,-1.050314 0.621093,-1.544922 0.143695,-0.536276 0.541928,-2.254107 0.947266,-3.992187 0.405338,-1.73808 0.817152,-3.495261 0.941406,-3.958985 0.151602,-0.565785 0.202017,-1.155501 0.02148,-1.6894528 C 29.704234,9.4543296 29.164846,9 28.490234,9 L 8.4902344,9 c -0.6338794,0 -0.6566336,1 0,1 l 19.9999996,0 c 0.325389,0 0.36616,0.06871 0.447266,0.308594 0.08111,0.239883 0.07533,0.67516 -0.04102,1.109375 -0.143694,0.536276 -0.541927,2.254107 -0.947265,3.992187 -0.405338,1.73808 -0.817152,3.497214 -0.941407,3.960938 -0.135419,0.505392 -0.260434,0.943466 -0.455078,1.205078 C 26.358091,20.837784 26.129123,21 25.490234,21 L 9.4902344,21 C 8.8513455,21 8.6243313,20.837784 8.4296875,20.576172 8.2350437,20.31456 8.1100287,19.876486 7.9746094,19.371094 7.9227405,19.177516 7.6920072,18.143418 7.3984375,16.785156 7.1048678,15.426895 6.7370912,13.708661 6.3789062,12.021484 5.6625364,8.6471302 4.9804688,5.3964844 4.9804688,5.3964844 4.9314583,5.1649734 4.7268758,4.9995142 4.4902344,5 Z M 10.5,17 l 14,0 c 0.277,0 0.5,0.223 0.5,0.5 0,0.277 -0.223,0.5 -0.5,0.5 l -14,0 C 10.223,18 10,17.777 10,17.5 10,17.223 10.223,17 10.5,17 Z m 13,6 C 22.125211,23 21,24.12521 21,25.5 21,26.87479 22.125211,28 23.5,28 24.87479,28 26,26.87479 26,25.5 26,24.12521 24.87479,23 23.5,23 Z m 0,1 C 24.33435,24 25,24.665651 25,25.5 25,26.334349 24.33435,27 23.5,27 22.665651,27 22,26.334349 22,25.5 22,24.665651 22.665651,24 23.5,24 Z m -12,-1 c -1.374789,0 -2.4999996,1.125211 -2.4999996,2.5 0,1.374789 1.1252106,2.5 2.4999996,2.5 C 12.87479,28 14,26.87479 14,25.5 14,24.12521 12.87479,23 11.5,23 Z m 0,1 C 12.33435,24 13,24.665651 13,25.5 13,26.334349 12.33435,27 11.5,27 10.665651,27 10,26.334349 10,25.5 10,24.665651 10.665651,24 11.5,24 Z"/>
</svg>