<svg fill="#000000" height="30" viewBox="0 0 30 30" width="30" xmlns="http://www.w3.org/2000/svg">
<path d="M 12.855469,10.064003 C 12.350247,10.227476 12,10.743991 12,11.311904 l 0,7.373962 c 0,0.57379 0.354151,1.094547 0.861328,1.25377 0.507178,0.159222 1.081826,-0.0034 1.574219,-0.40684 l 3.5625,-2.918289 C 18.582545,16.135578 18.998064,15.622514 19,15 19.0019,14.377487 18.58548,13.854522 17.994141,13.379352 17.36542,12.874143 15.624134,11.436926 14.435547,10.463018 13.938982,10.056141 13.36069,9.900528 12.855469,10.064003 Z m 0.947265,1.17553 c 1.185961,0.971757 2.91712,2.400081 3.564454,2.920246 C 17.85172,14.549124 18.000534,14.828189 18,15 c -5.34e-4,0.171811 -0.155225,0.445419 -0.636719,0.839947 l -3.560547,2.918289 C 13.364405,19.197201 13,18.94124 13,18.685866 l 0,-7.373962 c 0,-0.543106 0.475555,-0.400024 0.802734,-0.07237 z M 1.5,4 C 0.67764862,4 0,4.6776486 0,5.5 l 0,19 C 0,25.322351 0.67764862,26 1.5,26 l 27,0 c 0.822351,0 1.5,-0.677649 1.5,-1.5 l 0,-19 C 30,4.6776486 29.322351,4 28.5,4 l -27,0 z m 0,1 27,0 C 28.785649,5 29,5.2143514 29,5.5 l 0,19 c 0,0.285649 -0.214351,0.5 -0.5,0.5 l -27,0 C 1.2143514,25 1,24.785649 1,24.5 L 1,5.5 C 1,5.2143514 1.2143514,5 1.5,5 Z"/>
</svg>