<svg fill="#000000" height="30" viewBox="0 0 30 30" width="30" xmlns="http://www.w3.org/2000/svg">
<path d="M 10.5,16 C 9.1252103,16 8,17.125211 8,18.5 c 6.089e-4,0.769723 0.4060018,1.444602 1,1.914062 L 9,22.5 c 0,0.822351 0.6776486,1.5 1.5,1.5 0.822351,0 1.5,-0.677649 1.5,-1.5 l 0,-2.087891 C 12.593505,19.943174 12.998641,19.268973 13,18.5 13,17.125211 11.874789,16 10.5,16 Z m 0,1 c 0.834349,0 1.5,0.665651 1.5,1.5 -9.47e-4,0.535746 -0.286029,1.02705 -0.75,1.294922 A 0.50005,0.50005 0 0 0 11,20.228516 L 11,22.5 C 11,22.785649 10.785649,23 10.5,23 10.214351,23 10,22.785649 10,22.5 l 0,-2.269531 A 0.50005,0.50005 0 0 0 9.75,19.796875 C 9.2855735,19.528738 9.0004242,19.036273 9,18.5 9,17.665651 9.6656507,17 10.5,17 Z m -9,-6 C 0.67764862,11 0,11.677649 0,12.5 l 0,15 C 0,28.322351 0.67764862,29 1.5,29 l 18,0 c 0.822351,0 1.5,-0.677649 1.5,-1.5 l 0,-15 C 21,11.677649 20.322351,11 19.5,11 l -18,0 z m 0,1 18,0 c 0.285649,0 0.5,0.214351 0.5,0.5 l 0,15 c 0,0.285649 -0.214351,0.5 -0.5,0.5 l -18,0 C 1.2143514,28 1,27.785649 1,27.5 l 0,-15 C 1,12.214351 1.2143514,12 1.5,12 Z M 22.5,1 C 18.363787,1 15,4.3637867 15,8.5 l 0,1 c 0,0.672329 1,0.656632 1,0 l 0,-1 C 16,4.9042269 18.904227,2 22.5,2 26.095773,2 29,4.9042269 29,8.5 l 0,1 c 0,0.676235 1.009286,0.656634 1,0 l 0,-1 C 30,4.3637867 26.636213,1 22.5,1 Z"/>
</svg>