<svg fill="#000000" height="30" viewBox="0 0 30 30" width="30" xmlns="http://www.w3.org/2000/svg">
<path d="m 22.5,19 c -1.37479,0 -2.5,1.12521 -2.5,2.5 0,1.37479 1.12521,2.5 2.5,2.5 0.574179,-6.48e-4 1.059475,-0.245707 1.5,-0.601037 C 24.440525,23.754293 24.925821,23.999352 25.5,24 26.87479,24 28,22.87479 28,21.5 28,20.12521 26.87479,19 25.5,19 24.925821,19.000648 24.440525,19.240089 24,19.595419 23.559475,19.240089 23.074179,19.000648 22.5,19 Z m 0,1 c 0.431086,4.87e-4 0.840416,0.185964 1.125,0.509766 0.199071,0.225674 0.550929,0.225674 0.75,0 C 24.659584,20.185964 25.068914,20.000487 25.5,20 c 0.834349,0 1.5,0.665651 1.5,1.5 0,0.834349 -0.665651,1.5 -1.5,1.5 -0.431086,-4.87e-4 -0.840416,-0.185964 -1.125,-0.509766 -0.199071,-0.225674 -0.550929,-0.225674 -0.75,0 C 23.340416,22.814036 22.931086,22.999513 22.5,23 21.665651,23 21,22.334349 21,21.5 21,20.665651 21.665651,20 22.5,20 Z m -7,1 2,0 c 0.277,0 0.5,0.223 0.5,0.5 0,0.277 -0.223,0.5 -0.5,0.5 l -2,0 C 15.223,22 15,21.777 15,21.5 15,21.223 15.223,21 15.5,21 Z m -4,0 2,0 c 0.277,0 0.5,0.223 0.5,0.5 0,0.277 -0.223,0.5 -0.5,0.5 l -2,0 C 11.223,22 11,21.777 11,21.5 11,21.223 11.223,21 11.5,21 Z m -4,0 2,0 C 9.777,21 10,21.223 10,21.5 10,21.777 9.777,22 9.5,22 l -2,0 C 7.223,22 7,21.777 7,21.5 7,21.223 7.223,21 7.5,21 Z m 7,-5 12,0 c 0.277,0 0.5,0.223 0.5,0.5 0,0.277 -0.223,0.5 -0.5,0.5 l -12,0 C 14.223,17 14,16.777 14,16.5 14,16.223 14.223,16 14.5,16 Z m 5,-3 7,0 c 0.277,0 0.5,0.223 0.5,0.5 0,0.277 -0.223,0.5 -0.5,0.5 l -7,0 C 19.223,14 19,13.777 19,13.5 19,13.223 19.223,13 19.5,13 Z m -5,0 3,0 c 0.277,0 0.5,0.223 0.5,0.5 0,0.277 -0.223,0.5 -0.5,0.5 l -3,0 C 14.223,14 14,13.777 14,13.5 14,13.223 14.223,13 14.5,13 Z m -7,-1 c -0.2761309,2.8e-5 -0.4999724,0.223869 -0.5,0.5 l 0,5 c 2.76e-5,0.276131 0.2238691,0.499972 0.5,0.5 l 4,0 c 0.276131,-2.8e-5 0.499972,-0.223869 0.5,-0.5 l 0,-5 c -2.8e-5,-0.276131 -0.223869,-0.499972 -0.5,-0.5 z m 0.5,1 3,0 0,4 -3,0 z M 6.5,10 C 5.6776486,10 5,10.677649 5,11.5 l 0,13 C 5,25.322351 5.6776486,26 6.5,26 l 22,0 c 0.822351,0 1.5,-0.677649 1.5,-1.5 l 0,-13 C 30,10.677649 29.322351,10 28.5,10 Z m 0,1 22,0 c 0.285649,0 0.5,0.214351 0.5,0.5 l 0,13 c 0,0.285649 -0.214351,0.5 -0.5,0.5 l -22,0 C 6.2143514,25 6,24.785649 6,24.5 l 0,-13 C 6,11.214351 6.2143514,11 6.5,11 Z M 1.5,4 C 0.67764862,4 0,4.6776486 0,5.5 l 0,13 C 0,19.322351 0.67764862,20 1.5,20 l 2,0 c 0.672329,0 0.652966,-1 0,-1 l -2,0 C 1.2143514,19 1,18.785649 1,18.5 L 1,12 2.5,12 C 2.777,12 3,11.777 3,11.5 3,11.223 2.777,11 2.5,11 L 1,11 1,8 25,8 25,8.5 c 0,0.6723983 1,0.6566336 1,0 l 0,-3 C 26,4.6776486 25.322351,4 24.5,4 Z m 0,1 23,0 C 24.785649,5 25,5.2143514 25,5.5 L 25,7 1,7 1,5.5 C 1,5.2143514 1.2143514,5 1.5,5 Z"/>
</svg>