<svg fill="#000000" height="30" viewBox="0 0 30 30" width="30" xmlns="http://www.w3.org/2000/svg">
<path d="M 9.5,11.00005 C 9.2246489,11.000078 9.0000774,11.224649 9.0000499,11.5 l 0,3 C 9.0000499,15.166459 10,15.162587 10,14.5 l 0,-1.798 4.132,4.135036 c 0.469925,0.489387 1.194422,-0.235111 0.705035,-0.705036 L 10.7,12 12.490166,11.9972 c 0.670524,0 0.686194,-0.997176 0,-0.997176 z M 14.5,13 c -0.668825,0 -0.656868,1 0,1 1.386634,0 2.5,1.113366 2.5,2.5 0,1.386634 -1.113366,2.5 -2.5,2.5 -1.386634,0 -2.5,-1.113366 -2.5,-2.5 0,-0.664585 -1,-0.652749 -1,0 0,1.927074 1.572926,3.5 3.5,3.5 C 16.427074,20 18,18.427074 18,16.5 18,14.572926 16.427074,13 14.5,13 Z M 12.5,0 C 12.223,0 12,0.223 12,0.5 12,0.777 12.223,1 12.5,1 L 14,1 14,4.5 C 14,4.777 14.223,5 14.5,5 14.777,5 15,4.777 15,4.5 L 15,4.0214844 C 20.60803,4.2446769 25.406714,8.1768001 26.679688,13.685547 27.990517,19.35812 25.216169,25.178073 19.984375,27.732422 14.752582,30.286771 8.4577133,28.895401 4.7910156,24.373047 1.1243177,19.850692 1.0638446,13.403257 4.6445312,8.8125 5.0546396,8.2864645 4.2656308,7.6712721 3.8554688,8.1972656 -0.00815683,13.150775 0.05723863,20.122251 4.0136719,25.001953 c 3.956433,4.879702 10.7649571,6.385095 16.4101561,3.628906 5.6452,-2.756188 8.644879,-9.049114 7.230469,-15.169921 C 26.27773,7.5038922 21.068854,3.2457303 15,3.0214844 L 15,1 16.5,1 C 16.777,1 17,0.777 17,0.5 17,0.223 16.777,0 16.5,0 l -4,0 z"/>
</svg>