<svg fill="#000000" height="30" viewBox="0 0 30 30" width="30" xmlns="http://www.w3.org/2000/svg">
<path d="m 16,27 a 1.0000001,1.0000001 0 0 1 -1,1 1.0000001,1.0000001 0 0 1 -1,-1 1.0000001,1.0000001 0 0 1 1,-1 1.0000001,1.0000001 0 0 1 1,1 z m -2.5,-25 3,0 C 16.777,2 17,2.223 17,2.5 17,2.777 16.777,3 16.5,3 l -3,0 C 13.223,3 13,2.777 13,2.5 13,2.223 13.223,2 13.5,2 Z M 7.5,0 C 6.6776486,0 6,0.67764862 6,1.5 l 0,27 C 6,29.322351 6.6776486,30 7.5,30 l 15,0 c 0.822351,0 1.5,-0.677649 1.5,-1.5 l 0,-27 C 24,0.67764862 23.322351,0 22.5,0 l -15,0 z m 0,1 15,0 C 22.785649,1 23,1.2143514 23,1.5 l 0,27 c 0,0.285649 -0.214351,0.5 -0.5,0.5 l -15,0 C 7.2143514,29 7,28.785649 7,28.5 L 7,1.5 C 7,1.2143514 7.2143514,1 7.5,1 Z"/>
</svg>