<svg fill="#000000" height="30" viewBox="0 0 30 30" width="30" xmlns="http://www.w3.org/2000/svg">
<path d="M 14.5,30 C 14.223855,29.9957 13.995679,29.776145 14,29.5 l 0,-26 c 0,-0.660681 1,-0.664445 1,0 l 0,26 c 0.0044,0.282266 -0.217734,0.504417 -0.5,0.5 z M 0.5,14.999905 C 0.050598,14.999814 -0.1633974,14.445511 0.1456736,14.146389 L 14.145674,0.14638875 c 0.195265,-0.195185 0.511767,-0.195185 0.707032,0 l 14,14.00000025 c 0.442886,0.425272 -0.247502,1.166562 -0.707032,0.707032 L 14.5,1.2069357 0.8527056,14.853421 C 0.7584956,14.950791 0.635483,14.999905 0.5,14.999905 Z"/>
</svg>