<svg fill="#000000" height="30" viewBox="0 0 30 30" width="30" xmlns="http://www.w3.org/2000/svg">
<path d="m 18.499246,12 c 0.295154,-2.26e-4 0.526087,0.246483 0.497296,0.540267 L 17.99805,24.52365 c -0.05554,0.69311 -1.056124,0.611067 -0.994592,-0.08192 L 18.00195,12.45835 C 18.01941,12.196377 18.236725,12.00047 18.499246,12 Z m -6.998492,0 c -0.295154,-2.26e-4 -0.526087,0.246483 -0.497296,0.540267 L 12.00195,24.52365 c 0.05554,0.69311 1.056124,0.611067 0.994592,-0.08192 L 11.99805,12.45835 C 11.98059,12.196377 11.763275,12.00047 11.500754,12 Z M 12.5,0 C 11.677649,0 11,0.67764862 11,1.5 L 11,4 5.5,4 C 5.223,4 5,4.223 5,4.5 5,4.777 5.223,5 5.5,5 l 19,0 C 24.777,5 25,4.777 25,4.5 25,4.223 24.777,4 24.5,4 L 19,4 19,1.5 C 19,0.67764862 18.322351,0 17.5,0 Z m 0,1 5,0 C 17.785649,1 18,1.2143514 18,1.5 L 18,4 12,4 12,1.5 C 12,1.2143514 12.214351,1 12.5,1 Z m -6,5 C 5.6761471,6 4.9186933,6.6726433 5.0019531,7.546875 l 2,21 C 7.0743965,29.30753 7.6761468,30 8.5,30 l 13,0 c 0.823853,0 1.425609,-0.692465 1.498047,-1.453125 l 2,-21 C 25.081307,6.6726433 24.323853,6 23.5,6 Z m 0,1 17,0 c 0.284147,0 0.523741,0.2243477 0.501953,0.453125 l -2,21 C 21.969351,28.795473 21.784147,29 21.5,29 l -13,0 C 8.2158532,29 8.0306519,28.795478 7.9980469,28.453125 l -2,-21 C 5.9762587,7.2243477 6.2158529,7 6.5,7 Z"/>
</svg>