<svg fill="#000000" height="30" viewBox="0 0 30 30" width="30" xmlns="http://www.w3.org/2000/svg">
<path d="M 9.5,9 C 7.8368632,9 6.6484838,9.8766859 5.9550781,10.984375 5.2616724,12.092064 5,13.416005 5,14.5 5,15.888889 4.5733139,17.183546 3.2226562,18.083984 2.8112537,18.358468 3.0054361,18.999817 3.5,19 4.1385727,19 4.9260476,18.98789 5.7265625,18.693359 6.0249375,18.583581 6.4983868,18.335349 6.7862487,18.133972 6.6987503,18.5 6.5074606,19.035091 6.3535156,19.236328 5.9541836,19.758336 5.3975988,20 4.5,20 3.8432942,20 3.8392244,21 4.5,21 5.6024012,21 6.5458164,20.628945 7.1464844,19.84375 7.7471524,19.058555 8,17.945736 8,16.5 8.0008436,15.987443 7.3218156,15.805612 7.0664062,16.25 6.5608038,17.125728 5.9872247,17.530811 5.3808594,17.753906 5.1610798,17.834768 4.9278338,17.807099 4.6992188,17.84375 5.5153959,16.836586 6,15.682316 6,14.5 6,13.583995 6.2441539,12.407936 6.8027344,11.515625 7.3613149,10.623314 8.1710816,10 9.5,10 c 1.328918,0 2.138685,0.623314 2.697266,1.515625 C 12.755846,12.407936 13,13.583995 13,14.5 c 0,1.182316 0.484604,2.336586 1.300781,3.34375 -0.228615,-0.03665 -0.461861,-0.009 -0.68164,-0.08984 C 13.012776,17.530811 12.439196,17.125729 11.933594,16.25 11.678185,15.805611 10.999156,15.987443 11,16.5 c 0,1.445736 0.254589,2.525764 0.691406,3.287109 C 12.128223,20.548454 12.795198,21 13.5,21 c 0.668493,0 0.656863,-1 0,-1 -0.295198,0 -0.628223,-0.163126 -0.941406,-0.708984 C 12.429502,19.066017 12.207253,18.5 12.137447,18 c 0.308694,0.225697 0.81419,0.574962 1.135991,0.693359 C 14.073952,18.987886 14.861427,19 15.5,19 15.994564,18.999817 16.188747,18.358468 15.777344,18.083984 14.426686,17.183546 14,15.888889 14,14.5 14,13.416005 13.738328,12.092064 13.044922,10.984375 12.351516,9.8766859 11.163137,9 9.5,9 Z M 21,7 C 19.107143,7 17.801277,7.8478682 17.035156,8.8925781 16.269036,9.937288 16,11.138889 16,12 l 0,2 c 0,0.888725 0.295796,1.556663 0.560547,2.044922 C 16.825298,16.533181 17,16.849465 17,17 l 0,1.5 c 0,0.494533 -0.338641,1.040233 -1.25,1.566406 -0.995513,0.57476 -2.495513,1.42006 -3.5,2 -0.59988,0.346341 -0.940478,0.841406 -1.097656,1.300782 C 10.995166,23.826563 11,24.25 11,24.5 c 0,0.672398 1,0.656658 1,0 0,-0.25 0.0048,-0.537307 0.09766,-0.808594 0.09282,-0.271287 0.252224,-0.526803 0.652344,-0.757812 0.995513,-0.57476 2.495513,-1.42006 3.5,-2 C 17.338641,20.305067 18,19.454583 18,18.5 L 18,17 C 18,16.403347 17.674702,16.002211 17.439453,15.568359 17.204204,15.134508 17,14.675646 17,14 l 0,-2 C 17,11.361111 17.230964,10.312712 17.839844,9.4824219 18.448723,8.6521318 19.392857,8 21,8 22.607143,8 23.551277,8.6521318 24.160156,9.4824219 24.769036,10.312712 25,11.361111 25,12 l 0,2 c 0,0.675646 -0.204204,1.134508 -0.439453,1.568359 C 24.325298,16.002211 24,16.403347 24,17 l 0,1.5 c 0,0.362279 -0.0086,0.783845 0.15625,1.228516 0.164809,0.44467 0.518179,0.872772 1.09375,1.205078 0.578125,0.333333 1.064532,-0.541255 0.5,-0.867188 C 25.325571,19.821362 25.178941,19.610712 25.09375,19.380859 25.008559,19.151007 25,18.862279 25,18.5 L 25,17 c 0,-0.150535 0.174702,-0.466819 0.439453,-0.955078 C 25.704204,15.556663 26,14.888725 26,14 l 0,-2 C 26,11.138889 25.730964,9.937288 24.964844,8.8925781 24.198723,7.8478682 22.892857,7 21,7 Z M 15,0 C 6.7216511,0 0,6.7216511 0,15 0,23.278349 6.7216511,30 15,30 23.278349,30 30,23.278349 30,15 30,6.7216511 23.278349,0 15,0 Z m 0,1 C 22.737909,1 29,7.2620912 29,15 29,22.737909 22.737909,29 15,29 7.2620912,29 1,22.737909 1,15 1,7.2620912 7.2620912,1 15,1 Z"/>
</svg>