<svg fill="#000000" height="30" viewBox="0 0 30 30" width="30" xmlns="http://www.w3.org/2000/svg">
<path d="M 13.5,0 C 12.677649,0 12,0.67764862 12,1.5 l 0,1.9648438 c -1.067532,0.2750837 -2.0883863,0.6952048 -3.0410156,1.25 L 7.6796875,3.4355469 c -0.5820324,-0.5820324 -1.5410144,-0.5820323 -2.1230469,0 L 3.4355469,5.5566406 c -0.5820324,0.5820324 -0.5820324,1.5410145 0,2.1230469 L 4.71875,8.9628906 C 4.1599315,9.9140595 3.7361794,10.932725 3.4570312,12 L 1.5,12 C 0.67764862,12 0,12.677649 0,13.5 l 0,3 C 0,17.322351 0.67764862,18 1.5,18 l 1.9648438,0 c 0.2750837,1.067532 0.6952047,2.088386 1.25,3.041016 l -1.2792969,1.279296 c -0.5820328,0.582033 -0.5820328,1.541015 0,2.123047 l 2.1210937,2.121094 c 0.5820325,0.582032 1.5410145,0.582032 2.1230469,0 L 8.9628906,25.28125 C 9.9140595,25.840068 10.932725,26.263821 12,26.542969 L 12,28.5 c 0,0.822351 0.677649,1.5 1.5,1.5 l 3,0 c 0.822351,0 1.5,-0.677649 1.5,-1.5 l 0,-1.964844 c 1.067532,-0.275083 2.088386,-0.695205 3.041016,-1.25 l 1.279296,1.279297 c 0.582033,0.582033 1.541015,0.582033 2.123047,0 l 2.121094,-2.121094 c 0.582033,-0.582032 0.582033,-1.541014 0,-2.123047 L 25.28125,21.037109 C 25.840068,20.085941 26.263821,19.067275 26.542969,18 L 28.5,18 c 0.822351,0 1.5,-0.677649 1.5,-1.5 l 0,-3 C 30,12.677649 29.322351,12 28.5,12 l -1.964844,0 c -0.275083,-1.067532 -0.695205,-2.0883863 -1.25,-3.0410156 l 1.279297,-1.2792969 c 0.582032,-0.5820324 0.582032,-1.5410144 0,-2.1230469 L 24.443359,3.4355469 c -0.582032,-0.5820328 -1.541014,-0.5820328 -2.123047,0 L 21.037109,4.71875 C 20.085941,4.1599315 19.067275,3.7361795 18,3.4570312 L 18,1.5 C 18,0.67764862 17.322351,0 16.5,0 l -3,0 z m 0,1 3,0 C 16.785649,1 17,1.2143514 17,1.5 l 0,2.2832031 a 0.50005,0.50005 0 0 0 0.390625,0.4882813 c 1.242326,0.2782409 2.427846,0.7696879 3.501953,1.453125 A 0.50005,0.50005 0 0 0 21.513672,5.65625 l 1.513672,-1.5136719 c 0.201441,-0.2014416 0.507543,-0.2014416 0.708984,0 l 2.121094,2.1210938 c 0.201442,0.2014421 0.201442,0.5075424 0,0.7089843 l -1.507813,1.5078126 a 0.50005,0.50005 0 0 0 -0.06836,0.6210937 c 0.679445,1.0767125 1.165874,2.2624325 1.439453,3.5058595 A 0.50005,0.50005 0 0 0 26.208984,13 L 28.5,13 c 0.285649,0 0.5,0.214351 0.5,0.5 l 0,3 c 0,0.285649 -0.214351,0.5 -0.5,0.5 l -2.283203,0 a 0.50005,0.50005 0 0 0 -0.488281,0.390625 c -0.278241,1.242326 -0.769688,2.427846 -1.453125,3.501953 a 0.50005,0.50005 0 0 0 0.06836,0.621094 l 1.513672,1.513672 c 0.201441,0.201441 0.201441,0.507543 0,0.708984 l -2.121094,2.121094 c -0.201441,0.201441 -0.507543,0.201441 -0.708984,0 l -1.507813,-1.507813 a 0.50005,0.50005 0 0 0 -0.621093,-0.06836 c -1.076713,0.679445 -2.262433,1.165874 -3.50586,1.439453 A 0.50005,0.50005 0 0 0 17,26.208984 L 17,28.5 c 0,0.285649 -0.214351,0.5 -0.5,0.5 l -3,0 C 13.214351,29 13,28.785649 13,28.5 l 0,-2.283203 A 0.50005,0.50005 0 0 0 12.609375,25.728516 C 11.367049,25.450275 10.181529,24.958828 9.1074219,24.275391 a 0.50005,0.50005 0 0 0 -0.6210938,0.06836 l -1.5136719,1.513672 c -0.2014419,0.201442 -0.5075424,0.201442 -0.7089843,0 L 4.1425781,23.736328 c -0.2014416,-0.201441 -0.2014416,-0.507543 0,-0.708984 L 5.6503906,21.519531 A 0.50005,0.50005 0 0 0 5.71875,20.898438 C 5.0393049,19.821725 4.5528765,18.636005 4.2792969,17.392578 A 0.50005,0.50005 0 0 0 3.7910156,17 L 1.5,17 C 1.2143514,17 1,16.785649 1,16.5 l 0,-3 C 1,13.214351 1.2143514,13 1.5,13 l 2.2832031,0 A 0.50005,0.50005 0 0 0 4.2714844,12.609375 C 4.5497253,11.367049 5.0411723,10.181529 5.7246094,9.1074219 A 0.50005,0.50005 0 0 0 5.65625,8.4863281 L 4.1425781,6.9726562 c -0.201442,-0.201442 -0.201442,-0.5075423 0,-0.7089843 L 6.2636719,4.1425781 c 0.2014421,-0.2014421 0.5075423,-0.201442 0.7089843,0 L 8.4804688,5.6503906 A 0.50005,0.50005 0 0 0 9.1015625,5.71875 C 10.178275,5.039305 11.363995,4.5528765 12.607422,4.2792969 A 0.50005,0.50005 0 0 0 13,3.7910156 L 13,1.5 C 13,1.2143514 13.214351,1 13.5,1 Z m 1.5,9 c -2.755501,0 -5,2.244499 -5,5 0,2.755501 2.244499,5 5,5 2.755501,0 5,-2.244499 5,-5 0,-2.755501 -2.244499,-5 -5,-5 z m 0,1 c 2.215061,0 4,1.784939 4,4 0,2.215061 -1.784939,4 -4,4 -2.215061,0 -4,-1.784939 -4,-4 0,-2.215061 1.784939,-4 4,-4 z"/>
</svg>