<svg fill="#000000" height="30" viewBox="0 0 30 30" width="30" xmlns="http://www.w3.org/2000/svg">
<path d="m 20.5,11 2,0 c 0.277,0 0.5,0.223 0.5,0.5 0,0.277 -0.223,0.5 -0.5,0.5 l -2,0 C 20.223,12 20,11.777 20,11.5 20,11.223 20.223,11 20.5,11 Z m 5,0 2,0 c 0.277,0 0.5,0.223 0.5,0.5 0,0.277 -0.223,0.5 -0.5,0.5 l -2,0 C 25.223,12 25,11.777 25,11.5 25,11.223 25.223,11 25.5,11 Z m -17,12 13,0 c 0.277,0 0.5,0.223 0.5,0.5 0,0.277 -0.223,0.5 -0.5,0.5 l -13,0 C 8.223,24 8,23.777 8,23.5 8,23.223 8.223,23 8.5,23 Z m 0,-3 13,0 c 0.277,0 0.5,0.223 0.5,0.5 0,0.277 -0.223,0.5 -0.5,0.5 l -13,0 C 8.223,21 8,20.777 8,20.5 8,20.223 8.223,20 8.5,20 Z m -5,-3 23,0 c 0.277,0 0.5,0.223 0.5,0.5 0,0.277 -0.223,0.5 -0.5,0.5 l -23,0 C 3.223,18 3,17.777 3,17.5 3,17.223 3.223,17 3.5,17 Z M 1.5,9 C 0.67764862,9 0,9.6776486 0,10.5 l 0,11 C 0,22.322351 0.67764862,23 1.5,23 L 5,23 5,27.5 C 5,28.322351 5.6776486,29 6.5,29 l 17,0 c 0.822351,0 1.5,-0.677649 1.5,-1.5 l 0,-4.5 3.5,0 c 0.822351,0 1.5,-0.677649 1.5,-1.5 l 0,-11 C 30,9.6776486 29.322351,9 28.5,9 Z m 0,1 27,0 c 0.285649,0 0.5,0.214351 0.5,0.5 l 0,11 c 0,0.285649 -0.214351,0.5 -0.5,0.5 l -3.5,0 0,-2.5 c 0,-0.664397 -1,-0.664393 -1,0 l 0,2.919922 c -0.0088,0.05368 -0.0088,0.108432 0,0.162109 L 24,27.5 c 0,0.285649 -0.214351,0.5 -0.5,0.5 l -17,0 C 6.2143514,28 6,27.785649 6,27.5 l 0,-4.919922 c 0.00882,-0.05368 0.00882,-0.108432 0,-0.162109 L 6,19.5 C 6.0044166,19.217734 5.7822662,18.995583 5.5,19 5.2238552,19.004309 4.9956794,19.223855 5,19.5 L 5,22 1.5,22 C 1.2143514,22 1,21.785649 1,21.5 l 0,-11 C 1,10.214351 1.2143514,10 1.5,10 Z m 5,-9 C 5.6776486,1 5,1.6776486 5,2.5 l 0,4 c 0,0.6725559 1,0.6564505 1,0 l 0,-4 C 6,2.2143514 6.2143514,2 6.5,2 l 17,0 C 23.785649,2 24,2.2143514 24,2.5 l 0,4 c 0,0.6688968 1,0.6484525 1,0 l 0,-4 C 25,1.6776486 24.322351,1 23.5,1 Z"/>
</svg>