<svg fill="#000000" height="30" viewBox="0 0 30 30" width="30" xmlns="http://www.w3.org/2000/svg">
<path d="m 19.5,10.000001 c 0.277,0 0.5,0.223 0.5,0.5 l 0,3 c 0,0.277 -0.223,0.5 -0.5,0.5 -0.277,0 -0.5,-0.223 -0.5,-0.5 l 0,-3 c 0,-0.277 0.223,-0.5 0.5,-0.5 z m -9,0 c 0.277,0 0.5,0.223 0.5,0.5 l 0,3 c 0,0.277 -0.223,0.5 -0.5,0.5 -0.277,0 -0.5,-0.223 -0.5,-0.5 l 0,-3 c 0,-0.277 0.223,-0.5 0.5,-0.5 z m -1,10.000058 C 8.9926009,19.998917 8.8466785,20.614083 9.1853306,20.888 10.802762,22.242596 12.889638,23 15,23 17.110364,23 19.203405,22.242154 20.820837,20.887558 21.303698,20.483685 20.67056,19.709416 20.178649,20.120993 18.746188,21.320675 16.87308,22 15.004059,22 13.135039,22 11.25998,21.320675 9.8275184,20.120993 9.7383814,20.044293 9.6176316,20.000324 9.5,20.000059 Z M 15,0 C 6.7216511,0 -2.8546025e-8,6.7216511 0,15 0,23.278349 6.7216511,30 15,30 23.278349,30 30,23.278349 30,15 30,6.7216511 23.278349,0 15,0 Z m 0,1 C 22.737909,1 29,7.2620912 29,15 29,22.737909 22.737909,29 15,29 7.2620912,29 1,22.737909 1,15 0.99999997,7.2620912 7.2620912,1 15,1 Z"/>
</svg>