<svg fill="#000000" height="30" viewBox="0 0 30 30" width="30" xmlns="http://www.w3.org/2000/svg">
<path d="m 11.5,0 c -0.654475,0 -0.648578,1 0,1 l 6.841797,0 c 0.721429,0 0.73045,0.4081825 0.554686,0.7714844 l -3.841796,7.5 C 14.883664,9.604454 15.125677,10.000379 15.5,10 l 7.072266,0 c 0.150429,0 0.322982,0.09305 0.390625,0.248047 0.06764,0.154999 0.09451,0.442495 -0.289063,0.951172 l -12.34375,16.371093 1.664063,-9.988281 C 12.044842,17.276961 11.809255,16.99947 11.5,17 L 7.5390625,17 C 6.983015,17 6.9406883,16.836 7.0351566,16.066406 L 8.9960938,1.5664062 C 9.0846354,0.90494809 8.0924478,0.77213569 8.0039062,1.4335938 L 6.0429688,15.933594 c -0.075274,0.55661 -0.060892,1.048634 0.203125,1.460937 C 6.5101112,17.806835 7.0142355,18 7.5390625,18 l 3.3691405,0 -1.9023436,11.417969 c -0.085443,0.515698 0.577848,0.800172 0.8925781,0.382812 l 13.5742185,-18 c 0.52399,-0.694893 0.643702,-1.407063 0.40625,-1.9511716 C 23.641454,9.3055008 23.10902,9 22.572266,9 L 16.318359,9 19.785156,2.2285156 C 19.97301,1.8617173 20.10054,1.3741373 19.904297,0.86914062 19.708054,0.36414395 19.122015,0 18.341797,0 Z"/>
</svg>