<svg fill="#000000" height="30" viewBox="0 0 30 30" width="30" xmlns="http://www.w3.org/2000/svg">
<path d="m 16,20 a 1,1 0 0 1 -1,1 1,1 0 0 1 -1,-1 1,1 0 0 1 1,-1 1,1 0 0 1 1,1 z m -13.5,-3 25,0 c 0.277,0 0.5,0.223 0.5,0.5 0,0.277 -0.223,0.5 -0.5,0.5 l -25,0 C 2.223,18 2,17.777 2,17.5 2,17.223 2.223,17 2.5,17 Z M 1.5,3 C 0.67764862,3 0,3.6776486 0,4.5 l 0,17 C 0,22.322351 0.67764862,23 1.5,23 l 10.5,0 0,3 -2.5,0 C 9.223,26 9,26.223 9,26.5 9,26.777 9.223,27 9.5,27 l 11,0 C 20.777,27 21,26.777 21,26.5 21,26.223 20.777,26 20.5,26 l -2.5,0 0,-3 10.5,0 c 0.822351,0 1.5,-0.677649 1.5,-1.5 l 0,-17 C 30,3.6776486 29.322351,3 28.5,3 Z m 0,1 27,0 C 28.785649,4 29,4.2143514 29,4.5 l 0,17 c 0,0.285649 -0.214351,0.5 -0.5,0.5 l -27,0 C 1.2143514,22 1,21.785649 1,21.5 L 1,4.5 C 1,4.2143514 1.2143514,4 1.5,4 Z m 11.5,19 4,0 0,3 -4,0 z"/>
</svg>