<svg fill="#000000" height="30" viewBox="0 0 30 30" width="30" xmlns="http://www.w3.org/2000/svg">
<path d="m 6.4941406,13.994141 c -0.4494023,9.1e-5 -0.6705869,0.54684 -0.3476562,0.859375 l 7.9999996,8 c 0.187352,0.186875 0.48786,0.195436 0.685547,0.01953 l 9,-8 C 24.37892,14.433855 23.66761,13.634677 23.167969,14.126953 L 14.519531,21.8125 6.8535156,14.146484 C 6.7593082,14.049115 6.6296237,13.994141 6.4941406,13.994141 Z M 14.5,2 C 14.777,2 15,2.223 15,2.5 l 0,18 C 15,20.777 14.777,21 14.5,21 14.223,21 14,20.777 14,20.5 l 0,-18 C 14,2.223 14.223,2 14.5,2 Z m -14,20 c -0.2761448,0.0043 -0.50432058,0.223855 -0.5,0.5 l 0,4 C 0,27.322351 0.67764862,28 1.5,28 l 27,0 c 0.822351,0 1.5,-0.677649 1.5,-1.5 l 0,-4 c 0.0093,-0.66065 -1,-0.656634 -1,0 l 0,4 c 0,0.285649 -0.214351,0.5 -0.5,0.5 l -27,0 C 1.2143514,27 1,26.785649 1,26.5 l 0,-4 C 1.0044166,22.217734 0.78226617,21.995583 0.5,22 Z"/>
</svg>