<svg fill="#000000" height="30" viewBox="0 0 30 30" width="30" xmlns="http://www.w3.org/2000/svg">
<path d="m 13.499933,27 c -0.276145,0.0043 -0.504321,0.223855 -0.5,0.5 l 0,0.5 c 0,1.099351 0.900649,2 2,2 1.099351,0 2,-0.900649 2,-2 l 0,-0.5 c 0,-0.332679 -0.25,-0.498598 -0.5,-0.5 -0.25,-0.0014 -0.5,0.161714 -0.5,0.5 l 0,0.5 c 0,0.562649 -0.437351,1 -1,1 -0.562649,0 -1,-0.437351 -1,-1 l 0,-0.5 c 0.0044,-0.282266 -0.217734,-0.504417 -0.5,-0.5 z M 15,0 c -1.650932,0 -3,1.3490681 -3,3 l 0,0.5 c 0,0.6489686 1,0.6602147 1,0 L 13,3 c 0,-1.1104919 0.889508,-2 2,-2 1.110492,0 2,0.8895081 2,2 l 0,0.5 c 0,0.6541843 1,0.6598357 1,0 L 18,3 C 18,1.3490681 16.650932,0 15,0 Z m 7.501304,3 c 3.031644,0 5.5,2.4683562 5.5,5.5 0,0.6646777 -1,0.6645846 -1,0 0,-2.4912036 -2.008796,-4.5 -4.5,-4.5 -0.66842,0 -0.664585,-1 0,-1 z M 7.5,3 C 4.4683562,3 2,5.4683562 2,8.5 2,9.1646777 3,9.1645846 3,8.5 3,6.0087964 5.0087964,4 7.5,4 8.1684204,4 8.1645846,3 7.5,3 Z M 15,5 C 10.67909,5 8.3115701,6.8088961 7.1621094,9.1015625 6.0126487,11.394229 6,14.096076 6,16 6,18 5.99859,21.816747 3.1210938,25.173828 A 0.50005,0.50005 0 0 0 3.5,26 l 23,0 a 0.50005,0.50005 0 0 0 0.378906,-0.826172 C 24.001408,21.816747 24,18 24,16 24,14.096076 23.987351,11.394229 22.837891,9.1015625 21.68843,6.8088962 19.32091,5 15,5 Z m 0,1 c 4.054119,0 5.936563,1.5426663 6.943359,3.5507812 C 22.950156,11.558896 23,14.107049 23,16 c 0,1.851917 0.107204,5.566643 2.585938,9 L 4.4140625,25 C 6.892796,21.566643 7,17.851917 7,16 7,14.107049 7.0498438,11.558896 8.0566406,9.5507812 9.0634374,7.5426664 10.94588,6 15,6 Z"/>
</svg>