<svg fill="#000000" height="30" viewBox="0 0 30 30" width="30" xmlns="http://www.w3.org/2000/svg">
<path d="m 21.5,20.000015 c -0.378482,-0.0028 -0.614282,0.382722 -0.443148,0.716814 l 0.988654,1.983832 c 0.280475,0.629217 1.215712,0.162104 0.884382,-0.441712 L 21.941234,20.275117 C 21.860614,20.106931 21.686006,20.001392 21.5,20.000015 Z M 6.4897128,7 C 6.0092282,7 5.7899559,7.7221245 6.2635826,7.9456845 L 8.2558068,8.9301788 C 8.8621819,9.2601281 9.3312794,8.3288087 8.699388,8.049518 L 6.7071637,7.0650236 C 6.6333643,7.0269659 6.5729542,7 6.4897128,7 Z M 30,10.5 c 0,0.277 -0.223,0.5 -0.5,0.5 l -2,0 C 27.223,11 27,10.777 27,10.5 27,10.223 27.223,10 27.5,10 l 2,0 c 0.277,0 0.5,0.223 0.5,0.5 z M 17.5,0 C 17.777,0 18,0.223 18,0.5 l 0,2 C 18,2.777 17.777,3 17.5,3 17.223,3 17,2.777 17,2.5 l 0,-2 C 17,0.223 17.223,0 17.5,0 Z m -5.091797,4.03125 c -0.250899,-0.050069 -0.537397,-0.056341 -0.802734,0.097656 -0.265338,0.1539973 -0.402949,0.4125052 -0.476563,0.65625 -0.07361,0.2437449 -0.09768,0.5006117 -0.101562,0.7773438 -0.0078,0.5534643 0.07124,1.1901118 0.162109,1.8339844 0.09087,0.6438726 0.194846,1.2920895 0.25,1.8203125 0.0995,0.9529083 -0.184109,1.2134463 -0.748094,1.6953123 -0.41396,0.353685 -0.9868932,0.707228 -1.5292966,1.091797 -0.5424035,0.38457 -1.0718918,0.773878 -1.4765625,1.16211 -0.2023354,0.194115 -0.3742484,0.386101 -0.5039063,0.605468 -0.1296578,0.219368 -0.2291125,0.495242 -0.15625,0.798828 0.072862,0.303587 0.2825814,0.504347 0.4960938,0.644532 0.2135123,0.140185 0.4554769,0.239875 0.7246094,0.328125 0.5382648,0.1765 1.1893628,0.300538 1.8515622,0.416015 0.6622,0.115478 1.333543,0.21787 1.873047,0.333985 0.951705,0.204831 1.159452,0.507448 1.458985,1.216797 0.207573,0.491569 0.393772,1.123408 0.605468,1.740234 0.211696,0.616826 0.430907,1.222086 0.689453,1.714844 0.129274,0.246379 0.266327,0.46682 0.441407,0.652344 0.17508,0.185523 0.410972,0.353442 0.714843,0.378906 0.303871,0.02546 0.561073,-0.101087 0.765625,-0.253906 0.204553,-0.15282 0.37968,-0.345587 0.550782,-0.566407 0.342204,-0.441639 0.665622,-1.001936 0.984375,-1.574219 0.318753,-0.572282 0.629886,-1.154534 0.908203,-1.613281 C 19.5,17.158159 20,17.082492 20.749953,17.027344 c 0.552348,-0.02239 1.231395,-0.01203 1.904297,-0.01563 0.672901,-0.0036 1.337111,-0.01926 1.898437,-0.103516 0.280664,-0.04213 0.537126,-0.09905 0.771485,-0.201172 0.234358,-0.102124 0.47438,-0.261816 0.599609,-0.546875 0.12523,-0.285058 0.07715,-0.575802 -0.01172,-0.814453 -0.08887,-0.238651 -0.225733,-0.458329 -0.390625,-0.683594 -0.329783,-0.450528 -0.780481,-0.919547 -1.246093,-1.388671 -0.465613,-0.469125 -0.94588,-0.934606 -1.3125,-1.332032 -0.671649,-0.696225 -0.631259,-0.88804 -0.38086,-1.630859 0.181604,-0.5096747 0.446762,-1.1298436 0.699219,-1.7480471 0.252457,-0.6182037 0.493968,-1.232808 0.625,-1.7792969 0.06552,-0.2732447 0.106309,-0.529138 0.0918,-0.7871095 C 23.983534,5.7381222 23.899668,5.4421394 23.65625,5.2382812 23.412832,5.034422 23.127657,4.9985014 22.865234,5.0058594 22.602812,5.0132193 22.334543,5.0682233 22.046875,5.1484374 21.471538,5.3088666 20.819766,5.5756103 20.166016,5.8574219 19.512265,6.1392334 18.854257,6.4801104 18.310547,6.6953124 17.44558,7.060552 16.996094,6.9399034 16.300782,6.5371094 15.84087,6.2424318 15.296778,5.736171 14.75,5.3574218 14.203222,4.9786727 13.660661,4.5552284 13.154297,4.3046875 12.901115,4.1794171 12.659102,4.0813189 12.408203,4.03125 Z m 0.302735,1.1699217 c 0.41274,0.2042177 0.935231,0.6075979 1.470703,0.9785156 0.535472,0.3709176 1.082841,0.8806255 1.580078,1.1992188 0.497237,0.3185933 0.895314,0.5834926 1.390625,0.625 0.497734,0.04171 0.947099,-0.1492434 1.527344,-0.3789063 C 19.259933,7.3953368 19.92085,7.0539393 20.5625,6.7773436 21.20415,6.5007478 21.833603,6.2459547 22.316406,6.1113279 22.941345,5.9038111 23,6.1755009 22.933592,6.5507841 c -0.10483,0.4372106 -0.330532,1.0265184 -0.578125,1.6328125 -0.247594,0.606294 -0.516054,1.233107 -0.714844,1.7910155 -0.19879,0.5579089 -0.380242,0.8723759 -0.255859,1.3906249 0.117547,0.489769 0.446523,0.823303 0.84375,1.253907 0.397226,0.430603 0.88014,0.898186 1.335937,1.357421 0.455797,0.459236 0.884371,0.913926 1.150391,1.277344 0.415351,0.526091 -0.0949,0.626479 -0.310546,0.666012 -0.459356,0.06895 -1.096386,0.08827 -1.755859,0.0918 -0.659474,0.0035 -1.34375,-0.0066 -1.939454,0.01758 -0.595704,0.02415 -1.072598,0.03092 -1.503906,0.28125 -0.431309,0.250324 -0.668652,0.660335 -0.970703,1.158203 -0.302051,0.497868 -0.613935,1.086602 -0.925781,1.646484 -0.311847,0.559883 -0.626137,1.092755 -0.902344,1.449219 C 16,21 15.840657,20.918898 15.611324,20.501952 15.403411,20.105694 15.18751,19.529056 14.980465,18.92578 14.773419,18.322505 14.571914,17.689406 14.363277,17.148437 14.15464,16.607467 13.994495,16.164648 13.611324,15.843749 13.228153,15.52285 12.76029,15.437349 12.17773,15.314452 11.59517,15.191556 10.918469,15.087774 10.269527,14.974608 9.6205891,14.861444 9.0013359,14.726479 8.5585938,14.591797 7.8928738,14.389286 8.18838,14.064472 8.3789061,13.886725 8.7109866,13.576917 9.2090587,13.196927 9.7402343,12.820318 10.27141,12.44371 10.830901,12.062906 11.298828,11.705084 c 0.467927,-0.357821 0.852427,-0.631392 1.054688,-1.091797 0.202262,-0.460404 0.141112,-0.9253384 0.08203,-1.4999998 C 12.376466,8.5386259 12.268545,7.8874203 12.179687,7.2578185 12.090827,6.6282167 12.021132,6.0190155 12.027343,5.5761779 12,5.1269862 12.258677,5 12.710938,5.2011717 Z M 10.500281,17 c -0.12976,0.0036 -0.25303,0.05754 -0.34375,0.15039 L 0.63880646,26.652213 C -0.2552681,27.544794 -0.13605835,28.785512 0.53529084,29.460806 1.2066401,30.136101 2.4479275,30.257155 3.3458377,29.359244 L 12.836072,19.86901 c 0.490773,-0.471255 -0.2518,-1.181118 -0.707032,-0.707032 L 2.6388065,28.652213 C 2.0601543,29.230865 1.5699964,29.083364 1.2442753,28.755728 0.91855408,28.428093 0.77384407,27.930282 1.3458377,27.359244 L 10.863563,17.857422 C 11.188833,17.539418 10.947323,17 10.500281,17 Z"/>
</svg>