<svg fill="#000000" height="30" viewBox="0 0 30 30" width="30" xmlns="http://www.w3.org/2000/svg">
<path d="m 20.5,12 2,0 c 0.277,0 0.5,0.223 0.5,0.5 0,0.277 -0.223,0.5 -0.5,0.5 l -2,0 C 20.223,13 20,12.777 20,12.5 20,12.223 20.223,12 20.5,12 Z m 1,2 c 0.277,0 0.5,0.223 0.5,0.5 l 0,8 C 22,22.777 21.777,23 21.5,23 21.223,23 21,22.777 21,22.5 l 0,-8 C 21,14.223 21.223,14 21.5,14 Z m 0,-7 C 21.777,7 22,7.223 22,7.5 l 0,3 C 22,10.777 21.777,11 21.5,11 21.223,11 21,10.777 21,10.5 l 0,-3 C 21,7.223 21.223,7 21.5,7 Z m -8,11 2,0 C 15.777,18 16,17.777 16,17.5 16,17.223 15.777,17 15.5,17 l -2,0 c -0.277,0 -0.5,0.223 -0.5,0.5 0,0.277 0.223,0.5 0.5,0.5 z m 1,-2 c 0.277,0 0.5,-0.223 0.5,-0.5 l 0,-8 C 15,7.223 14.777,7 14.5,7 14.223,7 14,7.223 14,7.5 l 0,8 c 0,0.277 0.223,0.5 0.5,0.5 z m 0,7 c 0.277,0 0.5,-0.223 0.5,-0.5 l 0,-3 C 15,19.223 14.777,19 14.5,19 14.223,19 14,19.223 14,19.5 l 0,3 c 0,0.277 0.223,0.5 0.5,0.5 z m -8,-11 2,0 C 8.777,12 9,12.223 9,12.5 9,12.777 8.777,13 8.5,13 l -2,0 C 6.223,13 6,12.777 6,12.5 6,12.223 6.223,12 6.5,12 Z m 1,2 C 7.777,14 8,14.223 8,14.5 l 0,8 C 8,22.777 7.777,23 7.5,23 7.223,23 7,22.777 7,22.5 l 0,-8 C 7,14.223 7.223,14 7.5,14 Z m 0,-7 C 7.777,7 8,7.223 8,7.5 l 0,3 C 8,10.777 7.777,11 7.5,11 7.223,11 7,10.777 7,10.5 l 0,-3 C 7,7.223 7.223,7 7.5,7 Z M 1.5,0 C 0.67764862,0 0,0.67764862 0,1.5 l 0,27 C 0,29.322351 0.67764862,30 1.5,30 l 26,0 c 0.822351,0 1.5,-0.677649 1.5,-1.5 l 0,-27 C 29,0.67764862 28.322351,0 27.5,0 Z m 0,1 26,0 C 27.785649,1 28,1.2143514 28,1.5 l 0,27 c 0,0.285649 -0.214351,0.5 -0.5,0.5 l -26,0 C 1.2143514,29 1,28.785649 1,28.5 L 1,1.5 C 1,1.2143514 1.2143514,1 1.5,1 Z"/>
</svg>