<svg fill="#000000" height="30" viewBox="0 0 30 30" width="30" xmlns="http://www.w3.org/2000/svg">
<path d="M 22.474609,2 C 22.200395,2.0045949 21.999682,2.2334871 22,2.5 l 0,3.6035156 C 19.617556,6.2372076 17.60745,7.1582151 16.244141,8.7539062 14.777967,10.469996 14,12.839939 14,15.5 c -8.44e-4,0.512557 0.678185,0.694389 0.933594,0.25 C 16.941181,12.272757 19.976311,12.082757 22,12.064453 L 22,15.5 c -2.82e-4,0.436477 0.519619,0.663783 0.839844,0.367188 l 7,-6.5000005 c 0.214139,-0.1979604 0.214139,-0.5364146 0,-0.734375 l -7,-6.5 C 22.740986,2.041108 22.609433,1.9977408 22.474609,2 Z M 23,3.6464844 28.765625,9 23,14.353516 23,11.5 c -2.8e-5,-0.276131 -0.223869,-0.499972 -0.5,-0.5 -1.719582,0 -4.864827,0.244245 -7.248047,2.851562 0.257369,-1.733313 0.780371,-3.309739 1.753906,-4.4492182 C 18.289686,7.899683 20.129167,7 22.5,7 22.776131,6.9999724 22.999972,6.7761309 23,6.5 Z M 1.5,7 C 0.67764862,7 0,7.6776486 0,8.5 l 0,18 C 0,27.322351 0.67764862,28 1.5,28 l 26,0 c 0.822351,0 1.5,-0.677649 1.5,-1.5 l 0,-11 c 0,-0.659319 -1,-0.642495 -1,0 l 0,11 c 0,0.285649 -0.214351,0.5 -0.5,0.5 l -26,0 C 1.2143514,27 1,26.785649 1,26.5 L 1,8.5 C 1,8.2143514 1.2143514,8 1.5,8 l 12,0 c 0.65373,0 0.670799,-1 0,-1 z"/>
</svg>