<svg fill="#000000" height="30" viewBox="0 0 30 30" width="30" xmlns="http://www.w3.org/2000/svg">
<path d="M 15,6 C 13.449705,6 12.186068,6.7857044 11.333984,7.78125 10.4819,8.7767956 10,9.9738562 10,11 l 0,2.5 c 0,0.666667 0.333984,1.152344 0.583984,1.527344 C 10.833984,15.402344 11,15.666667 11,16 l 0,1 c 0,0.610728 -0.06152,1.174108 -0.748047,1.566406 l -3.4999999,2 C 5.953401,21.022722 5.4798354,21.467164 5.234375,21.982422 4.9889146,22.49768 5,23.00064 5,23.5 c 0,0.670978 1,0.659568 1,0 0,-0.50064 0.00814,-0.817983 0.1367188,-1.087891 0.1285796,-0.269907 0.4060402,-0.575493 1.1113281,-0.978515 l 3.5000001,-2 C 11.811525,18.825892 12,17.734612 12,17 l 0,-1 C 12,15.333333 11.666016,14.847656 11.416016,14.472656 11.166016,14.097656 11,13.833333 11,13.5 L 11,11 C 11,10.311101 11.387042,9.2573344 12.09375,8.4316406 12.800458,7.6059469 13.785464,7 15,7 16.214536,7 17.199542,7.6059469 17.90625,8.4316406 18.612958,9.2573344 19,10.311101 19,11 l 0,2.5 c 0,0.333333 -0.166016,0.597656 -0.416016,0.972656 C 18.333984,14.847656 18,15.333333 18,16 l 0,1 c 0,0.734612 0.188475,1.825892 1.251953,2.433594 l 3.5,2 c 0.705267,0.403012 0.982743,0.708601 1.111328,0.978515 C 23.991867,22.682024 24,22.999367 24,23.5 c 0,0.668586 1,0.672268 1,0 0,-0.499367 0.01109,-1.002323 -0.234375,-1.517578 -0.245464,-0.515256 -0.719045,-0.959708 -1.517578,-1.416016 l -3.5,-2 C 19.061525,18.174108 19,17.610728 19,17 l 0,-1 c 0,-0.333333 0.166016,-0.597656 0.416016,-0.972656 C 19.666016,14.652344 20,14.166667 20,13.5 L 20,11 C 20,9.9738562 19.5181,8.7767956 18.666016,7.78125 17.813932,6.7857044 16.550295,6 15,6 Z M 15,0 C 6.7216511,0 0,6.7216511 0,15 0,23.278349 6.7216511,30 15,30 23.278349,30 30,23.278349 30,15 30,6.7216511 23.278349,0 15,0 Z m 0,1 C 22.737909,1 29,7.2620912 29,15 29,22.737909 22.737909,29 15,29 7.2620912,29 1,22.737909 1,15 1,7.2620912 7.2620912,1 15,1 Z"/>
</svg>