<svg fill="#000000" height="30" viewBox="0 0 30 30" width="30" xmlns="http://www.w3.org/2000/svg">
<path d="m 27,19 c -0.499311,-0.0019 -0.696601,0.640929 -0.277344,0.912109 l 1.5,1 c 0.529902,0.365392 1.102126,-0.479337 0.554688,-0.832031 l -1.5,-1 C 27.19455,19.023197 27.10045,19.000383 27,19 Z m -3.5,4 c -0.401644,0.0016 -0.627504,0.465604 -0.416016,0.773438 l 1,1.5 c 0.366812,0.569287 1.216446,0.0029 0.832032,-0.554688 l -1,-1.5 C 23.823503,23.075683 23.670372,22.999329 23.5,23 Z m 5,-15 c -0.09582,0 -0.198414,0.029656 -0.277344,0.083985 l -1.5,1 c -0.539333,0.3474797 0.03273,1.191936 0.554688,0.8320312 l 1.5,-1 C 29.174232,8.6598242 29.00396,8 28.5,8 Z m -4,-4.5 c -0.164871,0 -0.326551,0.08417 -0.416016,0.2226562 l -1,1.5 c -0.35862,0.5201263 0.479332,1.1020905 0.832032,0.5546876 l 1,-1.5 C 25.147734,3.940387 24.912872,3.5 24.5,3.5 Z m -6.5,23 0,-2 c 0,-0.277 0.223,-0.5 0.5,-0.5 0.277,0 0.5,0.223 0.5,0.5 l 0,2 C 19,26.777 18.777,27 18.5,27 18.223,27 18,26.777 18,26.5 Z m 0,-22 0,-2 C 18,2.223 18.223,2 18.5,2 18.777,2 19,2.223 19,2.5 l 0,2 C 19,4.777 18.777,5 18.5,5 18.223,5 18,4.777 18,4.5 Z m 9.5,9.5 2,0 c 0.277,0 0.5,0.223 0.5,0.5 0,0.277 -0.223,0.5 -0.5,0.5 l -2,0 C 27.223,15 27,14.777 27,14.5 27,14.223 27.223,14 27.5,14 Z M 17.527344,7 c -0.695836,0 -0.695836,1 0,1 C 21.106823,8 24,10.903261 24,14.5 c 0,3.59674 -2.893177,6.5 -6.472656,6.5 -0.680209,0 -0.703508,1 0,1 C 21.649388,22 25,18.635064 25,14.5 25,10.364937 21.649388,7 17.527344,7 Z M 9,25 c 0,0.552285 -0.447715,1 -1,1 -0.552285,0 -1,-0.447715 -1,-1 0,-0.552285 0.447715,-1 1,-1 0.552285,0 1,0.447715 1,1 z M 6.5,4 9.5,4 C 9.777,4 10,4.223 10,4.5 10,4.777 9.777,5 9.5,5 l -3,0 C 6.223,5 6,4.777 6,4.5 6,4.223 6.223,4 6.5,4 Z M 1.5,2 C 0.6776486,2 0,2.6776486 0,3.5 l 0,23 C 0,27.322351 0.6776486,28 1.5,28 l 13,0 c 0.822351,0 1.5,-0.677649 1.5,-1.5 l 0,-23 C 16,2.6776486 15.322351,2 14.5,2 Z m 0,1 13,0 C 14.785649,3 15,3.2143514 15,3.5 l 0,23 c 0,0.285649 -0.214351,0.5 -0.5,0.5 l -13,0 C 1.2143514,27 1,26.785649 1,26.5 L 1,3.5 C 1,3.2143514 1.2143514,3 1.5,3 Z"/>
</svg>