<svg fill="#000000" height="30" viewBox="0 0 30 30" width="30" xmlns="http://www.w3.org/2000/svg">
<path d="m 21.232823,10.053995 c -0.35697,0.0756 -0.690923,0.24033 -0.96875,0.480469 -0.294919,0.254911 -0.515386,0.587015 -0.636719,0.957031 -0.06727,0.205136 -0.03,0.417273 -0.03516,0.628907 -0.24425,-0.132168 -0.799585,-0.157402 -1.146487,-0.06445 -0.441729,0.103539 -0.878973,0.307028 -1.216797,0.650391 -0.502725,0.510968 -0.636082,0.938409 -0.599611,1.507813 -0.159644,-0.07236 -0.309489,-0.163889 -0.490234,-0.191407 -0.295321,-0.04496 -0.591545,-0.0184 -0.869141,0.06836 -0.27583,0.08621 -0.521229,0.225812 -0.732422,0.390625 -0.294729,0.230004 -0.546647,0.526139 -0.714844,0.878906 -0.119444,0.250514 -0.128696,0.531832 -0.148437,0.808594 L 11.43008,14.132124 C 11.144014,13.872649 10.829953,13.588331 10.435948,13.364542 10.04034,13.139844 9.5762946,12.987203 9.078526,13.003214 c -0.5157369,0.01659 -1.0164255,0.21794 -1.3964844,0.578125 -0.3809566,0.361036 -0.60766,0.851801 -0.6464844,1.369141 -0.038636,0.514823 0.1097104,1.006422 0.3574219,1.419922 0.2459891,0.410622 0.5669457,0.718897 0.8554687,0.99414 l 8.0078122,7.638672 -1.751953,0 c -0.239221,0 -0.506803,5.18e-4 -0.794922,0.05273 -0.288766,0.05233 -0.580038,0.155717 -0.84375,0.332032 -0.264078,0.17656 -0.483661,0.414648 -0.634766,0.699218 -0.150787,0.283966 -0.226562,0.599475 -0.226562,0.91602 0,0.316553 0.07579,0.632064 0.226562,0.916016 0.151105,0.28457 0.370688,0.522658 0.634766,0.699218 0.263712,0.176315 0.55499,0.279694 0.84375,0.332032 0.288143,0.05223 0.555717,0.05273 0.794922,0.05273 l 8,0 c 0.685655,0 0.644413,-1 0,-1 l -8,0 c -0.232993,0 -0.4407,-0.0051 -0.617188,-0.03711 -0.17587,-0.03188 -0.337964,-0.0916 -0.466796,-0.177735 -0.128466,-0.08589 -0.236294,-0.205408 -0.306641,-0.33789 -0.07067,-0.133098 -0.109375,-0.29162 -0.109375,-0.447265 0,-0.155653 0.0387,-0.314177 0.109375,-0.447266 0.07035,-0.132482 0.178175,-0.251999 0.306641,-0.33789 0.128832,-0.08614 0.290932,-0.145862 0.466796,-0.177735 0.176512,-0.03199 0.384211,-0.03711 0.617188,-0.03711 l 3,0 c 0.450806,-2.3e-5 0.671403,-0.549646 0.345703,-0.861328 l -8.9101559,-8.5 c -0.281238,-0.268292 -0.5288218,-0.520279 -0.6875,-0.785156 -0.1569557,-0.262003 -0.2390428,-0.561627 -0.21875,-0.832032 0.020104,-0.26789 0.1453498,-0.538128 0.3359375,-0.71875 0.1914855,-0.181472 0.4689416,-0.294006 0.7402344,-0.302734 0.2676693,-0.0086 0.5617229,0.07889 0.8320312,0.232422 0.2719108,0.154441 0.5352208,0.383635 0.8164058,0.638672 1.470836,1.33245 2.941532,2.665156 4.410158,4.000002 0.452753,0.411511 1.121845,-0.307945 0.695688,-0.714521 l -0.506236,-0.510091 c -0.210884,-0.21249 -0.397283,-0.407089 -0.523438,-0.605468 -0.125561,-0.197449 -0.206105,-0.416594 -0.224609,-0.626954 -0.0185,-0.210375 0.02278,-0.433042 0.115234,-0.626953 0.0933,-0.195676 0.243466,-0.375729 0.427735,-0.519531 0.132307,-0.103251 0.274014,-0.180839 0.414062,-0.224609 0.138284,-0.04322 0.286442,-0.05577 0.421875,-0.03516 0.134907,0.02054 0.276821,0.07558 0.40625,0.160157 0.12987,0.08487 0.264077,0.213143 0.416016,0.363281 l 1.339843,1.322266 0.002,0.002 c 0.472511,0.451356 1.149563,-0.184497 0.700724,-0.649135 L 18.357823,15.64969 c -0.244331,-0.275978 -0.486043,-0.50367 -0.621094,-0.753906 -0.133597,-0.247542 -0.192746,-0.530436 -0.160156,-0.783203 0.03259,-0.252768 0.162416,-0.506732 0.351562,-0.691406 0.192048,-0.187507 0.457523,-0.322986 0.746094,-0.390625 0.384173,-0.102939 0.730683,0.08136 0.976562,0.326178 l 1,1 0.5,0.5 c 0.471259,0.452518 1.15955,-0.235773 0.707032,-0.707032 l -0.5,-0.5 c -0.208233,-0.208234 -0.39474,-0.401596 -0.533204,-0.599609 -0.138028,-0.19739 -0.236859,-0.410563 -0.279296,-0.621094 -0.04227,-0.209695 -0.03069,-0.432108 0.0332,-0.626953 0.06393,-0.19495 0.18494,-0.377829 0.339843,-0.511719 0.146325,-0.126475 0.329985,-0.217254 0.521485,-0.257812 0.191538,-0.04057 0.401204,-0.03353 0.599609,0.01953 0.199039,0.05324 0.399803,0.155278 0.585938,0.291016 0.186526,0.136023 0.367904,0.31517 0.564453,0.511718 l 5.948292,5.978119 c 0.471255,0.490806 1.197837,-0.235777 0.707031,-0.707032 L 23.898835,11.147747 C 23.699489,10.947335 23.479743,10.73073 23.213288,10.536419 22.946443,10.341823 22.641787,10.178824 22.299226,10.0872 21.956033,9.9954197 21.58975,9.9784027 21.232823,10.053995 Z m -7.728576,1.949219 c 0.275649,-0.0043 0.504313,-0.224401 0.5,-0.5 l 0,-3.0000003 c -2.8e-5,-0.275585 -0.224365,-0.499972 -0.5,-0.5 l -3,0 c -0.6479557,0 -0.6755821,0.9999999 0,0.9999999 l 1.789753,-7.3e-5 -2.136419,2.1403874 c -0.324686,0.317375 -0.09956,0.859686 0.346666,0.859686 0.129577,0 0.26854,-0.06139 0.359097,-0.154052 l 2.140903,-2.1459484 0,1.8000004 c -0.0044,0.281708 0.21824,0.504408 0.5,0.5 z m -10.9999398,3 c -0.2756495,0.0043 -0.5043128,0.224401 -0.5,0.5 l 0,3 c 2.79e-5,0.275585 0.2243645,0.499972 0.5,0.5 l 3,0 c 0.6479557,0 0.6755821,-1 0,-1 L 3.714554,18.003287 5.850973,15.8629 c 0.3246862,-0.317375 0.111201,-0.859686 -0.3466658,-0.859686 -0.1295274,0.0036 -0.2685406,0.06139 -0.3590975,0.154052 l -2.1409025,2.145948 0,-1.8 c 0.00441,-0.281708 -0.2182401,-0.504408 -0.5,-0.5 z m 6.5,10 c 0,0.552285 -0.4477153,1 -1,1 -0.5522847,0 -1,-0.447715 -1,-1 0,-0.552285 0.4477153,-1 1,-1 0.5522847,0 1,0.447715 1,1 z m -2.5,-22.0000003 3,0 c 0.277,0 0.4999998,0.223 0.4999998,0.5 0,0.277 -0.2229998,0.5 -0.4999998,0.5 l -3,0 c -0.277,0 -0.5,-0.223 -0.5,-0.5 0,-0.277 0.223,-0.5 0.5,-0.5 z m -5,-2 c -0.82235139,0 -1.50000001,0.6776486 -1.50000001,1.5 l 0,24.0000003 c 0,0.822351 0.67764862,1.5 1.50000001,1.5 l 8.9999998,0 c 0.676161,0.0096 0.676161,-1.009563 0,-1 l -8.9999998,0 c -0.2856486,0 -0.5,-0.214351 -0.5,-0.5 l 0,-24.0000003 c 0,-0.2856486 0.2143514,-0.5 0.5,-0.5 l 12.9999998,0 c 0.285649,0 0.5,0.2143514 0.5,0.5 l 0,9.0000003 c -0.0096,0.676161 1.009563,0.676161 1,0 l 0,-9.0000003 c 0,-0.8223514 -0.677649,-1.5 -1.5,-1.5 z"/>
</svg>