<svg fill="#000000" height="30" viewBox="0 0 30 30" width="30" xmlns="http://www.w3.org/2000/svg">
<path d="M 8.5,0 C 7.6776487,0 7,0.67764862 7,1.5 l 0,6 c 0,0.6653579 1,0.6708801 1,0 l 0,-6 C 8,1.2143514 8.2143515,1 8.5,1 l 20,0 C 28.785649,1 29,1.2143514 29,1.5 l 0,27 c 0,0.285649 -0.214351,0.5 -0.5,0.5 l -20,0 C 8.2143515,29 8,28.785649 8,28.5 l 0,-7 c 0,-0.659625 -1,-0.654101 -1,0 l 0,7 C 7,29.322351 7.6776487,30 8.5,30 l 20,0 c 0.822351,0 1.5,-0.677649 1.5,-1.5 l 0,-27 C 30,0.67764862 29.322351,0 28.5,0 Z m 5,10 c -0.449403,9e-5 -0.643687,0.563345 -0.353516,0.853516 L 16.792969,14.5 13.146484,18.146484 c -0.442827,0.425216 0.253619,1.160445 0.707032,0.707032 l 4,-4 c 0.195185,-0.195265 0.195185,-0.511767 0,-0.707032 l -4,-4 C 13.759309,10.049115 13.635483,9.9999999 13.5,10 Z m -13,4 14,0 c 0.277,0 0.5,0.223 0.5,0.5 0,0.277 -0.223,0.5 -0.5,0.5 l -14,0 C 0.223,15 0,14.777 0,14.5 0,14.223 0.223,14 0.5,14 Z"/>
</svg>