<svg fill="#000000" height="30" viewBox="0 0 30 30" width="30" xmlns="http://www.w3.org/2000/svg">
<path d="m 10.5,17 c -0.12976,0.0036 -0.25303,0.05754 -0.34375,0.15039 l -9.51772488,9.501823 c -0.89407456,0.892581 -0.77486481,2.133299 -0.10351562,2.808593 0.6713492,0.675295 1.9126366,0.796349 2.8105468,-0.101562 L 12.835791,19.86901 c 0.490773,-0.471255 -0.2518,-1.181118 -0.707032,-0.707032 L 2.6385251,28.652213 C 2.0598729,29.230865 1.569715,29.083364 1.2439939,28.755728 0.91827274,28.428093 0.77356273,27.930282 1.3455563,27.359244 L 10.863282,17.857422 C 11.188552,17.539418 10.947043,17 10.5,17 Z M 18.951172,2.0703125 c -1.605491,0.212318 -3.146788,0.9092149 -4.390625,2.0625 -0.489583,0.4531245 0.210204,1.1688966 0.679687,0.734375 2.17918,-2.0205354 5.391991,-2.4451596 8.021485,-1.0605469 C 23.841487,4.1385604 24.315003,3.2043421 23.726562,2.921875 22.225695,2.131563 20.556663,1.8579945 18.951172,2.0703125 Z M 20,0 C 14.483075,0 10,4.4830748 10,10 10,15.516925 14.483075,20 20,20 25.516925,20 30,15.516925 30,10 30,4.4830748 25.516925,0 20,0 Z m 0,1 c 4.976485,0 9,4.0235149 9,9 0,4.976485 -4.023515,9 -9,9 -4.976485,0 -9,-4.023515 -9,-9 0,-4.9764851 4.023515,-9 9,-9 z"/>
</svg>