<svg fill="#000000" height="30" viewBox="0 0 30 30" width="30" xmlns="http://www.w3.org/2000/svg">
<path d="m 15.499982,29 c 0.129679,-0.0021 0.261273,-0.05453 0.352959,-0.146271 l 3.99359,-3.994182 c 0.464157,-0.445742 -0.260301,-1.170148 -0.705899,-0.706003 l -3.640641,3.641181 -3.640641,-3.641181 c -0.453326,-0.472195 -1.173959,0.256513 -0.705899,0.706003 l 3.993591,3.994182 c 0.09551,0.09557 0.217855,0.14834 0.35294,0.146271 z m 0,-2.999941 c -0.277,0 -0.5,-0.223 -0.5,-0.5 l 0,-7 c 0,-0.277 0.223,-0.5 0.5,-0.5 0.277,0 0.5,0.223 0.5,0.5 l 0,7 c 0,0.277 -0.223,0.5 -0.5,0.5 z M 22.5,23 25,23 c 2.755501,0 5,-2.244499 5,-5 C 29.9988,15.602234 28.265541,13.626964 25.958984,13.164062 25.975644,12.94408 25.999352,12.669749 25.999352,12.5 25.999352,7.2813539 21.740783,3 16.5,3 12.991032,3.0053734 9.8138906,4.9728759 8.1699219,8.050781 7.9484013,8.029098 7.7258164,8.000098 7.5,8 3.3519364,8 0,11.363787 0,15.5 0,19.636213 3.3637867,23 7.5,23 l 1,0 c 0.662716,0 0.667969,-1 0,-1 l -1,0 C 3.9042269,22 1,19.095773 1,15.5 1,11.905559 3.9021654,9.002151 7.4960938,9 7.7813118,9.0024 8.0652264,9.02266 8.3476562,9.0625 8.5622118,9.09298 8.7719796,8.98178 8.8671875,8.787109 10.287547,5.8623754 13.248622,4.0049789 16.5,4 c 4.700343,0 8.5,3.7996573 8.5,8.5 -0.002,0.321779 -0.02206,0.643408 -0.06055,0.962891 -0.03424,0.278763 0.167763,0.531041 0.447266,0.558593 C 27.439758,14.221131 28.998931,15.937274 29,18 c 0,2.215061 -1.784939,4 -4,4 l -2.5,0 c -0.684896,0 -0.638021,1 0,1 z"/>
</svg>