<svg fill="#000000" height="30" viewBox="0 0 30 30" width="30" xmlns="http://www.w3.org/2000/svg">
<path d="m 29.5,0 c -0.138052,-0.0012121 -0.255966,0.04879239 -0.353516,0.14648438 l -17,16.99999962 c -0.219277,0.219278 -0.365524,0.236958 -0.599609,0.207032 -0.234085,-0.02993 -0.532485,-0.161097 -0.830078,-0.304688 l -9.326172,-4.5 C 1.1156329,12.416142 1.0021367,12.219206 1,12 0.99786331,11.780793 1.0751366,11.569297 1.3457031,11.470703 L 24.671875,2.9707031 C 25.3288,2.7308302 24.854299,1.8371671 24.328125,2.0292969 L 1.0019531,10.529297 C 0.35489234,10.765083 -0.00575402,11.409685 0,12 c 0.00575403,0.590316 0.34595884,1.156325 0.95703125,1.451172 l 9.32617175,4.5 c 0.302833,0.146119 0.683419,0.33633 1.138672,0.394531 0.455253,0.0582 1.008697,-0.06924 1.431641,-0.492187 L 28.210938,2.4960938 18.246094,28.894531 c -0.08009,0.20001 -0.482659,0.179688 -0.583985,-0.04297 l -4.71289,-9.572265 c -0.299633,-0.610045 -1.151166,-0.07285 -0.898438,0.441406 l 4.714844,9.572266 C 17.014058,29.797401 17.534692,30.008781 18,30 c 0.465308,-0.0088 0.985932,-0.233533 1.181641,-0.751953 L 29.96875,0.67578125 C 30.089437,0.35473313 29.842951,0.00301114 29.5,0 Z"/>
</svg>