<svg fill="#000000" height="30" viewBox="0 0 30 30" width="30" xmlns="http://www.w3.org/2000/svg">
<path d="m 29.484324,0 c -0.129522,0.00360644 -0.252567,0.05745077 -0.34312,0.15014966 L 17.163142,12.130922 c -0.489912,0.4705 0.235346,1.195922 0.705739,0.705899 L 29.846942,0.85604801 C 30.171617,0.53855372 29.946402,0 29.484324,0 Z M 12.487969,17 c -0.128794,0.0041 -0.250921,0.05823 -0.340457,0.150922 L 0.16187022,29.137654 c -0.48609153,0.466859 0.23351739,1.18665 0.7002586,0.700436 L 12.84777,17.851357 C 13.173467,17.536516 12.94077,17 12.487969,17 Z M 0.49973061,-2.6587379e-5 A 0.49983291,0.49983291 0 0 0 0.1522253,0.85897532 L 29.139635,29.846386 A 0.49983291,0.49983291 0 1 0 29.84636,29.139661 L 0.85894959,0.15225103 A 0.49983291,0.49983291 0 0 0 0.49973061,-2.6587379e-5 Z"/>
</svg>