<svg fill="#000000" height="30" viewBox="0 0 30 30" width="30" xmlns="http://www.w3.org/2000/svg">
<path d="M 16.5,5 C 12.991032,5.0053734 9.8138906,6.9728759 8.1699219,10.050781 7.9484013,10.029098 7.7258164,10.000098 7.5,10 3.3519364,10 0,13.363787 0,17.5 0,21.636213 3.3637867,25 7.5,25 L 25,25 c 2.755501,0 5,-2.244499 5,-5 C 29.9988,17.602234 28.265541,15.626964 25.958984,15.164062 25.975644,14.94408 25.999352,14.669749 25.999352,14.5 25.999352,9.2813539 21.740783,5 16.5,5 Z m 0,1 c 4.700343,0 8.5,3.7996573 8.5,8.5 -0.002,0.321779 -0.02206,0.643408 -0.06055,0.962891 -0.03424,0.278763 0.167763,0.531041 0.447266,0.558593 C 27.439758,16.221131 28.998931,17.937274 29,20 c 0,2.215061 -1.784939,4 -4,4 L 7.5,24 C 3.9042269,24 1,21.095773 1,17.5 1,13.905559 3.9021654,11.002151 7.4960938,11 c 0.285218,0.0024 0.5691326,0.02266 0.8515624,0.0625 0.2145556,0.03048 0.4243234,-0.08072 0.5195313,-0.275391 C 10.287547,7.8623754 13.248622,6.0049789 16.5,6 Z"/>
</svg>