<svg fill="#000000" height="30" viewBox="0 0 30 30" width="30" xmlns="http://www.w3.org/2000/svg">
<path d="M 19.498106,7 C 19.316058,7 19.148637,7.099839 19.061159,7.2595803 L 10.072544,23.248166 c -0.3277114,0.580315 0.542281,1.072153 0.869992,0.491838 L 19.931152,7.7514168 C 20.125676,7.4176664 19.884912,7 19.498106,7 Z m 3.029593,1.9999999 c 0.112671,0.00606 0.219973,0.050095 0.304438,0.124925 l 6.994269,5.9963931 c 0.231459,0.199376 0.231459,0.557979 0,0.757355 l -6.994269,5.996393 c -0.479309,0.429016 -1.141126,-0.352169 -0.65181,-0.757355 L 28.733551,15.499996 22.180327,9.8822815 C 21.812075,9.5740275 22.047684,8.9999999 22.527699,8.9999999 Z m -15.0553981,0 c -0.112671,0.00606 -0.2199726,0.050095 -0.3044379,0.124925 L 0.17359411,15.121318 c -0.23145884,0.199376 -0.23145884,0.557979 0,0.757355 L 7.167863,21.875066 c 0.4793092,0.429016 1.1411261,-0.352169 0.6518097,-0.757355 L 1.2664486,15.499996 7.8196727,9.8822815 C 8.1879249,9.5740275 7.9523159,8.9999999 7.4723009,8.9999999 Z"/>
</svg>