<svg fill="#000000" height="30" viewBox="0 0 30 30" width="30" xmlns="http://www.w3.org/2000/svg">
<path d="M 19.5,9 C 19.008236,8.99617 18.584448,9.2419437 18.408203,9.4687499 l -2.73679,3.4582171 C 15.5,13.13549 15.119179,13 14.943359,12.89849 L 12.488281,11.34961 C 12.199332,11.159894 11.868358,11 11.5,11 c -0.379538,0 -0.786055,0.113778 -1.072266,0.433594 l -3.292836,3.724529 c -0.4453556,0.497398 0.3007844,1.165407 0.7460938,0.667968 l 3.2928362,-3.724528 c 0.218371,-0.234063 0.535484,-0.04889 0.765625,0.08398 l 2.460938,1.552786 0.01172,0.0059 c 0.305396,0.189947 0.649414,0.251979 0.988282,0.255767 0.338868,0.0038 0.708224,-0.02672 0.984375,-0.361236 l 2.767578,-3.498047 C 19.368637,9.8771648 19.686446,10 19.896486,10.17978 l 2.253644,1.688465 c 0.526989,0.47703 1.204661,-0.375388 0.621094,-0.78125 L 20.517578,9.3984375 C 20.252171,9.1874605 19.912886,8.9999999 19.5,9 Z m -12,8 15,0 c 0.277,0 0.5,0.223 0.5,0.5 0,0.277 -0.223,0.5 -0.5,0.5 l -15,0 C 7.223,18 7,17.777 7,17.5 7,17.223 7.223,17 7.5,17 Z M 11,5 C 9.9013528,5 9,5.9013528 9,7 9,8.0986472 9.9013528,9 11,9 12.098647,9 13,8.0986472 13,7 13,5.9013528 12.098647,5 11,5 Z m 0,1 c 0.558207,0 1,0.4417929 1,1 0,0.5582071 -0.441793,1 -1,1 C 10.441793,8 10,7.5582071 10,7 10,6.4417929 10.441793,6 11,6 Z M 25,25.5 A 0.5,0.50000024 0 0 1 24.5,26 0.5,0.50000024 0 0 1 24,25.5 0.5,0.50000024 0 0 1 24.5,25 0.5,0.50000024 0 0 1 25,25.5 Z m -19,0 A 0.5,0.50000024 0 0 1 5.5,26 0.5,0.50000024 0 0 1 5,25.5 0.5,0.50000024 0 0 1 5.5,25 0.5,0.50000024 0 0 1 6,25.5 Z M 15,24 c -1.099351,0 -2,0.900649 -2,2 0,1.099351 0.900649,2 2,2 1.099351,0 2,-0.900649 2,-2 0,-1.099351 -0.900649,-2 -2,-2 z m 0,1 c 0.562649,0 1,0.437351 1,1 0,0.562649 -0.437351,1 -1,1 -0.562649,0 -1,-0.437351 -1,-1 0,-0.562649 0.437351,-1 1,-1 z M 26.5,3 c -0.665356,0 -0.648113,1 0,1 l 2,0 C 28.785649,4 29,4.2143514 29,4.5 l 0,14 c 0,0.285649 -0.214351,0.5 -0.5,0.5 l -2,0 c -0.654135,0 -0.65931,1 0,1 l 2,0 c 0.822351,0 1.5,-0.677649 1.5,-1.5 l 0,-14 C 30,3.6776486 29.322351,3 28.5,3 Z M 1.5,3 C 0.67764862,3 0,3.6776486 0,4.5 l 0,14 C 0,19.322351 0.67764862,20 1.5,20 l 2,0 c 0.6593194,0 0.6651836,-1 0,-1 l -2,0 C 1.2143514,19 1,18.785649 1,18.5 L 1,4.5 C 1,4.2143514 1.2143514,4 1.5,4 l 2,0 c 0.6593194,0 0.6597496,-1 0,-1 z m 5,-1 C 5.6776486,2 5,2.6776486 5,3.5 l 0,16 C 5,20.322351 5.6776486,21 6.5,21 l 17,0 c 0.822351,0 1.5,-0.677649 1.5,-1.5 l 0,-16 C 25,2.6776486 24.322351,2 23.5,2 Z m 0,1 17,0 C 23.785649,3 24,3.2143514 24,3.5 l 0,16 c 0,0.285649 -0.214351,0.5 -0.5,0.5 l -17,0 C 6.2143514,20 6,19.785649 6,19.5 L 6,3.5 C 6,3.2143514 6.2143514,3 6.5,3 Z"/>
</svg>