<svg fill="#000000" height="30" viewBox="0 0 30 30" width="30" xmlns="http://www.w3.org/2000/svg">
<path d="m 21.167499,12 c -0.402763,0 -0.761997,0.207351 -1.020302,0.478776 l -5.993053,6.29746 c -0.260571,0.290661 -0.543263,0.267559 -0.79205,0 L 10.365567,15.525199 C 10.067213,15.201505 9.6803884,15.004908 9.2594271,15 8.8384656,14.9951 8.4464553,15.205469 8.1454839,15.543049 L 3.1590852,21.13597 c -0.4793861,0.479387 0.2596575,1.210602 0.7374264,0.682273 l 4.9863987,-5.592922 c 0.3555816,-0.409259 0.6258932,-0.154329 0.7764439,0.01785 L 12.65588,19.49421 C 12.954104,19.817764 13.341935,20 13.758119,20 c 0.416184,0 0.798892,-0.187035 1.102239,-0.50579 l 5.993052,-6.297461 c 0.310917,-0.316781 0.617291,-0.161823 0.792051,0 l 4.486977,4.63604 c 0.47071,0.498377 1.196427,-0.239426 0.706213,-0.717973 l -4.486977,-4.63604 C 22.013992,12.129876 21.586286,12 21.167499,12 Z M 3.5,24 l 23,0 c 0.277,0 0.5,0.223 0.5,0.5 0,0.277 -0.223,0.5 -0.5,0.5 l -23,0 C 3.223,25 3,24.777 3,24.5 3,24.223 3.223,24 3.5,24 Z M 8.5,6 C 7.1252104,6 6,7.1252104 6,8.5 6,9.8747896 7.1252104,11 8.5,11 9.8747896,11 11,9.8747896 11,8.5 11,7.1252104 9.8747896,6 8.5,6 Z m 0,1 C 9.3343494,7 10,7.6656506 10,8.5 10,9.3343494 9.3343494,10 8.5,10 7.6656506,10 7,9.3343494 7,8.5 7,7.6656506 7.6656506,7 8.5,7 Z M 1.5,0 C 0.67764862,0 0,0.67764862 0,1.5 l 0,27 C 0,29.322351 0.67764862,30 1.5,30 l 27,0 c 0.822351,0 1.5,-0.677649 1.5,-1.5 l 0,-27 C 30,0.67764862 29.322351,0 28.5,0 Z m 0,1 27,0 C 28.785649,1 29,1.2143514 29,1.5 l 0,27 c 0,0.285649 -0.214351,0.5 -0.5,0.5 l -27,0 C 1.2143514,29 1,28.785649 1,28.5 L 1,1.5 C 1,1.2143514 1.2143514,1 1.5,1 Z"/>
</svg>