<svg fill="#000000" height="30" viewBox="0 0 30 30" width="30" xmlns="http://www.w3.org/2000/svg">
<path d="m 25.964928,0.43607178 c -0.581443,-0.58142909 -1.539833,-0.58142909 -2.121277,0 L 21.435117,2.8445456 c -0.581442,0.5814285 -0.581443,1.5397956 0,2.1212247 l 3.59899,3.5989002 c 0.581444,0.5814298 1.539834,0.5814284 2.121277,0 l 2.408533,-2.4084738 c 0.581444,-0.5814292 0.581444,-1.5397949 0,-2.1212247 z m -0.707093,0.70707492 3.59899,3.5989002 c 0.201945,0.2019406 0.201945,0.5051349 0,0.7070748 l -2.408534,2.408474 c -0.201944,0.2019391 -0.505146,0.2019405 -0.707092,0 L 22.14221,4.2586954 c -0.201945,-0.2019398 -0.201944,-0.5051356 0,-0.7070748 l 2.408534,-2.4084739 c 0.201945,-0.2019399 0.505147,-0.2019399 0.707091,0 z m -5.496253,3.870203 c -0.502579,0.069711 -0.865201,0.3721859 -1.146504,0.6537121 L 1.1445534,23.151422 C 0.651405,23.64496 0.35680042,24.02661 0.1871842,24.413964 0.01756798,24.801317 0,25.162791 0,25.5 l 0,3.000153 c 0,0.582811 0.17668119,1.05129 0.53425491,1.289861 C 0.89182861,30.028586 1.250421,30 1.5,30 l 3,0 c 0.6391717,0 1.1045255,-0.126572 1.4703961,-0.356339 0.3658705,-0.229767 0.5933572,-0.511869 0.8715763,-0.790308 L 24.312498,11.368993 c 0.521447,-0.521861 0.752242,-1.081778 0.670743,-1.5884233 -0.0815,-0.506645 -0.401398,-0.8466302 -0.670743,-1.116189 L 21.317551,5.6670618 C 20.817697,5.1668127 20.26416,4.943639 19.761582,5.0133497 Z m 0.136488,0.9893494 c 0.155019,-0.021501 0.349773,0.0066 0.713639,0.370762 L 23.606657,9.37078 c 0.229812,0.2299941 0.367643,0.4310238 0.389967,0.5698028 0.02232,0.1387782 0.003,0.3286942 -0.389967,0.7220102 L 6.1361321,28.146952 C 5.825412,28.457919 5.6349996,28.674328 5.4400409,28.796762 5.2450821,28.919196 5.0218347,29 4.5,29 l -3,0 C 1.0429572,29 1,28.836767 1,28.5 l 0,-3 c 0,-0.308213 0.00766,-0.469382 0.101657,-0.684051 0.094,-0.214668 0.2997196,-0.508755 0.7487367,-0.958127 L 19.32092,6.3734611 c 0.217854,-0.2180269 0.422132,-0.3492601 0.57715,-0.370762 z"/>
</svg>