<svg fill="#000000" height="30" viewBox="0 0 30 30" width="30" xmlns="http://www.w3.org/2000/svg">
<path d="m 12.5,15 13,0 c 0.277,0 0.5,0.223 0.5,0.5 0,0.277 -0.223,0.5 -0.5,0.5 l -13,0 C 12.223,16 12,15.777 12,15.5 12,15.223 12.223,15 12.5,15 Z m 0,3 13,0 c 0.277,0 0.5,0.223 0.5,0.5 0,0.277 -0.223,0.5 -0.5,0.5 l -13,0 C 12.223,19 12,18.777 12,18.5 12,18.223 12.223,18 12.5,18 Z m 0,-6 13,0 c 0.277,0 0.5,0.223 0.5,0.5 0,0.277 -0.223,0.5 -0.5,0.5 l -13,0 C 12.223,13 12,12.777 12,12.5 12,12.223 12.223,12 12.5,12 Z m -8,-1 C 3.6776486,11 3,11.677649 3,12.5 l 0,6 C 3,19.322351 3.6776486,20 4.5,20 l 4,0 C 9.3223514,20 10,19.322351 10,18.5 l 0,-6 C 10,11.677649 9.3223514,11 8.5,11 Z m 0,1 4,0 C 8.7856486,12 9,12.214351 9,12.5 l 0,6 C 9,18.785649 8.7856486,19 8.5,19 l -4,0 C 4.2143514,19 4,18.785649 4,18.5 l 0,-6 C 4,12.214351 4.2143514,12 4.5,12 Z M 6.5,2 C 6.777,2 7,2.223 7,2.5 l 0,4 C 7,6.777 6.777,7 6.5,7 6.223,7 6,6.777 6,6.5 l 0,-4 C 6,2.223 6.223,2 6.5,2 Z m 17,0 C 23.777,2 24,2.223 24,2.5 l 0,4 C 24,6.777 23.777,7 23.5,7 23.223,7 23,6.777 23,6.5 l 0,-4 C 23,2.223 23.223,2 23.5,2 Z M 1.5,4 C 0.6777335,4 0,4.6777333 0,5.5 l 0,20 C 0,26.322267 0.67773374,27 1.5,27 l 27,0 c 0.822266,0 1.5,-0.677733 1.5,-1.5 l 0,-20 C 30,4.6777333 29.322267,4 28.5,4 l -3,0 c -0.660524,0 -0.664274,1 0,1 l 3,0 C 28.785557,5 29,5.2144295 29,5.5 l 0,20 c 0,0.285571 -0.214442,0.5 -0.5,0.5 l -27,0 C 1.2144424,26 1,25.785571 1,25.5 L 1,5.5 C 1,5.2144295 1.2144426,5 1.5,5 l 3,0 c 0.6705831,0 0.6541355,-1 0,-1 z m 7,0 c -0.6306662,0 -0.6831542,1 0,1 l 13,0 c 0.660273,0 0.660426,-1 0,-1 z"/>
</svg>