<svg fill="#000000" height="30" viewBox="0 0 30 30" width="30" xmlns="http://www.w3.org/2000/svg">
<path d="m 2.5,8 25,0 C 27.777,8 28,8.223 28,8.5 28,8.777 27.777,9 27.5,9 L 2.5,9 C 2.223,9 2,8.777 2,8.5 2,8.223 2.223,8 2.5,8 Z M 7,6.5 A 0.5,0.5 0 0 1 6.5,7 0.5,0.5 0 0 1 6,6.5 0.5,0.5 0 0 1 6.5,6 0.5,0.5 0 0 1 7,6.5 Z m -2,0 A 0.5,0.5 0 0 1 4.5,7 0.5,0.5 0 0 1 4,6.5 0.5,0.5 0 0 1 4.5,6 0.5,0.5 0 0 1 5,6.5 Z m -2,0 A 0.5,0.5 0 0 1 2.5,7 0.5,0.5 0 0 1 2,6.5 0.5,0.5 0 0 1 2.5,6 0.5,0.5 0 0 1 3,6.5 Z M 1.5,4 C 0.67764862,4 0,4.6776486 0,5.5 l 0,19 C 0,25.322351 0.67764862,26 1.5,26 l 27,0 c 0.822351,0 1.5,-0.677649 1.5,-1.5 l 0,-19 C 30,4.6776486 29.322351,4 28.5,4 l -27,0 z m 0,1 27,0 C 28.785649,5 29,5.2143514 29,5.5 l 0,19 c 0,0.285649 -0.214351,0.5 -0.5,0.5 l -27,0 C 1.2143514,25 1,24.785649 1,24.5 L 1,5.5 C 1,5.2143514 1.2143514,5 1.5,5 Z"/>
</svg>