<svg fill="#000000" height="30" viewBox="0 0 30 30" width="30" xmlns="http://www.w3.org/2000/svg">
<path d="m 19.5,2 c -0.276145,0.00431 -0.504321,0.223855 -0.5,0.5 l 0,4 C 19,7.3223514 19.677649,8 20.5,8 l 4,0 c 0.66835,0.00945 0.64599,-1 0,-1 l -4,0 C 20.214351,7 20,6.7856486 20,6.5 l 0,-4 C 20.004417,2.2177338 19.782266,1.9955834 19.5,2 Z M 4.5,0 C 3.6776486,0 3,0.67764862 3,1.5 l 0,27 C 3,29.322351 3.6776486,30 4.5,30 l 21,0 c 0.822351,0 1.5,-0.677649 1.5,-1.5 l 0,-21 c -2.5e-5,-0.1325994 -0.05272,-0.2597597 -0.146484,-0.3535156 l -7,-7.00000002 C 19.75976,0.05271616 19.6326,2.5424639e-5 19.5,0 Z M 4.5,1 19.292969,1 26,7.7070312 26,28.5 c 0,0.285649 -0.214351,0.5 -0.5,0.5 l -21,0 C 4.2143514,29 4,28.785649 4,28.5 L 4,1.5 C 4,1.2143514 4.2143514,1 4.5,1 Z"/>
</svg>