<svg fill="#000000" height="30" viewBox="0 0 30 30" width="30" xmlns="http://www.w3.org/2000/svg">
<path d="M 7.9746094,2 C 5.740091,2.115739 3.6102128,3.2033031 2.1542969,4.8886719 0.70004538,6.5721142 0,8.786652 0,11 c 0,1.937676 0.69716733,3.81566 1.6464844,5.460938 0.9481487,1.643254 2.1886159,3.076427 3.5,4.392578 2.8231618,2.833422 6.0785396,5.232738 9.6210936,7.089843 0.145531,0.0764 0.319313,0.0764 0.464844,0 3.542554,-1.857105 6.797931,-4.256421 9.621094,-7.089843 1.311384,-1.316151 2.55185,-2.749325 3.5,-4.392578 C 29.302832,14.81566 30,12.937676 30,11 30,8.7810349 29.299955,6.5721142 27.845703,4.8886719 26.389787,3.203303 24.259909,2.115739 22.025391,2 20.510197,1.9215191 18.981383,2.2863083 17.664062,3.0390625 16.567242,3.665817 15.688542,4.5975347 15,5.6542969 14.311458,4.5975347 13.432758,3.665817 12.335938,3.0390625 11.018617,2.2863083 9.4898029,1.9215191 7.9746094,2 Z m 0.050781,1 c 1.3201547,-0.068379 2.6647486,0.2503918 3.8125006,0.90625 1.147751,0.6558581 2.107428,1.6521392 2.71875,2.8242188 0.186938,0.358382 0.69978,0.358382 0.886718,0 C 16.054681,5.5583892 17.014358,4.5621081 18.162109,3.90625 19.309861,3.2503918 20.654455,2.9316213 21.974609,3 23.916663,3.1005906 25.811812,4.0615651 27.089844,5.5410156 28.36954,7.0223929 29,9 29,11 c 0,1.730272 -0.627909,3.429191 -1.511719,4.960938 -0.884978,1.533772 -2.064259,2.903365 -3.341797,4.185546 C 21.45994,22.842792 18.358364,25.120685 15,26.912109 11.641636,25.120685 8.5400593,22.842792 5.8535156,20.146484 4.5759773,18.864303 3.3966968,17.494709 2.5117188,15.960938 1.627909,14.429191 1,12.730272 1,11 1,9 1.6304597,7.0223929 2.9101562,5.5410156 4.1881885,4.061565 6.0833368,3.1005906 8.0253904,3 Z"/>
</svg>