<svg fill="#000000" height="30" viewBox="0 0 30 30" width="30" xmlns="http://www.w3.org/2000/svg">
<path d="m 11.5,7 7,0 C 18.777,7 19,7.223 19,7.5 19,7.777 18.777,8 18.5,8 l -7,0 C 11.223,8 11,7.777 11,7.5 11,7.223 11.223,7 11.5,7 Z m -7,0 C 3.6759943,7 3.0776903,7.6937995 3.0019531,8.4511719 l -2,20.0000001 C 0.91430133,29.32769 1.6759946,30 2.5,30 l 25,0 c 0.824005,0 1.585707,-0.672306 1.498047,-1.548828 l -2,-20.0000001 C 26.92231,7.6937995 26.324006,7 25.5,7 l -3,0 c -0.671052,0 -0.648578,1 0,1 l 3,0 c 0.283994,0 0.46744,0.2036993 0.501953,0.5488281 l 2,19.9999999 C 28.024553,28.774808 27.783995,29 27.5,29 l -25,0 C 2.2160054,29 1.9754485,28.774812 1.9980469,28.548828 l 2,-19.9999999 C 4.0325597,8.2036993 4.2160057,8 4.5,8 l 3,0 C 8.1706737,8 8.1544893,7 7.5,7 Z M 15,0 C 11.692214,0 9,2.6922138 9,6 l 0,4.5 c 0,0.664587 1,0.664517 1,0 L 10,6 c 0,-2.767346 2.232654,-5 5,-5 2.767346,0 5,2.232654 5,5 l 0,4.5 c 0,0.664517 1,0.656704 1,0 L 21,6 C 21,2.6922138 18.307786,0 15,0 Z"/>
</svg>