<svg fill="#000000" height="30" viewBox="0 0 30 30" width="30" xmlns="http://www.w3.org/2000/svg">
<path d="m 10.501328,17.000004 14,0 c 0.277,0 0.5,0.223 0.5,0.5 0,0.277 -0.223,0.5 -0.5,0.5 l -14,0 c -0.277,0 -0.5,-0.223 -0.5,-0.5 0,-0.277 0.223,-0.5 0.5,-0.5 z m -0.9999998,-4 15.9999998,0 c 0.277,0 0.5,0.223 0.5,0.5 0,0.277 -0.223,0.5 -0.5,0.5 l -15.9999998,0 c -0.277,0 -0.5,-0.223 -0.5,-0.5 0,-0.277 0.223,-0.5 0.5,-0.5 z M 0.5,5 c -0.6533785,0 -0.66858533,1 0,1 l 3.5996094,0 c 0.078702,0.3455993 0.6413334,2.809075 1.3125,5.736328 0.7166158,3.125478 1.4520412,7.319979 1.6054687,7.892578 0.1325298,0.494608 0.2557718,1.056534 0.6191407,1.544922 C 8.0000876,21.662216 8.6388889,22 9.5,22 l 16,0 c 0.861111,0 1.499912,-0.337784 1.863281,-0.826172 0.363369,-0.488388 0.486611,-1.050314 0.619141,-1.544922 0.265821,-0.99206 1.620548,-6.943232 1.890625,-7.951172 0.151601,-0.565785 0.202016,-1.155501 0.02148,-1.6894528 C 29.713999,9.4543297 29.174612,9 28.5,9 l -20,0 c -0.6527049,0 -0.6603018,1 0,1 l 20,0 c 0.325388,0 0.36616,0.06871 0.447266,0.308594 0.08111,0.239883 0.07533,0.67516 -0.04102,1.109375 -0.265821,0.99206 -1.618595,6.945185 -1.888672,7.953125 -0.135419,0.505392 -0.262387,0.943466 -0.457031,1.205078 C 26.365903,20.837784 26.138889,21 25.5,21 l -16,0 C 8.8611111,21 8.6340969,20.837784 8.4394531,20.576172 8.2448093,20.31456 8.1178413,19.876486 7.9824219,19.371094 7.8679002,18.943693 7.1031156,14.638194 6.3867188,11.513672 5.6703219,8.3891493 4.9882812,5.3886719 4.9882812,5.3886719 4.9362606,5.1609829 4.7335558,4.9996298 4.5,5 Z m 23.001328,18.000004 c -1.37479,0 -2.5,1.12521 -2.5,2.5 0,1.37479 1.12521,2.5 2.5,2.5 1.37479,0 2.5,-1.12521 2.5,-2.5 0,-1.37479 -1.12521,-2.5 -2.5,-2.5 z m 0,1 c 0.834349,0 1.5,0.665651 1.5,1.5 0,0.834349 -0.665651,1.5 -1.5,1.5 -0.834349,0 -1.5,-0.665651 -1.5,-1.5 0,-0.834349 0.665651,-1.5 1.5,-1.5 z m -12,-1 c -1.37479,0 -2.4999998,1.12521 -2.4999998,2.5 0,1.37479 1.1252098,2.5 2.4999998,2.5 1.37479,0 2.5,-1.12521 2.5,-2.5 0,-1.37479 -1.12521,-2.5 -2.5,-2.5 z m 0,1 c 0.834349,0 1.5,0.665651 1.5,1.5 0,0.834349 -0.665651,1.5 -1.5,1.5 -0.834349,0 -1.5,-0.665651 -1.5,-1.5 0,-0.834349 0.665651,-1.5 1.5,-1.5 z"/>
</svg>