<svg fill="#000000" height="30" viewBox="0 0 30 30" width="30" xmlns="http://www.w3.org/2000/svg">
<path d="m 15.499664,22 c -0.822505,0 -1.5,0.677495 -1.5,1.5 0,0.822505 0.677495,1.5 1.5,1.5 0.822505,0 1.5,-0.677495 1.5,-1.5 0,-0.822505 -0.677495,-1.5 -1.5,-1.5 z m 0,1 c 0.282065,0 0.5,0.217935 0.5,0.5 0,0.282065 -0.217935,0.5 -0.5,0.5 -0.282065,0 -0.5,-0.217935 -0.5,-0.5 0,-0.282065 0.217935,-0.5 0.5,-0.5 z m 0.5,-18 c -1.985936,0 -3.803685,1.2382772 -4.699248,2.5316934 -0.52511,0.7583906 -0.296836,1.6814537 0.268893,2.134763 0.282865,0.2266547 0.652604,0.3587826 1.041324,0.3228979 0.38872,-0.035885 0.777366,-0.253386 1.058677,-0.6192192 C 14.3562,8.476864 15.048728,8 15.999664,8 c 0.277234,0 0.915483,0.2051627 1.322266,0.5625 0.427371,0.375424 0.677734,0.8062698 0.677734,1.4375 0,-0.062895 -0.05361,0.236188 -0.326172,0.599609 -0.276484,0.368646 -0.736181,0.84165 -1.234375,1.339844 -0.498194,0.498194 -1.046407,1.034532 -1.515625,1.660156 C 14.45705,14.221531 13.999664,15.012579 13.999664,16 l 0,3.492188 c -0.0066,0.463645 0.180798,0.878336 0.472656,1.140624 0.291859,0.262289 0.663327,0.38086 1.027344,0.38086 0.364017,0 0.735485,-0.118571 1.027344,-0.38086 0.291858,-0.262288 0.479213,-0.676979 0.472656,-1.140624 l 0,-3.492188 c 0,0 0.05361,-0.236188 0.326172,-0.599609 0.276484,-0.368646 0.736181,-0.84165 1.234375,-1.339844 0.498194,-0.498194 1.046407,-1.034532 1.515625,-1.660156 0.466442,-0.621922 0.923828,-1.41297 0.923828,-2.400391 0,-1.5499315 -0.735802,-2.844858 -1.697266,-3.6894531 C 18.353012,5.4765595 17.180742,5 15.999664,5 Z m 0,1 c 0.910684,0 1.858577,0.3718423 2.642578,1.0605469 0.771927,0.6780969 1.357422,1.7059936 1.357422,2.9394531 0,0.679245 -0.313051,1.250084 -0.724609,1.798828 -0.408782,0.545043 -0.920069,1.052882 -1.421875,1.554688 -0.501806,0.501806 -0.98261,0.984626 -1.328125,1.445312 C 16.17562,15.264741 15.999664,15.603771 15.999664,16 l 0,3.5 0,0.0078 c 0.003,0.212517 -0.05629,0.305067 -0.140625,0.38086 -0.08434,0.07579 -0.21861,0.125 -0.359375,0.125 -0.140765,0 -0.275038,-0.04921 -0.359375,-0.125 -0.08434,-0.07578 -0.143631,-0.168331 -0.140625,-0.380848 l 0,-0.0078 0,-3.5 c 0,-0.679245 0.313051,-1.250084 0.724609,-1.798828 0.408782,-0.545043 0.920069,-1.052882 1.421875,-1.554688 0.501806,-0.501806 0.98261,-0.984626 1.328125,-1.445312 0.349435,-0.465913 0.525391,-0.804943 0.525391,-1.201172 0,-0.922453 -0.42834,-1.6698846 -1.017578,-2.1875 C 17.372257,7.2767979 16.630668,7 15.999664,7 14.510104,7 13.492327,7.9579586 12.875545,8.7600576 12.736338,8.94109 12.622592,8.9842066 12.51706,8.9939489 12.411529,9.0036908 12.296059,8.9660896 12.195632,8.8856191 11.994778,8.7246779 11.862181,8.4768378 12.122486,8.1008942 12.989444,6.8487881 14.426096,6 15.999664,6 Z M 15,0 C 6.7216516,0 0,6.7216516 0,15 0,23.278348 6.7216516,30 15,30 23.278348,30 30,23.278348 30,15 30,6.7216516 23.278348,0 15,0 Z m 0,1 C 22.737908,1 29,7.2620917 29,15 29,22.737908 22.737908,29 15,29 7.2620917,29 1,22.737908 1,15 1,7.2620917 7.2620917,1 15,1 Z"/>
</svg>