<svg fill="#000000" height="30" viewBox="0 0 30 30" width="30" xmlns="http://www.w3.org/2000/svg">
<path d="m 4,11 a 1,1 0 0 1 -1,1 1,1 0 0 1 -1,-1 1,1 0 0 1 1,-1 1,1 0 0 1 1,1 z m 3.5,11 c -0.6695628,0 -1.2357376,0.451696 -1.4257812,1.0625 l -2.65625,0.443359 C 3.1764815,23.546043 2.9995924,23.755193 3,24 l 0,3 c -4.277e-4,0.244823 0.1764662,0.453955 0.4179688,0.494141 l 2.65625,0.443359 C 6.2642624,28.548304 6.8304372,29 7.5,29 l 4,0 c 0.669562,0 1.235738,-0.451696 1.425781,-1.0625 l 2.65625,-0.443359 C 15.823534,27.453955 16.000428,27.244823 16,27 l 0,-3 c 4.28e-4,-0.244823 -0.176466,-0.453955 -0.417969,-0.494141 L 12.925781,23.0625 C 12.735738,22.451696 12.169562,22 11.5,22 Z m 0,1 4,0 c 0.285649,0 0.5,0.214351 0.5,0.5 l 0,4 c 0,0.285649 -0.214351,0.5 -0.5,0.5 l -4,0 C 7.2143514,28 7,27.785649 7,27.5 l 0,-4 C 7,23.214351 7.2143514,23 7.5,23 Z M 6,24.091797 6,26.908203 4,26.576172 4,24.423828 Z m 7,0 2,0.332031 0,2.152344 -2,0.332031 z M 5.5,3 C 5.2238691,3.0000276 5.0000276,3.2238691 5,3.5 l 0,15 c 2.76e-5,0.276131 0.2238691,0.499972 0.5,0.5 l 11,0 c 0.669801,0 0.654454,-1 0,-1 L 6,18 6,4 24,4 24,8.5 c 0,0.6613702 1,0.6688968 1,0 l 0,-5 C 24.999972,3.2238691 24.776131,3.0000276 24.5,3 Z M 1.5,1 C 0.67764862,1 0,1.6776486 0,2.5 l 0,17 C 0,20.322351 0.67764862,21 1.5,21 l 15,0 c 0.669801,0 0.660952,-1 0,-1 l -15,0 C 1.2143514,20 1,19.785649 1,19.5 L 1,2.5 C 1,2.2143514 1.2143514,2 1.5,2 l 24,0 C 25.785649,2 26,2.2143514 26,2.5 l 0,6 c 0,0.6765262 1,0.6613702 1,0 l 0,-6 C 27,1.6776486 26.322351,1 25.5,1 Z m 21,11 3,0 c 0.277,0 0.5,0.223 0.5,0.5 0,0.277 -0.223,0.5 -0.5,0.5 l -3,0 C 22.223,13 22,12.777 22,12.5 22,12.223 22.223,12 22.5,12 Z m -3,-2 C 18.677649,10 18,10.677649 18,11.5 l 0,16 c 0,0.822351 0.677649,1.5 1.5,1.5 l 9,0 c 0.822351,0 1.5,-0.677649 1.5,-1.5 l 0,-16 C 30,10.677649 29.322351,10 28.5,10 Z m 0,1 9,0 c 0.285649,0 0.5,0.214351 0.5,0.5 l 0,16 c 0,0.285649 -0.214351,0.5 -0.5,0.5 l -9,0 C 19.214351,28 19,27.785649 19,27.5 l 0,-16 C 19,11.214351 19.214351,11 19.5,11 Z M 24,25 c 0.554,0 1,0.446 1,1 0,0.554 -0.446,1 -1,1 -0.554,0 -1,-0.446 -1,-1 0,-0.554 0.446,-1 1,-1 z"/>
</svg>