<svg fill="#000000" height="30" viewBox="0 0 30 30" width="30" xmlns="http://www.w3.org/2000/svg">
<path d="m 19.5,7 c -0.656777,0 -0.656988,1 0,1 L 22,8 c 3.886649,0 7,3.113351 7,7 0,3.886649 -3.113351,7 -7,7 l -2,0 c -3.886649,0 -7,-3.113351 -7,-7 l 0,-0.5 c 0,-0.672219 -1,-0.648385 -1,0 l 0,0.5 c 0,4.423351 3.576649,8 8,8 l 2,0 c 4.423351,0 8,-3.576649 8,-8 0,-4.423351 -3.576649,-8 -8,-8 z M 8,7 c -4.4233514,0 -8,3.576649 -8,8 0,4.423351 3.5766486,8 8,8 l 2.5,0 c 0.664745,0 0.660682,-1 0,-1 L 8,22 C 4.1133514,22 1,18.886649 1,15 1,11.113351 4.1133514,8 8,8 l 2,0 c 3.886649,0 7,3.113351 7,7 l 0,0.5 c 0,0.676312 1,0.656454 1,0 L 18,15 C 18,10.576649 14.423351,7 10,7 Z"/>
</svg>