<svg fill="#000000" height="30" viewBox="0 0 30 30" width="30" xmlns="http://www.w3.org/2000/svg">
<path d="M 2.5,7.0000084 C 2.0004715,7.0009681 1.8145811,7.656415 2.2314189,7.9218834 L 14.062653,15.703133 c 0.599113,0.394059 1.370136,0.397407 1.969919,0 L 27.760332,7.931649 C 28.338365,7.5791296 27.748595,6.7129444 27.20977,7.0976646 L 15.48201,14.869149 c -0.327426,0.216947 -0.53864,0.215202 -0.868794,-0.002 L 2.7819812,7.0859459 C 2.6984471,7.0293807 2.6008696,6.9994225 2.5,7.0000084 Z M 1.5,5 C 0.67764862,5 0,5.6776486 0,6.5 l 0,17 C 0,24.322351 0.67764862,25 1.5,25 l 27,0 c 0.822351,0 1.5,-0.677649 1.5,-1.5 l 0,-17 C 30,5.6776486 29.322351,5 28.5,5 l -27,0 z m 0,1 27,0 C 28.785649,6 29,6.2143514 29,6.5 l 0,17 c 0,0.285649 -0.214351,0.5 -0.5,0.5 l -27,0 C 1.2143514,24 1,23.785649 1,23.5 L 1,6.5 C 1,6.2143514 1.2143514,6 1.5,6 Z"/>
</svg>