<svg fill="#000000" height="30" viewBox="0 0 30 30" width="30" xmlns="http://www.w3.org/2000/svg">
<path d="M 11.5,0 C 11.777,0 12,0.223 12,0.5 l 0,4 C 12,4.777 11.777,5 11.5,5 11.223,5 11,4.777 11,4.5 l 0,-4 C 11,0.223 11.223,0 11.5,0 Z m 5,0 C 16.777,0 17,0.223 17,0.5 l 0,4 C 17,4.777 16.777,5 16.5,5 16.223,5 16,4.777 16,4.5 l 0,-4 C 16,0.223 16.223,0 16.5,0 Z M 6.5,0 C 6.777,0 7,0.223 7,0.5 l 0,4 C 7,4.777 6.777,5 6.5,5 6.223,5 6,4.777 6,4.5 l 0,-4 C 6,0.223 6.223,0 6.5,0 Z m -3,9 16,0 C 19.777,9 20,9.223 20,9.5 20,9.777 19.777,10 19.5,10 l -16,0 C 3.223,10 3,9.777 3,9.5 3,9.223 3.223,9 3.5,9 Z m 21,-1 c -0.660523,0 -0.652328,1 0,1 l 1,0 c 1.938919,0 3.5,1.561081 3.5,3.5 0,1.938919 -1.561081,3.5 -3.5,3.5 l -1,0 c -0.656551,0 -0.656303,1 0,1 l 1,0 C 27.979359,17 30,14.979359 30,12.5 30,10.020641 27.979359,8 25.5,8 Z M 0.5,6 C 0.22385501,6.0043087 -0.00432086,6.2238552 0,6.5 l 0,12 C 0,23.191486 2.7982417,27.209189 6.8164062,29 L 0.5,29 C 0.223,29 0,29.223 0,29.5 0,29.777 0.223,30 0.5,30 l 22,0 C 22.777,30 23,29.777 23,29.5 23,29.223 22.777,29 22.5,29 l -6.316406,0 C 20.201758,27.209189 23,23.191486 23,18.5 l 0,-12 c 0,-0.6523307 -1,-0.6685856 -1,0 l 0,12 C 22,24.325649 17.325649,29 11.5,29 5.6743514,29 1,24.325649 1,18.5 L 1,6.5 C 1.0044168,6.2177336 0.78226637,5.9955832 0.5,6 Z"/>
</svg>