<svg fill="#000000" height="30" viewBox="0 0 30 30" width="30" xmlns="http://www.w3.org/2000/svg">
<path d="M 3.5,0 C 3.0207144,0 2.8078193,0.67010102 3.2382812,0.92578125 L 25.238281,14.425781 C 25.786958,14.762469 25.999047,15.151218 26,15.5 c 9.54e-4,0.348783 -0.204919,0.739177 -0.757812,1.072266 L 4.7421875,28.921875 C 4.3221393,29.16439 4,28.840262 4,28.349609 L 4,3.5 C 4,2.8460478 3,2.8402578 3,3.5 l 0,24.849609 c 0,0.741296 0.371939,1.309172 0.8613281,1.523438 0.4893891,0.214265 1.0004631,0.144832 1.3964844,-0.09375 L 25.757812,17.427734 C 26.531873,16.961405 27.002049,16.249638 27,15.5 26.998,14.750362 26.527988,14.044429 25.761719,13.574219 L 3.7617188,0.07421875 C 3.6767145,0.02002927 3.6008079,0 3.5,0 Z"/>
</svg>