<svg fill="#000000" height="30" viewBox="0 0 30 30" width="30" xmlns="http://www.w3.org/2000/svg">
<path d="m 24.526759,1 c 0.395463,0 0.589546,0.4559133 0.397805,0.7639593 l -2.995236,4.9935311 c -0.339095,0.5651735 -1.160496,0.00896 -0.858011,-0.5149579 L 24.066554,1.2490014 C 24.161049,1.0862945 24.338644,1 24.526759,1 Z M 5.4732413,1 C 5.0975561,1.007163 4.8830334,1.4548503 5.0754364,1.7639593 L 8.0706729,6.7574904 C 8.4083636,7.320474 9.2436297,6.7675976 8.9286834,6.2425325 L 5.9334469,1.2490014 C 5.8389522,1.0862943 5.6613223,0.99641395 5.4732413,1 Z M 19.5,13 C 18.677649,13 18,13.677649 18,14.5 l 0,2 c 0,0.822351 0.677649,1.5 1.5,1.5 0.822351,0 1.5,-0.677649 1.5,-1.5 l 0,-2 C 21,13.677649 20.322351,13 19.5,13 Z m 0,1 c 0.285649,0 0.5,0.214351 0.5,0.5 l 0,2 C 20,16.785649 19.785649,17 19.5,17 19.214351,17 19,16.785649 19,16.5 l 0,-2 C 19,14.214351 19.214351,14 19.5,14 Z m -9,-1 C 9.6776486,13 9,13.677649 9,14.5 l 0,2 c 0,0.822351 0.6776486,1.5 1.5,1.5 0.822351,0 1.5,-0.677649 1.5,-1.5 l 0,-2 C 12,13.677649 11.322351,13 10.5,13 Z m 0,1 c 0.285649,0 0.5,0.214351 0.5,0.5 l 0,2 C 11,16.785649 10.785649,17 10.5,17 10.214351,17 10,16.785649 10,16.5 l 0,-2 C 10,14.214351 10.214351,14 10.5,14 Z m -9,8 C 0.67764862,22 0,22.677649 0,23.5 l 0,4 C 0,28.322351 0.67764862,29 1.5,29 l 27,0 c 0.822351,0 1.5,-0.677649 1.5,-1.5 l 0,-4 C 30,22.677649 29.322351,22 28.5,22 Z m 0,1 27,0 c 0.285649,0 0.5,0.214351 0.5,0.5 l 0,4 c 0,0.285649 -0.214351,0.5 -0.5,0.5 l -27,0 C 1.2143514,28 1,27.785649 1,27.5 l 0,-4 C 1,23.214351 1.2143514,23 1.5,23 Z M 15,7 C 7.9370156,7.008774 1.7717378,11.695291 0.0625,18.376953 l -0.0039063,0.01172 c 0,0 -0.15227244,0.595493 0.03320312,1.248047 0.09273779,0.326277 0.2845889,0.68543 0.63085938,0.949219 C 1.0689267,20.849726 1.5473242,21 2.1425781,21 l 25.7109379,0 c 0.595254,0 1.075365,-0.150495 1.421875,-0.414062 0.346509,-0.263568 0.537501,-0.623064 0.630859,-0.949219 0.186717,-0.652312 0.03711,-1.248047 0.03711,-1.248047 l -0.0039,-0.01172 C 28.22984,11.693831 22.064528,7.0069207 15,7 Z m 0,1 c 6.619592,0.00648 12.368701,4.386333 13.966797,10.613281 3.98e-4,0.0021 0.07778,0.403214 -0.02148,0.75 -0.04976,0.173845 -0.12889,0.314349 -0.27539,0.425781 C 28.523422,19.900495 28.286714,20 27.853516,20 L 2.1425781,20 C 1.7093801,20 1.4741104,19.900274 1.328125,19.789062 1.1821396,19.677851 1.1040649,19.537004 1.0546875,19.363281 0.95695788,19.019442 1.0316284,18.627388 1.0332031,18.619141 2.6285918,12.390934 8.3805281,8.009098 15,8 Z"/>
</svg>