<svg fill="#000000" height="30" viewBox="0 0 30 30" width="30" xmlns="http://www.w3.org/2000/svg">
<path d="m 20.5,14 c 0.277,0 0.5,0.223 0.5,0.5 l 0,9 C 21,23.777 20.777,24 20.5,24 20.223,24 20,23.777 20,23.5 l 0,-9 C 20,14.223 20.223,14 20.5,14 Z m -6,0 c 0.277,0 0.5,0.223 0.5,0.5 l 0,9 C 15,23.777 14.777,24 14.5,24 14.223,24 14,23.777 14,23.5 l 0,-9 C 14,14.223 14.223,14 14.5,14 Z m -6,0 C 8.777,14 9,14.223 9,14.5 l 0,9 C 9,23.777 8.777,24 8.5,24 8.223,24 8,23.777 8,23.5 l 0,-9 C 8,14.223 8.223,14 8.5,14 Z M 18.526131,1.0001612 c 0.12958,0 0.252582,0.057543 0.343141,0.1503906 l 5.989375,6 C 25.302386,7.595078 24.599428,8.3049355 24.152868,7.857583 l -5.989376,-6 C 17.838798,1.5395792 18.017268,1.0001612 18.526131,1.0001612 Z m -8.052262,0 c -0.12958,0 -0.252582,0.057543 -0.343141,0.1503906 l -5.9893752,6 C 3.6976137,7.595078 4.4005716,8.3049355 4.847132,7.857583 l 5.989376,-6 C 11.161202,1.5395792 10.982732,1.0001612 10.473869,1.0001612 Z M 1.5,9 C 1.0862882,9 0.70328944,9.1588879 0.4140625,9.4316406 0.12483556,9.7043934 -0.07237486,10.131543 0.0078125,10.585938 l 3,17 c 0.062016,0.351421 0.2036614,0.690168 0.453125,0.958984 C 3.7104011,28.813738 4.0862882,29 4.5,29 l 20,0 c 0.413711,0 0.789599,-0.186262 1.039062,-0.455078 0.249464,-0.268816 0.391108,-0.607564 0.453126,-0.958984 l 3,-17 C 29.072375,10.131543 28.875164,9.7043934 28.585938,9.4316406 28.296711,9.1588879 27.913712,9 27.5,9 Z m 0,1 26,0 c 0.5,0 0.563755,0.205281 0.507812,0.414062 l -3,17 C 24.888726,27.858499 24.777445,28 24.5,28 l -20,0 C 4.1346162,28 4.0901883,27.779806 3.9921875,27.414062 l -3,-17 C 0.93000564,10.082531 1.2496425,10 1.5,10 Z"/>
</svg>