<svg fill="#000000" height="30" viewBox="0 0 30 30" width="30" xmlns="http://www.w3.org/2000/svg">
<path d="m 30,14.5 c -0.0043,0.276145 -0.223855,0.504321 -0.5,0.5 l -26,0 c -0.660681,0 -0.664445,-1 0,-1 l 26,0 c 0.282266,-0.0044 0.504417,0.217734 0.5,0.5 z m -15,14 c -9.1e-5,0.449402 -0.554394,0.662587 -0.853516,0.353516 l -13.99999995,-14 c -0.195185,-0.195265 -0.195185,-0.511767 0,-0.707032 L 14.146484,0.14648391 c 0.425272,-0.442886 1.166562,0.247502 0.707032,0.707032 L 1.207031,14.5 14.853516,28.146484 C 14.950886,28.240694 15,28.364517 15,28.5 Z"/>
</svg>