<svg fill="#000000" height="30" viewBox="0 0 30 30" width="30" xmlns="http://www.w3.org/2000/svg">
<path d="M 3.5,11 C 3.2425404,10.9987 3.0339808,11.193089 3.0078125,11.449219 L 1.0097656,28.441406 C 0.90571416,29.325887 1.6814567,30 2.5058594,30 l 24.9882816,0 c 0.824403,0 1.600142,-0.674114 1.496093,-1.558594 L 26.992188,11.449219 c -0.07807,-0.662826 -1.072331,-0.545625 -0.994141,0.117187 l 2,16.992188 C 28.023398,28.774092 27.777248,29 27.494141,29 L 2.5058594,29 C 2.2227531,29 1.9766018,28.774091 2.0019531,28.558594 l 2,-16.992188 C 4.0420211,11.26714 3.8019354,11.000898 3.5,11 Z M 15,4 c -2.203217,0 -4,1.7967833 -4,4 0,2.203217 1.796783,4 4,4 2.203217,0 4,-1.796783 4,-4 0,-2.2032167 -1.796783,-4 -4,-4 z m 0,1 c 1.662777,0 3,1.3372234 3,3 0,1.6627766 -1.337223,3 -3,3 -1.662777,0 -3,-1.3372234 -3,-3 0,-1.6627766 1.337223,-3 3,-3 z m 0,-5 c -4.412356,0 -8,3.5876444 -8,8 0,3.174802 1.6234589,6.602675 3.378906,9.275391 0.877724,1.336357 1.792294,2.480413 2.578125,3.304687 0.392916,0.412137 0.751348,0.74246 1.072266,0.984375 C 14.350215,21.806368 14.590231,22 15,22 c 0.409769,0 0.649785,-0.193632 0.970703,-0.435547 0.320918,-0.241915 0.67935,-0.572238 1.072266,-0.984375 0.785831,-0.824274 1.700401,-1.96833 2.578125,-3.304687 C 21.376541,14.602675 23,11.174802 23,8 23,3.5876444 19.412356,0 15,0 Z m 0,1 c 3.871916,0 7,3.1280844 7,7 0,2.825198 -1.522075,6.147325 -3.214844,8.724609 -0.846384,1.288643 -1.733209,2.394587 -2.466797,3.164063 -0.366794,0.384738 -0.696895,0.687227 -0.951171,0.878906 -0.304042,0.223496 -0.494055,0.184575 -0.734376,0 C 14.378536,20.575899 14.048435,20.27341 13.681641,19.888672 12.948053,19.119196 12.061228,18.013252 11.214844,16.724609 9.5220754,14.147325 8,10.825198 8,8 8,4.1280844 11.128084,1 15,1 Z"/>
</svg>