<svg fill="#000000" height="30" viewBox="0 0 30 30" width="30" xmlns="http://www.w3.org/2000/svg">
<path d="m 11.513903,13 c -0.450601,0 -0.688334,0.539754 -0.363257,0.857422 l 3.142369,3.140625 -3.146276,3.144531 c -0.454649,0.436365 0.255124,1.177387 0.706985,0.707031 l 3.146275,-3.144531 3.146275,3.144531 c 0.451861,0.470356 1.161634,-0.270666 0.706985,-0.707031 l -3.146276,-3.144531 3.14237,-3.140625 C 19.17443,13.539754 18.936697,13 18.486096,13 c -0.129684,0.0036 -0.253061,0.05764 -0.343727,0.150391 l -3.14237,3.140625 -3.142369,-3.140625 C 11.766964,13.05764 11.643586,13.0036 11.513903,13 Z M 2.5,8 27.5,8 C 27.777,8 28,8.223 28,8.5 28,8.777 27.777,9 27.5,9 L 2.5,9 C 2.223,9 2,8.777 2,8.5 2,8.223 2.223,8 2.5,8 Z M 7,6.5 A 0.5,0.5 0 0 1 6.5,7 0.5,0.5 0 0 1 6,6.5 0.5,0.5 0 0 1 6.5,6 0.5,0.5 0 0 1 7,6.5 Z m -2,0 A 0.5,0.5 0 0 1 4.5,7 0.5,0.5 0 0 1 4,6.5 0.5,0.5 0 0 1 4.5,6 0.5,0.5 0 0 1 5,6.5 Z m -2,0 A 0.5,0.5 0 0 1 2.5,7 0.5,0.5 0 0 1 2,6.5 0.5,0.5 0 0 1 2.5,6 0.5,0.5 0 0 1 3,6.5 Z M 1.5,4 C 0.67764862,4 0,4.6776486 0,5.5 l 0,19 C 0,25.322351 0.67764862,26 1.5,26 l 27,0 c 0.822351,0 1.5,-0.677649 1.5,-1.5 l 0,-19 C 30,4.6776486 29.322351,4 28.5,4 l -27,0 z m 0,1 27,0 C 28.785649,5 29,5.2143514 29,5.5 l 0,19 c 0,0.285649 -0.214351,0.5 -0.5,0.5 l -27,0 C 1.2143514,25 1,24.785649 1,24.5 L 1,5.5 C 1,5.2143514 1.2143514,5 1.5,5 Z"/>
</svg>