<svg fill="#000000" height="30" viewBox="0 0 30 30" width="30" xmlns="http://www.w3.org/2000/svg">
<path d="m 16,9 c -0.29828,0 -0.57436,0.089599 -0.810547,0.2304688 -0.233564,0.1393048 -0.400426,0.307559 -0.541016,0.4472656 l -2.999999,2.9335976 c -0.59872,0.488105 -0.715325,0.504678 -1.296876,0 L 9.3535156,11.664062 C 9.21125,11.522691 9.042634,11.355223 8.8105469,11.216797 8.5758332,11.076806 8.29828,11 8,11 7.70172,11 7.4280729,11.076808 7.1933594,11.216797 6.9612806,11.355222 6.7926587,11.522689 6.6503906,11.664062 l -3.4921875,3.478516 c -0.4686872,0.44572 0.2458312,1.168231 0.703125,0.710937 L 7.3535156,12.375 c 0.5549616,-0.495566 0.7144012,-0.493989 1.296875,-2e-6 l 0.9980469,0.94727 c 0.1422656,0.14137 0.3108815,0.308839 0.5429685,0.447265 0.234713,0.139991 0.510314,0.230469 0.808594,0.230469 0.298273,0 0.573872,-0.09047 0.808594,-0.230469 0.232086,-0.138425 0.400702,-0.305893 0.542968,-0.447265 l 3,-2.933598 c 0.52673,-0.4999998 0.798531,-0.4963933 1.294922,-2e-6 l 2.492188,2.451172 c 0.47397,0.487456 1.195789,-0.242383 0.703125,-0.710938 L 17.349609,9.6777344 C 17.209019,9.5380283 17.042156,9.3697734 16.808594,9.2304688 16.57388,9.0904774 16.29828,9 16,9 Z m 9.5,-3 c -0.676161,-0.00956 -0.676161,1.0095626 0,1 l 3,0 C 28.785649,7 29,7.2143514 29,7.5 l 0,21 c 0,0.285649 -0.214351,0.5 -0.5,0.5 l -21,0 C 7.2143514,29 7,28.785649 7,28.5 l 0,-3 c 0.00956,-0.676161 -1.0095626,-0.676161 -1,0 l 0,3 C 6,29.322351 6.6776486,30 7.5,30 l 21,0 c 0.822351,0 1.5,-0.677649 1.5,-1.5 l 0,-21 C 30,6.6776486 29.322351,6 28.5,6 Z M 6.5,4 C 5.1252104,4 4,5.1252104 4,6.5 4,7.8747896 5.1252104,9 6.5,9 7.8747896,9 9,7.8747896 9,6.5 9,5.1252104 7.8747896,4 6.5,4 Z m 0,1 C 7.3343494,5 8,5.6656506 8,6.5 8,7.3343494 7.3343494,8 6.5,8 5.6656506,8 5,7.3343494 5,6.5 5,5.6656506 5.6656506,5 6.5,5 Z m -3,14 17,0 c 0.277,0 0.5,0.223 0.5,0.5 0,0.277 -0.223,0.5 -0.5,0.5 l -17,0 C 3.223,20 3,19.777 3,19.5 3,19.223 3.223,19 3.5,19 Z M 1.5,0 C 0.67764862,0 0,0.67764862 0,1.5 l 0,21 C 0,23.322351 0.67764862,24 1.5,24 l 21,0 c 0.822351,0 1.5,-0.677649 1.5,-1.5 l 0,-21 C 24,0.67764862 23.322351,0 22.5,0 Z m 0,1 21,0 C 22.785649,1 23,1.2143514 23,1.5 l 0,21 c 0,0.285649 -0.214351,0.5 -0.5,0.5 l -21,0 C 1.2143514,23 1,22.785649 1,22.5 L 1,1.5 C 1,1.2143514 1.2143514,1 1.5,1 Z"/>
</svg>