<svg fill="#000000" height="30" viewBox="0 0 30 30" width="30" xmlns="http://www.w3.org/2000/svg">
<path d="m 15,6 c -1.099351,0 -2,0.9006486 -2,2 0,1.0993514 0.900649,2 2,2 1.099351,0 2,-0.9006486 2,-2 0,-1.0993514 -0.900649,-2 -2,-2 z m 0,1 c 0.562649,0 1,0.4373514 1,1 0,0.5626486 -0.437351,1 -1,1 C 14.437351,9 14,8.5626486 14,8 14,7.4373514 14.437351,7 15,7 Z M 15,0 C 6.7216516,0 0,6.7216511 0,15 0,23.278349 6.7216516,30 15,30 23.278348,30 30,23.278349 30,15 30,6.7216511 23.278348,0 15,0 Z m 0,1 C 22.737908,1 29,7.2620912 29,15 29,22.737909 22.737908,29 15,29 7.2620918,29 1,22.737909 1,15 1,7.2620912 7.2620918,1 15,1 Z m 0,10 c -1.099351,0 -2,0.900649 -2,2 l 0,9 c 0,1.099351 0.900649,2 2,2 1.099351,0 2,-0.900649 2,-2 l 0,-9 c 0,-1.099351 -0.900649,-2 -2,-2 z m 0,1 c 0.562649,0 1,0.437351 1,1 l 0,9 c 0,0.562649 -0.437351,1 -1,1 -0.562649,0 -1,-0.437351 -1,-1 l 0,-9 c 0,-0.562649 0.437351,-1 1,-1 z"/>
</svg>