<svg fill="#000000" height="30" viewBox="0 0 30 30" width="30" xmlns="http://www.w3.org/2000/svg">
<path d="M 5.5 5 C 4.8453535 5 4.840689 6.0093243 5.5 6 L 27.5 6 C 27.785649 6 28 6.2143514 28 6.5 L 28 19.5 C 28 20.159568 29 20.159434 29 19.5 L 29 6.5 C 29 5.6776486 28.322351 5 27.5 5 L 5.5 5 z M 3.5 7 C 2.8458645 7 2.8461828 8 3.5 8 L 25.5 8 C 25.785649 8 26 8.2143514 26 8.5 L 26 21.5 C 26 22.165364 27.009324 22.159311 27 21.5 L 27 8.5 C 27 7.6776486 26.322351 7 25.5 7 L 3.5 7 z M 1.5 9 C 0.67764862 9 0 9.677649 0 10.5 L 0 22.5 C 0 23.322351 0.67764862 24 1.5 24 L 23.5 24 C 24.322351 24 25 23.322351 25 22.5 L 25 10.5 C 25 9.677649 24.322351 9 23.5 9 L 1.5 9 z M 1.5 10 L 23.5 10 C 23.785649 10 24 10.214351 24 10.5 L 24 22.5 C 24 22.785649 23.785649 23 23.5 23 L 1.5 23 C 1.2143514 23 1 22.785649 1 22.5 L 1 10.5 C 1 10.214351 1.2143514 10 1.5 10 z M 2.5 11 C 2.2238691 11.000028 2.0000276 11.223869 2 11.5 L 2 13.5 C 2 14.172268 3 14.15633 3 13.5 L 3 12 L 4.5 12 C 5.172193 12 5.1563799 11 4.5 11 L 2.5 11 z M 12.5 11 C 9.4683562 11 7 13.468356 7 16.5 C 7 19.531644 9.4683562 22 12.5 22 C 15.531644 22 18 19.531644 18 16.5 C 18 13.468356 15.531644 11 12.5 11 z M 20.5 11 C 19.84362 11 19.827807 12 20.5 12 L 22 12 L 22 13.5 C 22 14.15633 23 14.172268 23 13.5 L 23 11.5 C 22.999972 11.223869 22.776131 11.000028 22.5 11 L 20.5 11 z M 12.5 12 C 14.991204 12 17 14.008796 17 16.5 C 17 18.991204 14.991204 21 12.5 21 C 10.008796 21 8 18.991204 8 16.5 C 8 14.008796 10.008796 12 12.5 12 z M 12.5 13 C 12.223004 13 12 13.223004 12 13.5 L 12 14.09375 C 11.422095 14.303053 11 14.855242 11 15.5 C 11 16.320445 11.679663 17 12.5 17 C 12.779794 17 13 17.212445 13 17.5 C 13 17.787555 12.779794 18 12.5 18 L 11.5 18 C 11.161919 17.9952 11 18.247609 11 18.5 C 11 18.752391 11.161919 19.004781 11.5 19 L 12 19 L 12 19.5 C 12 19.776996 12.223004 20 12.5 20 C 12.776996 20 13 19.776996 13 19.5 L 13 18.90625 C 13.577904 18.696947 14 18.144758 14 17.5 C 14 16.679555 13.320336 16 12.5 16 C 12.220205 16 12 15.787555 12 15.5 C 12 15.212445 12.220205 15 12.5 15 L 13.5 15 C 13.838081 15.0048 14 14.752391 14 14.5 C 14 14.247609 13.838081 13.995219 13.5 14 L 13 14 L 13 13.5 C 13 13.223004 12.776996 13 12.5 13 z M 2.5 19.001953 C 2.25 18.999961 2 19.163866 2 19.5 L 2 21.5 C 2.0000276 21.776131 2.2238691 21.999972 2.5 22 L 4.5 22 C 5.1563799 22 5.172193 21 4.5 21 L 3 21 L 3 19.5 C 3 19.171835 2.75 19.003945 2.5 19.001953 z M 22.5 19.001953 C 22.25 19.003945 22 19.171835 22 19.5 L 22 21 L 20.5 21 C 19.827807 21 19.84362 22 20.5 22 L 22.5 22 C 22.776131 21.999972 22.999972 21.776131 23 21.5 L 23 19.5 C 23 19.163866 22.75 18.999961 22.5 19.001953 z "/>
</svg>