<svg fill="#000000" height="30" viewBox="0 0 30 30" width="30" xmlns="http://www.w3.org/2000/svg">
<path d="m 14,12.487211 c 0.0036,-0.129505 0.05754,-0.252533 0.150392,-0.343074 L 15.1504,11.146101 c 0.195267,-0.194801 0.511772,-0.194801 0.707038,0 l 1.000009,0.998036 c 0.450122,0.449233 -0.270945,1.140875 -0.707038,0.705642 l -0.64649,-0.645214 -0.646489,0.645214 C 14.539423,13.174409 14,12.935929 14,12.487211 Z m 0,8.025578 c 0.0036,0.129505 0.05754,0.252533 0.150392,0.343074 l 1.000008,0.998036 c 0.195267,0.194801 0.511772,0.194801 0.707038,0 l 1.000009,-0.998036 c 0.450122,-0.449233 -0.270945,-1.140876 -0.707038,-0.705642 l -0.64649,0.645214 -0.646489,-0.645214 C 14.539423,19.82559 14,20.064071 14,20.512789 Z M 19.512789,15 c 0.129505,0.0036 0.252533,0.05754 0.343074,0.150392 l 0.998036,1.000008 c 0.194801,0.195267 0.194801,0.511772 0,0.707038 l -0.998036,1.000009 c -0.449233,0.450122 -1.140875,-0.270945 -0.705642,-0.707038 l 0.645214,-0.64649 -0.645214,-0.646489 C 18.825591,15.539423 19.064071,15 19.512789,15 Z m -8.025578,0 c -0.129505,0.0036 -0.252533,0.05754 -0.343074,0.150392 L 10.146101,16.1504 c -0.1948008,0.195267 -0.1948008,0.511772 0,0.707038 l 0.998036,1.000009 c 0.449233,0.450122 1.140876,-0.270945 0.705642,-0.707038 l -0.645214,-0.64649 0.645214,-0.646489 C 12.17441,15.539423 11.935929,15 11.487211,15 Z M 15.5,13 C 15.223,13 15,13.223 15,13.5 l 0,2.5 -2.5,0 c -0.277,0 -0.5,0.223 -0.5,0.5 0,0.277 0.223,0.5 0.5,0.5 l 2.5,0 0,2.5 c 0,0.277 0.223,0.5 0.5,0.5 0.277,0 0.5,-0.223 0.5,-0.5 l 0,-2.5 2.5,0 C 18.777,17 19,16.777 19,16.5 19,16.223 18.777,16 18.5,16 L 16,16 16,13.5 C 16,13.223 15.777,13 15.5,13 Z m -13,-5 25,0 C 27.777,8 28,8.223 28,8.5 28,8.777 27.777,9 27.5,9 L 2.5,9 C 2.223,9 2,8.777 2,8.5 2,8.223 2.223,8 2.5,8 Z M 7,6.5 A 0.5,0.5 0 0 1 6.5,7 0.5,0.5 0 0 1 6,6.5 0.5,0.5 0 0 1 6.5,6 0.5,0.5 0 0 1 7,6.5 Z m -2,0 A 0.5,0.5 0 0 1 4.5,7 0.5,0.5 0 0 1 4,6.5 0.5,0.5 0 0 1 4.5,6 0.5,0.5 0 0 1 5,6.5 Z m -2,0 A 0.5,0.5 0 0 1 2.5,7 0.5,0.5 0 0 1 2,6.5 0.5,0.5 0 0 1 2.5,6 0.5,0.5 0 0 1 3,6.5 Z M 1.5,4 C 0.67764862,4 0,4.6776486 0,5.5 l 0,19 C 0,25.322351 0.67764862,26 1.5,26 l 27,0 c 0.822351,0 1.5,-0.677649 1.5,-1.5 l 0,-19 C 30,4.6776486 29.322351,4 28.5,4 l -27,0 z m 0,1 27,0 C 28.785649,5 29,5.2143514 29,5.5 l 0,19 c 0,0.285649 -0.214351,0.5 -0.5,0.5 l -27,0 C 1.2143514,25 1,24.785649 1,24.5 L 1,5.5 C 1,5.2143514 1.2143514,5 1.5,5 Z"/>
</svg>