<svg fill="#000000" height="30" viewBox="0 0 30 30" width="30" xmlns="http://www.w3.org/2000/svg">
<path d="M 10.5,5 C 10.4266,4.9991721 10.359776,5.014509 10.292969,5.044922 L 0.83007812,9.3496094 C 0.0928,9.6850281 -0.20344447,10.577277 0.14257812,11.294922 L 6.3554688,24.179688 c 0.3462392,0.718094 1.24026,1.068904 1.9667968,0.664062 L 11.744141,22.9375 c 0.588032,-0.298702 0.04413,-1.179307 -0.486329,-0.873047 l -3.4238276,1.90625 c -0.1964183,0.109449 -0.4674404,0.009 -0.5800782,-0.224609 L 6.8398438,22.888672 8.7246094,21.947266 C 9.3303505,21.643088 8.803034,20.787773 8.2753906,21.052734 L 6.40625,21.988281 1.0429688,10.861328 C 0.93011433,10.62727 1.0196961,10.361875 1.2441406,10.259766 L 10.707031,5.9550781 C 11.19244,5.7332613 10.994142,5 10.5,5 Z m 4.777345,-1.0000003 c -0.190303,-0.00133 -0.377627,0.03483 -0.552735,0.1035156 -0.350216,0.1373714 -0.647892,0.4072531 -0.808593,0.7753906 L 8.1210946,18.152343 c -0.3214035,0.736275 0.019597,1.608279 0.7558593,1.929687 l 13.2773441,5.796875 c 0.736262,0.32141 1.608284,-0.01959 1.929687,-0.755859 l 5.794923,-13.277344 c 0.321404,-0.736275 -0.02154,-1.608278 -0.757812,-1.9296868 L 15.845704,4.1191403 C 15.661638,4.0387881 15.467648,4.001327 15.277345,3.9999997 Z m -0.01563,0.9941406 c 0.06059,0.00146 0.122496,0.016297 0.183593,0.042969 l 13.277345,5.7949217 c 0.244389,0.106687 0.344965,0.368889 0.238282,0.613281 L 24.140626,22.492187 10.009767,16.326171 14.832032,5.2773435 c 0.08001,-0.1832952 0.247917,-0.2875822 0.429683,-0.2832032 z M 9.6093708,17.242187 23.74023,23.410155 l -0.572265,1.3125 c -0.106685,0.244393 -0.368894,0.34692 -0.613281,0.240235 L 9.2773446,19.167968 C 9.0329552,19.061281 8.9304265,18.797126 9.0371102,18.552733 Z M 7.5000004,15.999999 c -0.2190092,-0.0018 -0.4078701,0.133196 -0.4746094,0.341797 l -1,3.000001 c -0.1945311,0.583593 0.732422,0.966796 0.9492188,0.316406 l 1,-3.000001 c 0.112315,-0.32346 -0.1322133,-0.655715 -0.4746094,-0.658203 z m 8.9999996,-3 c -0.07465,0.0013 -0.155876,0.01933 -0.222656,0.05273 l -4,2 c -0.596738,0.266875 -0.09296,1.190873 0.445312,0.894532 l 3.605469,-1.802735 1.755859,2.632813 c 0.13979,0.2093 0.413356,0.282084 0.638672,0.169922 l 3.605469,-1.802735 1.755859,2.632814 c 0.35219,0.546593 1.191207,-0.03374 0.832032,-0.554689 l -2,-3 c -0.13979,-0.2093 -0.413356,-0.282084 -0.638672,-0.169922 l -3.605469,1.802735 -1.755859,-2.632813 C 16.821756,13.081232 16.669933,12.99737 16.5,12.999999 Z M 17,7.9999998 c -1.099351,0 -2,0.9006487 -2,1.9999997 0,1.0993515 0.900649,1.9999995 2,1.9999995 1.099351,0 2,-0.900648 2,-1.9999995 0,-1.099351 -0.900649,-1.9999997 -2,-1.9999997 z m 0,1.0000001 c 0.562649,0 1,0.4373514 1,0.9999996 C 18,10.562649 17.562649,11 17,11 16.437351,11 16,10.562649 16,9.9999995 16,9.4373513 16.437351,8.9999999 17,8.9999999 Z M 6.0000004,11 c -1.0993514,0 -2,0.900648 -2,1.999999 0,1.099351 0.9006486,2 2.0000001,2 1.0993513,0 1.9999999,-0.900649 1.9999999,-2 0,-1.099351 -0.9006486,-1.999999 -2,-1.999999 z m 10e-8,0.999999 c 0.5626485,0 0.9999999,0.437351 0.9999999,1 0,0.562649 -0.4373514,1 -0.9999999,1 -0.5626487,0 -1.0000001,-0.437351 -1.0000001,-1 0,-0.562649 0.4373514,-1 1.0000001,-1 z"/>
</svg>