<svg fill="#000000" height="30" viewBox="0 0 30 30" width="30" xmlns="http://www.w3.org/2000/svg">
<path d="M 14.5,0 C 10.363787,0 7,3.3637867 7,7.5 l 0,3 c 0,0.656551 1,0.668366 1,0 l 0,-3 C 8,3.9042269 10.904227,1 14.5,1 18.095773,1 21,3.9042269 21,7.5 l 0,3 c 0,0.676239 1,0.64446 1,0 l 0,-3 C 22,3.3637867 18.636213,0 14.5,0 Z m 0,17 c -1.37479,0 -2.5,1.12521 -2.5,2.5 6.09e-4,0.769723 0.406002,1.444602 1,1.914062 L 13,23.5 c 0,0.822351 0.677649,1.5 1.5,1.5 0.822351,0 1.5,-0.677649 1.5,-1.5 l 0,-2.087891 C 16.593505,20.943174 16.99864,20.268973 17,19.5 17,18.12521 15.87479,17 14.5,17 Z m 0,1 c 0.834349,0 1.5,0.665651 1.5,1.5 -9.47e-4,0.535746 -0.286029,1.027049 -0.75,1.294922 -0.154873,0.08943 -0.250198,0.254756 -0.25,0.433594 L 15,23.5 C 15,23.785649 14.785649,24 14.5,24 14.214351,24 14,23.785649 14,23.5 l 0,-2.269531 C 14.000198,21.051631 13.90487,20.886303 13.75,20.796875 13.285574,20.528739 13.000424,20.036273 13,19.5 13,18.665651 13.665651,18 14.5,18 Z m -9,-6 C 4.6776486,12 4,12.677649 4,13.5 l 0,15 C 4,29.322351 4.6776486,30 5.5,30 l 18,0 c 0.822351,0 1.5,-0.677649 1.5,-1.5 l 0,-15 C 25,12.677649 24.322351,12 23.5,12 Z m 0,1 18,0 c 0.285649,0 0.5,0.214351 0.5,0.5 l 0,15 c 0,0.285649 -0.214351,0.5 -0.5,0.5 l -18,0 C 5.2143514,29 5,28.785649 5,28.5 l 0,-15 C 5,13.214351 5.2143514,13 5.5,13 Z"/>
</svg>