<svg fill="#000000" height="30" viewBox="0 0 30 30" width="30" xmlns="http://www.w3.org/2000/svg">
<path d="M 14.5,0 C 14.223855,0.0043084 13.995679,0.223855 14,0.5 l 0,26 c 0,0.660681 1,0.664445 1,0 l 0,-26 C 15.004417,0.21773383 14.782266,-0.00441655 14.5,0 Z m -14,15 c -0.44940232,9.1e-5 -0.66258697,0.554394 -0.35351562,0.853516 l 13.99999962,14 c 0.195265,0.195185 0.511767,0.195185 0.707032,0 l 14,-14 c 0.442886,-0.425272 -0.247502,-1.166562 -0.707032,-0.707032 L 14.5,28.792969 0.85351562,15.146484 C 0.75930822,15.049114 0.63548306,15 0.5,15 Z"/>
</svg>