<svg fill="#000000" height="30" viewBox="0 0 30 30" width="30" xmlns="http://www.w3.org/2000/svg">
<path d="m 24.500229,4 c 0.444444,9.06e-5 0.668983,0.5364304 0.349615,0.8463368 L 23.860877,5.8379261 C 23.394821,6.3246245 22.676234,5.6041324 23.161645,5.1368416 L 24.150613,4.1452523 C 24.243781,4.0487024 24.36624,4 24.500229,4 Z M 4.4997712,4 C 4.0553268,4.0000906 3.8307876,4.5364304 4.1501557,4.8463368 L 5.1391235,5.8379261 C 5.605179,6.3246245 6.3237664,5.6041324 5.8383546,5.1368416 L 4.8493868,4.1452523 C 4.7562188,4.0487024 4.6337598,4 4.4997712,4 Z M 26,14.5 C 26,14.223 26.223,14 26.5,14 l 2,0 c 0.277,0 0.5,0.223 0.5,0.5 0,0.277 -0.223,0.5 -0.5,0.5 l -2,0 C 26.223,15 26,14.777 26,14.5 Z m -26,0 C 0,14.223 0.223,14 0.5,14 l 2,0 C 2.777,14 3,14.223 3,14.5 3,14.777 2.777,15 2.5,15 l -2,0 C 0.223,15 0,14.777 0,14.5 Z M 14.5,26 c 0.277,0 0.5,0.223 0.5,0.5 l 0,2 C 15,28.777 14.777,29 14.5,29 14.223,29 14,28.777 14,28.5 l 0,-2 C 14,26.223 14.223,26 14.5,26 Z m 0,-26 C 14.777,0 15,0.223 15,0.5 l 0,2 C 15,2.777 14.777,3 14.5,3 14.223,3 14,2.777 14,2.5 l 0,-2 C 14,0.223 14.223,0 14.5,0 Z m 0,5 C 9.2592172,5 5,9.2592172 5,14.5 5,19.740783 9.2592172,24 14.5,24 19.740783,24 24,19.740783 24,14.5 24,9.2592172 19.740783,5 14.5,5 Z m 0,1 C 19.200343,6 23,9.7996573 23,14.5 23,19.200343 19.200343,23 14.5,23 9.7996573,23 6,19.200343 6,14.5 6,9.7996573 9.7996573,6 14.5,6 Z m 10.000229,19 c 0.444444,-9e-5 0.668983,-0.53643 0.349615,-0.846336 l -0.988967,-0.99159 c -0.466056,-0.486698 -1.184643,0.233794 -0.699232,0.701085 l 0.988968,0.991589 C 24.243783,24.951298 24.36624,25 24.500229,25 Z M 4.4997712,25 c -0.4444444,-9e-5 -0.6689836,-0.53643 -0.3496155,-0.846336 l 0.9889678,-0.99159 c 0.4660555,-0.486698 1.1846429,0.233794 0.6992311,0.701085 L 4.8493868,24.854748 C 4.7562188,24.951298 4.6337598,25 4.4997712,25 Z"/>
</svg>