<svg fill="#000000" height="30" viewBox="0 0 30 30" width="30" xmlns="http://www.w3.org/2000/svg">
<path d="M 10.5,2 C 9.6776486,2 9,2.6776486 9,3.5 l 0,2 c 0,0.6710516 1.009329,0.6596699 1,0 l 0,-2 C 10,3.2143514 10.214351,3 10.5,3 l 9,0 C 19.785649,3 20,3.2143514 20,3.5 l 0,2 c 0,0.6598296 1,0.6712684 1,0 l 0,-2 C 21,2.6776486 20.322351,2 19.5,2 Z m 16.992188,7 c -0.148623,0 -0.285063,0.057952 -0.373047,0.1777344 l -5.5,6.4999996 C 21.160483,16.219785 20.86452,16.561969 20.599609,16.742188 20.434128,16.854764 20.239474,16.916491 20,16.955078 L 20,16.5 C 20,16.223 19.777,16 19.5,16 19.223,16 19,16.223 19,16.5 l 0,0.5 -8,0 0,-0.5 C 11,16.223 10.777,16 10.5,16 10.223,16 10,16.223 10,16.5 l 0,0.455078 C 9.7605261,16.916491 9.5658723,16.854764 9.4003906,16.742188 9.13548,16.561969 8.8395176,16.219785 8.3808594,15.677734 l -5.5,-6.4999996 C 2.7842672,9.0595229 2.6526402,8.997768 2.5,9 2.0796684,9 1.8407551,9.5022164 2.1191406,9.8222656 l 5.5,6.5000004 c 0.4548421,0.53754 0.7779367,0.946209 1.21875,1.246093 C 9.1655421,17.79126 9.544703,17.920594 10,17.972656 L 10,18.5 c 0,0.277 0.223,0.5 0.5,0.5 0.277,0 0.5,-0.223 0.5,-0.5 l 0,-0.5 8,0 0,0.5 c 0,0.277 0.223,0.5 0.5,0.5 0.277,0 0.5,-0.223 0.5,-0.5 l 0,-0.527344 c 0.455297,-0.05206 0.834458,-0.181396 1.162109,-0.404297 0.440814,-0.299884 0.763908,-0.708553 1.21875,-1.246093 l 5.5,-6.5000004 C 28.152996,9.5501285 27.920624,9 27.492188,9 Z M 1.5,7 C 0.67764862,7 0,7.6776486 0,8.5 l 0,18 C 0,27.322351 0.67764862,28 1.5,28 l 27,0 c 0.822351,0 1.5,-0.677649 1.5,-1.5 l 0,-18 C 30,7.6776486 29.322351,7 28.5,7 Z m 0,1 27,0 C 28.785649,8 29,8.2143514 29,8.5 l 0,18 c 0,0.285649 -0.214351,0.5 -0.5,0.5 l -27,0 C 1.2143514,27 1,26.785649 1,26.5 L 1,8.5 C 1,8.2143514 1.2143514,8 1.5,8 Z"/>
</svg>