<svg fill="#000000" height="30" viewBox="0 0 30 30" width="30" xmlns="http://www.w3.org/2000/svg">
<path d="m 13.5,19 3,0 c 0.277,0 0.5,0.223 0.5,0.5 0,0.277 -0.223,0.5 -0.5,0.5 l -3,0 C 13.223,20 13,19.777 13,19.5 13,19.223 13.223,19 13.5,19 Z m 8,0 3,0 c 0.277,0 0.5,0.223 0.5,0.5 0,0.277 -0.223,0.5 -0.5,0.5 l -3,0 C 21.223,20 21,19.777 21,19.5 21,19.223 21.223,19 21.5,19 Z m -16,0 3,0 C 8.777,19 9,19.223 9,19.5 9,19.777 8.777,20 8.5,20 l -3,0 C 5.223,20 5,19.777 5,19.5 5,19.223 5.223,19 5.5,19 Z m 8,-6 3,0 c 0.277,0 0.5,0.223 0.5,0.5 0,0.277 -0.223,0.5 -0.5,0.5 l -3,0 C 13.223,14 13,13.777 13,13.5 13,13.223 13.223,13 13.5,13 Z m 8,0 3,0 c 0.277,0 0.5,0.223 0.5,0.5 0,0.277 -0.223,0.5 -0.5,0.5 l -3,0 C 21.223,14 21,13.777 21,13.5 21,13.223 21.223,13 21.5,13 Z m -16,0 3,0 C 8.777,13 9,13.223 9,13.5 9,13.777 8.777,14 8.5,14 l -3,0 C 5.223,14 5,13.777 5,13.5 5,13.223 5.223,13 5.5,13 Z M 23.5,3 C 23.777,3 24,3.223 24,3.5 l 0,4 C 24,7.777 23.777,8 23.5,8 23.223,8 23,7.777 23,7.5 l 0,-4 C 23,3.223 23.223,3 23.5,3 Z M 6.5,3 C 6.777,3 7,3.223 7,3.5 l 0,4 C 7,7.777 6.777,8 6.5,8 6.223,8 6,7.777 6,7.5 l 0,-4 C 6,3.223 6.223,3 6.5,3 Z m -5,2 C 0.67764862,5 0,5.6776486 0,6.5 l 0,19 C 0,26.322351 0.67764862,27 1.5,27 l 27,0 c 0.822351,0 1.5,-0.677649 1.5,-1.5 l 0,-19 C 30,5.6776486 29.322351,5 28.5,5 l -3,0 c -0.656454,0 -0.664324,1 0,1 l 3,0 C 28.785649,6 29,6.2143514 29,6.5 l 0,19 c 0,0.285649 -0.214351,0.5 -0.5,0.5 l -27,0 C 1.2143514,26 1,25.785649 1,25.5 L 1,6.5 C 1,6.2143514 1.2143514,6 1.5,6 l 3,0 c 0.672193,0 0.6604257,-1 0,-1 z m 7,0 c -0.6485112,0 -0.6602757,1 0,1 l 13,0 c 0.656303,0 0.668296,-1 0,-1 z"/>
</svg>