<svg fill="#000000" height="30" viewBox="0 0 30 30" width="30" xmlns="http://www.w3.org/2000/svg">
<path d="M 25.5,3 C 23.020641,2.9999999 21,5.020641 21,7.5 21,9.979359 23.020641,12 25.5,12 27.979359,12 30,9.979359 30,7.5 30,5.020641 27.979359,2.9999999 25.5,3 Z m 0,1 C 27.438919,3.9999999 29,5.5610811 29,7.5 29,9.438919 27.438919,11 25.5,11 23.561081,11 22,9.438919 22,7.5 22,5.5610811 23.561081,3.9999999 25.5,4 Z m 0,1 C 25.223,5 25,5.223 25,5.5 L 25,7 23.5,7 C 23.223,7 23,7.223 23,7.5 23,7.777 23.223,8 23.5,8 L 25,8 25,9.5 C 25,9.777 25.223,10 25.5,10 25.777,10 26,9.777 26,9.5 L 26,8 27.5,8 C 27.777,8 28,7.777 28,7.5 28,7.223 27.777,7 27.5,7 L 26,7 26,5.5 C 26,5.223 25.777,5 25.5,5 Z M 10.499979,16 23.5,16 c 0.277,0 0.5,0.223 0.5,0.5 0,0.277 -0.223,0.5 -0.5,0.5 l -13.000021,0 c -0.277,0 -0.4999998,-0.223 -0.4999998,-0.5 0,-0.277 0.2229998,-0.5 0.4999998,-0.5 z M 9.5,12 l 12,0 c 0.277,0 0.5,0.223001 0.5,0.5 0,0.277001 -0.223,0.500001 -0.5,0.500001 l -12,0 C 9.223,13.000001 9,12.777001 9,12.5 9,12.223001 9.223,12 9.5,12 Z m 12,10 C 20.125211,22 19,23.125211 19,24.5 19,25.874789 20.125211,27 21.5,27 22.874789,27 24,25.874789 24,24.5 24,23.125211 22.874789,22 21.5,22 Z m 0,1 C 22.334349,23 23,23.665651 23,24.5 23,25.334349 22.334349,26 21.5,26 20.665651,26 20,25.334349 20,24.5 20,23.665651 20.665651,23 21.5,23 Z m -10,-1 C 10.12521,22 9,23.12521 9,24.5 9,25.87479 10.12521,27 11.5,27 12.87479,27 14,25.87479 14,24.5 14,23.12521 12.87479,22 11.5,22 Z m 0,1 C 12.334349,23 13,23.665651 13,24.5 13,25.334349 12.334349,26 11.5,26 10.665651,26 10,25.334349 10,24.5 10,23.665651 10.665651,23 11.5,23 Z M 0.5078125,4 c -0.66986777,0 -0.67650628,1 0,1 l 3.5917969,0 c 0.07464,0.3552884 0.6411664,3.0549236 1.3144531,6.228516 0.3580762,1.687821 0.723729,3.407091 1.0175781,4.767578 0.2938492,1.360487 0.5058493,2.32642 0.5878906,2.632812 0.1324399,0.494611 0.2560164,1.056529 0.6191407,1.544922 C 8.0017962,20.662221 8.6393261,21 9.5,21 l 13.992188,0 c 0.860674,0 1.498203,-0.337779 1.861328,-0.826172 0.363124,-0.488393 0.4867,-1.050311 0.61914,-1.544922 0.08867,-0.331168 0.225717,-1.101517 0.410156,-2.070312 0.18444,-0.968796 0.40263,-2.091709 0.601563,-2.945313 C 27.148703,13 26.127611,12.734384 26.011719,13.386719 c -0.206128,0.884479 -0.426339,2.012691 -0.611328,2.984375 -0.18499,0.971684 -0.347371,1.831168 -0.392579,2 -0.135326,0.505389 -0.262524,0.943471 -0.457031,1.205078 C 24.356275,19.837778 24.130487,20 23.492188,20 L 9.5,20 C 8.8617003,20 8.6359129,19.837778 8.4414062,19.576172 8.2468996,19.314565 8.1197008,18.876483 7.984375,18.371094 7.9325335,18.177486 7.7035252,17.14342 7.4101562,15.785156 7.1167873,14.426893 6.750518,12.708663 6.3925781,11.021484 5.6766984,7.6471266 4.9941406,4.3964844 4.9941406,4.3964844 4.9451301,4.1649734 4.7405476,3.9995142 4.5039062,4 Z m 7.9941406,4 c -0.6644858,0 -0.6566722,1 0,1 l 9.9921879,0 c 0.672359,0 0.656451,-1 0,-1 z"/>
</svg>