<svg fill="#000000" height="30" viewBox="0 0 30 30" width="30" xmlns="http://www.w3.org/2000/svg">
<path d="m 15,7 c -2.755502,0 -5,2.2444981 -5,5 0,2.755502 2.244498,5 5,5 2.755502,0 5,-2.244498 5,-5 0,-2.7555019 -2.244498,-5 -5,-5 z m 0,1 c 2.215062,0 4,1.7849381 4,4 0,2.215062 -1.784938,4 -4,4 -2.215062,0 -4,-1.784938 -4,-4 0,-2.2150619 1.784938,-4 4,-4 z M 15,0 C 8.3785053,0 3,5.3785053 3,12 c 0,3.951314 2.3262332,8.37371 4.9335938,11.861328 1.3036802,1.743809 2.6827072,3.250151 3.9082032,4.333984 0.612748,0.541917 1.187105,0.977863 1.707031,1.289063 C 14.068755,29.795575 14.524187,30 15,30 c 0.475813,0 0.931245,-0.204425 1.451172,-0.515625 0.519926,-0.3112 1.094283,-0.747146 1.707031,-1.289063 1.225496,-1.083833 2.604523,-2.590175 3.908203,-4.333984 C 24.673767,20.37371 27,15.951314 27,12 27,5.3785054 21.621495,0 15,0 Z m 0,1 c 6.081055,0 11,4.9189454 11,11 0,3.548686 -2.201952,7.87629 -4.734375,11.263672 -1.266212,1.693691 -2.609946,3.156099 -3.769531,4.18164 -0.579793,0.512771 -1.115902,0.916669 -1.558594,1.181641 C 15.494808,28.891925 15.134404,29 15,29 14.865596,29 14.505192,28.891925 14.0625,28.626953 13.619808,28.361981 13.083699,27.958083 12.503906,27.445312 11.344321,26.419771 10.000587,24.957363 8.734375,23.263672 6.2019518,19.87629 4,15.548686 4,12 4,5.9189455 8.9189455,1 15,1 Z"/>
</svg>