<svg fill="#000000" height="30" viewBox="0 0 30 30" width="30" xmlns="http://www.w3.org/2000/svg">
<path d="m 15.000017,2.0006416 c -0.06642,0.00339 -0.156908,0.019974 -0.216841,0.048796 L 0.2802836,9.0448587 C -0.32292397,9.3344643 0.15329783,10.215793 0.71396385,9.9466123 L 15.000017,3.0546392 29.286069,9.9466123 c 0.582761,0.2797887 1.02584,-0.6174519 0.43368,-0.9017535 L 15.216857,2.0494377 c -0.07539,-0.036253 -0.133281,-0.053031 -0.21684,-0.048796 z M 2.5,10.999598 C 2.2238552,11.003905 1.9956794,11.223983 2,11.5 l 0,15.000231 c 0,0.821971 0.6776486,1.499306 1.5,1.499306 l 7,0 c 0.276131,-2.8e-5 0.499973,-0.223766 0.5,-0.499769 l 0,-7.496528 c 0,-2.223619 1.775351,-3.998148 4,-3.998148 2.224649,0 4,1.774529 4,3.998148 l 0,7.496528 c 2.7e-5,0.276003 0.223869,0.499741 0.5,0.499769 l 7,0 c 0.822351,0 1.5,-0.677335 1.5,-1.499306 l 0,-14.993056 c 0,-0.652414 -1,-0.676082 -1,0 l 0,14.993056 C 27,26.785748 26.785649,27 26.5,27 l -6.5,0 0,-6.99676 c 0,-2.760072 -2.238649,-4.997685 -5,-4.997685 -2.761351,0 -5,2.237613 -5,4.997685 L 10,27 3.5,27 C 3.2143514,27 3,26.785748 3,26.500231 L 3,11.5 C 3.00442,11.217864 2.7822662,10.995183 2.5,10.999598 Z"/>
</svg>