<svg fill="#000000" height="30" viewBox="0 0 30 30" width="30" xmlns="http://www.w3.org/2000/svg">
<path d="m 6.4891092,26.000187 c -0.1290358,0.0036 -0.2516181,0.05722 -0.3418315,0.14955 L 5.152859,27.144156 c -0.4880565,0.468624 0.23446,1.191142 0.7030851,0.703086 l 0.9944187,-0.994419 c 0.3234533,-0.316229 0.097338,-0.852636 -0.3612536,-0.852636 z m -3,0 c -0.1290358,0.0036 -0.2516181,0.05722 -0.3418315,0.14955 L 2.152859,27.144156 c -0.4880565,0.468624 0.23446,1.191142 0.7030851,0.703086 l 0.9944187,-0.994419 c 0.3234533,-0.316229 0.086495,-0.852636 -0.3612536,-0.852636 z m 0,-3 c -0.1290358,0.0036 -0.2516181,0.05722 -0.3418315,0.14955 L 2.152859,24.144156 c -0.4880565,0.468624 0.23446,1.191142 0.7030851,0.703086 L 3.8503628,23.852823 C 4.1738161,23.536594 3.9415636,23.000187 3.4891092,23.000187 Z M 6.5,19 C 6.2246277,19.004311 5.9967664,19.224613 6,19.5 L 6,20 c 0,2.203217 1.7967833,4 4,4 l 0.5,0 c 0.680802,0 0.640494,-1 0,-1 L 10,23 C 8.3372233,23 7,21.662777 7,20 L 7,19.5 C 7.0033052,19.218496 6.7814888,18.99561 6.5,19 Z M 21,5 c -2.203217,1e-7 -4,1.7967833 -4,4 0,2.203217 1.796783,4 4,4 2.203217,0 4,-1.796783 4,-4 0,-2.2032167 -1.796783,-3.9999999 -4,-4 z m 0,1 c 1.662777,1e-7 3,1.3372234 3,3 0,1.662777 -1.337223,3 -3,3 -1.662777,0 -3,-1.337223 -3,-3 0,-1.6627766 1.337223,-2.9999999 3,-3 z M 27.306641,0.0234375 C 26.489342,-0.03219344 25.518271,0.05649527 24.441406,0.27148438 22.287678,0.70146259 19.712838,1.6444859 17.25,3.0664062 12.319626,5.9129592 8.844076,10.230414 6.046875,16.291016 5.5366715,17.396457 4.038495,19.067526 2.8339844,19.703125 2.231729,20.020925 1.7928764,20.056909 1.5429688,19.898438 1.2930611,19.739966 1,19.228516 1,18 1,16.883333 1.4804254,15.023003 2.1445312,13.513672 2.4765842,12.759006 2.854846,12.085238 3.2128906,11.628906 3.5709353,11.172575 3.9027778,11 4,11 4.2638889,11 4.4066915,11.07136 4.5351562,11.185547 4.663621,11.299738 4.7692396,11.477087 4.84375,11.675781 4.9927707,12.07317 5,12.5 5,12.5 c -0.00956,0.676161 1.0095626,0.676161 1,0 0,0 0.00723,-0.57317 -0.21875,-1.175781 C 5.6682604,11.022913 5.492629,10.700262 5.1992188,10.439453 4.9058085,10.178644 4.4861111,10 4,10 3.3472222,10 2.8665647,10.452425 2.4277344,11.011719 1.988904,11.571012 1.5859158,12.303494 1.2304688,13.111328 0.51957464,14.726997 0,16.616667 0,18 c 0,1.383147 0.31300861,2.301597 1.0078125,2.742188 0.6948039,0.44059 1.5394549,0.243319 2.2929687,-0.154297 C 4.807809,19.792658 6.3094823,18.103543 6.953125,16.708984 9.6943856,10.769586 13.021174,6.6637828 17.75,3.9335938 c 2.366762,-1.3664507 4.859617,-2.2769426 6.886719,-2.6816407 1.013551,-0.202349 1.911573,-0.27743414 2.601562,-0.2304687 0.68999,0.046965 1.148786,0.2327702 1.328125,0.4121094 0.179339,0.179339 0.365144,0.6381354 0.41211,1.328125 0.04697,0.6899895 -0.02812,1.5880113 -0.230469,2.6015624 -0.404698,2.0271024 -1.31519,4.5199569 -2.681641,6.8867188 -2.730189,4.728826 -6.835993,8.055615 -12.77539,10.796875 -1.394559,0.643643 -3.083674,2.145316 -3.8789066,3.652344 C 9.0144933,27.452733 8.8172225,28.297384 9.2578125,28.992188 9.6984025,29.686991 10.616853,30 12,30 c 1.383333,0 3.273003,-0.519575 4.888672,-1.230469 0.807834,-0.355447 1.540316,-0.758435 2.099609,-1.197265 C 19.547575,27.133435 20,26.652778 20,26 20,25.513889 19.821356,25.094192 19.560547,24.800781 19.299738,24.507371 18.977087,24.33174 18.675781,24.21875 18.07317,23.992771 17.5,24 17.5,24 c -0.676161,-0.0096 -0.676161,1.009563 0,1 0,0 0.42683,0.0072 0.824219,0.15625 0.198694,0.07451 0.376043,0.180129 0.490234,0.308594 C 18.928644,25.593308 19,25.736111 19,26 c 0,0.09722 -0.172575,0.429065 -0.628906,0.787109 -0.456332,0.358045 -1.1301,0.736307 -1.884766,1.06836 C 14.976997,28.519575 13.116667,29 12,29 c -1.228516,0 -1.739966,-0.293061 -1.898438,-0.542969 -0.1584713,-0.249907 -0.1224866,-0.68876 0.195313,-1.291015 0.635599,-1.204511 2.306668,-2.702687 3.412109,-3.212891 6.060603,-2.7972 10.378057,-6.272751 13.22461,-11.203125 1.42192,-2.462838 2.364943,-5.0376776 2.794922,-7.1914062 0.214989,-1.0768644 0.303677,-2.0479356 0.248046,-2.8652344 -0.05563,-0.8172988 -0.238925,-1.5025979 -0.703124,-1.9667969 -0.4642,-0.46419891 -1.149499,-0.64749406 -1.966797,-0.703125 z"/>
</svg>