<svg fill="#000000" height="30" viewBox="0 0 30 30" width="30" xmlns="http://www.w3.org/2000/svg">
<path d="m 0.5,16 3,0 C 3.777,16 4,16.223 4,16.5 4,16.777 3.777,17 3.5,17 l -3,0 C 0.223,17 0,16.777 0,16.5 0,16.223 0.223,16 0.5,16 Z m 0,-5 3,0 C 3.777,11 4,11.223 4,11.5 4,11.777 3.777,12 3.5,12 l -3,0 C 0.223,12 0,11.777 0,11.5 0,11.223 0.223,11 0.5,11 Z m 0,-5 3,0 C 3.777,6 4,6.223 4,6.5 4,6.777 3.777,7 3.5,7 l -3,0 C 0.223,7 0,6.777 0,6.5 0,6.223 0.223,6 0.5,6 Z m 7,-4.0003491 c -0.8223514,0 -1.5,0.6776486 -1.5,1.5 L 6,20.499651 c 0,0.822351 0.6776486,1.5 1.5,1.5 l 2.500485,0 0,4.5 c 0,0.347655 0.05138,0.64714 0.183593,0.908203 0.132211,0.261063 0.373948,0.480361 0.658203,0.554688 0.56851,0.148652 1.075753,-0.163413 1.515625,-0.613282 1.524371,-1.559015 4.226639,-4.235781 5.34961,-5.349609 l 10.792484,0 c 0.822351,0 1.5,-0.677649 1.5,-1.5 L 30,3.4996509 c 0,-0.8223514 -0.677649,-1.5 -1.5,-1.5 z m 0,1 21,0 c 0.285649,0 0.5,0.2143514 0.5,0.5 l 0,17.0000001 c 0,0.285649 -0.214351,0.5 -0.5,0.5 l -10.999516,0 c -0.131643,2.3e-5 -0.257967,0.05196 -0.351562,0.144531 -1.059329,1.050875 -3.926909,3.891025 -5.505859,5.50586 -0.552035,0.552035 -0.642579,0.197415 -0.642579,-0.150391 l 0,-5 c -2.7e-5,-0.276131 -0.223869,-0.499972 -0.5,-0.5 l -3.000484,0 c -0.2856486,0 -0.5,-0.214351 -0.5,-0.5 L 7,3.4996509 c 0,-0.2856486 0.2143514,-0.5 0.5,-0.5 z"/>
</svg>