<svg fill="#000000" height="30" viewBox="0 0 30 30" width="30" xmlns="http://www.w3.org/2000/svg">
<path d="m 27.990843,6.4371472 c -0.581491,-0.5814897 -1.539833,-0.581489 -2.121324,0 l -0.432274,0.4322735 c -0.581491,0.581489 -0.581492,1.5398271 0,2.1213168 l 1.573038,1.5730335 c 0.581491,0.581489 1.539833,0.581489 2.121324,0 l 0.432275,-0.432273 c 0.581491,-0.5814894 0.581491,-1.5398283 0,-2.1213173 L 27.990843,6.4371472 Z m -0.707108,0.7071056 1.573039,1.5730335 c 0.201985,0.2019841 0.201985,0.5051216 0,0.7071057 l -0.432275,0.4322734 c -0.201985,0.2019836 -0.505123,0.2019836 -0.707108,0 L 26.144353,8.2836319 c -0.201985,-0.201984 -0.201985,-0.5051216 0,-0.7071056 l 0.432274,-0.4322735 c 0.201985,-0.201984 0.505124,-0.201984 0.707108,0 z m -3.4101,1.8596534 c -0.300506,-0.024157 -0.665314,0.061273 -0.9375,0.3339844 L 12.647072,19.646484 c -0.188094,0.188458 -0.386437,0.385676 -0.503906,0.691407 -0.117468,0.30573 -0.142578,0.641524 -0.142578,1.162109 l 0,1.5 c 0,0.50512 0.430172,1 1,1 l 1.5,0 c 0.522982,0 0.864563,-0.02956 1.169922,-0.148438 0.305359,-0.118874 0.502732,-0.316836 0.683594,-0.498046 L 26.643166,13.044922 c 0.496155,-0.497113 0.450578,-1.256454 0,-1.707031 l -2,-2.0000004 C 24.431928,9.1266526 24.174141,9.0280637 23.873635,9.0039062 Z m 0.0625,1.0410138 2,2 c 0.03739,0.03739 0.07559,0.217236 0,0.292969 L 15.647072,22.646484 c -0.180547,0.180897 -0.233601,0.232839 -0.33789,0.273438 C 15.204893,22.960521 14.977606,23 14.500588,23 l -1.5,0 0,-1.5 c 0,-0.479415 0.03776,-0.704722 0.07617,-0.804688 0.03841,-0.09997 0.08895,-0.153037 0.277344,-0.341796 L 23.643166,10.044922 c 0.08943,-0.089429 0.248049,-0.04492 0.292969,-2e-6 z M 4.5,11 l 13,0 c 0.277,0 0.5,0.223 0.5,0.5 0,0.277 -0.223,0.5 -0.5,0.5 l -13,0 C 4.223,12 4,11.777 4,11.5 4,11.223 4.223,11 4.5,11 Z m 0,-3 13,0 C 17.777,8 18,8.223 18,8.5 18,8.777 17.777,9 17.5,9 L 4.5,9 C 4.223,9 4,8.777 4,8.5 4,8.223 4.223,8 4.5,8 Z m 0,-3 13,0 C 17.777,5 18,5.223 18,5.5 18,5.777 17.777,6 17.5,6 L 4.5,6 C 4.223,6 4,5.777 4,5.5 4,5.223 4.223,5 4.5,5 Z M 1.5,0 C 0.67764862,0 0,0.67764862 0,1.5 l 0,27 C 0,29.322351 0.67764862,30 1.5,30 l 19,0 c 0.822351,0 1.5,-0.677649 1.5,-1.5 l 0,-8 c 0,-0.668369 -1,-0.648436 -1,0 l 0,8 c 0,0.285649 -0.214351,0.5 -0.5,0.5 l -19,0 C 1.2143514,29 1,28.785649 1,28.5 L 1,1.5 C 1,1.2143514 1.2143514,1 1.5,1 l 19,0 C 20.785649,1 21,1.2143514 21,1.5 l 0,7 c 0,0.6723404 1,0.648385 1,0 l 0,-7 C 22,0.67764862 21.322351,0 20.5,0 Z"/>
</svg>