<svg fill="#000000" height="30" viewBox="0 0 30 30" width="30" xmlns="http://www.w3.org/2000/svg">
<path d="M 19.467894,0.00104007 C 16.566843,0.14971503 14.149714,2.5668434 14.00104,5.4678941 A 0.49987664,0.49987664 0 0 0 14.532105,5.99896 C 17.432543,5.8498177 19.849817,3.4325419 19.99896,0.53210589 A 0.49987664,0.49987664 0 0 0 19.467894,0.00104007 Z M 18.811871,1.1881284 C 18.40935,2.9815272 16.981527,4.4093498 15.188128,4.8118717 15.59036,3.018103 17.018102,1.5903614 18.811871,1.1881284 Z M 9.6134123,7 C 8.0017015,7 6.0830607,7.4358532 4.5695267,8.9375 3.0559925,10.439147 2,12.955159 2,17.000001 2,21.075555 3.4402881,24.289852 5.0770875,26.5 5.8954871,27.605074 6.7668861,28.475756 7.5514464,29.0625 8.3360069,29.649244 8.9710592,30 9.6134123,30 11.209067,30 12.079943,29.722434 12.785667,29.46875 13.491392,29.215066 14.003286,29 15.196582,29 c 1.193295,0 1.705188,0.215066 2.410914,0.46875 C 18.31322,29.722434 19.184097,30 20.77975,30 c 0.977915,0 2.32336,-0.607598 3.711539,-1.96875 1.388179,-1.361152 2.769531,-3.489703 3.48948,-6.59375 a 0.50761158,0.50004999 0 0 0 -0.38067,-0.625 C 25.146804,20.23216 23.317555,18.098756 23.317555,15.5 c 0,-2.184487 1.27746,-4.07909 3.140532,-4.968749 A 0.50761158,0.50004999 0 0 0 26.648423,9.8125 C 25.076032,7.4214247 22.674,7 20.77975,7 19.200672,7 18.104312,7.2748914 17.258548,7.53125 16.412784,7.7876086 15.845131,8 15.196582,8 14.548032,8 13.98038,7.7876086 13.134616,7.53125 12.288852,7.2748914 11.192491,7 9.6134123,7 Z m 0,1 C 11.079699,8 12.013581,8.2251086 12.81739,8.46875 13.621199,8.7123914 14.322449,9 15.196582,9 16.070714,9 16.771963,8.7123914 17.575773,8.46875 18.379582,8.2251086 19.313464,8 20.77975,8 c 1.643571,0 3.427544,0.3391909 4.758383,2.0625 -1.895376,1.14384 -3.2357,3.093418 -3.2357,5.4375 0,2.854999 1.900493,5.226398 4.504602,6.09375 -0.702428,2.672801 -1.835232,4.563283 -3.013642,5.71875 C 22.54636,28.535253 21.247144,29 20.77975,29 19.295628,29 18.641672,28.777566 17.956443,28.53125 17.271214,28.284934 16.526035,28 15.196582,28 13.867128,28 13.121948,28.284934 12.43672,28.53125 11.751491,28.777566 11.097535,29 9.6134123,29 9.4739928,29 8.8485441,28.769294 8.1541749,28.25 7.4598057,27.730707 6.6327713,26.967255 5.8701513,25.9375 4.3449114,23.877989 3.0151216,20.845808 3.0151216,17.000001 c 0,-3.876522 0.9742508,-6.106988 2.2523012,-7.3750011 C 6.5454732,8.3569874 8.1797582,8 9.6134123,8 Z"/>
</svg>