<svg fill="#000000" height="30" viewBox="0 0 30 30" width="30" xmlns="http://www.w3.org/2000/svg">
<path d="m 6.5,13 17,0 c 0.277,0 0.5,0.223 0.5,0.5 0,0.277 -0.223,0.5 -0.5,0.5 l -17,0 C 6.223,14 6,13.777 6,13.5 6,13.223 6.223,13 6.5,13 Z m 0,-4 17,0 C 23.777,9 24,9.223 24,9.5 24,9.777 23.777,10 23.5,10 l -17,0 C 6.223,10 6,9.777 6,9.5 6,9.223 6.223,9 6.5,9 Z m 0,-4 17,0 C 23.777,5 24,5.223 24,5.5 24,5.777 23.777,6 23.5,6 L 6.5,6 C 6.223,6 6,5.777 6,5.5 6,5.223 6.223,5 6.5,5 Z M 2.5136719,0 C 1.6838508,0 1,0.68385718 1,1.5136719 L 1,28.367188 c 0,0.51514 0.2371931,0.995511 0.6425781,1.3125 0.405385,0.316988 1.030384,0.428847 1.5976563,0.15039 L 15,24.056641 26.773438,29.830078 c 0.461992,0.226724 1.009051,0.23421 1.46289,-0.02148 C 28.690167,29.552899 29,29.014886 29,28.367188 L 29,1.5 C 29,0.67826442 28.321761,0 27.5,0 L 2.5136719,0 Z m 0,1 L 27.5,1 C 27.801315,1 28,1.1989462 28,1.5 l 0,26.867188 c 0,0.365648 -0.118638,0.493001 -0.255859,0.570312 -0.137222,0.07731 -0.343883,0.08609 -0.53125,-0.0059 L 15.220703,23.05074 a 0.50005,0.50005 0 0 0 -0.441406,0 L 2.8007812,28.9316 C 2.5448882,29.05721 2.4087946,29.00907 2.2597656,28.89254 2.1107366,28.776046 2,28.548723 2,28.367188 L 2,1.5136719 C 2,1.2206974 2.2204163,1 2.5136719,1 Z"/>
</svg>