<svg fill="#000000" height="30" viewBox="0 0 30 30" width="30" xmlns="http://www.w3.org/2000/svg">
<path d="M 1.5 0 C 0.67764862 0 0 0.67764862 0 1.5 L 0 26.5 C 0 27.322351 0.67764862 28 1.5 28 L 3 28 L 3 28.5 C 3 29.322351 3.6776486 30 4.5 30 L 6.5 30 C 7.3223514 30 8 29.322351 8 28.5 L 8 28 L 22 28 L 22 28.5 C 22 29.322351 22.677649 30 23.5 30 L 25.5 30 C 26.322351 30 27 29.322351 27 28.5 L 27 28 L 28.5 28 C 29.322351 28 30 27.322351 30 26.5 L 30 1.5 C 30 0.67764862 29.322351 0 28.5 0 L 1.5 0 z M 1.5 1 L 28.5 1 C 28.785649 1 29 1.2143514 29 1.5 L 29 26.5 C 29 26.785649 28.785649 27 28.5 27 L 1.5 27 C 1.2143514 27 1 26.785649 1 26.5 L 1 1.5 C 1 1.2143514 1.2143514 1 1.5 1 z M 5 4 C 4.4477153 4 4 4.4477153 4 5 C 4 5.5522847 4.4477153 6 5 6 C 5.5522847 6 6 5.5522847 6 5 C 6 4.4477153 5.5522847 4 5 4 z M 9 4 C 8.4477153 4 8 4.4477153 8 5 C 8 5.5522847 8.4477153 6 9 6 C 9.5522847 6 10 5.5522847 10 5 C 10 4.4477153 9.5522847 4 9 4 z M 13 4 C 12.447715 4 12 4.4477153 12 5 C 12 5.5522847 12.447715 6 13 6 C 13.552285 6 14 5.5522847 14 5 C 14 4.4477153 13.552285 4 13 4 z M 3.5 9 C 3.223 9 3 9.223 3 9.5 C 3 9.777 3.223 10 3.5 10 L 26.5 10 C 26.777 10 27 9.777 27 9.5 C 27 9.223 26.777 9 26.5 9 L 3.5 9 z M 9 13 C 8.4477153 13 8 13.447715 8 14 C 8 14.552285 8.4477153 15 9 15 C 9.5522847 15 10 14.552285 10 14 C 10 13.447715 9.5522847 13 9 13 z M 13 13 C 12.447715 13 12 13.447715 12 14 C 12 14.552285 12.447715 15 13 15 C 13.552285 15 14 14.552285 14 14 C 14 13.447715 13.552285 13 13 13 z M 17 13 C 16.447715 13 16 13.447715 16 14 C 16 14.552285 16.447715 15 17 15 C 17.552285 15 18 14.552285 18 14 C 18 13.447715 17.552285 13 17 13 z M 3.5 18 C 3.223 18 3 18.223 3 18.5 C 3 18.777 3.223 19 3.5 19 L 26.5 19 C 26.777 19 27 18.777 27 18.5 C 27 18.223 26.777 18 26.5 18 L 3.5 18 z M 5 22 C 4.4477153 22 4 22.447715 4 23 C 4 23.552285 4.4477153 24 5 24 C 5.5522847 24 6 23.552285 6 23 C 6 22.447715 5.5522847 22 5 22 z M 9 22 C 8.4477153 22 8 22.447715 8 23 C 8 23.552285 8.4477153 24 9 24 C 9.5522847 24 10 23.552285 10 23 C 10 22.447715 9.5522847 22 9 22 z M 13 22 C 12.447715 22 12 22.447715 12 23 C 12 23.552285 12.447715 24 13 24 C 13.552285 24 14 23.552285 14 23 C 14 22.447715 13.552285 22 13 22 z M 4 28 L 7 28 L 7 28.5 C 7 28.785649 6.7856486 29 6.5 29 L 4.5 29 C 4.2143514 29 4 28.785649 4 28.5 L 4 28 z M 23 28 L 26 28 L 26 28.5 C 26 28.785649 25.785649 29 25.5 29 L 23.5 29 C 23.214351 29 23 28.785649 23 28.5 L 23 28 z "/>
</svg>