<svg fill="#000000" height="30" viewBox="0 0 30 30" width="30" xmlns="http://www.w3.org/2000/svg">
<path d="M 22.482422,5 C 21.053686,5 19.650269,5.6185245 18.619141,6.625 17.585879,7.6335581 17,8.990234 17,10.5 c 0,1.389581 0.6159,2.673111 1.332031,3.765625 0.713857,1.089046 1.557946,2.031831 2.259766,3.023437 0.405871,0.573458 0.766335,1.164393 1.021484,1.785157 C 21.867922,19.693743 22.01651,20.361227 22,21 c -0.03161,1.222876 -0.728118,2.428097 -1.765625,3.076172 -0.446966,0.277551 -0.187059,1.0198 0.357422,0.916016 2.647493,-0.498982 5.092819,-1.950034 6.798828,-4.035157 C 29.096634,18.871909 30,16.194104 30,13.5 30,11.5 29.361135,9.3155219 28.035156,7.6738281 27.372151,6.852961 26.540526,6.1613102 25.585937,5.6875 24.630536,5.2132861 23.558833,5 22.482422,5 Z m 0.03516,1 c 0.901763,0 1.809235,0.1800484 2.623047,0.5839844 0.814626,0.4043395 1.539129,1.0011018 2.117187,1.7167968 1.156152,1.4314306 1.742188,3.2260678 1.742188,5.1992188 0,2.452158 -0.830014,4.924401 -2.382813,6.822266 -1.114179,1.361775 -2.64079,2.286813 -4.273437,2.951172 C 22.741776,22.58918 22.979308,21.800558 23,21 23.020937,20.189949 22.833446,19.414327 22.537109,18.693359 22.241282,17.973629 21.839607,17.32047 21.408203,16.710938 20.662789,15.657738 19.82941,14.722899 19.169922,13.716797 18.512707,12.714165 18,11.615556 18,10.5 18,9.3417961 18.479812,8.1564367 19.316406,7.3398438 20.155134,6.5211685 21.333358,6 22.517578,6 Z M 5.4824219,5 C 4.053686,5 2.6502686,5.6185245 1.6191406,6.625 0.5858793,7.6335581 0,8.990234 0,10.5 c 0,1.389581 0.61590049,2.673111 1.3320312,3.765625 0.7138571,1.089046 1.5579456,2.031831 2.2597657,3.023437 0.4058711,0.573458 0.7663347,1.164393 1.0214843,1.785157 C 4.8679221,19.693743 5.0165101,20.361227 5,21 4.9683927,22.222876 4.2718825,23.428097 3.234375,24.076172 2.7874093,24.353723 3.0473159,25.095972 3.5917969,24.992188 6.2392904,24.493206 8.6846158,23.042154 10.390625,20.957031 12.096634,18.871909 13,16.194104 13,13.5 13,11.5 12.361135,9.3155219 11.035156,7.6738281 10.372151,6.852961 9.5405262,6.1613102 8.5859375,5.6875 7.6305357,5.2132861 6.5588334,5 5.4824219,5 Z m 0.035156,1 C 6.4193408,6 7.3268126,6.1800484 8.140625,6.5839844 8.9552507,6.9883239 9.6797536,7.5850862 10.257812,8.3007812 11.413964,9.7322118 12,11.526849 12,13.5 12,15.952158 11.169986,18.424401 9.6171875,20.322266 8.5030082,21.684041 6.9763974,22.609079 5.34375,23.273438 5.7417758,22.58918 5.9793082,21.800558 6,21 6.0209371,20.189949 5.8334459,19.414327 5.5371094,18.693359 5.2412818,17.973629 4.8396068,17.32047 4.4082031,16.710938 3.6627894,15.657738 2.8294099,14.722899 2.1699219,13.716797 1.5127074,12.714165 1,11.615556 1,10.5 1,9.3417961 1.479812,8.1564367 2.3164062,7.3398438 3.155134,6.5211685 4.3333585,6 5.5175779,6 Z"/>
</svg>