<svg fill="#000000" height="30" viewBox="0 0 30 30" width="30" xmlns="http://www.w3.org/2000/svg">
<path d="m 7.5,10 c -0.2761309,2.8e-5 -0.4999724,0.223869 -0.5,0.5 l 0,6 c 0,0.660611 1,0.668493 1,0 L 8,14 9.5,14 c 0.665114,0 0.649192,-1 0,-1 l -1.5,0 0,-2 2.5,0 c 0.659592,0.0094 0.659999,-1 0,-1 z m 13,0 c -0.276131,2.8e-5 -0.499972,0.223869 -0.5,0.5 l 0,6 c 0,0.672328 1,0.6528 1,0 l 0,-2.5 0.5,0 c 0.831748,0 1.467701,-0.206387 1.896484,-0.589844 C 23.825267,13.026699 24,12.491172 24,12 24,11.508828 23.825267,10.973301 23.396484,10.589844 22.967701,10.206387 22.331748,10 21.5,10 Z m 0.5,1 0.5,0 c 0.668252,0 1.032299,0.160462 1.228516,0.335938 C 22.924733,11.511413 23,11.7269 23,12 23,12.2731 22.92473,12.488587 22.728516,12.664062 22.532299,12.839538 22.168252,13 21.5,13 L 21,13 Z m -7.5,-1 c -0.66001,0 -0.659601,1 0,1 l 1.5,0 0,5.5 c 0,0.670879 1,0.665358 1,0 l 0,-5.5 1.5,0 c 0.659748,0.0094 0.661573,-1 0,-1 z m 2,9.000059 c -0.129679,0.0021 -0.261273,0.05453 -0.352958,0.146271 l -3.993591,3.994182 c -0.464157,0.445742 0.260302,1.170148 0.705899,0.706003 l 3.640642,-3.641181 3.64064,3.641181 c 0.453326,0.472194 1.173959,-0.256513 0.705899,-0.706003 L 15.85294,19.14633 C 15.75743,19.05076 15.635085,18.99799 15.5,19.000059 Z M 15.5,22 c 0.277,0 0.5,0.223 0.5,0.5 l 0,7 C 16,29.777 15.777,30 15.5,30 15.223,30 15,29.777 15,29.5 l 0,-7 C 15,22.223 15.223,22 15.5,22 Z M 1.5,0 C 0.677649,0 0,0.6776486 0,1.5 l 0,23 C 0,25.322351 0.677649,26 1.5,26 l 7,0 c 0.667144,0 0.66001,-1 0,-1 l -7,0 C 1.214351,25 1,24.785649 1,24.5 L 1,1.5 C 1,1.2143514 1.214351,1 1.5,1 l 7,0 c 0.5,0 0.646601,0.00689 0.777344,0.072266 0.130743,0.065372 0.36914,0.28125 0.86914,0.78125 l 3,3 C 13.662649,5.36968 14.012483,5.664761 14.394531,5.833985 14.776579,6.003208 15.127856,6 15.5,6 l 13,0 C 28.785649,6 29,6.214351 29,6.5 l 0,18 c 0,0.285649 -0.214351,0.5 -0.5,0.5 l -6,0 c -0.646364,0 -0.672283,1 0,1 l 6,0 c 0.822351,0 1.5,-0.677649 1.5,-1.5 l 0,-18 C 30,5.677649 29.322351,5 28.5,5 l -13,0 C 15.126788,5 14.979844,4.9981 14.798828,4.91797 14.617812,4.83779 14.339741,4.632711 13.853516,4.146485 l -3,-2.9999996 c -0.5,-0.5 -0.761603,-0.7841215 -1.13086,-0.96875 C 9.353399,-0.0068931 9,10e-7 8.5,10e-7 Z"/>
</svg>