<svg fill="#000000" height="30" viewBox="0 0 30 30" width="30" xmlns="http://www.w3.org/2000/svg">
<path d="m 23.561019,0.43641782 c -0.58149,-0.58148997 -1.53983,-0.58149068 -2.121321,0 L 15.436196,6.4399198 c -0.58149,0.5814902 -0.58149,1.5398303 0,2.1213203 l 6.003502,6.0035019 c 0.581491,0.581491 1.53983,0.58149 2.121321,0 l 6.003502,-6.0035018 c 0.58149,-0.5814907 0.58149,-1.5398297 0,-2.1213204 L 23.561019,0.43641782 Z m -0.707107,0.70710678 6.003502,6.003502 c 0.201984,0.2019844 0.201984,0.5051225 0,0.7071068 l -6.003502,6.0035016 c -0.201984,0.201984 -0.505123,0.201985 -0.707107,0 L 16.143303,7.8541333 c -0.201984,-0.2019843 -0.201984,-0.5051227 0,-0.7071067 l 6.003502,-6.003502 c 0.201984,-0.20198435 0.505122,-0.20198435 0.707107,0 z M 16.5,18 C 15.677649,18 15,18.677649 15,19.5 l 0,9 c 0,0.822351 0.677649,1.5 1.5,1.5 l 9,0 c 0.822351,0 1.5,-0.677649 1.5,-1.5 l 0,-9 C 27,18.677649 26.322351,18 25.5,18 l -9,0 z m 0,1 9,0 c 0.285649,0 0.5,0.214351 0.5,0.5 l 0,9 c 0,0.285649 -0.214351,0.5 -0.5,0.5 l -9,0 C 16.214351,29 16,28.785649 16,28.5 l 0,-9 C 16,19.214351 16.214351,19 16.5,19 Z M 1.5,3 C 0.67764862,3 0,3.6776486 0,4.5 l 0,9 C 0,14.322351 0.67764862,15 1.5,15 l 9,0 c 0.822351,0 1.5,-0.677649 1.5,-1.5 l 0,-9 C 12,3.6776486 11.322351,3 10.5,3 l -9,0 z m 0,1 9,0 C 10.785649,4 11,4.2143514 11,4.5 l 0,9 c 0,0.285649 -0.214351,0.5 -0.5,0.5 l -9,0 C 1.2143514,14 1,13.785649 1,13.5 l 0,-9 C 1,4.2143514 1.2143514,4 1.5,4 Z m 0,14 C 0.67764862,18 0,18.677649 0,19.5 l 0,9 C 0,29.322351 0.67764862,30 1.5,30 l 9,0 c 0.822351,0 1.5,-0.677649 1.5,-1.5 l 0,-9 C 12,18.677649 11.322351,18 10.5,18 l -9,0 z m 0,1 9,0 c 0.285649,0 0.5,0.214351 0.5,0.5 l 0,9 c 0,0.285649 -0.214351,0.5 -0.5,0.5 l -9,0 C 1.2143514,29 1,28.785649 1,28.5 l 0,-9 C 1,19.214351 1.2143514,19 1.5,19 Z"/>
</svg>