<svg fill="#000000" height="30" viewBox="0 0 30 30" width="30" xmlns="http://www.w3.org/2000/svg">
<path d="M 15,0 C 6.7216511,0 0,6.7216511 0,15 0,23.278349 6.7216511,30 15,30 23.278349,30 30,23.278349 30,15 30,6.7216511 23.278349,0 15,0 Z m 0,1 C 22.737909,1 29,7.2620912 29,15 29,22.737909 22.737909,29 15,29 7.2620912,29 1,22.737909 1,15 1,7.2620912 7.2620912,1 15,1 Z m 0,4 C 12.724757,5 11.367102,6.1579037 10.710938,7.5351562 10.054773,8.9124088 10,10.477975 10,11.5 10,14.417015 7.2460938,16.070312 7.2460938,16.070312 6.9654244,16.236427 6.9163316,16.622434 7.1464848,16.853516 7.1464844,16.853516 8.2777778,18 10,18 c 1.375937,0 2.335547,-0.618317 3,-1.224609 L 13,17.5 c 0,0.197459 -0.06401,0.355376 -0.21875,0.53125 -0.154739,0.175874 -0.407741,0.354122 -0.736328,0.501953 C 11.387747,18.828865 10.441609,19.000612 9.5,19 7.1952255,18.998448 5,21.019309 5,23.5 c 0,0.664494 1,0.664324 1,0 0,-1.867395 1.8047755,-3.501142 3.5,-3.5 1.058391,6.88e-4 2.112253,-0.175502 2.955078,-0.554688 0.421413,-0.189592 0.793411,-0.432523 1.076172,-0.753906 C 13.814011,18.370024 14,17.953494 14,17.5 l 0,-2 c 0.0019,-0.499313 -0.648743,-0.692697 -0.919922,-0.273438 C 13.080078,15.226562 11.896006,17 10,17 9.1995034,17 8.6632504,16.715102 8.296875,16.464844 9.0499099,15.943046 11,14.445056 11,11.5 11,10.522025 11.078371,9.0875912 11.613281,7.9648438 12.148192,6.8420963 13.039542,6 15,6 16.960458,6 17.851808,6.8420963 18.386719,7.9648438 18.921629,9.0875912 19,10.522025 19,11.5 c 0,2.945056 1.95009,4.443046 2.703125,4.964844 C 21.33675,16.715102 20.800497,17 20,17 18.103994,17 16.919922,15.226562 16.919922,15.226562 16.648743,14.807303 15.998143,15.000687 16,15.5 l 0,2 c 0,0.453494 0.185989,0.870024 0.46875,1.191406 0.282761,0.321383 0.654759,0.564314 1.076172,0.753906 C 18.387747,19.824498 19.441609,20.000688 20.5,20 c 1.695225,-0.0011 3.5,1.632605 3.5,3.5 0,0.668369 1,0.664397 1,0 0,-2.480691 -2.195225,-4.501552 -4.5,-4.5 -0.941609,6.12e-4 -1.887747,-0.171135 -2.544922,-0.466797 C 17.626491,18.385372 17.373489,18.207124 17.21875,18.03125 17.064011,17.855376 17,17.697459 17,17.5 l 0,-0.724609 C 17.664453,17.381683 18.624063,18 20,18 c 1.722222,0 2.853516,-1.146484 2.853516,-1.146484 0.230153,-0.231083 0.18106,-0.617089 -0.09961,-0.783204 C 22.753906,16.070312 20,14.417015 20,11.5 20,10.477975 19.945227,8.9124088 19.289062,7.5351562 18.632898,6.1579037 17.275243,5 15,5 Z"/>
</svg>