<svg fill="#000000" height="30" viewBox="0 0 30 30" width="30" xmlns="http://www.w3.org/2000/svg">
<path d="M 1.5,2 C 0.67764862,2 0,2.6776486 0,3.5 l 0,23 C 0,27.322351 0.67764862,28 1.5,28 l 27,0 c 0.822351,0 1.5,-0.677649 1.5,-1.5 l 0,-18 C 30,7.6776486 29.322351,7 28.5,7 l -13,0 C 15.126788,7 14.979844,6.9981476 14.798828,6.9179688 14.617812,6.8377899 14.339741,6.63271 13.853516,6.1464844 l -3,-3 c -0.5,-0.5 -0.761603,-0.7841215 -1.1308598,-0.96875 C 9.3533993,1.9931059 9,2 8.5,2 l -7,0 z m 0,1 7,0 c 0.5,0 0.6466007,0.00689 0.7773438,0.072266 0.130743,0.065371 0.3691406,0.28125 0.8691402,0.78125 l 3,3 c 0.516165,0.5161641 0.865999,0.8112451 1.248047,0.9804688 C 14.776579,8.0032081 15.127856,8 15.5,8 l 13,0 C 28.785649,8 29,8.2143514 29,8.5 l 0,18 c 0,0.285649 -0.214351,0.5 -0.5,0.5 l -27,0 C 1.2143514,27 1,26.785649 1,26.5 L 1,3.5 C 1,3.2143514 1.2143514,3 1.5,3 Z"/>
</svg>