<svg fill="#000000" height="30" viewBox="0 0 30 30" width="30" xmlns="http://www.w3.org/2000/svg">
<path d="M 0.5,22 C 0.22386906,22.000028 2.7608953e-5,22.223869 0,22.5 0,24.385626 1.2929783,26 3,26 l 24,0 c 1.707022,0 3,-1.614374 3,-3.5 -2.8e-5,-0.276131 -0.223869,-0.499972 -0.5,-0.5 z m 0.6679688,1 27.6640622,0 C 28.62039,24.135323 27.914454,25 27,25 L 3,25 C 2.0855463,25 1.3796104,24.135323 1.1679688,23 Z M 5.5,6 C 4.6776486,6 4,6.6776486 4,7.5 l 0,13.000297 c 2.76e-5,0.276131 0.2238691,0.499972 0.5,0.5 l 21,0 c 0.276131,-2.8e-5 0.499972,-0.223869 0.5,-0.5 L 26,7.5 C 26,6.6776486 25.322351,6 24.5,6 Z m 0,1 19,0 C 24.785649,7 25,7.2143514 25,7.5 l 0,12.500297 -20,0 L 5,7.5 C 5,7.2143514 5.2143514,7 5.5,7 Z M 4.5,4 C 3.1236486,4 2,5.1236486 2,6.5 l 0,14.000297 c -0.00956,0.676161 1.0095626,0.676161 1,0 L 3,6.5 C 3,5.6603514 3.6603514,5 4.5,5 l 21,0 C 26.339649,5 27,5.6603514 27,6.5 l 0,14.000297 c -0.0096,0.676161 1.009563,0.676161 1,0 L 28,6.5 C 28,5.1236486 26.876351,4 25.5,4 Z"/>
</svg>