<svg fill="#000000" height="30" viewBox="0 0 30 30" width="30" xmlns="http://www.w3.org/2000/svg">
<path d="m 25.5,6 c -0.659568,0 -0.648084,1 0,1 l 3,0 C 28.785649,7 29,7.2143514 29,7.5 l 0,21 c 0,0.285649 -0.214351,0.5 -0.5,0.5 l -21,0 C 7.2143514,29 7,28.785649 7,28.5 l 0,-3 c 0,-0.660352 -1,-0.664395 -1,0 l 0,3 C 6,29.322351 6.6776486,30 7.5,30 l 21,0 c 0.822351,0 1.5,-0.677649 1.5,-1.5 l 0,-21 C 30,6.6776486 29.322351,6 28.5,6 Z M 1.5,0 C 0.67764862,0 0,0.67764862 0,1.5 l 0,21 C 0,23.322351 0.67764862,24 1.5,24 l 21,0 c 0.822351,0 1.5,-0.677649 1.5,-1.5 l 0,-21 C 24,0.67764862 23.322351,0 22.5,0 Z m 0,1 21,0 C 22.785649,1 23,1.2143514 23,1.5 l 0,21 c 0,0.285649 -0.214351,0.5 -0.5,0.5 l -21,0 C 1.2143514,23 1,22.785649 1,22.5 L 1,1.5 C 1,1.2143514 1.2143514,1 1.5,1 Z"/>
</svg>