<svg fill="#000000" height="30" viewBox="0 0 30 30" width="30" xmlns="http://www.w3.org/2000/svg">
<path d="M 5.5,6 C 5.777,6 6,6.223 6,6.5 l 0,17 C 6,23.777 5.777,24 5.5,24 5.223,24 5,23.777 5,23.5 L 5,6.5 C 5,6.223 5.223,6 5.5,6 Z M 4,15 c 0,0.552285 -0.4477153,1 -1,1 -0.5522847,0 -1,-0.447715 -1,-1 0,-0.552285 0.4477153,-1 1,-1 0.5522847,0 1,0.447715 1,1 z M 1.5,4 C 0.67764862,4 0,4.6776486 0,5.5 l 0,19 C 0,25.322351 0.67764862,26 1.5,26 l 27,0 c 0.822351,0 1.5,-0.677649 1.5,-1.5 l 0,-19 C 30,4.6776486 29.322351,4 28.5,4 Z m 0,1 27,0 C 28.785649,5 29,5.2143514 29,5.5 l 0,19 c 0,0.285649 -0.214351,0.5 -0.5,0.5 l -27,0 C 1.2143514,25 1,24.785649 1,24.5 L 1,5.5 C 1,5.2143514 1.2143514,5 1.5,5 Z"/>
</svg>