<svg fill="#000000" height="30" viewBox="0 0 30 30" width="30" xmlns="http://www.w3.org/2000/svg">
<path d="m 15.480618,12.00019 c -0.131181,0.0036 -0.2558,0.05805 -0.347513,0.15172 l -2.637932,2.630481 -1.625015,-1.621638 c -0.454956,-0.472813 -1.188739,0.25911 -0.71477,0.713285 l 1.9824,1.978279 c 0.197402,0.19691 0.517367,0.19691 0.714769,0 l 2.995319,-2.987123 c 0.328828,-0.320816 0.08761,-0.865004 -0.367258,-0.865004 z M 0.5,16 l 3,0 C 3.777,16 4,16.223 4,16.5 4,16.777 3.777,17 3.5,17 l -3,0 C 0.223,17 0,16.777 0,16.5 0,16.223 0.223,16 0.5,16 Z m 0,-4 3,0 C 3.777,12 4,12.223 4,12.5 4,12.777 3.777,13 3.5,13 l -3,0 C 0.223,13 0,12.777 0,12.5 0,12.223 0.223,12 0.5,12 Z m 0,-4 3,0 C 3.777,8 4,8.223 4,8.5 4,8.777 3.777,9 3.5,9 l -3,0 C 0.223,9 0,8.777 0,8.5 0,8.223 0.223,8 0.5,8 Z m 24,11 C 23.12521,19 22,20.12521 22,21.5 22,22.87479 23.12521,24 24.5,24 25.87479,24 27,22.87479 27,21.5 27,20.12521 25.87479,19 24.5,19 Z m 0,1 C 25.334349,20 26,20.665651 26,21.5 26,22.334349 25.334349,23 24.5,23 23.665651,23 23,22.334349 23,21.5 23,20.665651 23.665651,20 24.5,20 Z m -13,-1 C 10.12521,19 9,20.12521 9,21.5 9,22.87479 10.12521,24 11.5,24 12.87479,24 14,22.87479 14,21.5 14,20.12521 12.87479,19 11.5,19 Z m 0,1 C 12.334349,20 13,20.665651 13,21.5 13,22.334349 12.334349,23 11.5,23 10.665651,23 10,22.334349 10,21.5 10,20.665651 10.665651,20 11.5,20 Z M 6.5,6 C 5.6776486,6 5,6.6776486 5,7.5 l 0,11 C 5,19.322351 5.6776486,20 6.5,20 l 2,0 c 0.6761613,0.0096 0.6761613,-1.009563 0,-1 l -2,0 C 6.2143514,19 6,18.785649 6,18.5 L 6,7.5 C 6,7.2143514 6.2143514,7 6.5,7 l 13,0 C 19.785649,7 20,7.2143514 20,7.5 l 0,11.5 -5.5,0 c -0.659741,0 -0.648077,1.009166 0,1 l 7,0 c 0.659309,0 0.654135,-1 0,-1 L 21,19 21,10 25.226562,10 29,15.896484 29,18.5 c 0,0.285649 -0.214351,0.5 -0.5,0.5 l -1,0 c -0.653951,0 -0.65373,1 0,1 l 1,0 c 0.822351,0 1.5,-0.677649 1.5,-1.5 l 0,-2.75 c 2.17e-4,-0.09546 -0.02689,-0.188987 -0.07813,-0.269531 l -4,-6.2500002 C 25.829818,9.0866577 25.670749,8.9997578 25.5,9 L 21,9 21,7.5 C 21,6.6776486 20.322351,6 19.5,6 Z"/>
</svg>