<svg fill="#000000" height="30" viewBox="0 0 30 30" width="30" xmlns="http://www.w3.org/2000/svg">
<path d="m 19.5,2 c -0.276145,0.00431 -0.504321,0.223855 -0.5,0.5 l 0,4 c 10e-6,0.8147259 0.656245,1.4999899 1.470703,1.5 L 24.5,8 c 0.670797,0 0.653948,-1 0,-1 L 20.470703,7 C 20.208613,6.9999967 20.000004,6.7932741 20,6.5 l 0,-4 C 20.004417,2.2177338 19.782266,1.9955834 19.5,2 Z M 8.4707031,0 C 7.6562379,0 7,0.68526634 7,1.5 l 0,23 C 7,25.314734 7.6562379,26 8.4707031,26 L 25.529297,26 C 26.343762,26 27,25.314733 27,24.5 l 0,-18 c -2.5e-5,-0.1325994 -0.05272,-0.2597597 -0.146484,-0.3535156 l -6,-6.00000002 C 20.75976,0.05271615 20.6326,2.5421345e-5 20.5,0 Z m 0,1 L 20.292969,1 26,6.7070312 26,24.5 C 26,24.793267 25.791379,25 25.529297,25 L 8.4707031,25 C 8.2086211,25 8,24.793266 8,24.5 L 8,1.5 C 8,1.2067337 8.2086211,1 8.4707031,1 Z m -4,3 C 3.6562379,4 3,4.6852664 3,5.5 l 0,23 C 3,29.314734 3.6562379,30 4.4707031,30 L 21.529297,30 C 22.343762,30 23,29.314733 23,28.5 l 0,-1 c 0.0096,-0.676158 -1.00956,-0.676158 -1,0 l 0,1 C 22,28.793267 21.791379,29 21.529297,29 L 4.4707031,29 C 4.2086211,29 4,28.793266 4,28.5 L 4,5.5 C 4,5.2067338 4.2086211,5 4.4707031,5 l 1.0585938,0 c 0.6761585,0.00956 0.6761585,-1.0095597 0,-1 z"/>
</svg>