<svg fill="#000000" height="30" viewBox="0 0 30 30" width="30" xmlns="http://www.w3.org/2000/svg">
<path d="M 8.5,0 C 7.5039659,0 6.5424205,0.550211 5.90625,1.3066406 5.2714519,2.0614382 5,2.9678151 5,4 5,4.6532562 5.233159,5.3141231 5.5703125,5.875 5.8340142,6.3136851 6.1821472,6.6919902 6.5839844,7 L 2,7 C 0.90064862,7 0,7.9006486 0,9 l 0,4 c 0,1.099351 0.90064862,2 2,2 l 26,0 c 1.099351,0 2,-0.900649 2,-2 L 30,9 C 30,7.9006486 29.099351,7 28,7 l -5.841797,0 c 0.276729,-0.2861476 0.497186,-0.6260289 0.640625,-1 0.19364,-0.5048518 0.2433,-1.049493 0.167969,-1.5742188 C 22.880737,3.8263305 22.629317,3.2414514 22.195312,2.7851562 21.758012,2.3253942 21.163024,2 20.5,2 19.857325,2 19.264904,2.2201206 18.787109,2.5507812 18.313805,2.8783334 17.944683,3.2828565 17.607422,3.6660156 16.816184,4.5649311 16.085592,5.5159882 15.394531,6.4941406 14.791393,5.3617669 14.137414,4.2555119 13.398438,3.2070312 12.846068,2.4233138 12.231823,1.6279428 11.417969,1.0019531 10.5982,0.37141287 9.5955295,0 8.5,0 Z m 0,0.99609375 c 0.7792675,0 1.634755,0.28053315 2.308594,0.79882815 0.679755,0.5228456 1.241721,1.2330497 1.77539,1.9902343 C 13.302233,4.8042261 13.914195,5.8991708 14.5,7 l -4,0 C 9.9329286,7 9.3831696,6.9898639 8.8730469,6.9042969 8.3634504,6.8188202 7.8748252,6.6514277 7.4550781,6.3925781 7.0357743,6.1340018 6.6742545,5.775976 6.4238281,5.359375 6.1732257,4.9424814 6,4.4880261 6,4 6,3.2831848 6.2069439,2.4973938 6.6679688,1.9492188 7.1276215,1.4026752 7.795017,0.99609375 8.5,0.99609375 Z M 20.5,3 c 0.381094,0 0.703123,0.1913326 0.970703,0.4726562 0.270877,0.2847909 0.450384,0.6801128 0.509766,1.09375 0.05221,0.3637241 0.01445,0.7411784 -0.113281,1.0742188 -0.127246,0.331752 -0.353491,0.6331196 -0.634766,0.8515625 -0.28161,0.2187076 -0.633576,0.3671222 -1.007813,0.4394531 C 19.849282,7.0041816 19.444093,7.008375 19,7 L 16.326172,7 C 16.967306,6.1025963 17.626888,5.1539041 18.355469,4.3261719 18.682154,3.9550299 19.000811,3.6151849 19.353516,3.3710938 19.701728,3.1301111 20.138641,3 20.5,3 Z M 2,8 28,8 c 0.562649,0 1,0.4373514 1,1 l 0,4 c 0,0.562649 -0.437351,1 -1,1 L 2,14 C 1.4373514,14 1,13.562649 1,13 L 1,9 C 1,8.4373514 1.4373514,8 2,8 Z M 13.5,9 C 13.223,9 13,9.223 13,9.5 l 0,2 c 0,0.277 0.223,0.5 0.5,0.5 0.277,0 0.5,-0.223 0.5,-0.5 l 0,-2 C 14,9.223 13.777,9 13.5,9 Z m 3,0 C 16.223,9 16,9.223 16,9.5 l 0,2 c 0,0.277 0.223,0.5 0.5,0.5 0.277,0 0.5,-0.223 0.5,-0.5 l 0,-2 C 17,9.223 16.777,9 16.5,9 Z M 3.4921875,15.992188 C 3.2160427,15.996497 2.9956794,16.223855 3,16.5 L 3,28 c 0,1.099351 0.9006486,2 2,2 l 20,0 c 1.099351,0 2,-0.900649 2,-2 l 0,-11.5 c 0.0096,-0.676161 -1.009563,-0.676161 -1,0 L 26,28 c 0,0.562649 -0.437351,1 -1,1 l -8,0 0,-12.5 C 17,16.223 16.777,16 16.5,16 16.223,16 16,16.223 16,16.5 L 16,29 14,29 14,16.5 C 14,16.223 13.777,16 13.5,16 13.223,16 13,16.223 13,16.5 L 13,29 5,29 C 4.4373514,29 4,28.562649 4,28 L 4,16.5 c 0.00442,-0.282266 -0.2255463,-0.512229 -0.5078125,-0.507812 z"/>
</svg>