<svg fill="#000000" height="30" viewBox="0 0 30 30" width="30" xmlns="http://www.w3.org/2000/svg">
<path d="M 22.5,15 C 21.677649,15 21,15.677649 21,16.5 l 0,0.785156 C 20.60664,17.398829 20.229593,17.552081 19.871094,17.75 l -0.314453,-0.314453 c -0.581445,-0.581444 -1.539648,-0.581443 -2.121094,0 -0.581443,0.581446 -0.581444,1.539649 0,2.121094 L 17.75,19.871094 C 17.551326,20.229614 17.395574,20.606419 17.28125,21 L 16.5,21 c -0.822351,0 -1.5,0.677649 -1.5,1.5 0,0.822351 0.677649,1.5 1.5,1.5 l 0.785156,0 c 0.113673,0.39336 0.266925,0.770407 0.464844,1.128906 l -0.314453,0.314453 c -0.581444,0.581445 -0.581443,1.539648 0,2.121094 0.581446,0.581443 1.539649,0.581444 2.121094,0 L 19.871094,27.25 C 20.229614,27.448674 20.606419,27.604426 21,27.71875 L 21,28.5 c 0,0.822351 0.677649,1.5 1.5,1.5 0.822351,0 1.5,-0.677649 1.5,-1.5 l 0,-0.785156 C 24.39336,27.601171 24.770407,27.447919 25.128906,27.25 l 0.314453,0.314453 c 0.581445,0.581444 1.539648,0.581443 2.121094,0 0.581443,-0.581446 0.581444,-1.539649 0,-2.121094 L 27.25,25.128906 C 27.448674,24.770386 27.604426,24.393581 27.71875,24 L 28.5,24 C 29.322351,24 30,23.322351 30,22.5 30,21.677649 29.322351,21 28.5,21 l -0.785156,0 C 27.601171,20.60664 27.447919,20.229593 27.25,19.871094 l 0.314453,-0.314453 c 0.581444,-0.581445 0.581443,-1.539648 0,-2.121094 -0.581446,-0.581443 -1.539649,-0.581444 -2.121094,0 L 25.128906,17.75 C 24.770386,17.551326 24.393581,17.395574 24,17.28125 L 24,16.5 C 24,15.677649 23.322351,15 22.5,15 Z m 0,1 c 0.285649,0 0.5,0.214351 0.5,0.5 l 0,1 c 0,0.328408 0.08378,0.508283 0.380857,0.587886 0.569729,0.115165 1.111346,0.338827 1.595703,0.660156 0.198314,0.132156 0.462333,0.105999 0.63086,-0.0625 l 0.542969,-0.542969 c 0.202029,-0.20203 0.504999,-0.202031 0.707031,0 0.202031,0.202032 0.20203,0.505002 0,0.707031 l -0.542969,0.542969 c -0.168089,0.16774 -0.195024,0.430564 -0.06445,0.628911 0.320089,0.484626 0.544113,1.026227 0.658203,1.595704 C 26.98899,21.918686 27.251786,22 27.5,22 l 1,0 c 0.285649,0 0.5,0.214351 0.5,0.5 0,0.285649 -0.214351,0.5 -0.5,0.5 l -1,0 c -0.39401,0 -0.528303,0.158488 -0.587886,0.380857 -0.115165,0.569729 -0.338827,1.111346 -0.660156,1.595703 -0.132156,0.198314 -0.105999,0.462333 0.0625,0.63086 l 0.542969,0.542969 c 0.20203,0.202029 0.202031,0.504999 0,0.707031 -0.202032,0.202031 -0.505002,0.20203 -0.707031,0 L 25.607422,26.314453 C 25.439683,26.146366 25.176863,26.119431 24.978516,26.25 24.49389,26.570089 23.952289,26.794114 23.382812,26.908203 23.119414,26.97878 23,27.247711 23,27.5 l 0,1 C 23,28.785649 22.785649,29 22.5,29 22.214351,29 22,28.785649 22,28.5 l 0,-1 c 0,-0.370007 -0.138332,-0.522901 -0.380857,-0.587886 -0.569729,-0.115165 -1.111346,-0.338827 -1.595703,-0.660156 -0.198314,-0.132156 -0.462333,-0.105999 -0.63086,0.0625 l -0.542969,0.542969 c -0.202029,0.20203 -0.504999,0.202031 -0.707031,0 -0.202031,-0.202032 -0.20203,-0.505002 0,-0.707031 l 0.542969,-0.542969 C 18.853638,25.439687 18.880573,25.176863 18.75,24.978516 18.429911,24.49389 18.205887,23.952289 18.091797,23.382812 18.042984,23.130893 17.830204,23 17.5,23 l -1,0 C 16.214351,23 16,22.785649 16,22.5 16,22.214351 16.214351,22 16.5,22 l 1,0 c 0.444942,0 0.524084,-0.142744 0.587886,-0.380857 0.115165,-0.569729 0.338827,-1.111346 0.660156,-1.595703 0.132156,-0.198314 0.105999,-0.462333 -0.0625,-0.63086 l -0.542969,-0.542969 c -0.20203,-0.202029 -0.202031,-0.504999 0,-0.707031 0.202032,-0.202031 0.505002,-0.20203 0.707031,0 l 0.542969,0.542969 c 0.16774,0.168089 0.430564,0.195024 0.628911,0.06445 0.484626,-0.320089 1.026227,-0.544114 1.595704,-0.658203 C 22.018965,18.000403 22,17.68609 22,17.5 l 0,-1 C 22,16.214351 22.214351,16 22.5,16 Z m 0,4 C 21.12521,20 20,21.12521 20,22.5 20,23.87479 21.12521,25 22.5,25 23.87479,25 25,23.87479 25,22.5 25,21.12521 23.87479,20 22.5,20 Z m 0,1 C 23.334349,21 24,21.665651 24,22.5 24,23.334349 23.334349,24 22.5,24 21.665651,24 21,23.334349 21,22.5 21,21.665651 21.665651,21 22.5,21 Z M 12.5,8 C 10.02064,8 8,10.02064 8,12.5 8,14.97936 10.02064,17 12.5,17 14.97936,17 17,14.97936 17,12.5 17,10.02064 14.97936,8 12.5,8 Z m 0,1 C 14.438919,9 16,10.561081 16,12.5 16,14.438919 14.438919,16 12.5,16 10.561081,16 9,14.438919 9,12.5 9,10.561081 10.561081,9 12.5,9 Z m -1,-9 C 10.677649,0 10,0.67764858 10,1.5 l 0,1.9101562 C 9.2370686,3.6188651 8.5061556,3.9199438 7.8183594,4.3105469 l -1.875,-1.875 c -0.5820324,-0.5820324 -1.5410145,-0.5820324 -2.1230469,0 L 2.40625,3.8496094 c -0.5814447,0.5814448 -0.5814447,1.5396489 0,2.1210937 L 4.2929688,7.8574219 C 3.9108223,8.5337857 3.6129148,9.2511384 3.40625,10 L 1.5,10 C 0.67764858,10 0,10.677649 0,11.5 l 0,2 C 0,14.322351 0.67764858,15 1.5,15 l 1.9082031,0 c 0.2071085,0.756805 0.5064022,1.481043 0.8925781,2.164062 L 2.40625,19.056641 c -0.5820327,0.582032 -0.5820327,1.541014 0,2.123047 l 1.4140625,1.414062 c 0.5820322,0.582033 1.5410147,0.582033 2.1230469,0 L 7.8398438,20.695312 C 8.5213147,21.082808 9.2444145,21.382863 10,21.591797 L 10,23.5 c 0,0.822351 0.677649,1.5 1.5,1.5 l 2,0 c 0.664329,0 0.660431,-1 0,-1 l -2,0 C 11.214351,24 11,23.785649 11,23.5 l 0,-2.234375 c 3.7e-4,-0.233556 -0.160983,-0.43626 -0.388672,-0.488281 C 9.6793398,20.56387 8.7896218,20.194903 7.9804688,19.685547 7.7838005,19.562361 7.528225,19.590669 7.3632812,19.753907 c -3.25e-5,3.2e-5 -0.00509,0.0087 -0.00586,0.0098 -3.673e-4,5.24e-4 -0.00339,0.0032 -0.00391,0.0039 l -2.1171875,2.119141 c -0.2014422,0.201442 -0.5075422,0.201442 -0.7089843,0 L 3.1132812,20.472656 c -0.2014415,-0.201441 -0.2014415,-0.507543 0,-0.708984 l 2.1230469,-2.121094 0.00391,-0.0039 0.00195,-0.002 C 5.4037938,17.471566 5.431245,17.217237 5.3085941,17.021443 4.8016319,16.211277 4.4355977,15.320837 4.2246094,14.388672 4.1725888,14.160983 3.9698839,13.99963 3.7363281,14 L 1.5,14 C 1.2143514,14 1,13.785649 1,13.5 l 0,-2 C 1,11.214351 1.2143514,11 1.5,11 l 2.234375,0 C 3.9679308,11.00037 4.1706357,10.839017 4.2226562,10.611328 4.4340831,9.6865496 4.7978454,8.8043458 5.3007812,8 5.4245115,7.8024567 5.3953448,7.5456273 5.2304688,7.3808594 L 3.1132812,5.2636719 c -0.2020295,-0.2020296 -0.2020295,-0.5050017 0,-0.7070313 L 4.5273438,3.1425781 c 0.2014419,-0.201442 0.5075423,-0.201442 0.7089843,0 L 7.3417969,5.2480469 C 7.5065649,5.4129228 7.7633942,5.4420893 7.9609375,5.3183589 8.775623,4.8064455 9.6708687,4.4366808 10.609375,4.2246094 10.83784,4.173373 11.000164,3.9704681 11,3.7363281 L 11,1.5 C 11,1.2143514 11.214351,1 11.5,1 l 2,0 C 13.785649,1 14,1.2143514 14,1.5 l 0,2.234375 c -3.7e-4,0.2335558 0.160983,0.4362607 0.388672,0.4882812 0.930592,0.2132942 1.818809,0.5815138 2.626953,1.0898438 0.197543,0.1237307 0.454373,0.094564 0.619141,-0.070312 l 2.101562,-2.0996094 c 0.202031,-0.2020302 0.505002,-0.2020294 0.707031,0 l 1.414063,1.4140625 c 0.202029,0.2020296 0.202029,0.5050017 0,0.7070313 l -2.09375,2.0957031 c -0.164875,0.1647685 -0.194041,0.4215978 -0.07031,0.6191406 0.506316,0.8103297 0.871615,1.6988105 1.082032,2.6308599 0.05124,0.228464 0.25414,0.390787 0.488278,0.390624 L 23.5,11 c 0.285649,0 0.5,0.214351 0.5,0.5 l 0,2 c 0,0.668301 1,0.652414 1,0 l 0,-2 C 25,10.677649 24.322351,10 23.5,10 l -1.908203,0 C 21.385173,9.2437998 21.08658,8.5185795 20.701172,7.8359375 l 1.863281,-1.8652344 c 0.581445,-0.5814448 0.581445,-1.5396489 0,-2.1210937 L 21.150391,2.4355469 c -0.581445,-0.581445 -1.539649,-0.5814442 -2.121094,0 L 17.160156,4.3046875 C 16.478785,3.9171423 15.755486,3.6172222 15,3.4082031 L 15,1.5 C 15,0.67764858 14.322351,0 13.5,0 Z"/>
</svg>