<svg fill="#000000" height="30" viewBox="0 0 30 30" width="30" xmlns="http://www.w3.org/2000/svg">
<path d="M 24.242772,0.00848743 C 23.416628,0.05760644 22.624041,0.31915349 21.921321,0.71589907 21.219308,1.1122445 20.630465,1.6256253 20.072758,2.1189973 L 3.2813183,16.972688 c -0.7101194,0.628202 -1.4442275,1.292693 -2.036155,2.114418 -0.59244655,0.822445 -1.01917631,1.779387 -1.17635828,2.800334 -0.15708949,1.020345 -0.04065063,2.067677 0.30288294,3.030927 0.34275059,0.961054 0.89785994,1.821503 1.55935864,2.565832 0.6602353,0.742908 1.4490672,1.395019 2.3605329,1.84865 0.9135162,0.454653 1.9423882,0.66742 2.9662987,0.66742 1.030516,0 2.0274028,-0.340093 2.9154928,-0.823754 0.887336,-0.48325 1.636946,-1.12554 2.348808,-1.748987 L 26.822173,14.893441 c 0.502771,-0.440346 -0.157634,-1.194573 -0.66048,-0.754312 L 11.863653,26.67517 c -0.704661,0.617141 -1.400788,1.206593 -2.1670786,1.62392 -0.7655381,0.416919 -1.617541,0.700641 -2.4699616,0.700641 -0.8471028,0 -1.7173013,-0.177573 -2.4895023,-0.561894 C 3.9628591,28.052497 3.2700788,27.484352 2.6794605,26.81978 2.0877319,26.153957 1.6045418,25.398157 1.3135562,24.582248 1.0233536,23.768535 0.92758809,22.884147 1.0575712,22.039866 1.187462,21.196184 1.5458736,20.379722 2.0561079,19.671404 2.5668615,18.962367 3.2408729,18.344889 3.9437525,17.723091 L 20.735192,2.8674466 c 0.551199,-0.4876143 1.091327,-0.9484437 1.678558,-1.2799851 0.586522,-0.3311413 1.237839,-0.5416394 1.889598,-0.5803902 0.652049,-0.0387681 1.319764,0.09302 1.916956,0.3712933 0.598944,0.2790898 1.138258,0.7047196 1.586717,1.2154974 0.447323,0.5094857 0.798172,1.0991303 0.998535,1.7274914 0.199796,0.626575 0.249027,1.3029093 0.130925,1.944405 -0.11805,0.6412167 -0.406127,1.2608972 -0.803128,1.8037041 -0.397458,0.5434299 -0.91737,1.0260132 -1.463609,1.5164405 L 9.7630132,24.765941 c -0.3815455,0.342561 -0.7497249,0.658661 -1.1411847,0.877424 -0.3907709,0.21838 -0.8234383,0.350769 -1.2525676,0.36934 -0.4299163,0.01861 -0.873672,-0.07481 -1.2740623,-0.26186 C 5.6926586,25.562794 5.3217648,25.279469 4.9911413,24.943771 4.6713745,24.619097 4.403711,24.258799 4.2329569,23.870928 4.0633893,23.485751 3.9877484,23.059623 4.0277782,22.655431 4.0677092,22.252238 4.2257457,21.850452 4.4674469,21.502467 4.7098198,21.153516 5.052392,20.838082 5.4249479,20.5117 L 19.818341,7.8937791 C 20.321262,7.4534431 19.660716,6.6990566 19.157861,7.1394673 L 4.7644676,19.759342 c -0.3809948,0.333776 -0.7885942,0.698631 -1.1177357,1.172506 -0.3298133,0.474842 -0.5567301,1.032095 -0.6155363,1.625874 -0.058707,0.59278 0.051204,1.18402 0.2852962,1.715767 0.2329061,0.529049 0.5781929,0.982733 0.961409,1.37183 0.3959109,0.401988 0.8577424,0.760135 1.3932616,1.01031 0.5376687,0.251179 1.1366086,0.383777 1.7410884,0.357614 0.605267,-0.02619 1.1850519,-0.209649 1.6980985,-0.496361 0.5123577,-0.286327 0.9320767,-0.657251 1.3209607,-1.0064 L 27.338041,10.330444 c 0.5526,-0.4961388 1.128016,-1.0222828 1.602348,-1.6708203 0.474787,-0.6491604 0.82966,-1.4009758 0.978996,-2.212127 C 30.06867,5.6366241 30.007994,4.7969023 29.75915,4.016502 29.510875,3.2378877 29.084388,2.5355395 28.557389,1.9353048 28.029013,1.3335045 27.385427,0.81786171 26.642386,0.47162709 25.897595,0.12457647 25.068626,-0.04061437 24.242772,0.00848743 Z"/>
</svg>