<svg fill="#000000" height="30" viewBox="0 0 30 30" width="30" xmlns="http://www.w3.org/2000/svg">
<path d="m 15.000976,4.9999992 c -5.707797,0 -11.3324382,2.712804 -14.88261071,7.1780988 a 0.49971532,0.49926028 0 1 0 0.78267894,0.620113 C 4.2532713,8.5818857 9.6114261,5.9984199 15.000976,5.9984199 c 5.389551,0 10.745753,2.5834658 14.09798,6.7997911 a 0.49971532,0.49926028 0 1 0 0.782679,-0.620113 C 26.331463,7.7128032 20.708774,4.9999992 15.000976,4.9999992 Z m -9.7e-4,5.9999828 c -3.894596,0 -7.7051475,2.004887 -9.9101137,5.214278 a 0.4999493,0.49980854 0 1 0 0.8240527,0.566132 c 2.0091434,-2.924365 5.537344,-4.780893 9.086061,-4.780893 3.548716,0 7.076917,1.856528 9.086061,4.780893 A 0.4999493,0.49980854 0 1 0 24.91012,16.21426 C 22.705153,13.004869 18.8946,10.999982 15.000006,10.999982 Z m -1.6e-5,6.000024 c -1.834367,0 -3.634097,0.798193 -4.863313,2.158388 a 0.49925128,0.49873887 0 1 0 0.741002,0.668166 c 1.032548,-1.142571 2.581433,-1.829176 4.122311,-1.829176 1.540879,0 3.089764,0.686605 4.122312,1.829176 a 0.49925128,0.49873887 0 1 0 0.741001,-0.668166 C 18.634088,17.798199 16.834358,17.000006 14.99999,17.000006 Z M 16,23 a 1,1 0 0 1 -1,1 1,1 0 0 1 -1,-1 1,1 0 0 1 1,-1 1,1 0 0 1 1,1 z"/>
</svg>