<svg fill="#000000" height="30" viewBox="0 0 30 30" width="30" xmlns="http://www.w3.org/2000/svg">
<path d="M 4.7753906,11 C 3.9443563,11 3.2397817,11.60981 3.0507812,12.421875 L 0.04101562,25.351562 c -0.0945802,0.406376 -0.02673009,0.826265 0.20507813,1.142579 C 0.47790197,26.810454 0.8696822,27 1.2851562,27 l 23.9394528,0 c 0.829782,0 1.535327,-0.608596 1.72461,-1.421875 l 3.009765,-12.929687 c 0.09458,-0.406376 0.02673,-0.826265 -0.205078,-1.142579 C 29.522098,11.189546 29.130318,11 28.714844,11 Z m 0,1 23.9394534,0 c 0.345688,0 0.322183,0.225381 0.269532,0.421879 L 25.974609,25.351562 C 25.896232,25.688319 25.499977,26 25.224609,26 L 1.2851562,26 C 0.96943875,26 0.95257737,25.813419 1.0156254,25.578121 L 4.0253906,12.648438 C 4.1030834,12.314621 4.501275,12 4.7753906,12 Z M 1.5,3 C 0.67764862,3 0,3.6776486 0,4.5 l 0,14 c -0.0095626,0.676161 1.0095626,0.676161 1,0 L 1,4.5 C 1,4.2143514 1.2143514,4 1.5,4 L 8.2929688,4 12.146484,7.8535156 C 12.24024,7.9472838 12.3674,7.9999746 12.5,8 l 13,0 C 25.785649,8 26,8.2143514 26,8.5 l 0,1 c -0.0096,0.676161 1.009563,0.676161 1,0 l 0,-1 C 27,7.6776486 26.322351,7 25.5,7 L 12.707031,7 8.8535156,3.1464844 C 8.7597597,3.0527163 8.6325995,3.0000255 8.5,3 Z"/>
</svg>