<svg fill="#000000" height="30" viewBox="0 0 30 30" width="30" xmlns="http://www.w3.org/2000/svg">
<path d="m 8.5,17 9,0 c 0.277,0 0.5,0.223 0.5,0.5 0,0.277 -0.223,0.5 -0.5,0.5 l -9,0 C 8.223,18 8,17.777 8,17.5 8,17.223 8.223,17 8.5,17 Z m 4.5,2 c -1.098647,0 -2,0.901353 -2,2 0,1.098647 0.901353,2 2,2 1.098647,0 2,-0.901353 2,-2 0,-1.098647 -0.901353,-2 -2,-2 z m 0,1 c 0.558207,0 1,0.441793 1,1 0,0.558207 -0.441793,1 -1,1 -0.558207,0 -1,-0.441793 -1,-1 0,-0.558207 0.441793,-1 1,-1 z m 0,-8 c -1.098647,0 -2,0.901353 -2,2 0,1.098647 0.901353,2 2,2 1.098647,0 2,-0.901353 2,-2 0,-1.098647 -0.901353,-2 -2,-2 z m 0,1 c 0.558207,0 1,0.441793 1,1 0,0.558207 -0.441793,1 -1,1 -0.558207,0 -1,-0.441793 -1,-1 0,-0.558207 0.441793,-1 1,-1 z M 25,3 c -1.098647,0 -2,0.9013528 -2,2 0,1.0986472 0.901353,2 2,2 1.098647,0 2,-0.9013528 2,-2 0,-1.0986472 -0.901353,-2 -2,-2 z m 0,1 c 0.558207,0 1,0.4417929 1,1 0,0.5582071 -0.441793,1 -1,1 C 24.441793,6 24,5.5582071 24,5 24,4.4417929 24.441793,4 25,4 Z M 0.44608468,15.670978 c -0.58754705,0.580522 -0.58287519,1.541207 -0.001381,2.122701 L 12.205879,29.554854 c 0.581494,0.581494 1.542169,0.586108 2.122701,-0.0014 l 14.527453,-14.70145 c 0.247035,-0.250024 0.532306,-0.480947 0.767874,-0.856261 0.235568,-0.375315 0.37565,-0.869773 0.37565,-1.544035 l 1e-6,-10.9518681 C 29.999557,0.6774882 29.322069,0 28.499718,0 L 17.500893,0 C 16.342177,-7.0710678e-7 15.676436,0.62373465 15.148934,1.144905 Z M 1.1490485,16.382227 15.851897,1.856155 c 0.532935,-0.5265383 0.807711,-0.85626217 1.648996,-0.85626217 l 10.998824,7e-7 c 0.285649,0 0.499947,0.21429787 0.499947,0.49994637 l 1e-6,10.9518681 c 0,0.547112 -0.09283,0.80514 -0.223733,1.013704 -0.130908,0.208565 -0.344082,0.393088 -0.631149,0.683629 L 13.61733,28.850509 c -0.198261,0.200637 -0.502365,0.199217 -0.704345,-0.0028 L 1.1518105,17.086572 C 0.94983108,16.884593 0.94842394,16.580453 1.1490485,16.382227 Z"/>
</svg>