<svg fill="#000000" height="30" viewBox="0 0 30 30" width="30" xmlns="http://www.w3.org/2000/svg">
<path d="m 14.474116,10.0019 c -1.101307,0 -2.156832,0.461688 -2.965742,1.195535 -0.925016,0.839185 -1.508233,2.046633 -1.508233,3.293069 0,0.664645 0.998987,0.687491 0.998987,0.02333 0,-0.964708 0.466454,-1.930129 1.182395,-2.579634 C 12.809339,11.364643 13.65132,11.026366 14.5,11 c 0.65511,0 0.671875,-0.9981 -0.02588,-0.9981 z M 15,8 c -3.860071,0 -7,3.139929 -7,7 0,3.860071 3.139929,7 7,7 3.860071,0 7,-3.139929 7,-7 0,-3.860071 -3.139929,-7 -7,-7 z m 0,1 c 3.319631,0 6,2.680369 6,6 0,3.319631 -2.680369,6 -6,6 -3.319631,0 -6,-2.680369 -6,-6 0,-3.319631 2.680369,-6 6,-6 z M 15,6 C 10.117026,6 6.3753651,7.9529227 3.8691406,10.019531 2.6160284,11.052836 1.669305,12.11454 1.0273438,12.988281 0.70636312,13.425152 0.46154123,13.814315 0.29101562,14.138672 0.12049002,14.463029 0,14.65861 0,15 c 0,0.34139 0.12049002,0.536971 0.29101562,0.861328 0.17052561,0.324357 0.4153475,0.71352 0.73632818,1.150391 0.6419612,0.873741 1.5886846,1.935445 2.8417968,2.96875 C 6.3753651,22.047077 10.117026,24 15,24 c 4.882974,0 8.624635,-1.952923 11.130859,-4.019531 1.253113,-1.033305 2.199836,-2.095009 2.841797,-2.96875 0.320981,-0.436871 0.565803,-0.826034 0.736328,-1.150391 C 29.87951,15.536971 30,15.34139 30,15 30,14.65861 29.87951,14.463029 29.708984,14.138672 29.538459,13.814315 29.293637,13.425152 28.972656,12.988281 28.330695,12.11454 27.383972,11.052836 26.130859,10.019531 23.624635,7.9529227 19.882974,6 15,6 Z m 0,1 c 4.617026,0 8.125365,1.8377461 10.494141,3.791016 1.184387,0.976634 2.081414,1.982758 2.673828,2.789062 0.296207,0.403152 0.514862,0.757826 0.65625,1.023438 0.174418,0.327661 0.135743,0.550574 0,0.792968 -0.147022,0.262536 -0.360043,0.620286 -0.65625,1.023438 -0.592414,0.806304 -1.489441,1.812428 -2.673828,2.789062 C 23.125365,21.162254 19.617026,23 15,23 10.382974,23 6.8746349,21.162254 4.5058594,19.208984 3.3214716,18.23235 2.424445,17.226226 1.8320312,16.419922 1.5358244,16.01677 1.3209267,15.660061 1.1757812,15.396484 c -0.1387021,-0.251877 -0.1701953,-0.485349 0,-0.792968 0.1456687,-0.263289 0.3600432,-0.620286 0.65625,-1.023438 C 2.424445,12.773774 3.3214716,11.76765 4.5058594,10.791016 6.8746349,8.8377461 10.382974,7 15,7 Z"/>
</svg>