<svg fill="#000000" height="30" viewBox="0 0 30 30" width="30" xmlns="http://www.w3.org/2000/svg">
<path d="M 25,24.5 C 25,24.776142 24.776142,25 24.5,25 24.223858,25 24,24.776142 24,24.5 24,24.223858 24.223858,24 24.5,24 24.776142,24 25,24.223858 25,24.5 Z M 23.5,12 l 2,0 c 0.277,0 0.5,0.223 0.5,0.5 0,0.277 -0.223,0.5 -0.5,0.5 l -2,0 C 23.223,13 23,12.777 23,12.5 23,12.223 23.223,12 23.5,12 Z m -3,-2 C 19.677649,10 19,10.677649 19,11.5 l 0,14 c 0,0.822351 0.677649,1.5 1.5,1.5 l 8,0 c 0.822351,0 1.5,-0.677649 1.5,-1.5 l 0,-14 C 30,10.677649 29.322351,10 28.5,10 Z m 0,1 8,0 c 0.285649,0 0.5,0.214351 0.5,0.5 l 0,14 c 0,0.285649 -0.214351,0.5 -0.5,0.5 l -8,0 C 20.214351,26 20,25.785649 20,25.5 l 0,-14 C 20,11.214351 20.214351,11 20.5,11 Z M 14,19.5 C 14,19.776142 13.776142,20 13.5,20 13.223858,20 13,19.776142 13,19.5 13,19.223858 13.223858,19 13.5,19 13.776142,19 14,19.223858 14,19.5 Z M 1.5,3 C 0.67764862,3 0,3.6776486 0,4.5 l 0,16 C 0,21.322351 0.67764862,22 1.5,22 l 9.5,0 0,2 -1.5,0 C 9.223,24 9,24.223 9,24.5 9,24.777 9.223,25 9.5,25 l 8,0 C 17.777,25 18,24.777 18,24.5 18,24.223 17.777,24 17.5,24 l -1.5,0 0,-2 1.5,0 c 0.668369,0 0.656451,-1 0,-1 l -16,0 C 1.2143514,21 1,20.785649 1,20.5 L 1,18 17.5,18 C 17.777,18 18,17.777 18,17.5 18,17.223 17.777,17 17.5,17 L 1,17 1,4.5 C 1,4.2143514 1.2143514,4 1.5,4 l 24,0 C 25.785649,4 26,4.2143514 26,4.5 l 0,4 c 0,0.6645874 1,0.6567741 1,0 l 0,-4 C 27,3.6776486 26.322351,3 25.5,3 Z m 10.5,19 3,0 0,2 -3,0 z"/>
</svg>