<svg fill="#000000" height="30" viewBox="0 0 30 30" width="30" xmlns="http://www.w3.org/2000/svg">
<path d="m 0,15.5 c 0.0043,0.276145 0.223855,0.504321 0.5,0.5 l 26,0 c 0.660681,0 0.664445,-1 0,-1 l -26,0 C 0.217734,14.9956 -0.004417,15.217734 0,15.5 Z m 15.000095,14 c 9.1e-5,0.449402 0.554394,0.663397 0.853516,0.354326 l 14,-14 c 0.195185,-0.195265 0.195185,-0.511767 0,-0.707032 l -14,-13.9999994 c -0.425272,-0.44288604 -1.166562,0.247502 -0.707032,0.707032 L 28.793064,15.50081 15.146579,29.147294 c -0.09737,0.09421 -0.146484,0.217223 -0.146484,0.352706 z"/>
</svg>