<svg fill="#000000" height="30" viewBox="0 0 30 30" width="30" xmlns="http://www.w3.org/2000/svg">
<path d="M 22.005379,2.0749547e-4 C 21.81137,-0.00210029 21.633207,0.10512114 21.547145,0.27597947 L 19.349532,4.654563 14.431157,5.356187 c -0.414111,0.059254 -0.578966,0.5596127 -0.278759,0.8460759 l 3.804228,3.4068156 -0.952454,4.8119395 c -0.07041,0.405366 0.363222,0.713822 0.733174,0.521528 l 4.262305,-2.271836 4.286686,2.271836 c 0.369439,0.189852 0.800494,-0.11757 0.731265,-0.521528 L 26.076385,9.6090785 29.846904,6.2022629 C 30.147111,5.9157997 29.982256,5.4154414 29.568145,5.356187 L 24.651679,4.654563 22.452157,0.27597947 C 22.367925,0.10876114 22.19526,0.00218429 22.005379,2.0749547e-4 Z M 21.999651,1.6154433 23.863135,5.326171 c 0.07328,0.146659 0.215414,0.2484153 0.379952,0.2720199 l 4.168018,0.5946919 -3.228277,2.8890397 C 25.06445,9.1954389 25.01023,9.3587647 25.037721,9.5190306 l 0.813293,4.0802994 -3.616518,-1.926652 c -0.147015,-0.07598 -0.322675,-0.07598 -0.46969,0 l -3.592138,1.926652 0.82453,-4.0802994 C 19.024689,9.3587647 18.970469,9.1954389 18.852091,9.0819225 L 15.590106,6.1928828 19.756215,5.5981909 C 19.920753,5.5745863 20.062884,5.47283 20.136167,5.326171 Z M 16.5,18 C 15.677649,18 15,18.677649 15,19.5 l 0,9 c 0,0.822351 0.677649,1.5 1.5,1.5 l 9,0 c 0.822351,0 1.5,-0.677649 1.5,-1.5 l 0,-9 C 27,18.677649 26.322351,18 25.5,18 Z m 0,1 9,0 c 0.285649,0 0.5,0.214351 0.5,0.5 l 0,9 c 0,0.285649 -0.214351,0.5 -0.5,0.5 l -9,0 C 16.214351,29 16,28.785649 16,28.5 l 0,-9 C 16,19.214351 16.214351,19 16.5,19 Z M 1.5,3 C 0.67764862,3 0,3.6776486 0,4.5 l 0,9 C 0,14.322351 0.67764862,15 1.5,15 l 9,0 c 0.822351,0 1.5,-0.677649 1.5,-1.5 l 0,-9 C 12,3.6776486 11.322351,3 10.5,3 Z m 0,1 9,0 C 10.785649,4 11,4.2143514 11,4.5 l 0,9 c 0,0.285649 -0.214351,0.5 -0.5,0.5 l -9,0 C 1.2143514,14 1,13.785649 1,13.5 l 0,-9 C 1,4.2143514 1.2143514,4 1.5,4 Z m 0,14 C 0.67764862,18 0,18.677649 0,19.5 l 0,9 C 0,29.322351 0.67764862,30 1.5,30 l 9,0 c 0.822351,0 1.5,-0.677649 1.5,-1.5 l 0,-9 C 12,18.677649 11.322351,18 10.5,18 Z m 0,1 9,0 c 0.285649,0 0.5,0.214351 0.5,0.5 l 0,9 c 0,0.285649 -0.214351,0.5 -0.5,0.5 l -9,0 C 1.2143514,29 1,28.785649 1,28.5 l 0,-9 C 1,19.214351 1.2143514,19 1.5,19 Z"/>
</svg>