<svg fill="#000000" height="30" viewBox="0 0 30 30" width="30" xmlns="http://www.w3.org/2000/svg">
<path d="m 20.5,10.000839 c -0.129678,0 -0.266009,0.0577 -0.356636,0.150778 l -5.498419,5.498163 c -0.247279,0.247268 -0.464042,0.334087 -0.648966,0.335408 -0.184923,0.0013 -0.387101,-0.08013 -0.642685,-0.335408 l -2.493433,-2.490464 c -0.453635,-0.474108 -1.1746633,0.257498 -0.706312,0.708847 l 2.493433,2.490464 c 0.391749,0.391283 0.852991,0.630143 1.348997,0.626604 0.496007,-0.0035 0.974998,-0.246342 1.355278,-0.626604 l 5.498418,-5.498164 C 21.160872,10.555129 20.958404,10.000839 20.5,10.000839 Z M 14.718635,0.04834377 C 14.587829,0.10603833 14.390969,0.23063801 14.158088,0.37258892 13.925207,0.51453983 13.470759,0.80379158 13.027229,1.0445186 12.140168,1.5259726 11.028835,2 10,2 8.9000098,2 8.0767104,1.7690903 7.3125,1.5233987 6.5482896,1.2777071 5.8341933,0.99991859 5,0.99991859 4.2260427,0.99991859 3.4738812,1.1221593 2.8925781,1.6034833 2.3112751,2.0848073 2,2.9164001 2,4 l 0,8 c 0,1.179849 -0.1912674,5.266651 2.0644531,9.24766 1.3269539,2.341875 3.619199,4.495506 5.7773438,6.092293 1.0790721,0.798393 2.1245481,1.454734 3.0097651,1.918124 C 13.73678,29.721469 14.400825,30 15,30 c 0.599175,0 1.26322,-0.278531 2.148438,-0.741923 0.885217,-0.46339 1.930693,-1.119731 3.009765,-1.918124 2.158145,-1.596787 4.45039,-3.750418 5.777344,-6.092293 C 28.191267,17.266651 28,13.179849 28,12 L 28,4 C 28,2.9164001 27.688725,2.0848073 27.107422,1.6034833 26.526119,1.1221593 25.773957,0.99991859 25,0.99991859 c -0.834194,0 -1.54829,0.27778851 -2.3125,0.52348011 C 21.92329,1.7690903 21.09999,2 20,2 18.971165,2 17.85179,1.5259726 16.964729,1.0445186 16.521199,0.80379158 16.075403,0.53321494 15.83387,0.37258892 15.592337,0.2119629 15.392085,0.11267515 15.273323,0.04834377 c -0.13898,-0.06445836 -0.408547,-0.06445836 -0.554688,0 z M 15,1.0874908 c 0.09164,0 0.172573,0.051327 0.30262,0.1328233 0.298148,0.1868413 0.705818,0.4438686 1.183593,0.7031822 0.955551,0.5186275 2.200331,1.0765851 3.513787,1.0765851 1.242301,0 2.201048,-0.269131 2.992188,-0.5234801 C 23.783327,2.2222522 24.397883,2 25,2 25.662354,2 26.161084,2.118663 26.470703,2.3750305 26.780322,2.631398 27,3.0947001 27,4 l 0,8 c 0,1.277009 0.166737,5.045216 -1.935547,8.755432 -1.210982,2.137204 -3.419582,4.240999 -5.501953,5.781721 -1.041186,0.770362 -2.049348,1.402855 -2.876953,1.836087 C 15.857942,28.806473 15.150825,29 15,29 14.849175,29 14.142058,28.806473 13.314453,28.37324 12.486848,27.940008 11.478686,27.307515 10.4375,26.537153 8.3551289,24.996431 6.1465295,22.892636 4.9355469,20.755432 2.8332632,17.045216 3,13.277009 3,12 L 3,4 C 3,3.0947001 3.2196776,2.631398 3.5292969,2.3750305 3.8389162,2.118663 4.3376466,2 5,2 5.6021173,2 6.2166734,2.2222522 7.0078125,2.4766013 7.7989516,2.7309504 8.757699,3.0000814 10,3.0000814 c 1.313456,0 2.550194,-0.5579576 3.505745,-1.0765851 C 13.98352,1.6641827 14.39119,1.4071554 14.689338,1.2203141 14.819385,1.1388181 14.908364,1.0874908 15,1.0874908 Z"/>
</svg>