<svg fill="#000000" height="30" viewBox="0 0 30 30" width="30" xmlns="http://www.w3.org/2000/svg">
<path d="m 19.5,3 c -0.527809,0.00935 -0.686341,0.7378528 -0.248047,0.9472656 0.258373,0.1293679 0.482105,0.3509298 0.611328,0.609375 0.129223,0.2584462 0.172623,0.5691967 0.121093,0.8535156 C 19.934352,5.6861561 19.791418,5.9731145 19.595703,6.25 19.39888,6.5284523 19.171266,6.803719 18.916016,7.1132812 c -0.255661,0.3100605 -0.518698,0.6593537 -0.699219,1.0839844 -0.182666,0.4296763 -0.274645,0.9339115 -0.146485,1.4414063 0.102851,0.4072701 0.332043,0.7481311 0.607422,1.0156251 0.273276,0.26545 0.586315,0.45541 0.896485,0.603515 0.618944,0.295543 1.222073,0.442394 1.697265,0.6875 0.466103,0.240418 0.902343,0.611974 1.38086,0.998047 0.479654,0.386991 1.017303,0.796918 1.683594,1.029297 0.425394,0.148363 0.711889,0.201414 1.013672,0.306641 0.150343,0.05242 0.282265,0.116615 0.384765,0.191406 0.100849,0.07359 0.176322,0.162084 0.216797,0.246094 0.05606,0.116365 0.06734,0.284576 0.02148,0.433594 -0.04729,0.153653 -0.154609,0.308326 -0.298828,0.429687 -0.293932,0.247346 -0.648187,0.367468 -1.140625,0.40625 -0.498401,0.03926 -1.063163,0.0052 -1.671875,0.101563 -0.304993,0.04827 -0.619188,0.131897 -0.921875,0.28125 -0.304274,0.150136 -0.592232,0.366543 -0.810547,0.662109 -0.303571,0.41099 -0.403322,0.850007 -0.513672,1.191406 -0.05494,0.169964 -0.110661,0.320348 -0.177734,0.44336 -0.06636,0.121707 -0.146386,0.219937 -0.226562,0.28125 -0.115072,0.088 -0.314089,0.156332 -0.572266,0.228515 -0.261449,0.0731 -0.595599,0.156045 -0.910156,0.394531 -0.330022,0.250213 -0.527294,0.600679 -0.63086,0.953126 -0.102184,0.347834 -0.09766,0.688253 -0.09766,1.001953 0,0.984105 0.398997,1.944105 0.990234,2.732421 0.591238,0.788317 1.415296,1.390271 2.345704,1.714844 0.630208,0.218749 0.945453,-0.731033 0.328124,-0.945312 C 20.925108,24.769559 20.260592,24.282352 19.791016,23.65625 19.321439,23.030147 19,22.256186 19,21.474609 c 0,-0.249067 2.05e-4,-0.477816 0.05664,-0.669921 0.05509,-0.187494 0.158917,-0.347713 0.277343,-0.4375 0.115981,-0.08793 0.315334,-0.156136 0.574219,-0.228516 0.262159,-0.0733 0.598001,-0.158233 0.912109,-0.398438 0.222516,-0.170161 0.378088,-0.382854 0.494141,-0.595703 0.115347,-0.211546 0.189693,-0.420659 0.251953,-0.613281 0.124045,-0.383769 0.217965,-0.704224 0.367188,-0.90625 0.105565,-0.14292 0.262679,-0.268296 0.447265,-0.359375 0.186174,-0.09186 0.40328,-0.152508 0.636719,-0.189453 0.46815,-0.07409 1.005253,-0.04544 1.59375,-0.0918 0.59446,-0.04682 1.264418,-0.184032 1.804688,-0.638672 0.272881,-0.229631 0.398663,-0.533026 0.511719,-0.900391 0.114476,-0.371996 0.106329,-0.78737 -0.07422,-1.162109 -0.126655,-0.26288 -0.22144,-0.467716 -0.431641,-0.621094 C 26.213324,13.509937 25.990584,13.41029 25.777344,13.335938 25.351961,13.187613 24.965816,13.132585 24.664062,13.027344 24.190837,12.862299 23.740844,12.536821 23.28125,12.166016 22.820518,11.794291 22.334971,11.3675 21.728516,11.054688 21.109934,10.73562 20.497508,10.590228 20.005859,10.355469 19.760735,10.238422 19.543118,10.100804 19.375,9.9375 19.208988,9.7762416 19.088833,9.5819292 19.041016,9.3925781 18.981394,9.1564875 19.019333,8.8640115 19.136719,8.5878906 19.25625,8.3067242 19.455258,8.0297054 19.6875,7.7480469 19.920153,7.4658899 20.189692,7.1739922 20.435547,6.8261719 20.68251,6.4767848 20.882002,6.0684797 20.96875,5.5898438 21.059763,5.0876785 20.984092,4.5658419 20.755859,4.109375 20.527625,3.6529074 20.180948,3.2812237 19.724609,3.0527344 19.649939,3.0137579 19.584217,2.9985083 19.5,3 Z m -16,8 c -0.6489659,0 -0.6691832,1 0,1 l 1,0 c 0.2455388,0 0.4436813,0.01637 0.578125,0.07031 0.1338629,0.05371 0.2628832,0.163044 0.3496094,0.298829 0.090337,0.141437 0.1605301,0.349151 0.2421875,0.601562 0.083625,0.258494 0.1896739,0.595925 0.4765625,0.882813 0.2868878,0.286887 0.624318,0.392938 0.8828125,0.476562 0.2524026,0.08165 0.4601215,0.151848 0.6015625,0.242188 0.1357842,0.08673 0.2451125,0.215738 0.2988281,0.349609 C 7.9836351,15.056323 8,15.254465 8,15.5 l 0,1.7 c 0,0.251333 0.00288,0.565805 0.1503906,0.897656 0.1486827,0.334484 0.4133126,0.595144 0.7402344,0.744141 0.319399,0.145571 0.8409486,0.156181 1.1054688,0.158201 0.2592602,0.002 0.2483232,0.0054 0.3750002,0.03906 0.10136,0.0269 0.205766,0.08543 0.291015,0.166016 0.08592,0.08122 0.16019,0.190765 0.212891,0.314453 C 10.979374,19.764496 11,20.118452 11,20.5 l 0,4.5 c 0,0.311713 8.01e-4,0.64752 0.06641,1.007812 0.06571,0.361088 0.195846,0.724411 0.419922,1.048829 0.224672,0.32528 0.532284,0.594508 0.900391,0.763671 0.368147,0.169184 0.706851,0.175782 1.113281,0.175782 0.672877,0 0.667329,-0.992188 0,-0.992188 -0.211385,0 -0.502086,-0.005 -0.695312,-0.09375 -0.193268,-0.08882 -0.369652,-0.238811 -0.496094,-0.421875 -0.12704,-0.183928 -0.212907,-0.41341 -0.257813,-0.660156 C 12.005707,25.580586 12,25.306102 12,25 l 0,-4.5 c 0,-0.401361 -0.0026,-0.897754 -0.205078,-1.373047 -0.100743,-0.23644 -0.246757,-0.460746 -0.445313,-0.648437 -0.199225,-0.188324 -0.443709,-0.332733 -0.720703,-0.40625 -0.331553,-0.088 -0.410176,-0.07063 -0.625,-0.07226 -0.2095628,-0.0016 -0.5872123,-0.01731 -0.6992185,-0.06836 C 9.2002039,17.884021 9.1063913,17.790146 9.0625,17.691406 9.017438,17.590033 9,17.422765 9,17.2 L 9,15.5 C 9,15.227191 8.9965009,14.895442 8.8574219,14.548828 8.7181111,14.201635 8.4690273,13.920805 8.1679688,13.728516 7.8725671,13.539841 7.5786664,13.456796 7.3378906,13.378906 7.1032065,13.302985 6.9331524,13.226121 6.8535156,13.146484 6.7738796,13.066848 6.6970165,12.896796 6.6210938,12.662109 6.5432035,12.421343 6.4601617,12.127436 6.2714844,11.832031 6.0791963,11.530972 5.7983716,11.281887 5.4511719,11.142578 5.104553,11.003493 4.7728052,11 4.5,11 Z M 15,0 C 6.7216511,0 0,6.7216511 0,15 0,23.278349 6.7216511,30 15,30 23.278349,30 30,23.278349 30,15 30,6.7216511 23.278349,0 15,0 Z m 0,1 C 22.737909,1 29,7.2620912 29,15 29,22.737909 22.737909,29 15,29 7.2620912,29 1,22.737909 1,15 1,7.2620912 7.2620912,1 15,1 Z"/>
</svg>