<svg fill="#000000" height="30" viewBox="0 0 30 30" width="30" xmlns="http://www.w3.org/2000/svg">
<path d="m 6.5,1 c -0.6374931,0 -0.6819247,1 0,1 l 19.711885,0 c 1.125364,0.00166 0.794197,0.3693333 0.609376,0.6894531 l -0.0098,0.013672 -3.713839,5 c -0.130217,0.1764978 -0.130217,0.4172522 0,0.59375 l 3.697266,4.9999999 -0.002,0 C 27.159842,13.830691 26.96412,14 26.195312,14 L 6.5,14 c -0.6544879,0 -0.6485778,1 0,1 l 19.695312,0 c 0.661151,0 1.246558,-0.130512 1.595704,-0.601562 0.174572,-0.235526 0.243858,-0.55372 0.197265,-0.847657 -0.04659,-0.293937 -0.185752,-0.569732 -0.390625,-0.847656 L 24.121094,8 l 3.48337,-4.6894531 0,-0.00195 C 27.972195,2.844696 28.142422,2.2347926 27.856417,1.7285156 27.570119,1.2217193 26.961654,1 26.211885,1 Z M 3.5,0 C 2.6776486,0 2,0.67764862 2,1.5 l 0,27 C 2,29.322351 2.6776486,30 3.5,30 4.3223514,30 5,29.322351 5,28.5 L 5,1.5 C 5,0.67764862 4.3223514,0 3.5,0 Z m 0,1 C 3.7856486,1 4,1.2143514 4,1.5 l 0,27 C 4,28.785649 3.7856486,29 3.5,29 3.2143514,29 3,28.785649 3,28.5 L 3,1.5 C 3,1.2143514 3.2143514,1 3.5,1 Z"/>
</svg>