<svg fill="#000000" height="30" viewBox="0 0 30 30" width="30" xmlns="http://www.w3.org/2000/svg">
<path d="m 5.4954226,17 c -0.128371,0.0036 -0.254695,0.05319 -0.344443,0.145254 l -0.989301,0.9916 c -0.485521,0.467296 0.233254,1.187743 0.699467,0.701093 l 0.989301,-0.9916 C 6.1722356,17.531014 5.9382366,17 5.4954226,17 Z M 4.4997742,10 c -0.4444472,6.9e-5 -0.6689878,0.536433 -0.3496174,0.846341 l 0.988973,0.991595 C 5.6051884,12.32461 6.3237525,11.604141 5.8383645,11.136847 L 4.8493916,10.145252 C 4.7562231,10.048702 4.6337633,9.999979 4.4997742,10 Z m 7.9956488,0 c -0.128371,0.0036 -0.254695,0.05319 -0.344443,0.145254 l -0.989301,0.9916 c -0.485521,0.467296 0.233254,1.187743 0.699467,0.701093 l 0.989301,-0.9916 C 13.172236,10.531014 12.938237,10 12.495423,10 Z M 9,9.5 l 0,1 C 9,10.777 8.777,11 8.5,11 8.223,11 8,10.777 8,10.5 l 0,-1 C 8,9.223 8.223,9 8.5,9 8.777,9 9,9.223 9,9.5 Z m -5.5,4.5 1,0 C 4.777,14 5,14.223 5,14.5 5,14.777 4.777,15 4.5,15 l -1,0 C 3.223,15 3,14.777 3,14.5 3,14.223 3.223,14 3.5,14 Z m 17.728516,-3.949219 c -0.35697,0.0756 -0.690923,0.24033 -0.96875,0.480469 -0.294919,0.254911 -0.515386,0.587015 -0.636719,0.957031 -0.06727,0.205136 -0.03,0.417273 -0.03516,0.628907 -0.24425,-0.132168 -0.799585,-0.157402 -1.146487,-0.06445 -0.441729,0.103539 -0.878973,0.307028 -1.216797,0.650391 -0.502725,0.510968 -0.636082,0.938409 -0.599611,1.507813 -0.159644,-0.07236 -0.309489,-0.163889 -0.490234,-0.191407 -0.295321,-0.04496 -0.591545,-0.0184 -0.869141,0.06836 -0.27583,0.08621 -0.521229,0.225812 -0.732422,0.390625 -0.294729,0.230004 -0.546647,0.526139 -0.714844,0.878906 -0.119444,0.250514 -0.128696,0.531832 -0.148437,0.808594 L 11.425773,14.12891 C 11.139707,13.869435 10.825646,13.585117 10.431641,13.361328 10.036033,13.13663 9.5719874,12.983989 9.0742188,13 c -0.5157369,0.01659 -1.0164255,0.21794 -1.3964844,0.578125 -0.3809566,0.361036 -0.60766,0.851801 -0.6464844,1.369141 -0.038636,0.514823 0.1097104,1.006422 0.3574219,1.419922 0.2459891,0.410622 0.5669457,0.718897 0.8554687,0.99414 L 16.251953,25 14.5,25 c -0.239221,0 -0.506803,5.18e-4 -0.794922,0.05273 -0.288766,0.05233 -0.580038,0.155717 -0.84375,0.332032 -0.264078,0.17656 -0.483661,0.414648 -0.634766,0.699218 C 12.075775,26.367946 12,26.683455 12,27 c 0,0.316553 0.07579,0.632064 0.226562,0.916016 0.151105,0.28457 0.370688,0.522658 0.634766,0.699218 0.263712,0.176315 0.55499,0.279694 0.84375,0.332032 C 13.993221,28.999495 14.260795,29 14.5,29 l 8,0 c 0.685655,0 0.644413,-1 0,-1 l -8,0 c -0.232993,0 -0.4407,-0.0051 -0.617188,-0.03711 -0.17587,-0.03188 -0.337964,-0.0916 -0.466796,-0.177735 -0.128466,-0.08589 -0.236294,-0.205408 -0.306641,-0.33789 C 13.038701,27.314167 13,27.155645 13,27 c 0,-0.155653 0.0387,-0.314177 0.109375,-0.447266 0.07035,-0.132482 0.178175,-0.251999 0.306641,-0.33789 0.128832,-0.08614 0.290932,-0.145862 0.466796,-0.177735 C 14.059324,26.00512 14.267023,26 14.5,26 l 3,0 c 0.450806,-2.3e-5 0.671403,-0.549646 0.345703,-0.861328 l -8.9101561,-8.5 c -0.281237,-0.268293 -0.5288218,-0.520279 -0.6875,-0.785156 -0.1569557,-0.262003 -0.2390428,-0.561627 -0.21875,-0.832032 0.020104,-0.26789 0.1453498,-0.538128 0.3359375,-0.71875 C 8.5567199,14.121262 8.834176,14.008728 9.1054688,14 9.3731381,13.9914 9.6671917,14.07889 9.9375,14.232422 c 0.271911,0.154441 0.535221,0.383635 0.816406,0.638672 1.470836,1.33245 2.941532,2.665156 4.410158,4.000002 0.452753,0.411511 1.121845,-0.307945 0.695688,-0.714521 l -0.506236,-0.510091 c -0.210884,-0.21249 -0.397283,-0.407089 -0.523438,-0.605468 -0.125561,-0.197449 -0.206105,-0.416594 -0.224609,-0.626954 -0.0185,-0.210375 0.02278,-0.433042 0.115234,-0.626953 0.0933,-0.195676 0.243466,-0.375729 0.427735,-0.519531 0.132307,-0.103251 0.274014,-0.180839 0.414062,-0.224609 0.138284,-0.04322 0.286442,-0.05577 0.421875,-0.03516 0.134907,0.02054 0.276821,0.07558 0.40625,0.160157 0.12987,0.08487 0.264077,0.213143 0.416016,0.363281 l 1.339843,1.322266 0.002,0.002 c 0.472511,0.451356 1.149563,-0.184497 0.700724,-0.649135 l -0.495692,-0.559897 c -0.244331,-0.275978 -0.486043,-0.50367 -0.621094,-0.753906 -0.133597,-0.247542 -0.192746,-0.530436 -0.160156,-0.783203 0.03259,-0.252768 0.162416,-0.506732 0.351562,-0.691406 0.192048,-0.187507 0.457523,-0.322986 0.746094,-0.390625 0.384173,-0.102939 0.731215,0.08083 0.976562,0.326178 l 1,1 0.5,0.5 c 0.471259,0.452518 1.15955,-0.235773 0.707032,-0.707032 l -0.5,-0.5 c -0.208234,-0.208233 -0.39474,-0.401596 -0.533204,-0.599609 -0.138028,-0.19739 -0.236859,-0.410563 -0.279296,-0.621094 -0.04227,-0.209695 -0.03069,-0.432108 0.0332,-0.626953 0.06393,-0.19495 0.18494,-0.377829 0.339843,-0.511719 0.146325,-0.126475 0.329985,-0.217254 0.521485,-0.257812 0.191538,-0.04057 0.401204,-0.03353 0.599609,0.01953 0.199039,0.05324 0.399803,0.155278 0.585938,0.291016 0.186526,0.136023 0.367904,0.31517 0.564453,0.511718 l 5.948292,5.978119 c 0.471255,0.490806 1.197837,-0.235777 0.707031,-0.707032 L 23.894528,11.144533 C 23.695182,10.944122 23.475436,10.727516 23.208981,10.533205 22.942136,10.338609 22.63748,10.17561 22.294919,10.083986 21.951726,9.992206 21.585443,9.975189 21.228516,10.050781 Z M 9.000001,25 c 0,0.552285 -0.4477153,1 -1,1 -0.5522847,0 -1,-0.447715 -1,-1 0,-0.552285 0.4477153,-1 1,-1 0.5522847,0 1,0.447715 1,1 z m -2.5,-21.9999998 3,0 c 0.277,0 0.5,0.223 0.5,0.5 0,0.277 -0.223,0.5 -0.5,0.5 l -3,0 c -0.277,0 -0.5,-0.223 -0.5,-0.5 0,-0.277 0.223,-0.5 0.5,-0.5 z M 1.5,1 C 0.67764862,1 0,1.6776486 0,2.5 l 0,24 C 0,27.322351 0.67764862,28 1.5,28 l 9,0 c 0.692792,0 0.637468,-1 0,-1 l -9,0 C 1.2143514,27 1,26.785649 1,26.5 L 1,2.5 C 1,2.2143514 1.2143514,2 1.5,2 l 13,0 C 14.785649,2 15,2.2143514 15,2.5 l 0,9 c -0.0096,0.676161 1.009563,0.676161 1,0 l 0,-9 C 16,1.6776486 15.322351,1 14.5,1 Z"/>
</svg>