<svg fill="#000000" height="30" viewBox="0 0 30 30" width="30" xmlns="http://www.w3.org/2000/svg">
<path d="m 15,10 c -3.860071,0 -7,3.139929 -7,7 0,3.860071 3.139929,7 7,7 3.860071,0 7,-3.139929 7,-7 0,-3.860071 -3.139929,-7 -7,-7 z m 0,1 c 3.319631,0 6,2.680369 6,6 0,3.319631 -2.680369,6 -6,6 -3.319631,0 -6,-2.680369 -6,-6 0,-3.319631 2.680369,-6 6,-6 z M 4.5,3 C 3.6776486,3 3,3.6776486 3,4.5 l 0,1 c 0,0.6762348 1,0.6488459 1,0 l 0,-1 C 4,4.2143514 4.2143514,4 4.5,4 l 5,0 C 9.7856486,4 10,4.2143514 10,4.5 l 0,1 c 0,0.6606116 1,0.6606116 1,0 l 0,-1 C 11,3.6776486 10.322351,3 9.5,3 Z m 19,6 C 22.677649,9 22,9.6776486 22,10.5 c 0,0.822351 0.677649,1.5 1.5,1.5 l 3,0 C 27.322351,12 28,11.322351 28,10.5 28,9.6776486 27.322351,9 26.5,9 Z m 0,1 3,0 c 0.285649,0 0.5,0.214351 0.5,0.5 0,0.285649 -0.214351,0.5 -0.5,0.5 l -3,0 C 23.214351,11 23,10.785649 23,10.5 23,10.214351 23.214351,10 23.5,10 Z M 1.5,7 C 0.67764862,7 0,7.6776486 0,8.5 l 0,17 C 0,26.322351 0.67764862,27 1.5,27 l 27,0 c 0.822351,0 1.5,-0.677649 1.5,-1.5 l 0,-17 C 30,7.6776486 29.322351,7 28.5,7 Z m 0,1 27,0 C 28.785649,8 29,8.2143514 29,8.5 l 0,17 c 0,0.285649 -0.214351,0.5 -0.5,0.5 l -27,0 C 1.2143514,26 1,25.785649 1,25.5 L 1,8.5 C 1,8.2143514 1.2143514,8 1.5,8 Z"/>
</svg>