<svg fill="#000000" height="30" viewBox="0 0 30 30" width="30" xmlns="http://www.w3.org/2000/svg">
<path d="M 14.5 0 C 6.4977934 0 0 6.4977934 0 14.5 C 0 22.502207 6.4977934 29 14.5 29 C 22.502207 29 29 22.502207 29 14.5 C 29 6.4977934 22.502207 0 14.5 0 z M 14.5 1 C 16.71154 1 18.755438 2.3643358 20.306641 4.6777344 C 16.636688 6.4293152 12.363573 6.4279356 8.6933594 4.6757812 C 10.244454 2.3632014 12.288888 1 14.5 1 z M 9.8652344 1.8320312 C 9.1004601 2.4822729 8.4079406 3.2876954 7.8007812 4.2089844 C 7.422109 3.9920334 7.0525395 3.7526411 6.6914062 3.4960938 C 7.6618866 2.8065328 8.7276165 2.2478726 9.8652344 1.8320312 z M 19.134766 1.8320312 C 20.273256 2.2481914 21.339469 2.8077652 22.310547 3.4980469 C 21.948967 3.7550157 21.578397 3.9917519 21.199219 4.2089844 C 20.59206 3.2876954 19.89954 2.4822729 19.134766 1.8320312 z M 5.8554688 4.1289062 C 6.3176452 4.4724767 6.7948432 4.7827822 7.2851562 5.0644531 C 5.8558663 7.6115667 5 10.899784 5 14.5 C 5 18.099518 5.8563689 21.386684 7.2851562 23.933594 C 6.7946321 24.215307 6.3159042 24.525375 5.8535156 24.869141 C 2.8874882 22.393741 1 18.66986 1 14.5 C 1 10.329146 2.8882202 6.6042999 5.8554688 4.1289062 z M 23.144531 4.1289062 C 26.11178 6.6042999 28 10.329146 28 14.5 C 28 18.670854 26.11178 22.3957 23.144531 24.871094 C 22.682423 24.527534 22.205113 24.217228 21.714844 23.935547 C 23.144134 21.388433 24 18.100216 24 14.5 C 24 10.900482 23.143631 7.6133161 21.714844 5.0664062 C 22.205178 4.7846683 22.682354 4.472555 23.144531 4.1289062 z M 8.171875 5.5332031 C 12.164112 7.4716348 16.838385 7.4724087 20.830078 5.5332031 C 22.167282 7.9090675 23 11.047241 23 14.5 C 23 17.953178 22.165615 21.090832 20.828125 23.466797 C 18.837029 22.500026 16.677146 22.00412 14.513672 22.001953 C 12.340209 21.999803 10.170497 22.495619 8.1699219 23.466797 C 6.8327177 21.090933 6 17.952759 6 14.5 C 6 11.046822 6.8343851 7.9091683 8.171875 5.5332031 z M 2.5 14 C 2.223 14 2 14.223 2 14.5 C 2 14.777 2.223 15 2.5 15 L 3.5 15 C 3.777 15 4 14.777 4 14.5 C 4 14.223 3.777 14 3.5 14 L 2.5 14 z M 7.5 14 C 7.223 14 7 14.223 7 14.5 C 7 14.777 7.223 15 7.5 15 L 21.5 15 C 21.777 15 22 14.777 22 14.5 C 22 14.223 21.777 14 21.5 14 L 7.5 14 z M 25.5 14 C 25.223 14 25 14.223 25 14.5 C 25 14.777 25.223 15 25.5 15 L 26.5 15 C 26.777 15 27 14.777 27 14.5 C 27 14.223 26.777 14 26.5 14 L 25.5 14 z M 14.511719 23 C 16.495332 23.001828 18.475571 23.450111 20.306641 24.324219 C 18.755546 26.636799 16.711112 28 14.5 28 C 12.288888 28 10.244454 26.636799 8.6933594 24.324219 C 10.532444 23.446448 12.519971 22.998164 14.511719 23 z M 7.8007812 24.791016 C 8.4079406 25.712305 9.1004601 26.517727 9.8652344 27.167969 C 8.7272438 26.751991 7.6621421 26.191822 6.6914062 25.501953 C 7.052472 25.245509 7.4222006 25.007872 7.8007812 24.791016 z M 21.199219 24.791016 C 21.577646 25.007844 21.947703 25.24556 22.308594 25.501953 C 21.337858 26.191822 20.272756 26.751991 19.134766 27.167969 C 19.89954 26.517727 20.59206 25.712305 21.199219 24.791016 z "/>
</svg>