<svg fill="#000000" height="30" viewBox="0 0 30 30" width="30" xmlns="http://www.w3.org/2000/svg">
<path d="m 25.341797,-0.046875 c -0.153917,4.7418e-4 -0.311835,0.02188454 -0.470703,0.06445313 -3.747066,1.00402347 -6.782964,2.00402307 -10.5,2.99999997 -0.813163,0.2178862 -1.408101,0.5457911 -1.804688,0.984375 C 12.16982,4.440537 12,4.9833333 12,5.5 c 0,5.661259 0.03316,16.167926 0.03711,17.449219 C 11.035582,21.760013 9.3566601,21 7.5,21 4.5224002,21 2,22.953086 2,25.5 2,28.046914 4.5224002,30 7.5,30 10.4776,30 13,28.046914 13,25.5 l 0,-20 C 13,5.1833334 13.08018,4.9264299 13.308594,4.6738281 13.537007,4.4212263 13.942069,4.1664595 14.628906,3.9824219 18.375972,2.9783986 21.41187,1.978399 25.128906,0.98242188 25.493434,0.88474688 25.61583,0.95332378 25.75,1.1054688 25.88417,1.2576136 26,1.5833333 26,2 l 0,16.914062 C 24.994853,17.746951 23.336582,17 21.5,17 18.5224,17 16,18.953086 16,21.5 16,24.046914 18.5224,26 21.5,26 24.4776,26 27,24.046914 27,21.5 L 27,2 C 27,1.4166667 26.86583,0.85820178 26.5,0.44335938 26.225628,0.13222757 25.803549,-0.04829754 25.341797,-0.046875 Z m -0.853516,6.0449219 c -0.04513,0.00178 -0.0898,0.00966 -0.132812,0.023437 l -10,3 c -0.660257,0.1800515 -0.28142,1.1463546 0.289062,0.9570312 l 10,-3 C 25.204332,6.8183952 25.072029,5.9980469 24.488281,5.9980469 Z M 21.5,18 C 24.045248,18 26,19.628636 26,21.5 26,23.371364 24.045248,25 21.5,25 18.954752,25 17,23.371364 17,21.5 17,19.628636 18.954752,18 21.5,18 Z m -14,4 C 10.045248,22 12,23.628636 12,25.5 12,27.371364 10.045248,29 7.5,29 4.9547523,29 3,27.371364 3,25.5 3,23.628636 4.9547523,22 7.5,22 Z"/>
</svg>