<svg fill="#000000" height="30" viewBox="0 0 30 30" width="30" xmlns="http://www.w3.org/2000/svg">
<path d="M 14.515216,0 C 14.067323,6.9536722e-5 13.841042,0.53996309 14.162888,0.85191088 L 17.79712,4.4915392 14.162888,8.1311676 c -0.489151,0.4703692 0.234985,1.1955792 0.704656,0.7057019 l 3.986559,-3.9924794 c 0.194528,-0.1948977 0.194528,-0.510804 0,-0.7057018 L 14.867544,0.14620897 C 14.773654,0.04902325 14.650244,-2.0963278e-5 14.515216,0 Z M 15,4 C 7.8262205,4 2,9.8262209 2,17 c 0,7.173779 5.8262205,13 13,13 7.173779,0 13,-5.826221 13,-13 l 0,-0.5 c 0,-0.652752 -1,-0.668423 -1,0 L 27,17 C 27,23.633339 21.633339,29 15,29 8.3666607,29 3,23.633339 3,17 3,10.366661 8.3666607,5 15,5 l 0.5,0 c 0.648821,0 0.672742,-1 0,-1 z"/>
</svg>