<svg fill="#000000" height="30" viewBox="0 0 30 30" width="30" xmlns="http://www.w3.org/2000/svg">
<path d="m 4.486188,15 10.027624,0 C 14.78316,15 15,15.21684 15,15.486188 c 0,0.269348 -0.21684,0.486188 -0.486188,0.486188 l -10.027624,0 C 4.2168399,15.972376 4,15.755536 4,15.486188 4,15.21684 4.2168399,15 4.486188,15 Z M 4.5,11 l 21,0 c 0.277,0 0.5,0.223 0.5,0.5 0,0.277 -0.223,0.5 -0.5,0.5 l -21,0 C 4.223,12 4,11.777 4,11.5 4,11.223 4.223,11 4.5,11 Z m 0,-4 21,0 C 25.777,7 26,7.223 26,7.5 26,7.777 25.777,8 25.5,8 L 4.5,8 C 4.223,8 4,7.777 4,7.5 4,7.223 4.223,7 4.5,7 Z M 1.5,1 C 0.67764862,1 0,1.6776486 0,2.5 l 0,19 C 0,22.322351 0.67764862,23 1.5,23 l 3.5,0 0,4.5 c 0,0.347655 0.051383,0.64714 0.1835938,0.908203 0.1322107,0.261063 0.3739481,0.480361 0.6582031,0.554688 0.5685099,0.148652 1.0757526,-0.163413 1.515625,-0.613282 C 8.8817927,26.790594 11.584061,24.113828 12.707031,23 L 28.5,23 c 0.822351,0 1.5,-0.677649 1.5,-1.5 l 0,-19 C 30,1.6776486 29.322351,1 28.5,1 Z m 0,1 27,0 C 28.785649,2 29,2.2143514 29,2.5 l 0,19 c 0,0.285649 -0.214351,0.5 -0.5,0.5 l -16,0 c -0.131643,2.3e-5 -0.257968,0.05196 -0.351562,0.144531 -1.059329,1.050875 -3.9269094,3.891025 -5.5058599,5.50586 C 6.0905436,28.202426 6,27.847806 6,27.5 l 0,-5 C 5.9999724,22.223869 5.7761309,22.000028 5.5,22 l -4,0 C 1.2143514,22 1,21.785649 1,21.5 L 1,2.5 C 1,2.2143514 1.2143514,2 1.5,2 Z"/>
</svg>