<svg fill="#000000" height="30" viewBox="0 0 30 30" width="30" xmlns="http://www.w3.org/2000/svg">
<path d="M 14.5,10 C 12.020641,10 10,12.020641 10,14.5 10,16.979359 12.020641,19 14.5,19 16.979359,19 19,16.979359 19,14.5 19,12.020641 16.979359,10 14.5,10 Z m 0,1 C 16.438918,11 18,12.561082 18,14.5 18,16.438918 16.438918,18 14.5,18 12.561082,18 11,16.438918 11,14.5 11,12.561082 12.561082,11 14.5,11 Z m 0,-11 C 14.223,0 14,0.223 14,0.5 l 0,1.5253906 C 7.5025961,2.2836518 2.2836518,7.5025961 2.0253906,14 L 0.5,14 C 0.223,14 0,14.223 0,14.5 0,14.777 0.223,15 0.5,15 l 1.5253906,0 C 2.2836518,21.497404 7.5025961,26.716348 14,26.974609 L 14,28.5 c 0,0.277 0.223,0.5 0.5,0.5 0.277,0 0.5,-0.223 0.5,-0.5 l 0,-1.525391 C 21.497404,26.716348 26.716348,21.497404 26.974609,15 L 28.5,15 C 28.777,15 29,14.777 29,14.5 29,14.223 28.777,14 28.5,14 l -1.525391,0 C 26.716348,7.5025961 21.497404,2.2836518 15,2.0253906 L 15,0.5 C 15,0.223 14.777,0 14.5,0 Z M 14,3.0253906 14,4.5 C 14,4.777 14.223,5 14.5,5 14.777,5 15,4.777 15,4.5 L 15,3.0253906 C 20.956168,3.2812188 25.718781,8.0438312 25.974609,14 L 24.5,14 c -0.277,0 -0.5,0.223 -0.5,0.5 0,0.277 0.223,0.5 0.5,0.5 l 1.474609,0 C 25.718781,20.956168 20.956168,25.718781 15,25.974609 L 15,24.5 C 15,24.223 14.777,24 14.5,24 14.223,24 14,24.223 14,24.5 l 0,1.474609 C 8.0438312,25.718781 3.2812188,20.956168 3.0253906,15 L 4.5,15 C 4.777,15 5,14.777 5,14.5 5,14.223 4.777,14 4.5,14 L 3.0253906,14 C 3.2812188,8.0438312 8.0438312,3.2812188 14,3.0253906 Z"/>
</svg>