<svg fill="#000000" height="24" viewBox="0 0 24 24" width="24" xmlns="http://www.w3.org/2000/svg">
<path d="M 5.5,0 C 5.223,0 5,0.223 5,0.5 l 0,2 C 5,2.777 5.223,3 5.5,3 5.777,3 6,2.777 6,2.5 l 0,-2 C 6,0.223 5.777,0 5.5,0 Z m 4,0 C 9.223,0 9,0.223 9,0.5 l 0,2 C 9,2.777 9.223,3 9.5,3 9.777,3 10,2.777 10,2.5 l 0,-2 C 10,0.223 9.777,0 9.5,0 Z m 4,0 C 13.223,0 13,0.223 13,0.5 l 0,2 C 13,2.777 13.223,3 13.5,3 13.777,3 14,2.777 14,2.5 l 0,-2 C 14,0.223 13.777,0 13.5,0 Z M 0.5,4 C 0.22385501,4.0043087 -0.00432086,4.2238552 0,4.5 L 0,15 c 0,3.519069 2.2327814,6.516456 5.2832031,8 L 0.5,23 C 0.223,23 0,23.223 0,23.5 0,23.777 0.223,24 0.5,24 l 18,0 C 18.777,24 19,23.777 19,23.5 19,23.223 18.777,23 18.5,23 l -4.783203,0 C 16.767219,21.516422 19,18.519069 19,15 L 19,4.5 C 19.004781,4.1619193 18.752391,4 18.5,4 18.247609,4 17.995219,4.1619193 18,4.5 L 18,15 c 0,4.405255 -4.059351,8 -8.5,8 C 5.0593514,23 1,19.405255 1,15 L 1,4.5 C 1.0044168,4.2177336 0.78226637,3.9955832 0.5,4 Z m 2,3 C 2.223,7 2,7.223 2,7.5 2,7.777 2.223,8 2.5,8 l 14,0 C 16.777,8 17,7.777 17,7.5 17,7.223 16.777,7 16.5,7 Z m 18,0 C 20.161921,6.9952202 20,7.2476101 20,7.5 20,7.7523899 20.161921,8.0047798 20.5,8 21.886634,8 23,9.1133659 23,10.5 23,11.886634 21.886634,13 20.5,13 20.161921,12.9952 20,13.24761 20,13.5 20,13.75239 20.161921,14.00478 20.5,14 22.427074,14 24,12.427074 24,10.5 24,8.5729257 22.427074,7 20.5,7 Z"/>
</svg>