<svg fill="#000000" height="24" viewBox="0 0 24 24" width="24" xmlns="http://www.w3.org/2000/svg">
<path d="M 4.5,5 C 4.2238691,5.0000276 4.0000276,5.2238691 4,5.5 l 0,11 c 0,0.652329 1,0.668897 1,0 L 5,6 19,6 19,16.5 c 0,0.672436 1,0.656303 1,0 l 0,-11 C 19.999972,5.2238691 19.776131,5.0000276 19.5,5 Z M 3.5,3 C 2.6776486,3 2,3.6776486 2,4.5 l 0,12 c 0,0.668897 1.0093379,0.660275 1,0 L 3,4.5 C 3,4.2143514 3.2143514,4 3.5,4 l 17,0 C 20.785649,4 21,4.2143514 21,4.5 l 0,12 c 0,0.668369 1,0.65633 1,0 l 0,-12 C 22,3.6776486 21.322351,3 20.5,3 Z m -3,15 C 0.22386906,18.000028 2.7608953e-5,18.223869 0,18.5 0,19.876351 1.1236486,21 2.5,21 l 19,0 c 1.376351,0 2.5,-1.123649 2.5,-2.5 -2.8e-5,-0.276131 -0.223869,-0.499972 -0.5,-0.5 z m 0.7050781,1 21.5898439,0 C 22.577847,19.557609 22.142379,20 21.5,20 l -19,0 C 1.8576211,20 1.4221529,19.557609 1.2050781,19 Z"/>
</svg>