<svg fill="#000000" height="24" viewBox="0 0 24 24" width="24" xmlns="http://www.w3.org/2000/svg">
<path d="M 13.324219,4 C 12.04357,4 10.76579,4.252929 9.6191406,4.8222656 8.1772596,5.538191 7.0076873,6.5885817 6.2363281,8 4.5905196,7.9330374 2.9372363,8.6373202 1.765625,9.8007812 0.51513927,11.042567 -0.13723579,12.832777 0.0234375,14.587891 c 0.12712648,1.388665 0.75300493,2.714964 1.7421875,3.697265 0.989239,0.982358 2.3237883,1.596449 3.7128905,1.713844 0.014288,0.0013 0.028625,0.0019 0.042969,0.002 L 19.5,20.000047 c 0.469179,-3.2e-5 0.964252,-0.0032 1.480469,-0.101562 0.516704,-0.09845 1.025111,-0.290094 1.474609,-0.59961 0.450045,-0.309893 0.821349,-0.723722 1.082031,-1.201172 0.259822,-0.475873 0.405534,-1.002161 0.449219,-1.53125 0.08507,-1.030272 -0.219313,-2.072279 -0.841797,-2.896484 C 22.601435,12.950879 21.860779,12.469503 21,12.212938 21.07066,10.403791 20.520518,8.5817222 19.427734,7.1348126 18.255437,5.5826235 16.505077,4.4957017 14.59375,4.1348126 14.174866,4.0556736 13.750494,4 13.324219,4 Z m -0.02344,1 c 0.379152,0 0.744309,0.05021 1.109375,0.1191406 1.659585,0.3133561 3.202857,1.2694999 4.220703,2.6171875 1.017831,1.3476682 1.515865,3.0816509 1.363282,4.7636719 -0.02286,0.254479 0.149806,0.450103 0.40039,0.5 0.764973,0.150856 1.482809,0.64876 1.953125,1.271484 0.470344,0.622763 0.706726,1.436031 0.642578,2.212891 -0.03299,0.399561 -0.145316,0.790838 -0.332031,1.132813 -0.185854,0.340398 -0.452114,0.638854 -0.769531,0.857421 -0.317966,0.218946 -0.697063,0.367407 -1.095703,0.44336 C 20.393843,18.994032 19.96263,19 19.5,19 L 5.5488281,19 C 4.4028422,18.901184 3.2848452,18.384637 2.46875,17.574219 1.6506906,16.76185 1.1245966,15.645728 1.0195312,14.498047 0.88724086,13.052974 1.438982,11.534323 2.46875,10.511719 3.498588,9.4890447 5.0205827,8.8576106 6.4648438,9 6.6713228,9.0199911 6.8687037,8.9367059 6.9609375,8.7508938 7.6230506,7.4227102 8.7350755,6.3768619 10.064453,5.7167969 11.061504,5.2217395 12.185463,5 13.300779,5 Z"/>
</svg>