<svg fill="#000000" height="24" viewBox="0 0 24 24" width="24" xmlns="http://www.w3.org/2000/svg">
<path d="m 15.49961,7.0000588 c -0.129892,0.00207 -0.261694,0.054656 -0.353531,0.1466186 L 11.5,10.796502 9.8528827,9.1485096 c -0.1952733,-0.195363 -0.5117884,-0.195363 -0.7070617,0 L 6.1456917,12.151257 c -0.4550449,0.437305 0.261167,1.153963 0.7070617,0.70768 L 9.5,10.210027 l 1.645907,1.647994 c 0.195273,0.195364 0.511789,0.195364 0.707062,0 l 3.646641,-3.6498252 1.646555,1.6479927 c 0.448323,0.4673235 1.164059,-0.268498 0.707063,-0.7076789 L 15.853142,7.1466774 C 15.757476,7.0508838 15.634917,6.9979847 15.49961,7.0000588 Z M 9,4 C 7.9013528,4 7,4.9013528 7,6 7,7.0986472 7.9013528,8 9,8 10.098647,8 11,7.0986472 11,6 11,4.9013528 10.098647,4 9,4 Z M 9,5 C 9.5582071,5 10,5.4417929 10,6 10,6.5582071 9.5582071,7 9,7 8.4417929,7 8,6.5582071 8,6 8,5.4417929 8.4417929,5 9,5 Z m -2.5,9 11,0 c 0.277,0 0.5,0.223 0.5,0.5 0,0.277 -0.223,0.5 -0.5,0.5 l -11,0 C 6.223,15 6,14.777 6,14.5 6,14.223 6.223,14 6.5,14 Z M 20,20.5 A 0.5,0.5 0 0 1 19.5,21 0.5,0.5 0 0 1 19,20.5 0.5,0.5 0 0 1 19.5,20 0.5,0.5 0 0 1 20,20.5 Z m -15,0 A 0.5,0.5 0 0 1 4.5,21 0.5,0.5 0 0 1 4,20.5 0.5,0.5 0 0 1 4.5,20 0.5,0.5 0 0 1 5,20.5 Z M 12,19 c -1.098647,0 -2,0.901353 -2,2 0,1.098647 0.901353,2 2,2 1.098647,0 2,-0.901353 2,-2 0,-1.098647 -0.901353,-2 -2,-2 z m 0,1 c 0.558207,0 1,0.441793 1,1 0,0.558207 -0.441793,1 -1,1 -0.558207,0 -1,-0.441793 -1,-1 0,-0.558207 0.441793,-1 1,-1 z M 2.5,3 C 2.838152,3 3.000497,3.25 3,3.5 2.999503,3.75 2.836164,4 2.5,4 l -1,0 C 1.214351,4 1,4.2143514 1,4.5 l 0,10 C 1,14.785649 1.214351,15 1.5,15 l 1,0 C 2.84273,15 3,15.247609 3,15.5 3,15.752391 2.826542,16 2.5,16 l -1,0 C 0.677649,16 0,15.322351 0,14.5 L 0,4.5 C 0,3.6776486 0.677649,3 1.5,3 Z m 19,0 C 21.161848,3 20.999503,3.25 21,3.5 21.000497,3.75 21.163836,4 21.5,4 l 1,0 C 22.785649,4 23,4.2143514 23,4.5 l 0,10 c 0,0.285649 -0.214351,0.5 -0.5,0.5 l -1,0 c -0.34273,0 -0.5,0.247609 -0.5,0.5 0,0.252391 0.173458,0.5 0.5,0.5 l 1,0 c 0.822351,0 1.5,-0.677649 1.5,-1.5 l 0,-10 C 24,3.6776486 23.322351,3 22.5,3 Z M 5.5,1 C 4.6776486,1 4,1.6776486 4,2.5 l 0,13 C 4,16.322351 4.6776486,17 5.5,17 l 13,0 c 0.822351,0 1.5,-0.677649 1.5,-1.5 l 0,-13 C 20,1.6776486 19.322351,1 18.5,1 l -13,0 z m 0,1 13,0 C 18.785649,2 19,2.2143514 19,2.5 l 0,13 c 0,0.285649 -0.214351,0.5 -0.5,0.5 l -13,0 C 5.2143514,16 5,15.785649 5,15.5 L 5,2.5 C 5,2.2143514 5.2143514,2 5.5,2 Z"/>
</svg>