<svg fill="#000000" height="24" viewBox="0 0 24 24" width="24" xmlns="http://www.w3.org/2000/svg">
<path d="M 9.5,8 C 9.2080711,8 9.000009,8.2215649 9,8.5 l 0,7 c -5.745e-4,0.405042 0.4554558,0.642676 0.7871094,0.410156 l 4.9999996,-3.5 c 0.285339,-0.198998 0.285339,-0.621314 0,-0.820312 L 9.7871094,8.0898438 C 9.7045391,8.0322706 9.6006605,8 9.5,8 Z M 10,9.4609375 13.626953,12 10,14.539062 Z M 23.5,19 l -1,0 c -0.277,0 -0.5,0.223 -0.5,0.5 0,0.277 0.223,0.5 0.5,0.5 l 1,0 C 23.777,20 24,19.777 24,19.5 24,19.223 23.777,19 23.5,19 Z m -1,-4 C 22.223,15 22,15.223 22,15.5 l 0,2 c 0,0.277 0.223,0.5 0.5,0.5 0.277,0 0.5,-0.223 0.5,-0.5 l 0,-2 C 23,15.223 22.777,15 22.5,15 Z m 0,-5 C 22.223,10 22,10.223 22,10.5 l 0,3 c 0,0.277 0.223,0.5 0.5,0.5 0.277,0 0.5,-0.223 0.5,-0.5 l 0,-3 C 23,10.223 22.777,10 22.5,10 Z m 0,-4 C 22.223,6 22,6.223 22,6.5 l 0,2 C 22,8.777 22.223,9 22.5,9 22.777,9 23,8.777 23,8.5 l 0,-2 C 23,6.223 22.777,6 22.5,6 Z m 1,-2 -1,0 C 22.223,4 22,4.223 22,4.5 22,4.777 22.223,5 22.5,5 l 1,0 C 23.777,5 24,4.777 24,4.5 24,4.223 23.777,4 23.5,4 Z m -23,15 1,0 C 1.777,19 2,19.223 2,19.5 2,19.777 1.777,20 1.5,20 l -1,0 C 0.223,20 0,19.777 0,19.5 0,19.223 0.223,19 0.5,19 Z m 1,-4 C 1.777,15 2,15.223 2,15.5 l 0,2 C 2,17.777 1.777,18 1.5,18 1.223,18 1,17.777 1,17.5 l 0,-2 C 1,15.223 1.223,15 1.5,15 Z m 0,-5 C 1.777,10 2,10.223 2,10.5 l 0,3 C 2,13.777 1.777,14 1.5,14 1.223,14 1,13.777 1,13.5 l 0,-3 C 1,10.223 1.223,10 1.5,10 Z m 0,-4 C 1.777,6 2,6.223 2,6.5 l 0,2 C 2,8.777 1.777,9 1.5,9 1.223,9 1,8.777 1,8.5 l 0,-2 C 1,6.223 1.223,6 1.5,6 Z m -1,-2 1,0 C 1.777,4 2,4.223 2,4.5 2,4.777 1.777,5 1.5,5 l -1,0 C 0.223,5 0,4.777 0,4.5 0,4.223 0.223,4 0.5,4 Z m 4,0 C 3.6776486,4 3,4.6776486 3,5.5 l 0,13 C 3,19.322351 3.6776486,20 4.5,20 l 15,0 c 0.822351,0 1.5,-0.677649 1.5,-1.5 l 0,-13 C 21,4.6776486 20.322351,4 19.5,4 Z m 0,1 15,0 C 19.785649,5 20,5.2143514 20,5.5 l 0,13 c 0,0.285649 -0.214351,0.5 -0.5,0.5 l -15,0 C 4.2143514,19 4,18.785649 4,18.5 L 4,5.5 C 4,5.2143514 4.2143514,5 4.5,5 Z"/>
</svg>