<svg fill="#000000" height="24" viewBox="0 0 24 24" width="24" xmlns="http://www.w3.org/2000/svg">
<path d="M 19.720681,1.0612213 C 19.473845,0.93719155 19.179378,1.0286323 19.055589,1.2759484 l -2.002284,4.0003422 c -0.123789,0.2473167 -0.02473,0.5462708 0.222108,0.6703005 0.246836,0.1240298 0.54521,0.024777 0.668999,-0.2225396 l 2.002283,-4.0003422 c 0.120574,-0.2408931 0.02082,-0.5384582 -0.226014,-0.662488 z m -15.441362,0 C 4.5261555,0.93719155 4.8206226,1.0286323 4.9444116,1.2759484 l 2.0022832,4.0003422 c 0.123789,0.2473167 0.024729,0.5462708 -0.2221074,0.6703005 -0.2468365,0.1240298 -0.54521,0.024777 -0.668999,-0.2225396 L 4.0533051,1.7237093 C 3.9373353,1.4920144 4.0324828,1.1852511 4.279319,1.0612213 Z M 12,6 C 6.2779578,6 1.5573274,9.6627048 0.09375,14.84375 -0.2232426,16.26824 0.35632797,17 1.6875,17 l 20.625,0 c 1.331172,0 1.910742,-0.73176 1.59375,-2.15625 C 22.442672,9.6627048 17.722042,6 12,6 Z m 0,1 c 5.253375,0 9.635417,3.360844 10.96875,8.125 C 23.125833,15.711244 23.005442,16 22.3125,16 L 1.6875,16 C 0.99455728,16 0.87416629,15.711244 1.03125,15.125 2.3645827,10.360844 6.7466246,7 12,7 Z M 1.5,18 C 0.67764862,18 0,18.677649 0,19.5 l 0,2 C 0,22.322351 0.67764862,23 1.5,23 l 21,0 c 0.822351,0 1.5,-0.677649 1.5,-1.5 l 0,-2 C 24,18.677649 23.322351,18 22.5,18 Z m 0,1 21,0 c 0.285649,0 0.5,0.214351 0.5,0.5 l 0,2 c 0,0.285649 -0.214351,0.5 -0.5,0.5 l -21,0 C 1.2143514,22 1,21.785649 1,21.5 l 0,-2 C 1,19.214351 1.2143514,19 1.5,19 Z m 15,-9 C 15.677649,10 15,10.677649 15,11.5 l 0,2 c 0,0.822351 0.677649,1.5 1.5,1.5 0.822351,0 1.5,-0.677649 1.5,-1.5 l 0,-2 C 18,10.677649 17.322351,10 16.5,10 Z m 0,1 c 0.285649,0 0.5,0.214351 0.5,0.5 l 0,2 C 17,13.785649 16.785649,14 16.5,14 16.214351,14 16,13.785649 16,13.5 l 0,-2 C 16,11.214351 16.214351,11 16.5,11 Z m -9,-1 C 6.6776486,10 6,10.677649 6,11.5 l 0,2 C 6,14.322351 6.6776486,15 7.5,15 8.3223514,15 9,14.322351 9,13.5 l 0,-2 C 9,10.677649 8.3223514,10 7.5,10 Z m 0,1 C 7.7856486,11 8,11.214351 8,11.5 l 0,2 C 8,13.785649 7.7856486,14 7.5,14 7.2143514,14 7,13.785649 7,13.5 l 0,-2 C 7,11.214351 7.2143514,11 7.5,11 Z"/>
</svg>