<svg fill="#000000" height="24" viewBox="0 0 24 24" width="24" xmlns="http://www.w3.org/2000/svg">
<path d="M 5.5 2 C 5.223 2 5 2.223 5 2.5 L 5 6.5 C 5 6.777 5.223 7 5.5 7 C 5.777 7 6 6.777 6 6.5 L 6 2.5 C 6 2.223 5.777 2 5.5 2 z M 18.5 2 C 18.223 2 18 2.223 18 2.5 L 18 6.5 C 18 6.777 18.223 7 18.5 7 C 18.777 7 19 6.777 19 6.5 L 19 2.5 C 19 2.223 18.777 2 18.5 2 z M 1.5 4 C 0.67764862 4 0 4.6776486 0 5.5 L 0 20.5 C 0 21.322351 0.67764862 22 1.5 22 L 22.5 22 C 23.322351 22 24 21.322351 24 20.5 L 24 5.5 C 24 4.6776486 23.322351 4 22.5 4 L 20.5 4 C 20.16565 4 20 4.2476096 20 4.5 C 20 4.7523903 20.161918 5 20.5 5 L 22.5 5 C 22.785649 5 23 5.2143514 23 5.5 L 23 20.5 C 23 20.785649 22.785649 21 22.5 21 L 1.5 21 C 1.2143514 21 1 20.785649 1 20.5 L 1 5.5 C 1 5.2143514 1.2143514 5 1.5 5 L 3.5 5 C 3.8361412 5 4.0024444 4.75 4 4.5 C 3.9975556 4.25 3.8263637 4 3.5 4 L 1.5 4 z M 7.5 4 C 7.1770051 4 7 4.2476093 7 4.5 C 7 4.7523907 7.1619193 5.0047813 7.5 5 L 16.5 5 C 16.797888 5 17 4.7523904 17 4.5 C 17 4.2476097 16.85077 4 16.5 4 L 7.5 4 z M 3.5 10 C 3.223 10 3 10.223 3 10.5 C 3 10.777 3.223 11 3.5 11 L 6.5 11 C 6.777 11 7 10.777 7 10.5 C 7 10.223 6.777 10 6.5 10 L 3.5 10 z M 10.5 10 C 10.223 10 10 10.223 10 10.5 C 10 10.777 10.223 11 10.5 11 L 13.5 11 C 13.777 11 14 10.777 14 10.5 C 14 10.223 13.777 10 13.5 10 L 10.5 10 z M 17.5 10 C 17.223 10 17 10.223 17 10.5 C 17 10.777 17.223 11 17.5 11 L 20.5 11 C 20.777 11 21 10.777 21 10.5 C 21 10.223 20.777 10 20.5 10 L 17.5 10 z M 3.5 15 C 3.223 15 3 15.223 3 15.5 C 3 15.777 3.223 16 3.5 16 L 6.5 16 C 6.777 16 7 15.777 7 15.5 C 7 15.223 6.777 15 6.5 15 L 3.5 15 z M 10.5 15 C 10.223 15 10 15.223 10 15.5 C 10 15.777 10.223 16 10.5 16 L 13.5 16 C 13.777 16 14 15.777 14 15.5 C 14 15.223 13.777 15 13.5 15 L 10.5 15 z M 17.5 15 C 17.223 15 17 15.223 17 15.5 C 17 15.777 17.223 16 17.5 16 L 20.5 16 C 20.777 16 21 15.777 21 15.5 C 21 15.223 20.777 15 20.5 15 L 17.5 15 z "/>
</svg>