<svg fill="#000000" height="24" viewBox="0 0 24 24" width="24" xmlns="http://www.w3.org/2000/svg">
<path d="M 23.5,0 A 0.50005,0.50006769 0 0 0 23.175781,0.14648957 L 9.4433595,13.879397 1.6914064,9.5745575 20.714844,1.9649133 A 0.50050719,0.5005249 0 0 0 20.34375,1.0351928 L 0.34375012,9.0354759 A 0.50005,0.50006769 0 0 0 0.2871095,9.9378516 l 9,5.0001764 a 0.50005,0.50006769 0 0 0 0.5957031,-0.08398 L 22.193359,2.5430587 14.474609,22.272272 10.976563,15.277884 a 0.50005,0.50006769 0 1 0 -0.894532,0.445328 l 4,8.000283 a 0.50005,0.50006769 0 0 0 0.91211,-0.04102 l 9,-23.00081426 A 0.50005,0.50006769 0 0 0 23.5,0 Z"/>
</svg>