<svg fill="#000000" height="24" viewBox="0 0 24 24" width="24" xmlns="http://www.w3.org/2000/svg">
<path d="m 16.945312,8.0039062 c -0.32154,0 -0.632138,0.041396 -0.917968,0.2285157 -0.243821,0.1596184 -0.422842,0.3891005 -0.525391,0.6542969 -0.03159,0.081703 -0.04062,0.1662045 -0.05664,0.25 -0.01187,-0.00426 -0.02119,-0.011528 -0.0332,-0.015625 -0.314995,-0.1074777 -0.663325,-0.1504335 -1.015625,-0.087891 -0.355233,0.063063 -0.695982,0.2321302 -0.955078,0.5136719 -0.250481,0.2721815 -0.388922,0.6118733 -0.429687,0.9570313 -0.01022,0.08648 0.03171,0.161209 0.0332,0.246094 -0.02738,-0.009 -0.04621,-0.02909 -0.07422,-0.03711 -0.30275,-0.0867 -0.629807,-0.107168 -0.953125,-0.03711 -0.324385,0.07029 -0.629114,0.228723 -0.871094,0.470703 -0.232806,0.232807 -0.382981,0.525344 -0.457031,0.835938 L 8.7519531,10.046875 C 8.5796507,9.8747461 8.3919745,9.6870788 8.1640625,9.5136719 7.9354134,9.3397048 7.6709234,9.1858874 7.3671875,9.0937501 7.0617763,9.0011045 6.7299548,8.9751528 6.4003906,9.0449219 6.0694987,9.1149725 5.7628179,9.2781977 5.5195313,9.5214845 5.276244,9.764771 5.1130193,10.071452 5.0429687,10.402344 c -0.069769,0.329564 -0.043818,0.661386 0.048828,0.966797 0.092137,0.303736 0.2459544,0.568226 0.4199218,0.796875 0.1734074,0.227913 0.3609622,0.415696 0.5332032,0.587891 L 13.292969,20 11.5,20 c -0.25826,0 -0.539541,-0.0015 -0.837891,0.03906 -0.299265,0.04065 -0.609448,0.124695 -0.9023434,0.28125 -0.2944396,0.157382 -0.5582771,0.383036 -0.75,0.677735 C 8.8173029,21.293886 8.7109375,21.641233 8.7109375,22 c 0,0.358766 0.1063647,0.706116 0.2988281,1.001953 0.1917229,0.294699 0.4555604,0.520353 0.75,0.677735 0.2928954,0.156555 0.6030744,0.240607 0.9023434,0.28125 C 10.960462,24.001462 11.24174,24 11.5,24 l 6,0 c 0.676161,0.0096 0.641033,-1 0,-1 l -6,0 C 11.243938,23 11.008166,22.9974 10.796875,22.96875 10.5865,22.94018 10.393119,22.884723 10.232422,22.798828 10.073269,22.713759 9.9364066,22.591497 9.8476562,22.455078 9.7596467,22.319798 9.7109375,22.155556 9.7109375,22 c 0,-0.155555 0.048709,-0.319797 0.1367187,-0.455078 0.08875,-0.136419 0.2256128,-0.258681 0.3847658,-0.34375 0.160697,-0.0859 0.354074,-0.141349 0.564453,-0.169922 C 11.00817,21.002553 11.243938,21 11.5,21 l 3,0 c 0.445319,-1.74e-4 0.660615,-0.546417 0.353516,-0.853516 L 6.7519531,12.046875 C 6.5812683,11.876231 6.4268505,11.718542 6.3066406,11.560547 6.1869908,11.403289 6.0974523,11.24037 6.0488281,11.080079 c -0.048116,-0.158617 -0.058004,-0.325874 -0.027344,-0.470704 0.03038,-0.143502 0.1054833,-0.281264 0.2050781,-0.380859 0.099595,-0.0996 0.2373571,-0.174698 0.3808594,-0.205078 0.14483,-0.03066 0.3120861,-0.02077 0.4707031,0.02734 0.1602923,0.04862 0.3232098,0.138162 0.4804687,0.257812 0.1579959,0.120211 0.315618,0.274695 0.4863282,0.445313 l 3.6015624,3.599609 0.5,0.5 c 0.436748,0.454837 1.162273,-0.269895 0.707032,-0.707032 l -0.5,-0.5 c -0.167884,-0.167884 -0.318522,-0.3221 -0.433594,-0.476562 -0.114733,-0.154007 -0.200751,-0.316271 -0.246094,-0.47461 -0.04502,-0.157209 -0.05275,-0.322527 -0.02148,-0.466796 0.03103,-0.143208 0.10484,-0.278668 0.201172,-0.375 0.09633,-0.09633 0.231792,-0.17014 0.375,-0.201172 0.144274,-0.03126 0.309591,-0.02354 0.466796,0.02148 0.158344,0.04535 0.320604,0.131362 0.47461,0.246094 0.154463,0.115074 0.302953,0.271639 0.476562,0.433594 l 0.545162,0.508566 c 0.44491,0.415045 1.1095,-0.250975 0.657412,-0.703063 -0.4012,-0.401199 -0.643467,-0.691056 -0.77289,-1.034011 -0.06439,-0.170623 -0.09073,-0.34759 -0.07227,-0.503906 0.01813,-0.153542 0.08426,-0.301109 0.173828,-0.398438 0.09239,-0.100388 0.238709,-0.177416 0.394532,-0.205078 0.158754,-0.028183 0.341336,-0.01131 0.517578,0.04883 0.485204,0.20375 0.754216,0.484686 1.05664,0.78711 0.476144,0.476144 1.152538,-0.332473 0.707032,-0.707032 C 16.73035,10.042938 16.630027,9.8956067 16.550777,9.8066426 16.479437,9.7048343 16.431754,9.6007717 16.414058,9.5078145 c -0.0174,-0.091417 -0.0088,-0.1864689 0.01953,-0.2597656 0.02799,-0.072387 0.08357,-0.1410606 0.142578,-0.1796875 0.07078,-0.046335 0.18519,-0.076136 0.304687,-0.068359 0.123754,0.00805 0.262848,0.052373 0.402344,0.1269531 0.28547,0.152626 0.55896,0.4222411 0.863281,0.7265625 l 5,5 c 0.449768,0.449769 1.154843,-0.259221 0.707032,-0.707032 l -5,-4.9999992 C 18.555059,8.848028 18.222141,8.4953903 17.755859,8.2460938 17.519475,8.1197133 17.247525,8.0039062 16.945312,8.0039062 Z M 8.5,6 C 7.8433676,6 7.839318,7 8.5,7 L 9.2929688,7 8.1464844,8.1464844 C 7.6995636,8.5755838 8.4185617,9.3065341 8.8535156,8.8535156 L 10,7.7070312 10,8.5 c 0,0.672329 1,0.6528713 1,0 l 0,-2 C 10.999972,6.2238691 10.776131,6.0000276 10.5,6 Z m -6,6 C 2.2238552,12.004309 2,12.207605 2,12.5 l 0,2 c 2.76e-5,0.276131 0.2238691,0.499972 0.5,0.5 l 2,0 c 0.6761613,0.0096 0.6761613,-1.009563 0,-1 L 3.7070312,14 4.8535156,12.853516 C 5.1552199,12.558551 4.9630811,11.997188 4.5,12 4.3701924,12.000788 4.237204,12.053634 4.1464844,12.146484 L 3,13.292969 3,12.5 C 3.0045388,12.209923 2.7822662,11.995583 2.5,12 Z M 7,19.5 C 7,19.776142 6.7761424,20 6.5,20 6.2238576,20 6,19.776142 6,19.5 6,19.223858 6.2238576,19 6.5,19 6.7761424,19 7,19.223858 7,19.5 Z M 5.5,2 7.5,2 C 7.777,2 8,2.223 8,2.5 8,2.777 7.777,3 7.5,3 l -2,0 C 5.223,3 5,2.777 5,2.5 5,2.223 5.223,2 5.5,2 Z M 1.5,0 C 0.67764862,0 0,0.67764862 0,1.5 l 0,19 C 0,21.322351 0.67764862,22 1.5,22 l 5,0 c 0.6761613,0.0096 0.6761613,-1.009563 0,-1 l -5,0 C 1.2143514,21 1,20.785649 1,20.5 L 1,1.5 C 1,1.2143514 1.2143514,1 1.5,1 l 10,0 C 11.785649,1 12,1.2143514 12,1.5 l 0,7 c -0.0096,0.6761613 1.009563,0.6761613 1,0 l 0,-7 C 13,0.67764862 12.322351,0 11.5,0 Z"/>
</svg>