<svg fill="#000000" height="24" viewBox="0 0 24 24" width="24" xmlns="http://www.w3.org/2000/svg">
<path d="m 5.5,1 c -0.6607756,0 -0.6527274,1 0,1 l 16.15625,0 -2.595703,4.7597656 c -0.08198,0.1496647 -0.08198,0.3308041 0,0.4804688 L 21.65625,12 5.5,12 c -0.6598346,0 -0.6487913,1 0,1 l 17,0 c 0.380318,6.56e-4 0.622128,-0.40666 0.439453,-0.740234 L 20.070312,7 22.939453,1.7402344 C 23.122128,1.40666 22.880318,0.99934356 22.5,1 Z M 2.5,0 C 1.6776486,0 1,0.67764862 1,1.5 l 0,21 C 1,23.322351 1.6776486,24 2.5,24 3.3223514,24 4,23.322351 4,22.5 L 4,1.5 C 4,0.67764862 3.3223514,0 2.5,0 Z m 0,1 C 2.7856486,1 3,1.2143514 3,1.5 l 0,21 C 3,22.785649 2.7856486,23 2.5,23 2.2143514,23 2,22.785649 2,22.5 L 2,1.5 C 2,1.2143514 2.2143514,1 2.5,1 Z"/>
</svg>