<svg fill="#000000" height="24" viewBox="0 0 24 24" width="24" xmlns="http://www.w3.org/2000/svg">
<path d="M 11.5,0 C 11.050597,9.0657848e-5 10.850234,0.55726606 11.146484,0.85351562 L 14.792969,4.5 11.146484,8.1464844 c -0.441983,0.4419828 0.272156,1.1599432 0.707032,0.7070312 l 4,-4 c 0.195184,-0.1952649 0.195184,-0.5117663 0,-0.7070312 l -4,-4.00000002 C 11.759309,0.04911559 11.635483,0 11.5,0 Z M 12,4 C 6.4830748,4 2,8.4830748 2,14 c 0,5.516925 4.4830748,10 10,10 5.516925,0 10,-4.483075 10,-10 l 0,-0.5 c 0.0095,-0.668295 -1,-0.64882 -1,0 l 0,0.5 c 0,4.976485 -4.023515,9 -9,9 C 7.023515,23 3,18.976485 3,14 3,9.023515 7.023515,5 12,5 l 0.5,0 c 0.664445,0 0.660612,-1 0,-1 z"/>
</svg>