<svg fill="#000000" height="24" viewBox="0 0 24 24" width="24" xmlns="http://www.w3.org/2000/svg">
<path d="M 1.5,0 C 0.67764862,0 0,0.67764862 0,1.5 l 0,21 C 0,23.322351 0.67764862,24 1.5,24 l 21,0 c 0.822351,0 1.5,-0.677649 1.5,-1.5 l 0,-21 C 24,0.67764862 23.322351,0 22.5,0 Z m 0,1 21,0 C 22.785649,1 23,1.2143514 23,1.5 l 0,21 c 0,0.285649 -0.214351,0.5 -0.5,0.5 l -21,0 C 1.2143514,23 1,22.785649 1,22.5 L 1,1.5 C 1,1.2143514 1.2143514,1 1.5,1 Z m 6.5,4.5 0,12 c 2.62e-5,0.261792 0.2382078,0.499974 0.5,0.5 l 3,0 c 1.085099,0 2.199699,-0.256103 3.0625,-0.90625 C 15.425301,16.443603 16,15.37388 16,14 16,12.598331 15.40562,11.824152 15.09375,11.46875 15.389502,11.088157 16,10.343984 16,9 16,7.632032 15.341744,6.590931 14.5,5.9375 13.658256,5.284069 12.585099,5 11.5,5 l -3,0 C 8.1353231,5 8,5.2160706 8,5.5 Z M 9,6 c 0.278421,0.00184 0.8322306,0 2.5,0 0.914901,0 1.791956,0.2418844 2.40625,0.71875 C 14.520544,7.1956156 15,7.8891545 15,9 c 0,1.39765 -0.84375,2.15625 -0.84375,2.15625 -0.192122,0.185884 -0.192122,0.532866 0,0.71875 0,0 0.84375,0.745795 0.84375,2.125 0,1.104934 -0.425301,1.801101 -1.0625,2.28125 C 13.300301,16.761399 12.414901,17 11.5,17 9.8322359,17 9.2784178,16.998168 9,17 Z m 1,1.5 0,3 c 2.6e-5,0.261792 0.238208,0.499974 0.5,0.5 l 1.5,0 c 0.449668,0 0.917465,-0.137394 1.3125,-0.46875 C 13.707535,10.199894 14,9.6570675 14,9 14,8.3466909 13.706594,7.800331 13.3125,7.46875 12.918406,7.137169 12.449883,7 12,7 L 10.5,7 C 10.18792,7 10,7.1720995 10,7.5 Z m 1,0.5 1,0 c 0.223036,0 0.499823,0.092093 0.6875,0.25 C 12.875177,8.4079066 13,8.6112595 13,9 13,9.3990815 12.871818,9.5953935 12.6875,9.75 12.503182,9.9046065 12.232917,10 12,10 l -1,0 z m -1,4.5 0,3 c 2.6e-5,0.261792 0.238208,0.499974 0.5,0.5 l 1.5,0 c 0.449883,0 0.918406,-0.137169 1.3125,-0.46875 C 13.706594,15.199669 14,14.653309 14,14 14,13.342932 13.707535,12.800106 13.3125,12.46875 12.917465,12.137394 12.449668,12 12,12 l -1.5,0 C 10.199265,12 10,12.218989 10,12.5 Z m 1,0.5 1,0 c 0.232917,0 0.503182,0.09539 0.6875,0.25 C 12.871818,13.404606 13,13.600919 13,14 13,14.388741 12.875176,14.592094 12.6875,14.75 12.499824,14.907906 12.223036,15 12,15 l -1,0 z"/>
</svg>