<svg fill="#000000" height="24" viewBox="0 0 24 24" width="24" xmlns="http://www.w3.org/2000/svg">
<path d="m 14.027344,12 c -0.557575,-0.03068 -1.077982,0.20765 -1.44336,0.59375 C 12.223286,12.974905 12,13.468129 12,13.964844 l 0,0.826172 0,0.589843 c 0,0.424626 -0.36262,0.564079 -0.61914,0.632813 C 10.803046,16.152124 10.905838,17.003112 11.5,17 l 2,0 c 0.272228,0 0.58458,-3.07e-4 0.917969,-0.08594 0.334486,-0.08591 0.653051,-0.251325 0.914062,-0.501953 0.260003,-0.249659 0.437762,-0.55938 0.541016,-0.884765 C 15.97535,15.204955 16.002822,14.882567 16,14.582031 15.995012,14.047405 15.893001,13.47149 15.574219,12.964844 15.414296,12.710675 15.20191,12.480749 14.9375,12.306641 14.671849,12.13172 14.360972,12.018358 14.027344,12 Z m -0.05469,1 c 0.138146,0.0076 0.287049,0.05766 0.416016,0.142578 0.130208,0.08574 0.248142,0.209726 0.339844,0.355469 0.184466,0.293176 0.267656,0.683444 0.271484,1.09375 0.0022,0.231868 -0.02134,0.447713 -0.08008,0.632812 -0.05779,0.182105 -0.155255,0.345737 -0.279297,0.464844 -0.123033,0.118139 -0.291455,0.209318 -0.472656,0.255859 C 13.985669,15.992136 13.7602,16 13.5,16 l -0.728516,0 C 13.083103,15.614107 13,15.219157 13,14.712891 l 0,-0.677735 C 13,13.747895 13.132383,13.469519 13.310548,13.28125 13.484031,13.097926 13.747439,12.987609 13.972654,13 Z m 9.541018,-9 c -0.08109,-0.00233 -0.161526,0.015094 -0.234375,0.050781 -2.102764,1.0303494 -4.130577,2.2138916 -6.0625,3.5371094 -0.459816,0.3149379 -0.946087,0.6569985 -1.365235,1.1171875 -0.422617,0.4639987 -0.769778,1.053215 -0.847656,1.7382811 -0.07813,0.687287 0.135788,1.403366 0.642578,1.910157 0.50679,0.506789 1.222867,0.720708 1.910157,0.642578 0.685068,-0.07788 1.274283,-0.42504 1.738281,-0.847656 0.460189,-0.419148 0.802249,-0.90542 1.117187,-1.365235 1.323218,-1.9319234 2.50676,-3.9597367 3.53711,-6.0625001 C 24.10082,4.4581223 23.878213,4.0095552 23.513672,4 Z m -1.400391,1.8867188 c -0.794271,1.4717951 -1.580343,2.95029 -2.52539,4.3300782 -0.308028,0.449727 -0.611954,0.870163 -0.966797,1.193359 -0.351034,0.319727 -0.767427,0.547107 -1.177735,0.59375 -0.396164,0.04504 -0.825581,-0.09316 -1.089843,-0.357422 -0.264262,-0.264261 -0.402456,-0.693676 -0.357422,-1.089843 0.04664,-0.410309 0.274023,-0.8267016 0.59375,-1.1777348 0.323196,-0.3548427 0.743633,-0.6587691 1.193359,-0.9667968 1.379788,-0.9450479 2.858283,-1.7311192 4.330078,-2.5253906 z M 2.5,5 C 2.2238576,5 2,5.2238576 2,5.5 2,5.7761424 2.2238576,6 2.5,6 2.7761424,6 3,5.7761424 3,5.5 3,5.2238576 2.7761424,5 2.5,5 Z m 2,0 C 4.2238576,5 4,5.2238576 4,5.5 4,5.7761424 4.2238576,6 4.5,6 4.7761424,6 5,5.7761424 5,5.5 5,5.2238576 4.7761424,5 4.5,5 Z m 2,0 C 6.2238576,5 6,5.2238576 6,5.5 6,5.7761424 6.2238576,6 6.5,6 6.7761424,6 7,5.7761424 7,5.5 7,5.2238576 6.7761424,5 6.5,5 Z m -4,2 C 2.223,7 2,7.223 2,7.5 2,7.777 2.223,8 2.5,8 l 13,0 C 15.777,8 16,7.777 16,7.5 16,7.223 15.777,7 15.5,7 Z M 1.5,3 C 0.67764862,3 0,3.6776486 0,4.5 l 0,15 C 0,20.322351 0.67764862,21 1.5,21 l 19,0 c 0.822351,0 1.5,-0.677649 1.5,-1.5 l 0,-7 C 22.0048,12.16192 21.752395,12 21.5,12 21.247605,12 20.995218,12.16192 21,12.5 l 0,7 c 0,0.285649 -0.214351,0.5 -0.5,0.5 l -19,0 C 1.2143514,20 1,19.785649 1,19.5 L 1,4.5 C 1,4.2143514 1.2143514,4 1.5,4 l 19,0 C 20.832557,4.0047019 21.000638,3.7511755 21,3.5 20.999362,3.2488245 20.830005,3 20.5,3 Z"/>
</svg>