<svg fill="#000000" height="24" viewBox="0 0 24 24" width="24" xmlns="http://www.w3.org/2000/svg">
<path d="M 15.754834,5.0698833 C 15.517455,4.929144 15.210902,5.0074269 15.070112,5.2447374 L 7.0741645,18.232041 c -0.3265848,0.531336 0.5001215,1.095597 0.8518144,0.523214 L 15.921925,5.7679543 c 0.151497,-0.2381092 0.07581,-0.5543179 -0.167091,-0.698071 z m 2.378692,2.0884086 c 0.18763,-0.2015603 0.502992,-0.2132854 0.705073,-0.026214 l 4.996217,4.4965011 c 0.220245,0.198422 0.220245,0.543865 0,0.742287 l -4.994837,4.495123 c -0.47315,0.425783 -1.144563,-0.316005 -0.669199,-0.743667 L 22.753061,12 18.17078,7.8743656 C 17.958614,7.6889008 17.941752,7.3647677 18.133526,7.1582919 Z m -12.2670526,-3e-7 C 5.6788432,6.9567317 5.363482,6.9450066 5.1614011,7.1320773 L 0.16518356,11.628579 c -0.22024491,0.198422 -0.22024472,0.543865 4.2e-7,0.742287 l 4.99483712,4.495123 c 0.4734231,0.42678 1.1550827,-0.307311 0.6691981,-0.743667 L 1.246939,12 5.8292192,7.8743653 C 6.0413867,7.6889018 6.05825,7.3647686 5.8664734,7.1582916 Z"/>
</svg>