<svg fill="#000000" height="24" viewBox="0 0 24 24" width="24" xmlns="http://www.w3.org/2000/svg">
<path d="m 12.5,13 c -0.276131,2.8e-5 -0.499972,0.223869 -0.5,0.5 l 0,8 c -1.37e-4,0.241605 0.172487,0.448755 0.410156,0.492188 l 11,2 C 23.717314,24.048256 24.000166,23.812233 24,23.5 l 0,-10 c -2.8e-5,-0.276131 -0.223869,-0.499972 -0.5,-0.5 z m 0.5,1 10,0 0,8.900391 -10,-1.81836 z M 0.5,13 C 0.22386906,13.000028 2.7608953e-5,13.223869 0,13.5 l 0,6.064453 c -4.2767841e-4,0.244823 0.17646628,0.453955 0.41796875,0.494141 l 9.00000005,1.5 C 9.7230393,21.609296 10.00053,21.373708 10,21.064453 L 10,13.5 C 9.9999724,13.223869 9.7761309,13.000028 9.5,13 Z M 1,14 9,14 9,20.474609 1,19.142578 Z M 23.484375,0 c -0.0249,7.5179122e-4 -0.04971,0.00336323 -0.07422,0.0078125 l -11,2 C 12.172487,2.0512462 11.999863,2.2583956 12,2.5 l 0,8 c 2.8e-5,0.276131 0.223869,0.499972 0.5,0.5 l 11,0 c 0.276131,-2.8e-5 0.499972,-0.223869 0.5,-0.5 l 0,-10 C 24.000109,0.21765109 23.770868,0 23.484375,0 Z M 23,1.0996094 23,10 13,10 13,2.9179688 Z M 9.484375,2.5 c -0.03155,9.388e-4 -0.06294,0.00486 -0.09375,0.011719 l -9,2 C 0.16215979,4.5629553 -1.6410325e-4,4.7658601 0,5 l 0,5.5 c 2.7608953e-5,0.276131 0.22386906,0.499972 0.5,0.5 l 9,0 c 0.2761309,-2.8e-5 0.4999724,-0.223869 0.5,-0.5 L 10,3 C 10.000109,2.7176511 9.7665869,2.4912057 9.484375,2.5 Z M 9,3.6230469 9,10 1,10 1,5.4023438 Z"/>
</svg>