<svg fill="#000000" height="24" viewBox="0 0 24 24" width="24" xmlns="http://www.w3.org/2000/svg">
<path d="m 2.5,21 c -0.1298956,0.0036 -0.2604596,0.05056 -0.351274,0.143504 l -1.0010443,1.001044 c -0.44746853,0.429668 0.2666249,1.16719 0.7077696,0.707771 L 2.8564956,21.851274 C 3.1349289,21.57906 3,21 2.5,21 Z m 4,-1 C 6.3701044,20.0036 6.2437178,20.04951 6.1529034,20.14246 L 5.151859,21.143504 c -0.4514843,0.433494 0.2552267,1.179093 0.7077696,0.70777 L 6.860673,20.85023 C 7.1271229,20.589731 7.0029876,20 6.5,20 Z m -4,-2 c -0.1298956,0.0036 -0.2604596,0.04742 -0.351274,0.140371 l -1.0010443,1.001044 c -0.45026913,0.450269 0.2628771,1.171093 0.7077696,0.707771 L 2.8564956,18.848141 C 3.1821042,18.529805 3,18 2.5,18 Z M 14.891018,4.8565797 c -1.169832,1.1698326 -1.16845,3.0813863 0.0014,4.2512187 1.169833,1.1698326 3.081386,1.1712156 4.251218,0.00138 1.169833,-1.1698326 1.169834,-3.082769 -7e-6,-4.2526003 -1.169842,-1.1698312 -3.082779,-1.169831 -4.252611,1.6e-6 z m 3.544756,3.5447559 c -0.787285,0.7872845 -2.048244,0.7859022 -2.835529,-0.00138 -0.787284,-0.7872847 -0.788667,-2.0482438 -0.0014,-2.8355284 0.787285,-0.7872845 2.049627,-0.7872847 2.83692,-1.3e-6 0.787293,0.7872834 0.787293,2.0496251 9e-6,2.8369097 z M 5.5,15 C 5.222799,15.0032 4.9956781,15.222814 5,15.5 5,17.42906 6.5709409,19 8.5,19 9.1496869,19 9.1772298,18 8.5,18 7.1119452,18 6,16.888055 6,15.5 6.00439,15.218218 5.781797,14.996692 5.5,15 Z M 21.330847,3.5316107e-4 C 20.473743,0.00923579 19.449295,0.20512591 18.308162,0.60254388 16.025896,1.3973799 13.282073,3.0047544 10.657602,5.6273172 8.0613738,8.2216595 6.6585491,10.129698 5.8987319,11.408739 c -0.3799085,0.63952 -0.5998669,1.120418 -0.725366,1.452688 -0.065175,0.172556 -0.059248,0.190677 -0.084072,0.287409 -0.1333307,0.08502 -1.1618921,0.747419 -2.2992737,1.284543 C 2.2213169,14.759052 1.446765,15 1,15 1.00215,14.250353 1.708591,12.589848 2.5612659,11.256191 2.9882538,10.58839 3.4468232,9.9808333 3.8379884,9.5591535 4.0335709,9.3483135 4.2135676,9.1834629 4.3482863,9.0860036 4.5,8.9401839 4.6623135,9.1559627 4.7393193,9.2893407 c 0.1454982,0.2690054 0.2659025,0.6954355 0.2659024,1.1965613 0,0.680779 1.0010443,0.684912 1.0010443,0 C 6.0062662,9.8295022 5.8585657,9.2549382 5.6191433,8.8122805 5.3797211,8.3696228 5.03593,8 4.5,8 4.1849083,8 3.9783611,8.1198533 3.7617369,8.2765654 3.5451127,8.4332774 3.3280376,8.6359978 3.1028464,8.8787561 2.6524641,9.3642727 2.1716271,10.008021 1.7185898,10.716611 0.81251498,12.133791 0,13.745954 0,15 c 0,0.336609 0.1818707,0.694362 0.47119469,0.856739 0.28932401,0.162377 0.58324251,0.160316 0.87395861,0.123175 0.5814322,-0.07428 1.2241928,-0.335798 1.8710926,-0.641294 1.2938,-0.610991 2.5612658,-1.429225 2.5612658,-1.429225 0.1204825,-0.07806 0.2016533,-0.204085 0.2228888,-0.346064 0,0 0.00679,-0.07611 0.1094892,-0.34802 0.1026995,-0.271905 0.29589,-0.701671 0.6491147,-1.296273 C 7.4654539,10.729833 8.8151803,8.8834256 11.365373,6.3350868 13.887324,3.8149678 16.515759,2.2874713 18.636631,1.5488436 19.697066,1.1795298 20.632726,1 21.342577,1 22.080543,1 22.510355,1.1700854 22.670134,1.3298651 22.829914,1.4896449 23.007357,1.9476081 23,2.657422 22.9927,3.3672359 22.82047,4.3029344 22.451156,5.36337 c -0.738628,2.1208712 -2.266124,4.749306 -4.786243,7.271257 -2.548339,2.550193 -4.394746,3.899919 -5.583951,4.606369 -0.594602,0.353224 -1.024368,0.546415 -1.296273,0.649114 -0.271906,0.1027 -0.34802,0.109489 -0.34802,0.109489 -0.141979,0.02124 -0.268007,0.102407 -0.346064,0.22289 0,0 -0.8182338,1.267465 -1.4292253,2.561265 -0.3054958,0.6469 -0.5670136,1.28966 -0.641294,1.871093 -0.037141,0.290716 -0.039202,0.584635 0.1231753,0.873958 C 8.305638,23.818129 8.6727894,24 9.009399,24 c 1.254046,0 2.85681,-0.812515 4.27399,-1.71859 0.70859,-0.453038 1.352339,-0.933874 1.837855,-1.384256 0.242758,-0.225192 0.445479,-0.442266 0.60219,-0.65889 C 15.880147,20.021639 16,19.815091 16,19.5 16,18.964069 15.630377,18.620279 15.187719,18.380857 14.745062,18.141434 14.156399,18 13.5,18 c -0.653592,0 -0.657354,1 0,1 0.501126,0 0.941654,0.115183 1.210659,0.260681 0.289341,0.167051 0.254579,0.302281 0.203338,0.391033 -0.09746,0.134718 -0.262311,0.314715 -0.473151,0.510298 -0.42168,0.391165 -1.029236,0.849735 -1.697082,1.276722 -1.333657,0.852676 -2.978853,1.556119 -3.7284995,1.558267 -0.00218,-0.01706 -0.02099,-0.06803 -0.00195,-0.217024 0.045615,-0.357046 0.2678836,-0.965591 0.5533116,-1.569997 0.5371239,-1.137382 1.1995269,-2.165943 1.2845429,-2.299273 0.09673,-0.02483 0.114853,-0.0189 0.287409,-0.08407 0.33227,-0.125499 0.813168,-0.345457 1.452688,-0.725366 1.279041,-0.759817 3.18708,-2.162642 5.781422,-4.75887 2.62256,-2.624476 4.229934,-5.3682993 5.02477,-7.6505654 0.397418,-1.1411329 0.593308,-2.165581 0.60219,-3.0226847 C 24.00853,1.8120494 23.851172,1.0953622 23.377905,0.62209554 22.904638,0.14882886 22.18795,-0.00852948 21.330847,3.5316107e-4 Z"/>
</svg>