<svg fill="#000000" height="24" viewBox="0 0 24 24" width="24" xmlns="http://www.w3.org/2000/svg">
<path d="m 22.001943,11.99174 c -0.0091,-0.693257 -0.53506,-1.217766 -1.251953,-1.627759 L 2.7779456,0.08573146 C 2.1886396,-0.2882094 1.6609696,0.63463154 2.2818516,0.95334859 L 20.253896,11.231598 c 0.580345,0.3319 0.745945,0.610974 0.748047,0.771866 0.0022,0.168982 -0.158833,0.495847 -0.763672,0.869572 -5.331582,3.294322 -15.3098694,9.448423 -16.0000004,9.887708 -0.445928,0.283844 -0.745444,0.270999 -0.912109,0.185639 -0.166666,-0.08536 -0.328159,-0.289299 -0.328159,-0.750372 l 0,-18.6980086 c 0,-0.3189008 -0.248805,-0.4951639 -0.5,-0.5 -0.251195,-0.00483 -0.504778,0.1617547 -0.5,0.5 l 0,18.7090576 c 0,0.718026 0.313231,1.343656 0.873081,1.630389 0.55989,0.286734 1.258279,0.177453 1.902384,-0.232537 0.563167,-0.358496 10.6596664,-6.585014 15.9921474,-9.879893 0.757303,-0.467928 1.245277,-1.048114 1.236328,-1.733279 z"/>
</svg>