<svg fill="#000000" height="24" viewBox="0 0 24 24" width="24" xmlns="http://www.w3.org/2000/svg">
<path d="m 19.502362,20 c 0.446429,-9.1e-5 0.66615,-0.54067 0.345355,-0.849679 l -0.993384,-0.988717 c -0.470018,-0.48724 -1.153747,0.24766 -0.702353,0.699054 l 0.993384,0.988717 C 19.238948,19.945645 19.367774,20 19.502362,20 Z M 3.4976392,20 c -0.4464294,-9e-5 -0.666151,-0.54067 -0.3453566,-0.849679 L 4.145667,18.161604 c 0.4585153,-0.475314 1.1662461,0.25575 0.7023536,0.699054 L 3.8546362,19.849375 C 3.7610522,19.945645 3.6322258,20 3.4976392,20 Z M 11.5,4 C 7.3536486,4 4,7.3536486 4,11.5 4,15.646351 7.3536486,19 11.5,19 15.646351,19 19,15.646351 19,11.5 19,7.3536486 15.646351,4 11.5,4 Z m 0,1 C 15.109649,5 18,7.8903514 18,11.5 18,15.109649 15.109649,18 11.5,18 7.8903514,18 5,15.109649 5,11.5 5,7.8903514 7.8903514,5 11.5,5 Z m 8.003581,-2 c 0.446489,9.13e-5 0.666239,0.5432812 0.345402,0.8537822 l -0.993518,0.993492 C 18.387267,5.334905 17.665375,4.6130319 18.153017,4.1448444 l 0.993518,-0.993492 C 19.240132,3.0546171 19.368975,2.9999998 19.503581,3 Z M 3.4967072,3 c -0.4464893,9.04e-5 -0.6662405,0.5432809 -0.345403,0.8537822 l 0.993518,0.993492 C 4.6130217,5.334905 5.3349134,4.6130319 4.8472702,4.1448444 L 3.8537522,3.1513524 C 3.7601557,3.0546173 3.631312,3.0000001 3.4967072,3 Z M 21,11.5 C 21,11.223 21.223,11 21.5,11 l 1,0 c 0.277,0 0.5,0.223 0.5,0.5 0,0.277 -0.5,0.5 -0.5,0.5 l -1,0 c 0,0 -0.5,-0.223 -0.5,-0.5 z m -21,0 C 0,11.223 0.223,11 0.5,11 l 1,0 C 1.777,11 2,11.223 2,11.5 2,11.777 1.777,12 1.5,12 l -1,0 C 0.223,12 0,11.777 0,11.5 Z M 11.5,21 c 0.277,0 0.5,0.223 0.5,0.5 l 0,1 C 12,22.777 11.777,23 11.5,23 11.223,23 11,22.777 11,22.5 l 0,-1 C 11,21.223 11.223,21 11.5,21 Z m 0,-21 C 11.777,0 12,0.223 12,0.5 l 0,1 C 12,1.777 11.777,2 11.5,2 11.223,2 11,1.777 11,1.5 l 0,-1 C 11,0.223 11.223,0 11.5,0 Z"/>
</svg>