<svg fill="#000000" height="24" viewBox="0 0 24 24" width="24" xmlns="http://www.w3.org/2000/svg">
<path d="m 0.5,14 2,0 C 2.777,14 3,14.223 3,14.5 3,14.777 2.777,15 2.5,15 l -2,0 C 0.223,15 0,14.777 0,14.5 0,14.223 0.223,14 0.5,14 Z m 0,-4 2,0 C 2.777,10 3,10.223 3,10.5 3,10.777 2.777,11 2.5,11 l -2,0 C 0.223,11 0,10.777 0,10.5 0,10.223 0.223,10 0.5,10 Z m 0,-4 2,0 C 2.777,6 3,6.223 3,6.5 3,6.777 2.777,7 2.5,7 l -2,0 C 0.223,7 0,6.777 0,6.5 0,6.223 0.223,6 0.5,6 Z M 12.849636,9.1421441 C 12.652411,8.9494309 12.336364,8.9531379 12.14371,9.1504241 L 9.5,11.794484 7.8571419,10.15039 C 7.4078573,9.7011054 6.6985808,10.416337 7.1512161,10.856579 l 1.9964466,1.997187 c 0.1949475,0.194981 0.5109783,0.194981 0.7059258,0 L 12.849635,9.8566064 c 0.200488,-0.1959281 0.200488,-0.5185337 1e-6,-0.7144623 z M 19.980469,15 c -1.098647,0 -2,0.901353 -2,2 0,1.098647 0.901353,2 2,2 1.098647,0 2,-0.901353 2,-2 0,-1.098647 -0.901353,-2 -2,-2 z m 0,1 c 0.558207,0 1,0.441793 1,1 0,0.558207 -0.441793,1 -1,1 -0.558207,0 -1,-0.441793 -1,-1 0,-0.558207 0.441793,-1 1,-1 z M 9,15 c -1.0986472,0 -2,0.901353 -2,2 0,1.098647 0.9013528,2 2,2 1.098647,0 2,-0.901353 2,-2 0,-1.098647 -0.901353,-2 -2,-2 z m 0,1 c 0.5582071,0 1,0.441793 1,1 0,0.558207 -0.4417929,1 -1,1 -0.5582071,0 -1,-0.441793 -1,-1 0,-0.558207 0.4417929,-1 1,-1 z m 8.5,0 c 0.648356,0 0.67234,-1 0,-1 L 17,15 17,8 19.755859,8 23,12.171875 23,15 22.5,15 c -0.656379,0 -0.664323,1 0,1 l 0.5,0 c 0.545351,0 1,-0.454649 1,-1 l 0,-3 c -1.18e-4,-0.111092 -0.03723,-0.218981 -0.105469,-0.306641 l -3.5,-4.4999996 C 20.299896,7.0714885 20.154299,7.0001314 20,7 L 17,7 17,6 C 17,5.4546486 16.545351,5 16,5 L 5,5 C 4.4546486,5 4,5.4546486 4,6 l 0,9 c 0,0.545351 0.4546486,1 1,1 l 1.5,0 c 0.6480774,0.0092 0.6709779,-1 0,-1 L 5,15 5,6 l 11,0 0,9 -4.5,0 c -0.648199,0 -0.65939,1.009326 0,1 z"/>
</svg>