<svg fill="#000000" height="24" viewBox="0 0 24 24" width="24" xmlns="http://www.w3.org/2000/svg">
<path d="M 18,3 C 16.332087,3 15.205854,3.5734965 14.380771,4.384691 13.554362,5.1971906 13,6.3320842 13,7.4997576 c 0,0.9522421 0.226103,1.8254462 0.609576,2.6307174 0.382445,0.803111 0.882504,1.514942 1.37058,2.197147 0.487938,0.682012 0.969012,1.34071 1.341295,2.035047 C 16.692876,15.055406 17,15.759096 17,16.5 c 0,0.947497 -0.274252,1.953064 -0.885503,2.676862 -0.319555,0.376616 0.07741,0.937377 0.552527,0.802692 2.064375,-0.578282 3.888923,-1.826594 5.205083,-3.519341 C 23.188267,14.767464 24,12.644476 24,10.5 24,8.6606005 23.560739,6.7917462 22.405111,5.3162814 21.199443,3.9086872 19.667913,3 18,3 Z m 0,0.9999461 c 1.499439,0 2.623354,0.9072485 3.618296,1.9334897 C 22.599107,7.1857 23,8.8530786 23,10.5 c 0,1.92537 -0.734976,3.825217 -1.91666,5.345011 -0.88671,1.140422 -2.104297,1.959339 -3.41669,2.56822 C 17.900173,17.792455 18,17.167982 18,16.5 18,15.551901 17.619412,14.668581 17.201981,13.890038 16.785407,13.113095 16.275745,12.421281 15.792352,11.745623 15.309097,11.070157 14.846902,10.404963 14.511582,9.700811 14.17729,8.9988191 14,8.2281838 14,7.4997576 14,6.58905 14.437034,5.7313397 15.081681,5.0975432 15.727655,4.4624419 16.500561,3.9999461 18,3.9999461 Z M 4.9972014,3.0000004 c -1.6679127,0 -2.7926229,0.5734965 -3.617705,1.384691 C 0.55308697,5.197191 0,6.3265603 0,7.499758 c 0,0.9522421 0.22482739,1.8254462 0.60830067,2.630717 0.38244471,0.803111 0.88250473,1.514942 1.37058073,2.197147 0.4879375,0.682012 0.9690118,1.34071 1.3412947,2.035047 0.371425,0.692737 0.6770253,1.401685 0.6770253,2.137331 0,0.947497 -0.2727275,1.953064 -0.8839792,2.676862 -0.3195558,0.376616 0.07741,0.937377 0.5525276,0.802692 C 5.7301244,19.401272 7.554672,18.15296 8.8708322,16.460213 10.186992,14.767464 10.997201,12.644476 10.997201,10.5 10.997201,8.66061 10.559464,6.7917466 9.4038358,5.3162818 8.1981677,3.9086876 6.665114,3.0000004 4.9972014,3.0000004 Z m 0,0.9999461 c 1.4994387,0 2.6248777,0.9072485 3.6198197,1.9334897 0.9808105,1.2522642 1.3801803,2.9183124 1.3801803,4.5656478 0,1.925369 -0.7334526,3.826133 -1.9151363,5.345927 C 7.1953544,16.985433 5.9777689,17.80435 4.6653756,18.413231 4.8988973,17.792455 4.9972014,17.167982 4.9972014,16.5 c 0,-0.931398 -0.3790645,-1.831419 -0.7964956,-2.609962 C 3.784132,13.113095 3.2744698,12.421281 2.7910773,11.745623 2.3078229,11.070157 1.8456263,10.404963 1.5103068,9.7008114 1.1760156,8.9988195 1,8.2281842 1,7.499758 1,6.5937235 1.4357589,5.7313401 2.0804058,5.0975436 2.72638,4.4624423 3.4977628,3.9999465 4.9972014,3.9999465 Z"/>
</svg>