<svg fill="#000000" height="24" viewBox="0 0 24 24" width="24" xmlns="http://www.w3.org/2000/svg">
<path d="M 17.5,1 C 17.223852,1 16.99957,1.2349156 17,1.5 L 17,5 C 15.557268,5.1032117 14.511049,5.4034538 13.021484,6.7714844 11.531919,8.139515 10.997469,10.619749 11,12.5 c 7.83e-4,0.581611 0.829177,0.689965 0.982422,0.128906 0.486312,-1.814941 1.8169,-2.6935114 3.091797,-3.160156 C 16.086424,9.098257 16.657949,9.1121838 17,9.0957031 L 17,12.5 c -4.15e-4,0.435287 0.516973,0.663228 0.837891,0.369141 l 6,-5.5000004 c 0.216972,-0.1982694 0.216972,-0.5400118 0,-0.7382812 l -6,-5.5 C 17.738236,1.039365 17.635058,0.9921534 17.5,1 Z M 18,2.6367188 22.759766,7 18,11.363281 18,8.5 C 17.999972,8.2238691 17.776131,8.0000276 17.5,8 17.5,8 16.187623,7.99789 14.730469,8.53125 13.922851,8.8268587 13.098467,9.3694738 12.380859,10.107422 12.682006,9.0170459 12.957032,8.2499991 13.728516,7.4785156 14.5,6.7070321 16.111111,6 17.5,6 17.776131,5.9999724 17.999972,5.7761309 18,5.5 Z M 1.5,6 C 0.67764862,6 0,6.6776486 0,7.5 l 0,14 C 0,22.322351 0.67764862,23 1.5,23 l 20,0 c 0.822351,0 1.5,-0.677649 1.5,-1.5 l 0,-9 c 0.0096,-0.676161 -1.009563,-0.676161 -1,0 l 0,9 c 0,0.285649 -0.214351,0.5 -0.5,0.5 l -20,0 C 1.2143514,22 1,21.785649 1,21.5 L 1,7.5 C 1,7.2143514 1.2143514,7 1.5,7 l 9,0 c 0.684115,0 0.637128,-1 0,-1 z"/>
</svg>