<svg fill="#000000" height="24" viewBox="0 0 24 24" width="24" xmlns="http://www.w3.org/2000/svg">
<path d="M 6.5,18 C 5.8249866,18 5.2477753,18.444091 5.0625,19.0625 L 2.40625,19.5 C 2.167209,19.545611 1.9957118,19.756684 2,20 l 0,2 c -0.00429,0.243316 0.167209,0.454389 0.40625,0.5 L 5.0625,22.9375 C 5.2477753,23.555909 5.8249866,24 6.5,24 l 3,0 c 0.675013,0 1.252225,-0.444091 1.4375,-1.0625 L 13.59375,22.5 C 13.832791,22.454389 14.004288,22.243316 14,22 l 0,-2 c 0.0043,-0.243316 -0.167209,-0.454389 -0.40625,-0.5 L 10.9375,19.0625 C 10.752225,18.444091 10.175013,18 9.5,18 Z m 0,1 3,0 c 0.2856486,0 0.5,0.214351 0.5,0.5 l 0,3 C 10,22.785649 9.7856486,23 9.5,23 l -3,0 C 6.2143514,23 6,22.785649 6,22.5 l 0,-3 C 6,19.214351 6.2143514,19 6.5,19 Z M 5,20.09375 5,21.90625 3,21.5625 3,20.4375 Z m 6,0 2,0.34375 0,1.125 -2,0.34375 z M 1.5,1 C 0.67764862,1 0,1.6776486 0,2.5 l 0,12 C 0,15.322351 0.67764862,16 1.5,16 l 11.992879,0 C 13.757035,16.003736 14,15.764183 14,15.5 14,15.235817 13.757035,14.996264 13.492879,15 L 1.5,15 C 1.2143514,15 1,14.785649 1,14.5 L 1,2.5 C 1,2.2143514 1.2143514,2 1.5,2 l 19,0 C 20.785649,2 21,2.2143514 21,2.5 l 0,5 c -0.0037,0.2641563 0.235817,0.4964395 0.5,0.4964395 0.264183,0 0.503736,-0.2322832 0.5,-0.4964395 l 0,-5 C 22,1.6776486 21.322351,1 20.5,1 Z M 4,4 4,13 c 0,0.575698 0.4047223,1 1,1 l 8.5,0 c 0.264156,0.0037 0.507121,-0.235817 0.507121,-0.5 0,-0.264183 -0.242965,-0.503736 -0.507121,-0.5 L 5,13 5,4 19,4 19,7.5 c -0.0037,0.2641563 0.235817,0.5035605 0.5,0.5035605 0.264183,0 0.503736,-0.2394042 0.5,-0.5035605 L 20,4 C 20,3.379899 19.555206,3 19,3 L 5,3 C 4.4353903,3 4,3.4211569 4,4 Z M 19.5,21 C 19.777,21 20,21.223 20,21.5 20,21.777 19.777,22 19.5,22 19.223,22 19,21.777 19,21.5 19,21.223 19.223,21 19.5,21 Z m -1,-10 2,0 c 0.277,0 0.5,0.223 0.5,0.5 0,0.277 -0.223,0.5 -0.5,0.5 l -2,0 C 18.223,12 18,11.777 18,11.5 18,11.223 18.223,11 18.5,11 Z m -2,-2 C 15.677649,9 15,9.6776486 15,10.5 l 0,12 c 0,0.822351 0.677649,1.5 1.5,1.5 l 6,0 c 0.822351,0 1.5,-0.677649 1.5,-1.5 l 0,-12 C 24,9.6776486 23.322351,9 22.5,9 Z m 0,1 6,0 c 0.285649,0 0.5,0.214351 0.5,0.5 l 0,12 c 0,0.285649 -0.214351,0.5 -0.5,0.5 l -6,0 C 16.214351,23 16,22.785649 16,22.5 l 0,-12 C 16,10.214351 16.214351,10 16.5,10 Z M 2.5,8 C 2.777,8 3,8.223 3,8.5 3,8.777 2.777,9 2.5,9 2.223,9 2,8.777 2,8.5 2,8.223 2.223,8 2.5,8 Z"/>
</svg>