<svg fill="#000000" height="24" viewBox="0 0 24 24" width="24" xmlns="http://www.w3.org/2000/svg">
<path d="M 1.5 1 C 0.67764862 1 0 1.6776486 0 2.5 L 0 17.5 C 0 18.322351 0.67765622 18.99999 1.5 19 L 4 19 L 4 22.5 A 0.50005 0.50005 0 0 0 4.8535156 22.853516 L 8.7070312 19 L 22.5 19 C 23.322351 19 24 18.322351 24 17.5 L 24 2.5 C 24 1.6776486 23.322351 1 22.5 1 L 1.5 1 z M 1.5 2 L 22.5 2 C 22.785649 2 23 2.2143514 23 2.5 L 23 17.5 C 23 17.785649 22.785649 18 22.5 18 L 8.5 18 A 0.50005 0.50005 0 0 0 8.1464844 18.146484 L 5 21.292969 L 5 18.5 A 0.50005 0.50005 0 0 0 4.5 18 L 1.5 18 C 1.2143438 17.999996 1 17.785649 1 17.5 L 1 2.5 C 1 2.2143514 1.2143514 2 1.5 2 z M 3.5 5 C 3.223 5 3 5.223 3 5.5 C 3 5.777 3.223 6 3.5 6 L 20.5 6 C 20.777 6 21 5.777 21 5.5 C 21 5.223 20.777 5 20.5 5 L 3.5 5 z M 3.5 8 C 3.223 8 3 8.223 3 8.5 C 3 8.777 3.223 9 3.5 9 L 20.5 9 C 20.777 9 21 8.777 21 8.5 C 21 8.223 20.777 8 20.5 8 L 3.5 8 z M 3.5 11 C 3.223 11 3 11.223 3 11.5 C 3 11.777 3.223 12 3.5 12 L 20.5 12 C 20.777 12 21 11.777 21 11.5 C 21 11.223 20.777 11 20.5 11 L 3.5 11 z "/>
</svg>