<svg fill="#000000" height="24" viewBox="0 0 24 24" width="24" xmlns="http://www.w3.org/2000/svg">
<path d="m 12.853763,12.147195 c -0.194964,-0.194911 -0.511022,-0.194911 -0.705986,0 l -2.9963013,2.996083 c -0.449824,0.449824 0.2396947,1.172225 0.7059853,0.705934 L 12.500769,13.206 15.1427,15.847833 c 0.460797,0.460797 1.162139,-0.262584 0.705984,-0.705934 z M 12.500095,15 c 0.276989,0 0.49998,0.223032 0.49998,0.5 l 0,5.000056 c 0,0.276969 -0.222991,0.499944 -0.49998,0.499944 -0.276989,0 -0.49998,-0.222975 -0.49998,-0.499944 l 0,-5.000056 c 0,-0.276968 0.222991,-0.5 0.49998,-0.5 z M 13.324281,3.0020235 C 12,3.0020235 10.765953,3.254924 9.619349,3.8241966 8.1775249,4.5400415 7.0079987,5.5903141 6.23667,7.0015737 4.5909264,6.9346187 2.9377083,7.6388224 1.7661433,8.8021525 0.51570692,10.043799 -0.13664238,11.833808 0.02402457,13.588724 c 0.12712146,1.388509 0.7529752,2.714659 1.74211873,3.69685 0.9891999,0.982247 2.3347387,1.713787 3.7127441,1.714651 l 1.0214441,0 c 0.276989,0 0.4999802,-0.222975 0.4999802,-0.499944 0,-0.276969 -0.2229912,-0.499944 -0.4999802,-0.499944 l -0.9511344,0 C 4.4032562,17.901532 3.2853035,17.385043 2.4692405,16.574717 1.6512134,15.762439 1.1251402,14.646442 1.0200789,13.49889 0.88779387,12.05398 1.4395132,10.5355 2.4692405,9.5130103 3.4990379,8.4904507 5.0209724,7.8590879 6.4651766,8.0014613 6.6716474,8.0214502 6.8690206,7.9392335 6.9612508,7.7534423 7.6233377,6.425408 8.7353194,5.3786181 10.064644,4.7186273 11.061656,4.2236256 12.17989,4.001911 13.300844,4.001911 c 0.371257,0 0.74428,0.050204 1.109331,0.1191272 1.65952,0.3133209 3.202731,1.2693572 4.220537,2.6168933 1.017791,1.3475167 1.515805,3.0813044 1.363228,4.7631365 -0.02286,0.25445 0.1498,0.450052 0.400374,0.499944 0.764943,0.150839 1.482751,0.648687 1.953048,1.271341 0.470326,0.622693 0.706698,1.435869 0.642553,2.212642 -0.03299,0.399516 -0.14531,0.790749 -0.332018,1.132686 -0.185847,0.340359 -0.452096,0.638782 -0.769501,0.857324 -0.317953,0.218922 -0.697035,0.367366 -1.095659,0.443311 -0.399109,0.07605 -0.830307,0.08202 -1.292918,0.08202 l -0.999961,0 c -0.276989,0 -0.49998,0.222975 -0.49998,0.499944 0,0.276969 0.222991,0.499944 0.49998,0.499944 l 0.999961,0 c 0.46916,-3.2e-5 0.964214,-0.0032 1.48041,-0.101551 0.516684,-0.09844 1.025071,-0.290061 1.474551,-0.599542 0.450027,-0.309858 0.821317,-0.723641 1.081988,-1.201037 0.259812,-0.47582 0.405518,-1.002049 0.449202,-1.531078 C 24.071036,14.53686 23.766665,13.49497 23.144206,12.670858 22.601131,11.951848 21.860504,11.470527 20.999759,11.21399 21.070417,9.4050465 20.520296,7.5831825 19.427555,6.1364356 18.255305,4.584421 16.505014,3.4976214 14.593762,3.1367729 14.174895,3.0576438 13.750539,3.0020235 13.324281,3.0020235 Z"/>
</svg>