<svg fill="#000000" height="24" viewBox="0 0 24 24" width="24" xmlns="http://www.w3.org/2000/svg">
<path d="m 6.4707031,-0.00585938 a 0.50005,0.50005 0 0 0 -0.4648437,0.4296875 l -2,12.99999988 A 0.50005,0.50005 0 0 0 4.5,14 l 4.390625,0 -1.8808594,9.402344 A 0.50005,0.50005 0 0 0 7.890625,23.8125 l 12,-15 A 0.50005,0.50005 0 0 0 19.5,8 L 13.308594,8 16.947266,0.72265625 A 0.50005,0.50005 0 0 0 16.5,0 l -8,0 a 0.50005,0.50005 0 1 0 0,1 l 7.191406,0 -3.638672,7.2773438 A 0.50005,0.50005 0 0 0 12.5,9 L 18.458984,9 8.3925781,21.582031 9.9902344,13.597656 A 0.50005,0.50005 0 0 0 9.5,13 L 5.0820312,13 6.9941406,0.57617188 A 0.50005,0.50005 0 0 0 6.4707031,-0.00585938 Z"/>
</svg>