<svg fill="#000000" height="24" viewBox="0 0 24 24" width="24" xmlns="http://www.w3.org/2000/svg">
<path d="m 18.015625,0 c -0.199557,-0.00646122 -0.383831,0.10640676 -0.46875,0.28710938 l -1.585937,3.38085942 -3.53711,0.3483844 c -0.402094,0.062099 -0.565665,0.552814 -0.28125,0.84375 L 14.716797,7.6875 14.016055,11.419922 c -0.0672,0.412405 0.37104,0.720453 0.736328,0.517578 L 18,10.075383 21.251589,11.9375 c 0.365289,0.202875 0.80353,-0.105173 0.736328,-0.517578 L 21.283203,7.6875 23.857422,4.8680481 c 0.284415,-0.290936 0.120844,-0.7816505 -0.28125,-0.84375 L 20.039062,3.6679688 18.453125,0.28710938 C 18.373003,0.11664797 18.203892,0.00566935 18.015625,0 Z M 18,1.6777344 l 1.246094,2.65625 c 0.07097,0.1506766 0.212304,0.2561272 0.376953,0.28125 L 22.462891,4.866095 20.392578,7.1699219 C 20.281349,7.2833088 20.230603,7.4427953 20.255859,7.5996094 L 20.83362,10.564453 18.242188,9.0656178 c -0.150684,-0.083417 -0.333692,-0.083417 -0.484376,0 l -2.58746,1.4988352 0.573789,-2.9648436 C 15.769397,7.4427953 15.718651,7.2833088 15.607422,7.1699219 L 13.537109,4.8581501 16.376953,4.6152344 c 0.164649,-0.025123 0.305982,-0.1305734 0.376953,-0.28125 z M 1.5097656,2 C 0.68243376,2 0,2.6824338 0,3.5097656 L 0,10.490234 C 0,11.317566 0.68243352,12 1.5097656,12 l 6.9804688,0 C 9.3175665,12 10,11.317566 10,10.490234 L 10,3.5097656 C 10,2.6824338 9.3175662,2 8.4902344,2 Z m 0,1 6.9804688,0 C 8.7808633,3 9,3.2191367 9,3.5097656 L 9,10.490234 C 9,10.780863 8.7808631,11 8.4902344,11 L 1.5097656,11 C 1.2191369,11 1,10.780863 1,10.490234 L 1,3.5097656 C 1,3.2191366 1.2191366,3 1.5097656,3 Z M 13.509766,14 C 12.682434,14 12,14.682434 12,15.509766 l 0,6.980468 C 12,23.317566 12.682434,24 13.509766,24 l 6.980468,0 C 21.317566,24 22,23.317566 22,22.490234 l 0,-6.980468 C 22,14.682434 21.317566,14 20.490234,14 Z m 0,1 6.980468,0 C 20.780862,15 21,15.219138 21,15.509766 l 0,6.980468 C 21,22.780862 20.780862,23 20.490234,23 l -6.980468,0 C 13.219138,23 13,22.780862 13,22.490234 l 0,-6.980468 C 13,15.219138 13.219138,15 13.509766,15 Z M 1.5097656,14 C 0.68243352,14 0,14.682434 0,15.509766 l 0,6.980468 C 0,23.317566 0.68243352,24 1.5097656,24 l 6.9804688,0 C 9.3175665,24 10,23.317566 10,22.490234 l 0,-6.980468 C 10,14.682434 9.3175665,14 8.4902344,14 Z m 0,1 6.9804688,0 C 8.7808631,15 9,15.219137 9,15.509766 l 0,6.980468 C 9,22.780863 8.7808631,23 8.4902344,23 L 1.5097656,23 C 1.2191369,23 1,22.780863 1,22.490234 L 1,15.509766 C 1,15.219137 1.2191369,15 1.5097656,15 Z"/>
</svg>