<svg fill="#000000" height="24" viewBox="0 0 24 24" width="24" xmlns="http://www.w3.org/2000/svg">
<path d="m 6.146794,23.853081 c -0.1957447,-0.195873 -0.1957059,-0.511211 0,-0.707124 l 9.988511,-9.999051 c 0.195705,-0.195913 0.510914,-0.195874 0.706658,0 0.195745,0.195873 0.195706,0.511211 0,0.707123 l -9.9885097,9.999052 c -0.1957055,0.195912 -0.5109147,0.195873 -0.7066593,0 z M 6.1469011,0.14694542 c 0.1958331,-0.19596202 0.5110762,-0.19589244 0.7069789,0 L 17.8531,11.145585 c 0.195902,0.195891 0.195832,0.511482 0,0.707444 -0.195834,0.195962 -0.511077,0.195892 -0.706979,0 L 6.1469011,0.85438945 c -0.1959029,-0.19589245 -0.1958333,-0.51148202 0,-0.70744403 z"/>
</svg>