<svg fill="#000000" height="24" viewBox="0 0 24 24" width="24" xmlns="http://www.w3.org/2000/svg">
<path d="M 19.072403,0.00180215 C 17.975335,-0.03186942 16.942895,0.40797688 16.121379,1.1791752 L 1.6846009,14.731657 c -2.24613471,2.108557 -2.24613485,5.570728 0,7.679285 2.2459989,2.108431 5.8614093,2.130338 8.0913922,-0.0039 L 21.843748,10.857846 C 22.31361,10.408418 21.588537,9.7182202 21.152377,10.135411 L 9.0846214,21.684601 c -1.834475,1.755717 -4.8606498,1.740192 -6.716461,-0.002 -1.85567443,-1.742012 -1.85567457,-4.480687 0,-6.222699 L 16.806891,1.9074673 c 0.65928,-0.6188991 1.417771,-0.93103198 2.234264,-0.905972 0.816492,0.02506 1.715534,0.392551 2.63268,1.2535217 0.917122,0.8609464 1.29779,1.6949207 1.324153,2.4347997 0.02636,0.739879 -0.296807,1.4258369 -0.951125,2.0481997 0,0 -9.484347,9.0211596 -14.2265206,13.5317396 -1.0190819,0.969313 -2.9585162,0.973899 -3.9717872,0.02269 C 2.8117676,19.319163 2.688997,17.851686 3.6757474,16.952204 7.7292439,13.257199 15.836237,5.8671898 15.836237,5.8671898 16.311742,5.4317002 15.605706,4.7220404 15.160489,5.129135 c 0,0 -8.1069927,7.390009 -12.160489,11.085013 -1.4273747,1.301138 -1.2592941,3.469539 0.1649996,4.806595 C 4.6128233,22.379882 7.1619792,22.272501 8.5,21 L 22.72847,7.468261 C 23.554209,6.6997809 24.035638,5.712748 23.997938,4.6546712 23.960238,3.5965945 23.41317,2.5159981 22.359348,1.5267249 21.305553,0.53747554 20.16947,0.03547372 19.072403,0.00180215 Z"/>
</svg>