<svg fill="#000000" height="24" viewBox="0 0 24 24" width="24" xmlns="http://www.w3.org/2000/svg">
<path d="m 12.5,14 c -0.134718,10e-4 -0.261683,0.05461 -0.353516,0.146484 l -2,2 c -0.490773,0.471255 0.235777,1.197805 0.707032,0.707032 L 12.5,15.207031 l 1.646484,1.646485 c 0.471255,0.490773 1.197805,-0.235777 0.707032,-0.707032 l -2,-2 C 12.757854,14.050778 12.634718,13.99895 12.5,14 Z m 0,2 c 0.277,0 0.5,0.223 0.5,0.5 l 0,7 C 13,23.777 12.777,24 12.5,24 12.223,24 12,23.777 12,23.5 l 0,-7 C 12,16.223 12.223,16 12.5,16 Z M 1.5,0 C 0.67764862,0 0,0.67764862 0,1.5 l 0,17 C 0,19.322351 0.67764862,20 1.5,20 l 6,0 c 0.6765923,0 0.6480838,-1 0,-1 l -6,0 C 1.2143514,19 1,18.785649 1,18.5 L 1,1.5 C 1,1.2143514 1.2143514,1 1.5,1 L 7.2929688,1 11.146484,4.8535156 C 11.24024,4.9472838 11.3674,4.9999746 11.5,5 L 23,5 23,18.5 c 0,0.285649 -0.214351,0.5 -0.5,0.5 l -5,0 c -0.636966,0 -0.676173,1 0,1 l 5,0 c 0.822351,0 1.5,-0.677649 1.5,-1.5 l 0,-14 C 23.999972,4.2238691 23.776131,4.0000276 23.5,4 L 11.707031,4 7.8535156,0.14648438 C 7.7597597,0.05271625 7.6325995,2.5530702e-5 7.5,0 Z"/>
</svg>