<svg fill="#000000" height="24" viewBox="0 0 24 24" width="24" xmlns="http://www.w3.org/2000/svg">
<path d="m 10.5,7 c -0.449403,9.07e-5 -0.676447,0.5409802 -0.353516,0.8535156 L 13.792969,11.5 10.146484,15.146484 c -0.490773,0.471255 0.235777,1.197805 0.707032,0.707032 l 4,-4 c 0.195185,-0.195265 0.195185,-0.511767 0,-0.707032 l -4,-3.9999996 C 10.759309,7.0491156 10.635483,7 10.5,7 Z m -10,4 10,0 c 0.277,0 0.5,0.223 0.5,0.5 0,0.277 -0.223,0.5 -0.5,0.5 l -10,0 C 0.223,12 0,11.777 0,11.5 0,11.223 0.223,11 0.5,11 Z M 6.5,0 C 5.6776486,0 5,0.67764862 5,1.5 l 0,5 c 0,0.6645874 1,0.6566336 1,0 l 0,-5 C 6,1.2143514 6.2143514,1 6.5,1 l 16,0 C 22.785649,1 23,1.2143514 23,1.5 l 0,21 c 0,0.285649 -0.214351,0.5 -0.5,0.5 l -16,0 C 6.2143514,23 6,22.785649 6,22.5 l 0,-6 c 0,-0.668351 -1,-0.652727 -1,0 l 0,6 C 5,23.322351 5.6776486,24 6.5,24 l 16,0 c 0.822351,0 1.5,-0.677649 1.5,-1.5 l 0,-21 C 24,0.67764862 23.322351,0 22.5,0 Z"/>
</svg>