<svg fill="#000000" height="24" viewBox="0 0 24 24" width="24" xmlns="http://www.w3.org/2000/svg">
<path d="M 3.5 2 C 2.6776486 2 2 2.6776486 2 3.5 L 2 4.5 C 1.99522 4.8380807 2.2476093 5 2.5 5 C 2.7523907 5 3.0047813 4.8380807 3 4.5 L 3 3.5 C 3 3.2143514 3.2143514 3 3.5 3 L 7.5 3 C 7.7856486 3 8 3.2143514 8 3.5 L 8 4.5 C 7.99522 4.8380807 8.2476093 5 8.5 5 C 8.7523907 5 9.0047813 4.8380807 9 4.5 L 9 3.5 C 9 2.6776486 8.3223514 2 7.5 2 L 3.5 2 z M 1.5 6 C 0.67764862 6 0 6.6776486 0 7.5 L 0 20.5 C 0 21.322351 0.67764862 22 1.5 22 L 22.5 22 C 23.322351 22 24 21.322351 24 20.5 L 24 7.5 C 24 6.6776486 23.322351 6 22.5 6 L 1.5 6 z M 1.5 7 L 22.5 7 C 22.785649 7 23 7.2143514 23 7.5 L 23 20.5 C 23 20.785649 22.785649 21 22.5 21 L 1.5 21 C 1.2143514 21 1 20.785649 1 20.5 L 1 7.5 C 1 7.2143514 1.2143514 7 1.5 7 z M 18.5 8 C 17.677649 8 17 8.6776486 17 9.5 C 17 10.322351 17.677649 11 18.5 11 L 20.5 11 C 21.322351 11 22 10.322351 22 9.5 C 22 8.6776486 21.322351 8 20.5 8 L 18.5 8 z M 12 9 C 9.2444986 9 7 11.244499 7 14 C 7 16.755501 9.2444986 19 12 19 C 14.755501 19 17 16.755501 17 14 C 17 11.244499 14.755501 9 12 9 z M 18.5 9 L 20.5 9 C 20.785649 9 21 9.2143514 21 9.5 C 21 9.7856486 20.785649 10 20.5 10 L 18.5 10 C 18.214351 10 18 9.7856486 18 9.5 C 18 9.2143514 18.214351 9 18.5 9 z M 12 10 C 14.215061 10 16 11.784939 16 14 C 16 16.215061 14.215061 18 12 18 C 9.7849387 18 8 16.215061 8 14 C 8 11.784939 9.7849387 10 12 10 z "/>
</svg>