<svg fill="#000000" height="24" viewBox="0 0 24 24" width="24" xmlns="http://www.w3.org/2000/svg">
<path d="m 11.500105,8.0000822 a 0.50435479,0.50599556 0 0 0 -0.08667,0.00594 C 9.6531431,8.2636541 8.2659166,9.6536936 8.005434,11.419163 a 0.5048139,0.50645617 0 1 0 0.9987589,0.148226 C 9.2001117,10.239513 10.235228,9.2018024 11.559205,9.0080195 a 0.50435479,0.50599556 0 0 0 -0.0591,-1.0079373 z M 12,6 c -3.3077859,0 -5.9999997,2.6922138 -5.9999997,6 0,3.307786 2.6922138,6 5.9999997,6 3.307786,0 6,-2.692214 6,-6 0,-3.3077862 -2.692214,-6 -6,-6 z m 0,1 c 2.767346,0 5,2.2326539 5,5 0,2.767346 -2.232654,5 -5,5 C 9.2326542,17 7.0000003,14.767346 7.0000003,12 7.0000003,9.2326539 9.2326542,7 12,7 Z M 12,4 C 9.4803244,4 6.9718357,4.744676 4.8613284,6.1210938 2.7508211,7.4975115 1.0588597,9.4930238 0.04296903,11.798828 L -0.04687472,12 0.04296903,12.201172 C 1.0588597,14.506976 2.7508213,16.502488 4.8613284,17.878906 6.9718357,19.255324 9.4803244,20 12,20 c 2.519676,0 5.028165,-0.744676 7.138672,-2.121094 2.110507,-1.376418 3.802469,-3.37193 4.818359,-5.677734 L 24.046875,12 23.957031,11.798828 C 22.941141,9.4930238 21.249179,7.4975115 19.138672,6.1210938 17.028165,4.744676 14.519676,4 12,4 Z m 0,1 c 2.321858,0 4.646984,0.6906281 6.591797,1.9589844 1.87822,1.2249259 3.378519,3.0075809 4.324219,5.0410156 -0.9457,2.033435 -2.445999,3.816089 -4.324219,5.041016 C 16.646984,18.309372 14.321858,19 12,19 9.6781422,19 7.3530163,18.309372 5.4082034,17.041016 3.5299835,15.816089 2.0296844,14.033435 1.0839847,12 2.0296844,9.9665652 3.5299837,8.1839103 5.4082034,6.9589844 7.3530164,5.6906281 9.6781422,5 12,5 Z"/>
</svg>