<svg fill="#000000" height="24" viewBox="0 0 24 24" width="24" xmlns="http://www.w3.org/2000/svg">
<path d="M 2.5,6 C 1.9999361,6 1.8171029,6.6456252 2.2219729,6.9155564 L 10.219511,12.412442 C 10.709254,12.749054 11.300882,13 12,13 c 0.69912,0 1.295077,-0.250946 1.784819,-0.587558 L 21.782357,6.9155564 C 22.334486,6.5418284 21.721209,5.7396276 21.216125,6.0918043 L 13.218588,11.588691 C 12.839983,11.848914 12.46945,12 12,12 11.530551,12 11.164348,11.848914 10.785742,11.588691 L 2.7882048,6.0918043 C 2.7058852,6.0335706 2.600832,6.0015293 2.5,6 Z M 1.5,4 C 0.67764862,4 0,4.6776486 0,5.5 l 0,13 C 0,19.322351 0.67764862,20 1.5,20 l 21,0 c 0.822351,0 1.5,-0.677649 1.5,-1.5 l 0,-13 C 24,4.6776486 23.322351,4 22.5,4 Z m 0,1 21,0 C 22.785649,5 23,5.2143514 23,5.5 l 0,13 c 0,0.285649 -0.214351,0.5 -0.5,0.5 l -21,0 C 1.2143514,19 1,18.785649 1,18.5 L 1,5.5 C 1,5.2143514 1.2143514,5 1.5,5 Z"/>
</svg>