<svg fill="#000000" height="24" viewBox="0 0 24 24" width="24" xmlns="http://www.w3.org/2000/svg">
<path d="M 3.5,10 C 2.6776486,10 2,10.677649 2,11.5 l 0,4 C 2,16.322351 2.6776486,17 3.5,17 l 3,0 C 7.3223514,17 8,16.322351 8,15.5 l 0,-4 C 8,10.677649 7.3223514,10 6.5,10 l -3,0 z m 0,1 3,0 C 6.7856486,11 7,11.214351 7,11.5 l 0,4 C 7,15.785649 6.7856486,16 6.5,16 l -3,0 C 3.2143514,16 3,15.785649 3,15.5 l 0,-4 C 3,11.214351 3.2143514,11 3.5,11 Z m 6,5 11,0 c 0.277,0 0.5,0.223 0.5,0.5 0,0.277 -0.223,0.5 -0.5,0.5 l -11,0 C 9.223,17 9,16.777 9,16.5 9,16.223 9.223,16 9.5,16 Z M 5.5,2 C 5.223,2 5,2.223 5,2.5 l 0,4 C 5,6.777 5.223,7 5.5,7 5.777,7 6,6.777 6,6.5 l 0,-4 C 6,2.223 5.777,2 5.5,2 Z m 13,0 C 18.223,2 18,2.223 18,2.5 l 0,4 C 18,6.777 18.223,7 18.5,7 18.777,7 19,6.777 19,6.5 l 0,-4 C 19,2.223 18.777,2 18.5,2 Z M 1.5,4 C 0.67764862,4 0,4.6776486 0,5.5 l 0,15 C 0,21.322351 0.67764862,22 1.5,22 l 21,0 c 0.822351,0 1.5,-0.677649 1.5,-1.5 l 0,-15 C 24,4.6776486 23.322351,4 22.5,4 l -2,0 C 20.16565,4 20,4.2476096 20,4.5 20,4.7523903 20.161918,5 20.5,5 l 2,0 C 22.785649,5 23,5.2143514 23,5.5 l 0,15 c 0,0.285649 -0.214351,0.5 -0.5,0.5 l -21,0 C 1.2143514,21 1,20.785649 1,20.5 L 1,5.5 C 1,5.2143514 1.2143514,5 1.5,5 l 2,0 C 3.8361412,5 4.0024444,4.75 4,4.5 3.9975556,4.25 3.8263637,4 3.5,4 Z m 6,0 C 7.1770051,4 7,4.2476093 7,4.5 7,4.7523907 7.1619193,5.0047813 7.5,5 l 9,0 C 16.797888,5 17,4.7523904 17,4.5 17,4.2476097 16.85077,4 16.5,4 Z m 2,6 C 9.223,10 9,10.223 9,10.5 9,10.777 9.223,11 9.5,11 l 11,0 C 20.777,11 21,10.777 21,10.5 21,10.223 20.777,10 20.5,10 Z m 0,3 C 9.223,13 9,13.223 9,13.5 9,13.777 9.223,14 9.5,14 l 11,0 C 20.777,14 21,13.777 21,13.5 21,13.223 20.777,13 20.5,13 Z"/>
</svg>