<svg fill="#000000" height="24" viewBox="0 0 24 24" width="24" xmlns="http://www.w3.org/2000/svg">
<path d="M 14,1 C 13.569444,1 13.192698,1.0707046 12.876953,1.2578125 12.561209,1.4449204 12.341359,1.7472602 12.21875,2.0742188 11.973531,2.7281359 12,3.5 12,4.5 c 0,0.9166667 -0.208685,1.5366601 -0.666016,2.2226562 -0.45733,0.6859962 -1.1875,1.4238282 -2.1874996,2.4238282 -0.4390337,0.4215268 0.2474584,1.1666036 0.7070312,0.7070312 1.0000004,-1 1.7698304,-1.762168 2.3125004,-2.5761718 C 12.708685,6.4633399 13,5.5833333 13,4.5 13,3.5 13.026469,2.7718641 13.15625,2.4257812 13.221141,2.2527398 13.282541,2.1800796 13.388672,2.1171875 13.494802,2.0542954 13.680556,2 14,2 c 0.291667,0 0.44676,0.063843 0.560547,0.1523438 0.113786,0.0885 0.204675,0.2253549 0.277344,0.4433593 C 14.983227,3.031712 15,3.75 15,4.5 15,7.3888889 14.052734,9.2773437 14.052734,9.2773438 13.887572,9.6095633 14.12899,9.9996274 14.5,10 l 7.925781,0 C 22.795671,10 23,10.564866 23,11 c 0,0.666667 -0.722656,1.052734 -0.722656,1.052734 -0.368582,0.184275 -0.368582,0.710257 0,0.894532 0,0 0.722656,0.386067 0.722656,1.052734 0,0.666667 -0.722656,1.052734 -0.722656,1.052734 -0.368582,0.184275 -0.368582,0.710257 0,0.894532 0,0 0.722656,0.386067 0.722656,1.052734 0,0.666667 -0.722656,1.052734 -0.722656,1.052734 -0.368582,0.184275 -0.368582,0.710257 0,0.894532 0,0 0.722656,0.386067 0.722656,1.052734 0,0.333333 -0.134017,0.5301 -0.402344,0.708984 C 22.329329,20.887869 21.916667,21 21.5,21 l -12,0 c -0.6598326,0 -0.6540767,1 0,1 l 12,0 c 0.583333,0 1.170671,-0.137869 1.652344,-0.458984 C 23.634017,21.2199 24,20.666667 24,20 24,19.294714 23.660669,18.818301 23.324219,18.5 23.660669,18.181699 24,17.705286 24,17 24,16.294714 23.660669,15.818301 23.324219,15.5 23.660669,15.181699 24,14.705286 24,14 24,13.294714 23.660669,12.818301 23.324219,12.5 23.660669,12.181699 24,11.705286 24,11 24,10.416667 23.855391,9.9308854 23.587891,9.5742188 23.320391,9.2175521 22.916667,9 22.5,9 L 15.210938,9 C 15.507194,8.2593091 16,6.8320657 16,4.5 16,3.75 16.016773,2.968288 15.787109,2.2792969 15.672278,1.9348013 15.481917,1.6029057 15.173828,1.3632812 14.86574,1.1236568 14.458333,1 14,1 Z M 1.5,9 C 0.67764862,9 0,9.6776486 0,10.5 l 0,11 C 0,22.322351 0.67764862,23 1.5,23 l 5,0 C 7.3223514,23 8,22.322351 8,21.5 l 0,-11 C 8,9.6776486 7.3223514,9 6.5,9 Z m 0,1 5,0 C 6.7856486,10 7,10.214351 7,10.5 l 0,11 C 7,21.785649 6.7856486,22 6.5,22 l -5,0 C 1.2143514,22 1,21.785649 1,21.5 l 0,-11 C 1,10.214351 1.2143514,10 1.5,10 Z"/>
</svg>