<svg fill="#000000" height="24" viewBox="0 0 24 24" width="24" xmlns="http://www.w3.org/2000/svg">
<path d="m 16.49364,8.0000005 c -0.129633,0.00361 -0.262539,0.053637 -0.35317,0.1464868 L 11.498537,12.793046 9.8536655,11.146535 C 9.4062629,10.698686 8.6889289,11.412997 9.1473269,11.853578 l 1.9980411,2.000031 c 0.195073,0.195189 0.511265,0.195189 0.706339,0 L 16.84681,8.8535296 C 17.171761,8.5355208 16.9448,8.0000005 16.49364,8.0000005 Z m -4.493639,-8 C 11.85553,0.00318057 11.707779,0.07065675 11.615235,0.18164112 10.500627,1.5179495 8.7889585,2.0163057 7.000001,2.0000005 5.2110436,1.9836952 3.3526719,1.414359 2.750001,1.0664067 2.4164439,0.87390419 1.99962,1.1148805 2.000001,1.5000005 L 2.000001,12 c 0,5.772727 4.6711614,10.424288 9.855469,11.982422 0.09365,0.02807 0.193464,0.02807 0.287109,0 C 17.327343,22.429835 22.000001,17.772728 22.000001,12 l 0,-10.4941401 c 3.81e-4,-0.38512 -0.416443,-0.62609631 -0.75,-0.4335938 -0.602671,0.3479522 -2.461157,0.912084 -4.25,0.9277344 C 15.211158,2.0156509 13.499602,1.5226192 12.384767,0.18359425 12.287361,0.06556943 12.152994,-0.00330973 12.000001,5e-7 Z m 0,1.078125 c 1.384543,1.3768257 3.18712,1.9377357 5,1.921875 1.576421,-0.013792 3.026556,-0.3955265 4,-0.7871094 l 0,9.7871089 c 0,5.172696 -4.243564,9.470301 -8.998047,10.957031 C 7.2462941,21.465576 3.000001,17.173352 3.000001,12 l 0,-9.7929683 c 0.9734229,0.3915969 2.423671,0.7786015 4,0.7929688 1.8126684,0.016521 3.615317,-0.5476445 5,-1.921875 z"/>
</svg>