<svg fill="#000000" height="24" viewBox="0 0 24 24" width="24" xmlns="http://www.w3.org/2000/svg">
<path d="M 15.492188,2 C 15.216043,2.0043084 14.995679,2.223855 15,2.5 l 0,1.9902344 C 15,5.3175665 15.682434,6 16.509766,6 L 18.5,6 c 0.670555,0 0.648074,-1 0,-1 L 16.509766,5 C 16.219137,5 16,4.7808631 16,4.4902344 L 16,2.5 C 16.004417,2.2177338 15.774454,1.9955834 15.492188,2 Z M 4.5097656,0 C 3.6824338,0 3,0.68243376 3,1.5097656 L 3,22.490234 C 3,23.317566 3.6824335,24 4.5097656,24 L 19.490234,24 C 20.317566,24 21,23.317566 21,22.490234 L 21,5.5 c -2.5e-5,-0.1325994 -0.05272,-0.2597597 -0.146484,-0.3535156 l -5,-5.00000002 C 15.75976,0.05271616 15.6326,2.5424639e-5 15.5,0 Z m 0,1 L 15.292969,1 20,5.7070312 20,22.490234 C 20,22.780862 19.780862,23 19.490234,23 L 4.5097656,23 C 4.2191369,23 4,22.780863 4,22.490234 L 4,1.5097656 C 4,1.2191366 4.2191366,1 4.5097656,1 Z M 6.5,9 17.5,9 C 17.777,9 18,9.223 18,9.5 18,9.777 17.777,10 17.5,10 l -11,0 C 6.223,10 6,9.777 6,9.5 6,9.223 6.223,9 6.5,9 Z m 0,3 11,0 c 0.277,0 0.5,0.223 0.5,0.5 0,0.277 -0.223,0.5 -0.5,0.5 l -11,0 C 6.223,13 6,12.777 6,12.5 6,12.223 6.223,12 6.5,12 Z m 0,3 11,0 c 0.277,0 0.5,0.223 0.5,0.5 0,0.277 -0.223,0.5 -0.5,0.5 l -11,0 C 6.223,16 6,15.777 6,15.5 6,15.223 6.223,15 6.5,15 Z"/>
</svg>