<svg fill="#000000" height="24" viewBox="0 0 24 24" width="24" xmlns="http://www.w3.org/2000/svg">
<path d="m 10.5,7 c -0.6528713,0 -0.6646805,1 0,1 l 1.5,0 0,5.5 c 0,0.660612 1,0.664587 1,0 L 13,8 14.5,8 c 0.66447,0 0.653084,-1 0,-1 z m -5,0 C 5.2238691,7.0000276 5.0000276,7.2238691 5,7.5 l 0,6 c 0,0.668493 1,0.660776 1,0 L 6,11 7.5,11 c 0.6527274,0 0.6527274,-1 0,-1 L 6,10 6,8 8.5,8 C 9.1644449,8 9.1566336,7 8.5,7 Z M 16,13.5 c 0,0.668493 1,0.656706 1,0 l 0,-2.5 0.5,0 c 0.705666,0 1.313018,-0.131083 1.777344,-0.472656 C 19.74167,10.185771 20,9.6197917 20,9 20,8.3736978 19.72638,7.8090973 19.259766,7.4707031 18.793152,7.132309 18.188179,7 17.5,7 l -1,0 C 16.223869,7.0000276 16.000028,7.2238691 16,7.5 Z M 17,8 17.5,8 c 0.554008,0 0.949036,0.117691 1.171875,0.2792969 C 18.894714,8.4409027 19,8.6263022 19,9 19,9.3802083 18.898955,9.5642295 18.683594,9.7226562 18.468232,9.8810832 18.075584,10 17.5,10 L 17,10 Z m -4.5,8 c -0.134718,0.001 -0.261683,0.05461 -0.353516,0.146484 l -2,2 c -0.490773,0.471255 0.235777,1.197805 0.707032,0.707032 L 12.5,17.207031 l 1.646484,1.646485 c 0.471255,0.490773 1.197805,-0.235777 0.707032,-0.707032 l -2,-2 C 12.757854,16.050778 12.634718,15.99895 12.5,16 Z m 0,2 c 0.277,0 0.5,0.223 0.5,0.5 l 0,5 C 13,23.777 12.777,24 12.5,24 12.223,24 12,23.777 12,23.5 l 0,-5 C 12,18.223 12.223,18 12.5,18 Z M 1.5,0 C 0.67764862,0 0,0.67764862 0,1.5 l 0,17 C 0,19.322351 0.67764862,20 1.5,20 l 6,0 c 0.6765923,0 0.6480838,-1 0,-1 l -6,0 C 1.2143514,19 1,18.785649 1,18.5 L 1,1.5 C 1,1.2143514 1.2143514,1 1.5,1 L 7.2929688,1 11.146484,4.8535156 C 11.24024,4.9472838 11.3674,4.9999746 11.5,5 L 23,5 23,18.5 c 0,0.285649 -0.214351,0.5 -0.5,0.5 l -5,0 c -0.636966,0 -0.676173,1 0,1 l 5,0 c 0.822351,0 1.5,-0.677649 1.5,-1.5 l 0,-14 C 23.999972,4.2238691 23.776131,4.0000276 23.5,4 L 11.707031,4 7.8535156,0.14648438 C 7.7597597,0.05271625 7.6325995,2.5530702e-5 7.5,0 Z"/>
</svg>