<svg fill="#000000" height="24" viewBox="0 0 24 24" width="24" xmlns="http://www.w3.org/2000/svg">
<path d="M 15.5,8 C 15.777,8 16,8.223 16,8.5 l 0,2 C 16,10.777 15.777,11 15.5,11 15.223,11 15,10.777 15,10.5 l 0,-2 C 15,8.223 15.223,8 15.5,8 Z m -7,0 C 8.777,8 9,8.223 9,8.5 l 0,2 C 9,10.777 8.777,11 8.5,11 8.223,11 8,10.777 8,10.5 l 0,-2 C 8,8.223 8.223,8 8.5,8 Z m 3.5,8 c -1.825588,0 -3.1063745,0.532728 -3.8648568,1.088964 -0.7584824,0.556236 -1.0739246,1.174374 -1.0739246,1.174374 -0.3308474,0.604999 0.6030019,1.073034 0.8830475,0.442573 0,0 0.1744903,-0.375712 0.7712205,-0.813326 C 9.3122168,17.454971 10.361979,17 12,17 c 1.638959,0 2.614154,0.450663 3.243868,0.888703 0.629714,0.438039 0.83099,0.819149 0.83099,0.819149 0.39282,0.680385 1.142916,-3.81e-4 0.861839,-0.487219 0,0 -0.347037,-0.603268 -1.131766,-1.149139 C 15.020202,16.525623 13.824651,16 12,16 Z M 12,0 C 5.3606486,0 0,5.3606486 0,12 0,18.639351 5.3606486,24 12,24 18.639351,24 24,18.639351 24,12 24,5.3606486 18.639351,0 12,0 Z m 0,1 C 18.102649,1 23,5.8973514 23,12 23,18.102649 18.102649,23 12,23 5.8973514,23 1,18.102649 1,12 1,5.8973514 5.8973514,1 12,1 Z"/>
</svg>