<svg fill="#000000" height="24" viewBox="0 0 24 24" width="24" xmlns="http://www.w3.org/2000/svg">
<path d="M 7.5,8 C 7.1944416,8.0002312 7,8.1899999 7,8.5 l 0,2 c 0,0.676395 1,0.6528 1,0 l 0,-0.7929688 3.146484,3.1464848 c 0.451734,0.451734 1.157966,-0.274031 0.707032,-0.707032 L 8.7070312,9 9.5,9 c 0.668493,0 0.64918,-1 0,-1 z m 4,1 c -0.648966,0 -0.664517,1 0,1 l 0.5,0 c 1.662777,0 3,1.337223 3,3 0,1.662777 -1.337223,3 -3,3 -1.662777,0 -3,-1.337223 -3,-3 l 0,-0.5 c 0,-0.660612 -1,-0.656871 -1,0 L 8,13 c 0,2.203217 1.7967831,4 4,4 2.203217,0 4,-1.796783 4,-4 0,-2.203217 -1.796783,-4 -4,-4 z M 9.5,0 C 9.223,0 9,0.223 9,0.5 9,0.777 9.223,1 9.5,1 L 11,1 11,3.5 C 11,3.777 11.223,4 11.5,4 11.777,4 12,3.777 12,3.5 L 12,3 C 17.52877,3 22,7.4712301 22,13 22,18.52877 17.52877,23 12,23 6.4712301,23 2,18.52877 2,13 2,10.226949 3.0526571,7.6543741 4.8535156,5.8535156 5.3106802,5.4145809 4.579409,4.6955796 4.1464844,5.1464844 2.1470903,7.1458785 1,9.9740607 1,13 1,19.06921 5.9307901,24 12,24 18.06921,24 23,19.06921 23,13 23,6.9307901 18.06921,2 12,2 l 0,-1 1.5,0 C 13.777,1 14,0.777 14,0.5 14,0.223 13.777,0 13.5,0 Z"/>
</svg>