<svg fill="#000000" height="24" viewBox="0 0 24 24" width="24" xmlns="http://www.w3.org/2000/svg">
<path d="m 17.853206,23.853081 c 0.195744,-0.195873 0.195821,-0.511326 0,-0.707124 L 7.8568823,13.150812 c -0.1958202,-0.195797 -0.5109139,-0.195874 -0.7066582,0 -0.1957452,0.195873 -0.1958201,0.511326 0,0.707123 l 9.9963229,9.995146 c 0.19582,0.195797 0.510914,0.195873 0.706659,0 z M 17.853099,0.14694542 c -0.195833,-0.19596202 -0.511076,-0.19589244 -0.706979,0 L 6.1469002,11.145585 c -0.1959022,0.195891 -0.1958322,0.511482 0,0.707444 0.1958331,0.195962 0.5110768,0.195892 0.7069789,0 L 17.853099,0.85438945 c 0.195903,-0.19589245 0.195833,-0.51148202 0,-0.70744403 z"/>
</svg>