<svg fill="#000000" height="24" viewBox="0 0 24 24" width="24" xmlns="http://www.w3.org/2000/svg">
<path d="M 12,4 C 7.7490432,4 3.522834,5.4693913 0.18945312,8.1074219 -0.30687254,8.5 0.32153068,9.279449 0.81054688,8.8925781 3.9626922,6.3979771 7.9801674,5 12,5 16.019833,5 20.037308,6.3979771 23.189453,8.8925781 23.677961,9.2790099 24.320237,8.5106097 23.810547,8.1074219 20.477166,5.4693913 16.250957,4 12,4 Z m 0,5 C 9.1087205,9 6.2479821,10.144686 4.1542969,12.138672 3.7004608,12.572883 4.3777676,13.309029 4.8457031,12.861328 6.7473349,11.05025 9.3739371,10 12,10 c 2.626063,0 5.252666,1.05025 7.154297,2.861328 0.457827,0.438029 1.1534,-0.28064 0.691406,-0.722656 C 17.752018,10.144686 14.891279,9 12,9 Z m 0,5 c -0.791426,0 -1.576522,0.208905 -2.2636719,0.601562 -0.6871504,0.392658 -1.2661679,0.962688 -1.6679687,1.644532 -0.2950732,0.511082 0.5264471,1.08043 0.8632812,0.507812 C 9.2436658,16.22441 9.6988043,15.773674 10.232422,15.46875 10.766038,15.163826 11.385406,15 12,15 c 0.614594,0 1.233962,0.163826 1.767578,0.46875 0.533618,0.304924 0.988756,0.75566 1.300781,1.285156 0.343947,0.584802 1.166535,0.0076 0.863282,-0.507812 C 15.52984,15.56425 14.950822,14.99422 14.263672,14.601562 13.576522,14.208905 12.791426,14 12,14 Z m 1,5 c 0,0.552285 -0.447715,1 -1,1 -0.552285,0 -1,-0.447715 -1,-1 0,-0.552285 0.447715,-1 1,-1 0.552285,0 1,0.447715 1,1 z"/>
</svg>