<svg fill="#000000" height="24" viewBox="0 0 24 24" width="24" xmlns="http://www.w3.org/2000/svg">
<path d="m 10,22.5 c 0,0.894962 0.896913,1.5 2,1.5 1.102211,0 2,-0.604542 2,-1.5 0,-0.665149 -1,-0.649034 -1,0 0,0.106214 -0.288057,0.5 -1,0.5 -0.711067,0 -1,-0.398056 -1,-0.5 0,-0.663934 -1,-0.648973 -1,0 z M 12,0 c -1.713315,0 -3,1.2010505 -3,2.5 0,0.6861273 1,0.6307918 1,0 0,-0.6296278 0.751155,-1.5 2,-1.5 1.249883,0 2,0.8641709 2,1.5 0,0.6528888 1,0.6696093 1,0 C 15,1.1980332 13.712278,0 12,0 Z m -6.5004693,3 -0.5,0 c -1.662777,0 -3,1.3372234 -3,3 l 0,0.5 c 0.0037,0.2641563 -0.235817,0.5 -0.5,0.5 C 1.2353477,7 0.99579471,6.7641563 0.99953071,6.5 l 0,-0.5 c 0,-2.2032166 1.79678299,-4 3.99999999,-4 l 0.5,0 c 0.336809,0 0.502043,0.25 0.500458,0.5 C 5.9983887,2.75 5.8299997,3 5.4995307,3 Z M 18.5,3 19,3 c 1.662777,0 3,1.3372234 3,3 l 0,0.5 C 21.9963,6.7641563 22.235817,7 22.5,7 22.764183,7 23.003736,6.7641563 23,6.5 L 23,6 C 23,3.7967834 21.203217,2 19,2 L 18.5,2 C 18.163191,2 17.997957,2.25 17.999542,2.5 18.001127,2.75 18.169531,3 18.5,3 Z M 12,4 C 9.4721347,4 7.6196948,5.1039239 6.46875,6.71875 5.3178052,8.3335761 5,10.42072 5,12.5 5,16.422453 3.9575373,18.215879 2.125,20.15625 1.8646862,20.431123 2.0551206,21 2.5,21 l 19,0 c 0.460494,0 0.640855,-0.563026 0.375,-0.84375 C 20.042464,18.215879 19,16.422453 19,12.5 19,10.42072 18.682194,8.3335761 17.53125,6.71875 16.380306,5.1039239 14.527864,4 12,4 Z m 0,1 c 2.24864,0 3.730869,0.8952099 4.71875,2.28125 C 17.706631,8.6672901 18,10.578125 18,12.5 c 0,3.57102 1.061656,5.642074 2.5625,7.5 L 3.4375,20 C 4.9383445,18.142073 6,16.07102 6,12.5 6,10.578125 6.2933693,8.6672901 7.28125,7.28125 8.2691307,5.8952099 9.7513594,5 12,5 Z"/>
</svg>