<svg fill="#000000" height="24" viewBox="0 0 24 24" width="24" xmlns="http://www.w3.org/2000/svg">
<path d="m 9.5,5 5,0 C 14.777,5 15,5.223 15,5.5 15,5.777 14.777,6 14.5,6 l -5,0 C 9.223,6 9,5.777 9,5.5 9,5.223 9.223,5 9.5,5 Z M 3.5058594,5 C 2.6810986,5 2.1021847,5.697714 2.0097656,6.4375 l -1.99999997,16 C -0.10114607,23.325311 0.68109869,24 1.5058594,24 l 20.9882816,0 c 0.82476,0 1.607013,-0.674685 1.496093,-1.5625 l -2,-16 C 21.897815,5.6977142 21.318902,5 20.494141,5 L 18.5,5 c -0.656777,0 -0.66054,1 0,1 l 1.994141,0 c 0.282595,0 0.458975,0.202842 0.503906,0.5625 l 2,16 C 23.024487,22.774129 22.776734,23 22.494141,23 L 1.5058594,23 C 1.2232651,23 0.97551434,22.774133 1.0019531,22.5625 l 2,-16 C 3.046884,6.2028422 3.2232651,6 3.5058594,6 L 5.5,6 C 6.1527274,6 6.1762348,5 5.5,5 Z M 12,0 C 9.2444985,0 7,2.2444985 7,5 l 0,3.5 c 0,0.6527274 1,0.6761648 1,0 L 8,5 c 0,-2.2150613 1.7849387,-4 4,-4 2.215061,0 4,1.7849387 4,4 l 0,3.5 c 0,0.6723273 1,0.6566336 1,0 L 17,5 C 17,2.2444985 14.755501,0 12,0 Z"/>
</svg>