<svg fill="#000000" height="24" viewBox="0 0 24 24" width="24" xmlns="http://www.w3.org/2000/svg">
<path d="M 17.5,15 C 16.12521,15 15,16.12521 15,17.5 15,18.87479 16.12521,20 17.5,20 18.87479,20 20,18.87479 20,17.5 20,16.12521 18.87479,15 17.5,15 Z m 0,1 C 18.334349,16 19,16.665651 19,17.5 19,18.334349 18.334349,19 17.5,19 16.665651,19 16,18.334349 16,17.5 16,16.665651 16.665651,16 17.5,16 Z m -1,-5 c -0.276131,2.8e-5 -0.499972,0.223869 -0.5,0.5 l 0,1.802734 c -0.138601,0.04985 -0.273203,0.106731 -0.40625,0.169922 l -1.326172,-1.326172 c -0.195265,-0.195184 -0.511766,-0.195184 -0.707031,0 l -1.414063,1.414063 c -0.195184,0.195265 -0.195184,0.511766 0,0.707031 l 1.326172,1.326172 C 13.409719,15.726767 13.352344,15.861459 13.302734,16 L 11.5,16 c -0.276131,2.8e-5 -0.499972,0.223869 -0.5,0.5 l 0,2 c 2.8e-5,0.276131 0.223869,0.499972 0.5,0.5 l 1.802734,0 c 0.04985,0.138601 0.106731,0.273203 0.169922,0.40625 l -1.326172,1.326172 c -0.195184,0.195265 -0.195184,0.511766 0,0.707031 l 1.414063,1.414063 c 0.195265,0.195184 0.511766,0.195184 0.707031,0 l 1.326172,-1.326172 c 0.133017,0.06294 0.267709,0.120312 0.40625,0.169922 L 16,23.5 c 2.8e-5,0.276131 0.223869,0.499972 0.5,0.5 l 2,0 c 0.276131,-2.8e-5 0.499972,-0.223869 0.5,-0.5 l 0,-1.802734 c 0.138601,-0.04985 0.273203,-0.106731 0.40625,-0.169922 l 1.326172,1.326172 c 0.195265,0.195184 0.511766,0.195184 0.707031,0 l 1.414063,-1.414063 c 0.195184,-0.195265 0.195184,-0.511766 0,-0.707031 L 21.527344,19.40625 C 21.590281,19.273233 21.647656,19.138541 21.697266,19 L 23.5,19 c 0.276131,-2.8e-5 0.499972,-0.223869 0.5,-0.5 l 0,-2 c -2.8e-5,-0.276131 -0.223869,-0.499972 -0.5,-0.5 l -1.802734,0 c -0.04985,-0.138601 -0.106731,-0.273203 -0.169922,-0.40625 l 1.326172,-1.326172 c 0.195184,-0.195265 0.195184,-0.511766 0,-0.707031 l -1.414063,-1.414063 c -0.195265,-0.195184 -0.511766,-0.195184 -0.707031,0 L 19.40625,13.472656 C 19.273233,13.409719 19.138541,13.352344 19,13.302734 L 19,11.5 c -2.8e-5,-0.276131 -0.223869,-0.499972 -0.5,-0.5 z m 0.5,1 1,0 0,1.632812 c -9.8e-5,0.228087 0.15416,0.427337 0.375,0.484376 0.315529,0.08172 0.617604,0.207609 0.898438,0.373046 0.196606,0.115492 0.446442,0.08336 0.607421,-0.07813 l 1.205079,-1.205078 0.707031,0.707031 -1.205078,1.205079 c -0.160842,0.161459 -0.192165,0.411247 -0.07617,0.607421 0.166032,0.280741 0.290785,0.584773 0.373047,0.900391 0.05778,0.220066 0.256847,0.373379 0.484373,0.373052 L 23,17 l 0,1 -1.632812,0 c -0.228087,-9.8e-5 -0.427337,0.15416 -0.484376,0.375 -0.08172,0.315529 -0.207609,0.617604 -0.373046,0.898438 -0.115492,0.196606 -0.08336,0.446442 0.07813,0.607421 l 1.205078,1.205079 -0.707031,0.707031 -1.205079,-1.205078 c -0.161459,-0.160842 -0.411247,-0.192165 -0.607421,-0.07617 -0.280741,0.166032 -0.584773,0.290785 -0.900391,0.373047 C 18.152986,20.942553 17.999673,21.141615 18,21.369141 L 18,23 l -1,0 0,-1.632812 c 9.8e-5,-0.228087 -0.15416,-0.427337 -0.375,-0.484376 -0.315529,-0.08172 -0.617604,-0.207609 -0.898438,-0.373046 -0.196606,-0.115492 -0.446442,-0.08336 -0.607421,0.07813 l -1.205079,1.205078 -0.707031,-0.707031 1.205078,-1.205079 c 0.160842,-0.161459 0.192165,-0.411247 0.07617,-0.607421 -0.16603,-0.280746 -0.290783,-0.584778 -0.373045,-0.900396 C 14.057447,18.152982 13.858384,17.999672 13.630859,18 L 12,18 l 0,-1 1.632812,0 c 0.228087,9.8e-5 0.427337,-0.15416 0.484376,-0.375 0.08172,-0.315529 0.207609,-0.617604 0.373046,-0.898438 0.115492,-0.196606 0.08336,-0.446442 -0.07813,-0.607421 l -1.205078,-1.205079 0.707031,-0.707031 1.205079,1.205078 c 0.161459,0.160842 0.411247,0.192165 0.607421,0.07617 0.280741,-0.166032 0.584773,-0.290785 0.900391,-0.373047 C 16.847014,14.057447 17.000327,13.858385 17,13.630859 Z M 10,7 c -1.6509319,0 -3,1.3490681 -3,3 0,1.650932 1.3490681,3 3,3 1.650932,0 3,-1.349068 3,-3 0,-1.6509319 -1.349068,-3 -3,-3 z m 0,1 c 1.110492,0 2,0.8895082 2,2 0,1.110492 -0.889508,2 -2,2 C 8.8895082,12 8,11.110492 8,10 8,8.8895082 8.8895082,8 10,8 Z M 9,0 C 8.4546486,0 8,0.45464862 8,1 L 8,2.3359375 C 7.2946117,2.519655 6.6219481,2.797007 5.9921875,3.1640625 l -0.875,-0.875 c -0.3855762,-0.3855762 -1.0284863,-0.3855762 -1.4140625,0 L 2.2890625,3.703125 c -0.3855762,0.3855762 -0.3855762,1.0284863 0,1.4140625 l 0.875,0.875 C 2.7944442,6.6214429 2.5142218,7.2943374 2.328125,8 L 1,8 C 0.45464862,8 0,8.4546486 0,9 l 0,2 c 0,0.545351 0.45464862,1 1,1 l 1.3359375,0 c 0.1837175,0.705388 0.4610696,1.378052 0.828125,2.007812 l -0.875,0.875 c -0.3855756,0.385577 -0.385577,1.028487 0,1.414063 l 1.4140625,1.414063 c 0.3855765,0.385575 1.028486,0.385575 1.4140625,0 l 0.875,-0.875 C 6.621443,17.205556 7.2943373,17.485778 8,17.671875 L 8,19 c 0,0.545351 0.4546486,1 1,1 l 0.5,0 c 0.660612,0 0.652966,-1 0,-1 L 9,19 9,17.347656 C 9.0002926,17.110419 8.8338499,16.905629 8.6015625,16.857422 7.7252291,16.676606 6.8920941,16.33063 6.1464844,15.835938 5.9481709,15.703782 5.6841523,15.729939 5.515625,15.898438 L 4.4101562,17.003906 2.9960938,15.589844 4.0996094,14.486328 C 4.2676968,14.318589 4.2946317,14.055769 4.1640624,13.857422 3.672368,13.110573 3.3281928,12.276709 3.1503906,11.400391 3.1029905,11.167327 2.8979916,10.999897 2.6601562,11 L 1,11 1,9 2.6523438,9 C 2.8895808,9.0002928 3.0943706,8.83385 3.1425781,8.6015625 3.3233941,7.725229 3.6693699,6.8920942 4.1640625,6.1464844 4.2962181,5.9481709 4.2700615,5.6841523 4.1015625,5.515625 L 2.9960938,4.4101562 4.4101562,2.9960938 5.5136719,4.0996094 C 5.6814109,4.2676969 5.9442315,4.2946319 6.1425781,4.1640624 6.8894277,3.6723679 7.7232908,3.3281927 8.5996094,3.1503906 8.8326735,3.1029903 9.0001027,2.8979915 9,2.6601562 L 9,1 l 2,0 0,1.6523438 c -2.93e-4,0.2372371 0.16615,0.442027 0.398438,0.4902343 0.876333,0.180816 1.709468,0.5267918 2.455078,1.0214844 0.198313,0.1321554 0.462332,0.1059988 0.630859,-0.0625 l 1.105469,-1.1054687 1.414062,1.4140624 -1.103515,1.1035157 c -0.168087,0.1677397 -0.19502,0.4305603 -0.06445,0.6289062 0.491694,0.7468495 0.835869,1.5807128 1.013671,2.4570313 C 16.897012,8.8326726 17.10201,9.0001016 17.339844,9 L 19,9 19,9.5 c 0,0.668376 1,0.652726 1,0 L 20,9 C 20,8.4546486 19.545351,8 19,8 L 17.664062,8 C 17.480345,7.2946117 17.202993,6.6219481 16.835938,5.9921875 l 0.875,-0.875 c 0.385575,-0.3855765 0.385575,-1.028486 0,-1.4140625 L 16.296875,2.2890625 c -0.385576,-0.385577 -1.028486,-0.3855756 -1.414063,0 l -0.875,0.875 C 13.378557,2.7944442 12.705663,2.5142219 12,2.328125 L 12,1 C 12,0.45464862 11.545351,0 11,0 Z"/>
</svg>