<svg fill="#000000" height="24" viewBox="0 0 24 24" width="24" xmlns="http://www.w3.org/2000/svg">
<path d="M 5,3 C 3.9013528,3 3,3.9013528 3,5 3,6.0986472 3.9013528,7 5,7 6.0986472,7 7,6.0986472 7,5 7,3.9013528 6.0986472,3 5,3 Z M 5,4 C 5.5582071,4 6,4.4417929 6,5 6,5.5582071 5.5582071,6 5,6 4.4417929,6 4,5.5582071 4,5 4,4.4417929 4.4417929,4 5,4 Z m 8.5,3 C 13.389245,7.00167 13.261418,7.048398 13.174891,7.1175531 L 8.5,10.837953 6.8480715,9.1523579 C 6.6723214,8.9760774 6.3935993,8.9561092 6.194515,9.1055359 L 2.1990402,12.102142 c -0.5280177,0.396657 0.1069431,1.170931 0.6008818,0.799876 L 6.5,10.149267 l 1.6395776,1.70706 c 0.1799147,0.180064 0.4664578,0.19603 0.6652621,0.03707 L 13.5,8.1769047 16.130527,10.857459 c 0.470722,0.490217 1.196449,-0.23551 0.706232,-0.706233 L 13.840153,7.1546205 C 13.744599,7.0590229 13.635147,6.99793 13.5,7 Z m -11,8 14,0 c 0.277,0 0.5,0.223 0.5,0.5 0,0.277 -0.223,0.5 -0.5,0.5 l -14,0 C 2.223,16 2,15.777 2,15.5 2,15.223 2.223,15 2.5,15 Z M 1.5,0 C 0.67764862,0 0,0.67764862 0,1.5 l 0,16 C 0,18.322351 0.67764862,19 1.5,19 l 16,0 c 0.822351,0 1.5,-0.677649 1.5,-1.5 l 0,-16 C 19,0.67764862 18.322351,0 17.5,0 l -16,0 z m 0,1 16,0 C 17.785649,1 18,1.2143514 18,1.5 l 0,16 c 0,0.285649 -0.214351,0.5 -0.5,0.5 l -16,0 C 1.2143514,18 1,17.785649 1,17.5 L 1,1.5 C 1,1.2143514 1.2143514,1 1.5,1 Z m 19,4 C 20.157504,5 20,5.2476093 20,5.5 20,5.7523907 20.165812,6 20.5,6 l 2,0 C 22.785649,6 23,6.2143514 23,6.5 l 0,16 c 0,0.285649 -0.214351,0.5 -0.5,0.5 l -16,0 C 6.2143514,23 6,22.785649 6,22.5 l 0,-2 C 6.00478,20.161919 5.7523907,20 5.5,20 5.243703,20 4.9952187,20.161919 5,20.5 l 0,2 C 5,23.322351 5.6776486,24 6.5,24 l 16,0 c 0.822351,0 1.5,-0.677649 1.5,-1.5 l 0,-16 C 24,5.6776486 23.322351,5 22.5,5 Z"/>
</svg>