<svg fill="#000000" height="24" viewBox="0 0 24 24" width="24" xmlns="http://www.w3.org/2000/svg">
<path d="m 22.49812,11.999812 c -0.129729,-0.0036 -0.26661,-0.05752 -0.357308,-0.150339 L 11.5,1.206534 0.85867884,11.843614 C 0.40853567,12.312427 -0.31696496,11.58684 0.15181285,11.136819 L 11.143383,0.14634 c 0.195219,-0.19512 0.511648,-0.19512 0.706867,0 l 10.997428,10.996336 c 0.305443,0.298591 0.120816,0.857136 -0.349558,0.857136 z M 11.5,24 c 0.277,0 0.5,-0.223 0.5,-0.5 l 0,-20 C 12,3.223 11.777,3 11.5,3 11.223,3 11,3.223 11,3.5 l 0,20 c 0,0.277 0.223,0.5 0.5,0.5 z"/>
</svg>