<svg fill="#000000" height="24" viewBox="0 0 24 24" width="24" xmlns="http://www.w3.org/2000/svg">
<path d="M 9.515625,7 C 9.2321662,7 8.9998912,7.2176511 9,7.5 l 0,9 c 9.604e-4,0.432032 0.5124064,0.659608 0.8339844,0.371094 l 4.9999996,-4.5 c 0.219839,-0.198558 0.219839,-0.54363 0,-0.742188 L 9.8339844,7.1289062 C 9.7464128,7.0496971 9.6337049,7 9.515625,7 Z M 10,8.6210938 13.753906,12 10,15.378906 Z M 1.5,3 C 0.67764862,3 0,3.6776486 0,4.5 l 0,15 C 0,20.322351 0.67764862,21 1.5,21 l 21,0 c 0.822351,0 1.5,-0.677649 1.5,-1.5 l 0,-15 C 24,3.6776486 23.322351,3 22.5,3 Z m 0,1 21,0 C 22.785649,4 23,4.2143514 23,4.5 l 0,15 c 0,0.285649 -0.214351,0.5 -0.5,0.5 l -21,0 C 1.2143514,20 1,19.785649 1,19.5 L 1,4.5 C 1,4.2143514 1.2143514,4 1.5,4 Z"/>
</svg>