<svg fill="#000000" height="24" viewBox="0 0 24 24" width="24" xmlns="http://www.w3.org/2000/svg">
<path d="m 12.000188,22.5 c 0.0036,-0.129729 0.05752,-0.26849 0.150339,-0.359188 L 22.793466,11.5 12.156386,0.85867884 C 11.687573,0.40853567 12.41316,-0.31696496 12.863181,0.15181285 L 23.85366,11.143383 c 0.19512,0.195219 0.19512,0.511648 0,0.706867 L 12.857324,22.847678 C 12.558733,23.153121 12.000188,22.970374 12.000188,22.5 Z M 0,11.5 C 0,11.777 0.223,12 0.5,12 l 20,0 C 20.777,12 21,11.777 21,11.5 21,11.223 20.777,11 20.5,11 l -20,0 C 0.223,11 0,11.223 0,11.5 Z"/>
</svg>