<svg fill="#000000" height="24" viewBox="0 0 24 24" width="24" xmlns="http://www.w3.org/2000/svg">
<path d="m 0.5,3.0000669 c -0.33808067,-0.00478 -0.5,0.2476093 -0.5,0.5 0,0.2523907 0.16191933,0.5047813 0.5,0.5 l 2.6015625,0 2.4101563,10.6113281 c 0.00182,0.0065 0.00377,0.01306 0.00586,0.01953 0.085362,0.317062 0.2175641,0.635081 0.4550781,0.902344 C 6.2101703,15.800533 6.5830936,16.000067 7,16.000067 l 12,0 c 0.413443,0 0.788348,-0.186114 1.039062,-0.455078 0.250717,-0.268964 0.395911,-0.607897 0.455079,-0.962891 l 0.5,-3 c 0.109467,-0.658921 -0.878974,-0.823009 -0.988282,-0.164062 l -0.5,3 C 19.440817,14.808286 19.251336,15.000067 19,15.000067 l -12,0 c -0.3753721,-0.01089 -0.4389003,-0.33866 -0.515625,-0.625 L 3.9882812,3.3887388 C 3.9362607,3.1610498 3.7335558,2.9996967 3.5,3.0000669 Z m 20,0 c -1.927074,0 -3.5,1.5729257 -3.5,3.5 0,1.9270743 1.572926,3.5000001 3.5,3.5000001 1.927074,0 3.5,-1.5729258 3.5,-3.5000001 0,-1.9270743 -1.572926,-3.5 -3.5,-3.5 z m 0,1 c 1.386634,0 2.5,1.1133658 2.5,2.5 0,1.3866342 -1.113366,2.5 -2.5,2.5 -1.386634,0 -2.5,-1.1133658 -2.5,-2.5 0,-1.3866342 1.113366,-2.5 2.5,-2.5 z m 0,1 c -0.277,0 -0.5,0.223 -0.5,0.5 l 0,0.5 -0.5,0 c -0.277,0 -0.5,0.223 -0.5,0.5 0,0.277 0.223,0.5 0.5,0.5 l 0.5,0 0,0.5 c 0,0.277 0.223,0.5 0.5,0.5 0.277,0 0.5,-0.223 0.5,-0.5 l 0,-0.5 0.5,0 c 0.277,0 0.5,-0.223 0.5,-0.5 0,-0.277 -0.223,-0.5 -0.5,-0.5 l -0.5,0 0,-0.5 c 0,-0.277 -0.223,-0.5 -0.5,-0.5 z m -14,1 c -0.277,0 -0.5,0.223 -0.5,0.5 0,0.277 0.223,0.5 0.5,0.5 l 9,0 c 0.277,0 0.5,-0.223 0.5,-0.5 0,-0.277 -0.223,-0.5 -0.5,-0.5 z m 1,3 c -0.277,0 -0.5,0.223 -0.5,0.5 0,0.277 0.223,0.5000001 0.5,0.5000001 l 9,0 c 0.277,0 0.5,-0.2230001 0.5,-0.5000001 0,-0.277 -0.223,-0.5 -0.5,-0.5 z m 1,3.0000001 c -0.277,0 -0.5,0.223 -0.5,0.5 0,0.277 0.223,0.5 0.5,0.5 l 9,0 c 0.277,0 0.5,-0.223 0.5,-0.5 0,-0.277 -0.223,-0.5 -0.5,-0.5 z m -0.5,5 c -1.0986472,0 -1.9999999,0.901353 -2,2 1e-7,1.098647 0.9013528,2 2,2 1.0986472,0 1.9999999,-0.901353 2,-2 -10e-8,-1.098647 -0.9013528,-2 -2,-2 z m 9,0 c -1.098647,0 -2,0.901353 -2,2 0,1.098647 0.901353,2 2,2 1.098647,0 2,-0.901353 2,-2 0,-1.098647 -0.901353,-2 -2,-2 z m -9,1 c 0.5582071,0 1,0.441793 1,1 0,0.558207 -0.4417929,1 -1,1 -0.5582071,0 -1,-0.441793 -1,-1 0,-0.558207 0.4417929,-1 1,-1 z m 9,0 c 0.558207,0 1,0.441793 1,1 0,0.558207 -0.441793,1 -1,1 -0.558207,0 -1,-0.441793 -1,-1 0,-0.558207 0.441793,-1 1,-1 z"/>
</svg>