<svg fill="#000000" height="24" viewBox="0 0 24 24" width="24" xmlns="http://www.w3.org/2000/svg">
<path d="m 18,18.000067 c 3.315351,0 6,-2.684649 6,-6 0,-3.3153511 -2.684649,-6.0000001 -6,-6.0000001 l -2.5,0 c -0.338081,-0.00478 -0.5,0.247609 -0.5,0.5 0,0.252391 0.161919,0.504781 0.5,0.5 l 2.5,0 c 2.778648,0 5,2.221351 5,5.0000001 0,2.778648 -2.221352,5 -5,5 l -3,0 c -2.778649,0 -5.0000001,-2.221352 -5.0000001,-5 l 0,-0.5 c 0.0048,-0.338081 -0.247609,-0.5 -0.5,-0.5 -0.252391,0 -0.504781,0.161919 -0.5,0.5 l 0,0.5 c 0,3.315351 2.6846491,6 6.0000001,6 z M 6,6 c -3.3153514,0 -6,2.6846486 -6,6 0,3.315351 2.6846486,6 6,6 l 2.5,0 C 8.8380807,18.004781 9,17.752391 9,17.5 9,17.247609 8.8380807,16.995219 8.5,17 L 6,17 C 3.2213514,17 1,14.778649 1,12 1,9.2213514 3.2213514,7 6,7 l 3,0 c 2.778649,0 5,2.2213514 5,5 l 0,0.5 c -0.0048,0.338081 0.247609,0.5 0.5,0.5 0.252391,0 0.504781,-0.161919 0.5,-0.5 L 15,12 C 15,8.6846486 12.315351,6 9,6 Z"/>
</svg>