<svg fill="#000000" height="24" viewBox="0 0 24 24" width="24" xmlns="http://www.w3.org/2000/svg">
<path d="M 6.5,4 C 5.1252104,4 4,5.1252104 4,6.5 4,7.8747896 5.1252104,9 6.5,9 7.8747896,9 9,7.8747896 9,6.5 9,5.1252104 7.8747896,4 6.5,4 Z m 0,1 C 7.3343494,5 8,5.6656506 8,6.5 8,7.3343494 7.3343494,8 6.5,8 5.6656506,8 5,7.3343494 5,6.5 5,5.6656506 5.6656506,5 6.5,5 Z m 10,4.0000587 c -0.116822,0.00186 -0.244703,0.044622 -0.333232,0.1208368 L 9.5,14.806069 6.8622294,12.139865 c -0.1949345,-0.19477 -0.5109001,-0.19477 -0.7058347,0 l -3.9932304,3.99151 c -0.4899772,0.470254 0.2353772,1.195297 0.7058346,0.705531 L 6.5,13.203772 9.1513175,15.839028 c 0.1847192,0.184579 0.4805545,0.195626 0.6785372,0.02534 L 16.5,10.179196 l 4.631009,4.661959 c 0.470458,0.489746 1.195792,-0.235276 0.705835,-0.705531 L 16.845306,9.1462352 C 16.749806,9.0507312 16.635073,8.9979917 16.5,9.0000587 Z M 2.5,19 l 19,0 c 0.277,0 0.5,0.223 0.5,0.5 0,0.277 -0.223,0.5 -0.5,0.5 l -19,0 C 2.223,20 2,19.777 2,19.5 2,19.223 2.223,19 2.5,19 Z M 1.5,0 C 0.67764862,0 0,0.67764862 0,1.5 l 0,21 C 0,23.322351 0.67764862,24 1.5,24 l 21,0 c 0.822351,0 1.5,-0.677649 1.5,-1.5 l 0,-21 C 24,0.67764862 23.322351,0 22.5,0 l -21,0 z m 0,1 21,0 C 22.785649,1 23,1.2143514 23,1.5 l 0,21 c 0,0.285649 -0.214351,0.5 -0.5,0.5 l -21,0 C 1.2143514,23 1,22.785649 1,22.5 L 1,1.5 C 1,1.2143514 1.2143514,1 1.5,1 Z"/>
</svg>