<svg fill="#000000" height="24" viewBox="0 0 24 24" width="24" xmlns="http://www.w3.org/2000/svg">
<path d="m 23.848011,0.14300966 c -0.19822,-0.1921133 -0.514664,-0.18716944 -0.706785,0.0110422 L 13.14547,10.148934 c -0.448216,0.435673 0.256502,1.156966 0.706785,0.706722 l 9.995756,-9.99488146 c 0.202623,-0.19636256 0.202623,-0.52140236 0,-0.71776492 z M 10.853943,13.135942 c -0.198219,-0.192114 -0.514663,-0.187172 -0.706785,0.01104 l -9.995756,9.994885 c -0.45941743,0.446561 0.25473822,1.171701 0.70678404,0.706723 L 10.853942,13.853707 c 0.202623,-0.196362 0.202624,-0.521402 10e-7,-0.717765 z M 0.85820976,0.15351557 C 0.42020302,-0.28692124 -0.30011466,0.40571455 0.15140919,0.86025437 L 23.141754,23.84859 c 0.459434,0.468962 1.171898,-0.243439 0.706801,-0.706739 z"/>
</svg>