<svg fill="#000000" height="24" viewBox="0 0 24 24" width="24" xmlns="http://www.w3.org/2000/svg">
<path d="M 12,5 C 9.7967833,5 8,6.7967833 8,9 c 3e-7,2.203216 1.7967835,4 4,4 2.203217,0 4,-1.796784 4,-4 0,-2.2032167 -1.796783,-4 -4,-4 z m 0,1 c 1.662777,0 3,1.3372234 3,3 0,1.662776 -1.337224,3 -3,3 C 10.337224,12 9.0000002,10.662776 9,9 9,7.3372234 10.337223,6 12,6 Z M 12,0 C 6.4830748,0 2,4.4830748 2,10 c 0,3.222775 2.0816747,6.648703 4.3105469,9.320312 1.114436,1.335805 2.2736081,2.478624 3.2617187,3.298829 0.4940554,0.410102 0.9447654,0.738483 1.3378904,0.974609 C 11.303282,23.829876 11.603853,24 12,24 c 0.396147,0 0.696718,-0.170124 1.089844,-0.40625 0.393125,-0.236126 0.843835,-0.564507 1.33789,-0.974609 0.988111,-0.820205 2.147283,-1.963024 3.261719,-3.298829 C 19.918325,16.648703 22,13.222775 22,10 22,4.4830748 17.516925,0 12,0 Z m 0,1 c 4.976485,0 9,4.023515 9,9 0,2.777225 -1.927024,6.101297 -4.078125,8.679688 -1.075551,1.289195 -2.200913,2.396376 -3.132813,3.169921 -0.465949,0.386773 -0.884126,0.691204 -1.21289,0.888672 C 12.247408,22.935749 11.97388,23 12,23 12.02612,23 11.752592,22.935749 11.423828,22.738281 11.095064,22.540813 10.676887,22.236382 10.210938,21.849609 9.2790381,21.076064 8.1536757,19.968883 7.078125,18.679688 4.9270236,16.101297 3,12.777225 3,10 3,5.023515 7.023515,1 12,1 Z"/>
</svg>