<svg fill="#000000" height="24" viewBox="0 0 24 24" width="24" xmlns="http://www.w3.org/2000/svg">
<path d="M 15.143194,6.1505297 9.502116,11.793759 7.8576633,10.14868 c -0.438638,-0.438638 -1.162565,0.250388 -0.706342,0.706611 l 1.9976236,1.998386 c 0.1950624,0.195098 0.5112798,0.195098 0.7063422,0 L 15.849537,6.8571411 c 0.201166,-0.1965839 0.200533,-0.520476 8.01e-4,-0.7141416 -0.199732,-0.1936656 -0.51491,-0.1893467 -0.707144,0.00753 z M 1.5,1.0000729 c -0.82235138,0 -1.5,0.6776486 -1.5,1.5 L 0,17.500073 c 0,0.822351 0.67765622,1.49999 1.5,1.5 l 2.5,0 0,3.5 c 1.744e-4,0.445319 0.5385182,0.668294 0.8535156,0.353516 l 3.8535156,-3.853516 13.7929688,0 c 0.822351,0 1.5,-0.677649 1.5,-1.5 L 24,2.5000729 c 0,-0.8223514 -0.677649,-1.5 -1.5,-1.5 z m 0,1 21,0 c 0.285649,0 0.5,0.2143514 0.5,0.5 l 0,15.0000001 c 0,0.285649 -0.214351,0.5 -0.5,0.5 l -14,0 c -0.1325994,2.5e-5 -0.2597597,0.05272 -0.3535156,0.146484 L 5,21.293042 5,18.500073 c -2.76e-5,-0.276131 -0.2238691,-0.499972 -0.5,-0.5 l -3,0 c -0.2856562,-4e-6 -0.5,-0.214351 -0.5,-0.5 L 1,2.5000729 c 0,-0.2856486 0.2143514,-0.5 0.5,-0.5 z"/>
</svg>