<svg fill="#000000" height="24" viewBox="0 0 24 24" width="24" xmlns="http://www.w3.org/2000/svg">
<path d="M 5.5,4 C 5.1619193,3.9952187 5,4.2476093 5,4.5 5,4.7523907 5.1619193,5.0047813 5.5,5 l 17,0 C 22.785649,5 23,5.2143514 23,5.5 l 0,10 c -0.0048,0.338081 0.247609,0.5 0.5,0.5 0.252391,0 0.504781,-0.161919 0.5,-0.5 l 0,-10 C 24,4.6776486 23.322351,4 22.5,4 Z m -2,2 C 3.1619193,5.9952187 3,6.2476093 3,6.5 3,6.7523907 3.1619193,7.0047813 3.5,7 l 17,0 C 20.785649,7 21,7.2143514 21,7.5 l 0,10 c -0.0048,0.338081 0.247609,0.5 0.5,0.5 0.252391,0 0.504781,-0.161919 0.5,-0.5 l 0,-10 C 22,6.6776486 21.322351,6 20.5,6 Z m -2,2 C 0.67764862,8 0,8.6776486 0,9.5 l 0,10 C 0,20.322351 0.67764862,21 1.5,21 l 17,0 c 0.822351,0 1.5,-0.677649 1.5,-1.5 l 0,-10 C 20,8.6776486 19.322351,8 18.5,8 Z m 0,1 17,0 C 18.785649,9 19,9.2143514 19,9.5 l 0,10 c 0,0.285649 -0.214351,0.5 -0.5,0.5 l -17,0 C 1.2143514,20 1,19.785649 1,19.5 L 1,9.5 C 1,9.2143514 1.2143514,9 1.5,9 Z m 1,1 c -0.2761309,2.8e-5 -0.4999724,0.223869 -0.5,0.5 l 0,2 C 1.9952187,12.838081 2.2476093,13 2.5,13 2.7523907,13 3.0047813,12.838081 3,12.5 L 3,11 4.5,11 C 4.8380807,11.004781 5,10.752391 5,10.5 5,10.247609 4.8380807,9.9952187 4.5,10 Z m 7,0 C 7.020641,10 4.9999999,12.020641 5,14.5 4.9999999,16.979359 7.020641,19 9.5,19 11.979359,19 14,16.979359 14,14.5 14,12.020641 11.979359,9.9999999 9.5,10 Z m 6,1 1.5,0 0,1.5 c -0.0048,0.338081 0.247609,0.5 0.5,0.5 0.252391,0 0.504781,-0.161919 0.5,-0.5 l 0,-2 c -2.8e-5,-0.276131 -0.223869,-0.499972 -0.5,-0.5 l -2,0 c -0.347656,0 -0.5,0.208984 -0.5,0.5 0,0.291016 0.136719,0.5 0.5,0.5 z m -6,0 C 11.438919,11 13,12.561081 13,14.5 13,16.438919 11.438919,18 9.5,18 7.5610811,18 5.9999999,16.438919 6,14.5 5.9999999,12.561081 7.5610811,11 9.5,11 Z m 0,1 C 8.679663,12 8,12.679555 8,13.5 8,14.320445 8.679663,15 9.5,15 9.779794,15 10,15.212445 10,15.5 10,15.787555 9.779794,16 9.5,16 l -1,0 C 8.161919,15.9952 8,16.247609 8,16.5 8,16.752391 8.161919,17.004781 8.5,17 l 1,0 C 10.320336,17 11,16.320445 11,15.5 11,14.679555 10.320336,14 9.5,14 9.220205,14 9,13.787555 9,13.5 9,13.212445 9.220205,13 9.5,13 l 1,0 C 10.838081,13.0048 11,12.752391 11,12.5 11,12.247609 10.838081,11.995219 10.5,12 Z m -7,4 C 2.2177338,15.995583 1.9955834,16.217734 2,16.5 l 0,2 c 2.76e-5,0.276131 0.2238691,0.499972 0.5,0.5 l 2,0 C 4.8380807,19.004781 5,18.752391 5,18.5 5,18.247609 4.8380807,17.995219 4.5,18 L 3,18 3,16.5 C 3.0043206,16.223855 2.7761448,16.004309 2.5,16 Z m 15,0 c -0.276145,0.0043 -0.504321,0.223855 -0.5,0.5 l 0,1.5 -1.5,0 c -0.338081,-0.0048 -0.5,0.247609 -0.5,0.5 0,0.252391 0.161919,0.504781 0.5,0.5 l 2,0 c 0.276131,-2.8e-5 0.499972,-0.223869 0.5,-0.5 l 0,-2 c 0.0044,-0.282266 -0.217734,-0.504417 -0.5,-0.5 z"/>
</svg>