<svg fill="#000000" height="24" viewBox="0 0 24 24" width="24" xmlns="http://www.w3.org/2000/svg">
<path d="M 11.5,0 C 8.4683562,0 6,2.4683562 6,5.5 l 0,2 c 0,0.6722678 1,0.6484359 1,0 l 0,-2 C 7,3.0087964 9.0087964,1 11.5,1 13.991204,1 16,3.0087963 16,5.5 l 0,2 c 0,0.6682464 1,0.6563799 1,0 l 0,-2 C 17,2.4683563 14.531644,0 11.5,0 Z m 0,13 c -1.37479,0 -2.5000001,1.12521 -2.5,2.5 6.089e-4,0.769723 0.4060017,1.444602 1,1.914062 L 10,18.5 c 0,0.822351 0.677649,1.5 1.5,1.5 0.822351,0 1.5,-0.677649 1.5,-1.5 l 0,-1.087891 C 13.593505,16.943174 13.99864,16.268973 14,15.5 14,14.12521 12.87479,13 11.5,13 Z m 0,1 c 0.834349,0 1.5,0.66565 1.5,1.5 -9.47e-4,0.535746 -0.286029,1.027049 -0.75,1.294922 -0.154873,0.08943 -0.250198,0.254756 -0.25,0.433594 L 12,18.5 C 12,18.785649 11.785649,19 11.5,19 11.214351,19 11,18.785649 11,18.5 l 0,-1.269531 C 11.000198,17.051631 10.90487,16.886303 10.75,16.796875 10.285574,16.528739 10.000424,16.036273 10,15.5 10,14.66565 10.665651,14 11.5,14 Z M 4.5,9 C 3.6776486,9 3,9.6776486 3,10.5 l 0,12 C 3,23.322351 3.6776486,24 4.5,24 l 14,0 c 0.822351,0 1.5,-0.677649 1.5,-1.5 l 0,-12 C 20,9.6776486 19.322351,9 18.5,9 Z m 0,1 14,0 c 0.285649,0 0.5,0.214351 0.5,0.5 l 0,12 c 0,0.285649 -0.214351,0.5 -0.5,0.5 l -14,0 C 4.2143514,23 4,22.785649 4,22.5 l 0,-12 C 4,10.214351 4.2143514,10 4.5,10 Z"/>
</svg>