<svg fill="#000000" height="24" viewBox="0 0 24 24" width="24" xmlns="http://www.w3.org/2000/svg">
<path d="M 4,17 C 3.2851343,17 2.6202756,17.20987 2.0683594,17.646484 1.5155687,18.08379 1,18.789734 1,19.5 l 0,2 C 1,22.130331 0.64014718,22.707432 0.16796625,23.125 -0.14620242,23.439169 0,24 0.5,24 l 1,0 C 2.6686323,23.96411 3.9299554,23.798707 5.0214844,23.167969 5.5688971,22.851647 6.0650886,22.42072 6.4277344,21.875 6.7918263,21.327105 7,20.680304 7,20 7,19.213822 6.6631421,18.446617 6.1074219,17.892578 5.5519575,17.338793 4.7828476,17 4,17 Z m 0,1 c 0.5190919,0.012 1.0337534,0.236034 1.4003902,0.601562 C 5.7667712,18.966835 6,19.5 6,20 6,20.451109 5.8558562,20.927841 5.5937496,21.322266 5.3301966,21.718868 4.9536917,22.052984 4.521484,22.302734 3.659968,22.80056 2.5909174,22.964825 1.505859,23 1.7659998,22.552057 2,22.023001 2,21.5 l 0,-2 C 2,19.047832 2.3286313,18.713584 2.6875,18.429688 3.0472429,18.145099 3.5359663,17.989276 4,18 Z M 23.5,0 C 23.420883,-0.00139182 23.354284,0.01601211 23.283203,0.05078125 18.782646,2.2257771 14.541688,4.9374901 10.681641,8.1132812 9.7611177,8.8706268 8.8255672,9.6834274 8.09375,10.708984 7.4066993,11.671807 7,12.874808 7,14 7,14.799414 7.3350621,15.56955 7.8984375,16.125 8.4520946,16.670869 9.2114359,17 10,17 c 1.115534,0 2.318186,-0.372908 3.287109,-1.050781 1.036516,-0.725163 1.846068,-1.669815 2.59961,-2.59375 C 19.052064,9.4743646 21.763693,5.2249521 23.949219,0.71875 24.108585,0.39133565 23.864033,0.00882417 23.5,0 Z m -1.294922,1.7949219 c -2.005682,3.8625597 -4.341089,7.5569808 -7.091797,10.9296871 -0.74111,0.908693 -1.499196,1.775761 -2.40039,2.40625 C 11.927498,15.680332 10.884466,16 10,16 9.4973193,16 8.9673982,15.774752 8.6015625,15.414062 8.2317483,15.049451 8,14.511066 8,14 8,13.125192 8.3444517,12.078311 8.90625,11.291016 9.5476296,10.392197 10.413262,9.631373 11.318359,8.8867188 14.670638,6.1286864 18.351051,3.7928257 22.205078,1.7949219 Z"/>
</svg>