<svg fill="#000000" height="24" viewBox="0 0 24 24" width="24" xmlns="http://www.w3.org/2000/svg">
<path d="M 15.5,0 C 12.733333,0 11,2.25 11,4.5 11.000028,4.7761309 11.223869,4.9999724 11.5,5 13.75,5 16,3.2666667 16,0.5 15.999972,0.22386906 15.776131,2.7608953e-5 15.5,0 Z M 14.873047,1.1269531 C 14.618994,2.6011298 13.542215,3.3932946 12.304688,3.6953125 12.606705,2.4577852 13.39887,1.3810064 14.873047,1.1269531 Z M 8,5 C 6.3698545,5 4.8288363,5.6558572 3.7363281,7 2.64382,8.3441428 2,10.340519 2,13 c 0,2.691797 0.9007187,5.383129 2.0644531,7.431641 0.5818672,1.024255 1.229154,1.888188 1.8867188,2.515625 C 6.6087367,23.574702 7.2773908,24 8,24 9.0833333,24 9.815564,23.712614 10.390625,23.457031 10.965686,23.201449 11.361111,23 12,23 c 0.638889,0 1.034314,0.201449 1.609375,0.457031 C 14.184436,23.712614 14.916667,24 16,24 c 0.56701,0 1.094233,-0.285106 1.650391,-0.701172 0.556158,-0.416066 1.132543,-0.988604 1.689453,-1.669922 1.113819,-1.362635 2.149003,-3.157951 2.642578,-5 0.0603,-0.224181 -0.04162,-0.46038 -0.246094,-0.570312 C 20.417301,15.351135 20,14.39993 20,13 20,11.60281 20.42983,10.64957 21.738281,9.9394531 21.941135,9.8291007 22.042041,9.5941928 21.982422,9.3710938 21.609738,7.9802202 20.667601,6.8874266 19.556641,6.1464844 18.445681,5.4055422 17.161737,5 16,5 14.916667,5 14.277344,5.3027344 13.777344,5.5527344 13.277344,5.8027344 12.916667,6 12,6 11.083333,6 10.722656,5.8027344 10.222656,5.5527344 9.7226562,5.3027344 9.0833333,5 8,5 Z M 8,6 C 8.9166667,6 9.2773437,6.1972656 9.7773438,6.4472656 10.277344,6.6972656 10.916667,7 12,7 13.083333,7 13.722656,6.6972656 14.222656,6.4472656 14.722656,6.1972656 15.083333,6 16,6 c 0.921755,0 2.051254,0.3444578 3.001953,0.9785156 0.880258,0.587078 1.564234,1.3970056 1.902344,2.3959547 C 19.647079,10.250631 19,11.529946 19,13 c 0,1.474542 0.641384,2.797505 1.919922,3.672934 -0.470589,1.580912 -1.371632,3.121933 -2.353516,4.32316 -0.515929,0.631182 -1.046414,1.152394 -1.513672,1.501953 C 16.585477,22.847606 16.172723,23 16,23 15.083333,23 14.565564,22.787386 14.015625,22.542969 13.465686,22.298551 12.861111,22 12,22 11.138889,22 10.534314,22.298551 9.984375,22.542969 9.434436,22.787386 8.9166667,23 8,23 7.7226092,23 7.2037633,22.758129 6.6425781,22.222656 6.0813929,21.687183 5.4786797,20.893572 4.9355469,19.9375 3.8492813,18.025356 3,15.465583 3,13 3,10.5021 3.60618,8.7473715 4.5136719,7.6308594 5.4211637,6.5143473 6.6301455,6 8,6 Z"/>
</svg>