<svg fill="#000000" height="24" viewBox="0 0 24 24" width="24" xmlns="http://www.w3.org/2000/svg">
<path d="M 2.5,0 C 1.6775728,0 1,0.67756792 1,1.5 L 1,23 c 0,0.208818 0.047542,0.442624 0.1875,0.625 0.1399581,0.182376 0.3770333,0.294447 0.59375,0.34375 0.4334334,0.09861 0.8648157,-0.04412 1.4375,-0.28125 l 8.777344,-3.625 8.785156,3.625 c 0.607841,0.221509 1.004067,0.379856 1.4375,0.28125 0.216717,-0.0493 0.453792,-0.161374 0.59375,-0.34375 C 22.952458,23.442624 23,23.208818 23,23 L 23,1.5 C 23,0.67756792 22.322427,0 21.5,0 Z m 0,1 19,0 C 21.785573,1 22,1.2141191 22,1.5 L 22,23 c -0.06825,0.01553 -0.341152,-0.01143 -0.78125,-0.21875 L 12.214844,19.0625 c -0.138096,-0.06718 -0.299404,-0.06718 -0.4375,0 L 2.78125,22.78125 C 2.3411523,22.988565 2.068254,23.015528 2,23 L 2,1.5 C 2,1.2141191 2.2144272,1 2.5,1 Z m 3,3 C 5.223,4 5,4.223 5,4.5 5,4.777 5.223,5 5.5,5 l 13,0 C 18.777,5 19,4.777 19,4.5 19,4.223 18.777,4 18.5,4 Z m 0,3 C 5.223,7 5,7.223 5,7.5 5,7.777 5.223,8 5.5,8 l 13,0 C 18.777,8 19,7.777 19,7.5 19,7.223 18.777,7 18.5,7 Z m 0,3 C 5.223,10 5,10.223 5,10.5 5,10.777 5.223,11 5.5,11 l 13,0 C 18.777,11 19,10.777 19,10.5 19,10.223 18.777,10 18.5,10 Z"/>
</svg>