<svg fill="#000000" height="24" viewBox="0 0 24 24" width="24" xmlns="http://www.w3.org/2000/svg">
<path d="M 3,11.5 A 0.5,0.5 0 0 1 2.5,12 0.5,0.5 0 0 1 2,11.5 0.5,0.5 0 0 1 2.5,11 0.5,0.5 0 0 1 3,11.5 Z m 9,9 A 0.5,0.5 0 0 1 11.5,21 0.5,0.5 0 0 1 11,20.5 0.5,0.5 0 0 1 11.5,20 0.5,0.5 0 0 1 12,20.5 Z m 9,-9 A 0.5,0.5 0 0 1 20.5,12 0.5,0.5 0 0 1 20,11.5 0.5,0.5 0 0 1 20.5,11 0.5,0.5 0 0 1 21,11.5 Z m -9,-9 A 0.5,0.5 0 0 1 11.5,3 0.5,0.5 0 0 1 11,2.5 0.5,0.5 0 0 1 11.5,2 0.5,0.5 0 0 1 12,2.5 Z M 11.5,4 C 11.223,4 11,4.223 11,4.5 l 0,5.59375 c -0.579028,0.208482 -1,0.759409 -1,1.40625 0,0.822505 0.677495,1.5 1.5,1.5 0.646841,0 1.197768,-0.420972 1.40625,-1 L 16.5,12 C 16.777,12 17,11.777 17,11.5 17,11.223 16.777,11 16.5,11 l -3.59375,0 C 12.754386,10.578221 12.421779,10.245614 12,10.09375 L 12,4.5 C 12,4.223 11.777,4 11.5,4 Z m 0,7 C 11.782065,11 12,11.217935 12,11.5 12,11.782065 11.782065,12 11.5,12 11.217935,12 11,11.782065 11,11.5 11,11.217935 11.217935,11 11.5,11 Z m 0,-11 C 5.1546477,0 0,5.1546477 0,11.5 0,17.845352 5.1546477,23 11.5,23 17.845352,23 23,17.845352 23,11.5 23,5.1546477 17.845352,0 11.5,0 Z m 0,1 C 17.304912,1 22,5.6950878 22,11.5 22,17.304912 17.304912,22 11.5,22 5.6950878,22 1,17.304912 1,11.5 1,5.6950878 5.6950878,1 11.5,1 Z"/>
</svg>