<svg fill="#000000" height="24" viewBox="0 0 24 24" width="24" xmlns="http://www.w3.org/2000/svg">
<path d="M 1.5,2 C 0.67764862,2 0,2.6776486 0,3.5 l 0,17 C 0,21.322351 0.67764862,22 1.5,22 l 21,0 c 0.822351,0 1.5,-0.677649 1.5,-1.5 l 0,-14 A 0.50005,0.50005 0 0 0 23.5,6 L 11.707031,6 7.8535156,2.1464844 A 0.50005,0.50005 0 0 0 7.5,2 l -6,0 z m 0,1 5.7929688,0 3.8535152,3.8535156 A 0.50005,0.50005 0 0 0 11.5,7 L 23,7 23,20.5 c 0,0.285649 -0.214351,0.5 -0.5,0.5 l -21,0 C 1.2143514,21 1,20.785649 1,20.5 L 1,3.5 C 1,3.2143514 1.2143514,3 1.5,3 Z"/>
</svg>