<svg fill="#000000" height="24" viewBox="0 0 24 24" width="24" xmlns="http://www.w3.org/2000/svg">
<path d="M 3,11.5 A 0.5,0.5 0 0 1 2.5,12 0.5,0.5 0 0 1 2,11.5 0.5,0.5 0 0 1 2.5,11 0.5,0.5 0 0 1 3,11.5 Z M 4.5,5 C 4.777,5 5,5.223 5,5.5 l 0,12 C 5,17.777 4.777,18 4.5,18 4.223,18 4,17.777 4,17.5 L 4,5.5 C 4,5.223 4.223,5 4.5,5 Z M 1.5,3 C 0.67764862,3 0,3.6776486 0,4.5 l 0,14 C 0,19.322351 0.67764862,20 1.5,20 l 21,0 c 0.822351,0 1.5,-0.677649 1.5,-1.5 l 0,-14 C 24,3.6776486 23.322351,3 22.5,3 l -21,0 z m 0,1 21,0 C 22.785649,4 23,4.2143514 23,4.5 l 0,14 c 0,0.285649 -0.214351,0.5 -0.5,0.5 l -21,0 C 1.2143514,19 1,18.785649 1,18.5 L 1,4.5 C 1,4.2143514 1.2143514,4 1.5,4 Z"/>
</svg>