<svg fill="#000000" height="24" viewBox="0 0 24 24" width="24" xmlns="http://www.w3.org/2000/svg">
<path d="m 17.000017,13.5 c -0.0021,0.129265 -0.05441,0.260449 -0.145957,0.351842 l -0.996403,0.995205 c -0.445147,0.463008 -1.162533,-0.264326 -0.704488,-0.703642 l 0.644159,-0.643384 -0.644159,-0.643384 c -0.463747,-0.444724 0.261996,-1.163954 0.704488,-0.70364 L 16.85406,13.1482 c 0.09536,0.0952 0.148022,0.217148 0.145957,0.3518 z m -9.0000188,0 c 0.00206,0.129265 0.054409,0.260449 0.1459573,0.351842 l 0.9964019,0.995205 c 0.4447165,0.462561 1.1696456,-0.257505 0.704488,-0.703642 l -0.644159,-0.643384 0.644159,-0.643384 c 0.4673406,-0.44817 -0.2508501,-1.157278 -0.704488,-0.70364 L 8.1459555,13.1482 C 8.050594,13.243403 7.9979335,13.365348 7.9999982,13.5 Z M 12.5,18.000019 c -0.129265,-0.0021 -0.260432,-0.05441 -0.351825,-0.145957 L 11.15297,16.857659 c -0.460248,-0.442493 0.2412,-1.16693 0.703642,-0.704488 l 0.643384,0.644159 0.643384,-0.644159 c 0.431265,-0.449713 1.172568,0.253716 0.70364,0.704488 l -0.995203,0.996403 c -0.0952,0.09536 -0.217165,0.148022 -0.351817,0.145957 z m 0,-9.0000192 c -0.129265,0.00206 -0.260432,0.054409 -0.351825,0.1459573 L 11.15297,10.142359 c -0.463119,0.445253 0.238457,1.169673 0.703642,0.704488 l 0.643384,-0.644159 0.643384,0.644159 c 0.441964,0.46087 1.161194,-0.264649 0.70364,-0.704488 L 12.851817,9.1459571 C 12.756614,9.0505956 12.634652,8.9979351 12.5,8.9999998 Z M 12.5,11 C 12.223,11 12,11.223 12,11.5 l 0,1.5 -1.5,0 c -0.277,0 -0.5,0.223 -0.5,0.5 0,0.277 0.223,0.5 0.5,0.5 l 1.5,0 0,1.5 c 0,0.277 0.223,0.5 0.5,0.5 0.277,0 0.5,-0.223 0.5,-0.5 l 0,-1.5 1.5,0 C 14.777,14 15,13.777 15,13.5 15,13.223 14.777,13 14.5,13 L 13,13 13,11.5 C 13,11.223 12.777,11 12.5,11 Z M 1.5,3 C 0.67764862,3 0,3.6776486 0,4.5 l 0,15 C 0,20.322351 0.67764862,21 1.5,21 l 21,0 c 0.822351,0 1.5,-0.677649 1.5,-1.5 l 0,-15 C 24,3.6776486 23.322351,3 22.5,3 Z m 0,1 21,0 C 22.785649,4 23,4.2143514 23,4.5 l 0,15 c 0,0.285649 -0.214351,0.5 -0.5,0.5 l -21,0 C 1.2143514,20 1,19.785649 1,19.5 L 1,4.5 C 1,4.2143514 1.2143514,4 1.5,4 Z m 1,1 C 2.2238576,5 2,5.2238576 2,5.5 2,5.7761424 2.2238576,6 2.5,6 2.7761424,6 3,5.7761424 3,5.5 3,5.2238576 2.7761424,5 2.5,5 Z m 2,0 C 4.2238576,5 4,5.2238576 4,5.5 4,5.7761424 4.2238576,6 4.5,6 4.7761424,6 5,5.7761424 5,5.5 5,5.2238576 4.7761424,5 4.5,5 Z m 2,0 C 6.2238576,5 6,5.2238576 6,5.5 6,5.7761424 6.2238576,6 6.5,6 6.7761424,6 7,5.7761424 7,5.5 7,5.2238576 6.7761424,5 6.5,5 Z m -4,2 C 2.223,7 2,7.223 2,7.5 2,7.777 2.223,8 2.5,8 l 19,0 C 21.777,8 22,7.777 22,7.5 22,7.223 21.777,7 21.5,7 Z"/>
</svg>