<svg fill="#000000" height="24" viewBox="0 0 24 24" width="24" xmlns="http://www.w3.org/2000/svg">
<path d="M 2.5,9 C 2.2237189,9.0043087 1.995677,9.2238552 2,9.5 l 0,11 C 2,21.322351 2.6772434,22 3.5,22 l 5,0 C 8.7762671,21.999972 8.9999724,21.776131 9,21.5 L 9,16 C 9,14.329351 10.328108,13 11.999581,13 13.671053,13 15,14.329351 15,16 l 0,5.5 c 2.8e-5,0.276131 0.223733,0.499972 0.5,0.5 l 5,0 c 0.822756,0 1.499663,-0.677649 1.5,-1.5 l 0.0045,-11 C 22.0093,9.1619229 21.752518,9 21.5,9 21.247482,9 20.999227,9.1619229 21.004007,9.5 L 21,20.5 C 20.999896,20.785649 20.785789,21 20.5,21 L 16,21 16,16 C 16,13.792649 14.208019,12 11.999581,12 9.7911412,12 8.0010555,13.792649 8,16 l 0,5 -4.5,0 C 3.2142106,21 3,20.785649 3,20.5 L 3,9.5 C 3.004419,9.2177336 2.7824055,8.9955831 2.5,9 Z m 9.499581,-7 c -0.459386,0 -0.874901,0.1522796 -1.197856,0.2910156 -0.322955,0.138736 -0.558869,0.28125 -0.558869,0.28125 L 0.25942206,8.0585938 C -0.30029725,8.3817479 0.20171415,9.2327544 0.74208171,8.9355469 L 10.741149,3.4394531 c 0.0059,-0.00378 0.0118,-0.00769 0.01758,-0.011719 0,0 0.178711,-0.107486 0.437716,-0.21875 C 11.455454,3.0977204 11.789332,3 11.999581,3 c 0.210247,0 0.545509,0.097662 0.805084,0.2089844 0.259574,0.1113222 0.437715,0.2207031 0.437715,0.2207031 0.0058,0.00337 0.01166,0.00663 0.01759,0.00977 l 9.997112,5.4960938 c 0.58549,0.3235548 1.051202,-0.5659359 0.482653,-0.8769575 l -9.98148,-5.4863282 c 0,0 -0.237462,-0.1425722 -0.560822,-0.28125 C 12.874075,2.1523378 12.458966,2 11.999581,2 Z"/>
</svg>