<svg fill="#000000" height="24" viewBox="0 0 24 24" width="24" xmlns="http://www.w3.org/2000/svg">
<path d="M 1.5 3 C 0.67764862 3 0 3.6776486 0 4.5 L 0 19.5 C 0 20.322351 0.67764862 21 1.5 21 L 22.5 21 C 23.322351 21 24 20.322351 24 19.5 L 24 4.5 C 24 3.6776486 23.322351 3 22.5 3 L 1.5 3 z M 1.5 4 L 22.5 4 C 22.785649 4 23 4.2143514 23 4.5 L 23 19.5 C 23 19.785649 22.785649 20 22.5 20 L 1.5 20 C 1.2143514 20 1 19.785649 1 19.5 L 1 4.5 C 1 4.2143514 1.2143514 4 1.5 4 z M 2.5 5 C 2.2238576 5 2 5.2238576 2 5.5 C 2 5.7761424 2.2238576 6 2.5 6 C 2.7761424 6 3 5.7761424 3 5.5 C 3 5.2238576 2.7761424 5 2.5 5 z M 4.5 5 C 4.2238576 5 4 5.2238576 4 5.5 C 4 5.7761424 4.2238576 6 4.5 6 C 4.7761424 6 5 5.7761424 5 5.5 C 5 5.2238576 4.7761424 5 4.5 5 z M 6.5 5 C 6.2238576 5 6 5.2238576 6 5.5 C 6 5.7761424 6.2238576 6 6.5 6 C 6.7761424 6 7 5.7761424 7 5.5 C 7 5.2238576 6.7761424 5 6.5 5 z M 2.5 7 C 2.223 7 2 7.223 2 7.5 C 2 7.777 2.223 8 2.5 8 L 21.5 8 C 21.777 8 22 7.777 22 7.5 C 22 7.223 21.777 7 21.5 7 L 2.5 7 z "/>
</svg>