<svg fill="#000000" height="24" viewBox="0 0 24 24" width="24" xmlns="http://www.w3.org/2000/svg">
<path d="m 20.492188,4 c -0.129887,0.00207 -0.253871,0.054606 -0.345704,0.1464844 l -2,2 c -0.195184,0.1952649 -0.195184,0.5117663 0,0.7070312 l 3,3 c 0.195265,0.1951844 0.511767,0.1951844 0.707032,0 l 2,-2 c 0.195184,-0.1952649 0.195184,-0.5117663 0,-0.7070312 l -3,-3 C 20.757854,4.0507785 20.627489,3.9979278 20.492188,4 Z M 20.5,5.2070312 22.792969,7.5 21.5,8.7929688 19.207031,6.5 Z M 17.492188,7 C 17.362301,7.00207 17.238317,7.054606 17.146484,7.1464844 L 9.1464844,15.146484 C 9.0527162,15.24024 9.0000254,15.3674 9,15.5 l 0,3 c 2.76e-5,0.276131 0.2238691,0.499972 0.5,0.5 l 3,0 c 0.1326,-2.5e-5 0.25976,-0.05272 0.353516,-0.146484 l 8,-8 c 0.195185,-0.195265 0.195185,-0.511767 0,-0.707032 l -3,-2.9999996 C 17.757854,7.0507785 17.627489,6.9979278 17.492188,7 Z M 17.5,8.2070312 19.792969,10.5 12.292969,18 10,18 10,15.707031 Z M 3.5,10 l 8,0 c 0.277,0 0.5,0.223 0.5,0.5 0,0.277 -0.223,0.5 -0.5,0.5 l -8,0 C 3.223,11 3,10.777 3,10.5 3,10.223 3.223,10 3.5,10 Z m 0,-3 10,0 C 13.777,7 14,7.223 14,7.5 14,7.777 13.777,8 13.5,8 L 3.5,8 C 3.223,8 3,7.777 3,7.5 3,7.223 3.223,7 3.5,7 Z m 0,-3 10,0 C 13.777,4 14,4.223 14,4.5 14,4.777 13.777,5 13.5,5 L 3.5,5 C 3.223,5 3,4.777 3,4.5 3,4.223 3.223,4 3.5,4 Z M 1.5,0 C 0.67764862,0 0,0.67764862 0,1.5 l 0,21 C 0,23.322351 0.67764862,24 1.5,24 l 14,0 c 0.822351,0 1.5,-0.677649 1.5,-1.5 l 0,-5 c 0,-0.659319 -1,-0.6482 -1,0 l 0,5 c 0,0.285649 -0.214351,0.5 -0.5,0.5 l -14,0 C 1.2143514,23 1,22.785649 1,22.5 L 1,1.5 C 1,1.2143514 1.2143514,1 1.5,1 l 14,0 C 15.785649,1 16,1.2143514 16,1.5 l 0,4 c 0,0.6722672 1,0.6563798 1,0 l 0,-4 C 17,0.67764862 16.322351,0 15.5,0 Z"/>
</svg>