<svg fill="#000000" height="24" viewBox="0 0 24 24" width="24" xmlns="http://www.w3.org/2000/svg">
<path d="M 6.5,2 C 4.7906338,2 3.1636577,2.798627 1.9863281,3.984375 0.80690305,5.172233 0,6.8336287 0,8.5 c 0,1.936178 0.61531823,3.838397 1.7167969,5.423828 1.0897778,1.568592 2.5185789,2.827218 3.9746093,3.96875 1.9140577,1.500627 3.9489312,2.8538 6.0644528,4.042969 C 11.831708,21.97798 11.915854,22 12,22 c 0.08415,0 0.168292,-0.02202 0.244141,-0.06445 2.1161,-1.189494 4.141286,-2.542857 6.054687,-4.042969 1.456031,-1.141532 2.884831,-2.400158 3.97461,-3.96875 C 23.374083,12.339597 24,10.437957 24,8.5 24,6.8314587 23.182282,5.1711765 22.003906,3.984375 20.822107,2.7941262 19.162351,2 17.490234,2 16.32786,2 15.138776,2.2284587 14.085938,2.8027344 13.221017,3.2745094 12.572284,4.0332472 12,4.8300781 11.424635,4.0319247 10.768538,3.2741391 9.9042969,2.8027344 8.8544005,2.2300634 7.684034,2 6.5,2 Z m 0,1 c 1.0546704,0 2.0487905,0.2043472 2.9238281,0.6816406 0.8826049,0.481421 1.6399519,1.2078414 2.1445309,2.0703125 0.193082,0.33012 0.6702,0.33012 0.863282,0 C 12.937517,4.8872648 13.68505,4.1623807 14.566406,3.6816406 15.438502,3.2059519 16.45994,3 17.490234,3 18.837818,3 20.288516,3.675865 21.292969,4.6875 22.300845,5.7025823 23,7.1685413 23,8.5 c 0,1.722085 -0.559228,3.431931 -1.546875,4.853516 -0.998512,1.437226 -2.347165,2.637236 -3.771484,3.753906 C 15.885076,18.515934 13.978981,19.773341 12,20.902344 10.019661,19.773 8.1046162,18.515509 6.3085938,17.107422 4.8842742,15.990752 3.5356205,14.790741 2.5371094,13.353516 1.550296,11.93313 1,10.223864 1,8.5 1,7.1663713 1.6904387,5.7015258 2.6972656,4.6875 3.7061871,3.6713642 5.1064654,3 6.5,3 Z"/>
</svg>