<svg fill="#000000" height="24" viewBox="0 0 24 24" width="24" xmlns="http://www.w3.org/2000/svg">
<path d="m 7.5701719,0.0078125 c -0.3810634,0 -0.7524651,0.1411884 -1.0859375,0.32421875 C 6.0403533,0.57566087 5.6748009,0.93763681 5.4197813,1.3671875 5.1651348,1.7961099 5.0037656,2.2800501 5.0037656,2.7714844 c 0,0.4913099 0.070964,0.9778461 0.2597657,1.4238281 C 5.386178,4.4850261 5.5542199,4.7583422 5.7615782,5 L 1.5,5 C 0.67764862,5 0,5.6776486 0,6.5 l 0,3 C 0,10.322351 0.67764862,11 1.5,11 l 21,0 C 23.322351,11 24,10.322351 24,9.5 l 0,-3 C 24,5.6776486 23.322351,5 22.5,5 l -4.791157,0 c 0.03968,-0.063702 0.08296,-0.1239122 0.115235,-0.1933594 0.15264,-0.3284305 0.206405,-0.6928363 0.160156,-1.046875 C 17.938061,3.4063492 17.794006,3.0757291 17.577984,2.7988281 17.362307,2.5223663 17.08057,2.3088862 16.763531,2.171875 16.446945,2.0350594 16.105125,1.9980469 15.765484,1.9980469 c -0.560366,0 -1.052107,0.2685308 -1.455078,0.5820312 -0.400958,0.3119336 -0.696825,0.6855698 -0.964844,1.0273438 l -0.8125,1.0371093 -1.339844,-2.046875 C 10.841574,2.060421 10.469496,1.4839544 9.9529844,0.98632812 9.4311601,0.48358308 8.7548042,0.0078125 7.9529844,0.0078125 Z m 0.3085937,0.9980469 c 0.4857543,0 0.9758078,0.3108583 1.3789063,0.6992187 0.4084118,0.3934793 0.7478111,0.9019845 1.0996091,1.4394531 L 11.572125,5 8.4080625,5 C 8.1359586,5 7.8850919,4.9951615 7.6600156,4.9609375 7.4349787,4.9267225 7.2205954,4.8615555 7.0330625,4.7636719 6.663448,4.5707502 6.3571074,4.2168433 6.1834532,3.8066406 6.0509014,3.4935298 6.0018125,3.1514069 6.0018125,2.8183594 6.0018125,2.4748057 6.1130091,2.1548558 6.2791563,1.875 6.4449308,1.5957724 6.6861293,1.3618832 6.9647032,1.2089844 7.2425283,1.0564967 7.557923,1.0058594 7.8787656,1.0058594 Z m 7.9453124,1.9902344 c 0.186212,0 0.376821,0.021948 0.542969,0.09375 0.165692,0.071606 0.315981,0.1859772 0.423828,0.3242187 0.107505,0.1378019 0.179198,0.3083664 0.201172,0.4765625 0.02189,0.1675735 -0.0051,0.3455611 -0.07422,0.4941406 -0.09764,0.210104 -0.305551,0.3963243 -0.546875,0.4921875 -0.243795,0.096846 -0.561925,0.1171875 -0.927735,0.1171875 L 13.5,5 14.13267,4.2246094 C 14.395776,3.8891033 14.645375,3.585659 14.923687,3.3691406 15.199983,3.1541892 15.519725,2.9960938 15.824078,2.9960938 Z M 1.5,6 22.5,6 C 22.785649,6 23,6.2143514 23,6.5 l 0,3 C 23,9.7856486 22.785649,10 22.5,10 l -21,0 C 1.2143514,10 1,9.7856486 1,9.5 l 0,-3 C 1,6.2143514 1.2143514,6 1.5,6 Z m 9,1 C 10.223,7 10,7.223 10,7.5 l 0,1 C 10,8.777 10.223,9 10.5,9 10.777,9 11,8.777 11,8.5 l 0,-1 C 11,7.223 10.777,7 10.5,7 Z m 3,0 C 13.223,7 13,7.223 13,7.5 l 0,1 C 13,8.777 13.223,9 13.5,9 13.777,9 14,8.777 14,8.5 l 0,-1 C 14,7.223 13.777,7 13.5,7 Z m -11,5.000063 C 2.2238552,12.004363 1.9956794,12.224038 2,12.5 l 0,10 C 2,23.321806 2.6776486,24 3.5,24 l 16.999933,0 c 0.822351,0 1.5,-0.678194 1.5,-1.5 l 0,-10 c 0.0048,-0.337857 -0.247591,-0.5 -0.499986,-0.5 -0.252396,0 -0.504796,0.162143 -0.500014,0.5 l 0,10 c 0,0.28546 -0.214351,0.5 -0.5,0.5 l -6.5,0 0,-10.5 c 0,-0.276817 -0.223,-0.5 -0.5,-0.5 -0.277,0 -0.5,0.223183 -0.5,0.5 l 0,10.5 -2,0 0,-10.5 c 0,-0.276817 -0.223,-0.5 -0.5,-0.5 -0.277,0 -0.5000004,0.223183 -0.5000004,0.5 l 0,10.5 L 3.5,23.000664 C 3.2143514,23.000693 3,22.78546 3,22.5 l 0,-10 C 3.00442,12.217921 2.7822662,11.995648 2.5,12.000063 Z"/>
</svg>