<svg fill="#000000" height="24" viewBox="0 0 24 24" width="24" xmlns="http://www.w3.org/2000/svg">
<path d="m 11.999812,22.5 c -0.0036,-0.129729 -0.05752,-0.26849 -0.150339,-0.359188 L 1.206534,11.5 11.843614,0.85867884 C 12.312427,0.40853567 11.58684,-0.31696496 11.136819,0.15181285 L 0.14634,11.143383 c -0.19512,0.195219 -0.19512,0.511648 0,0.706867 L 11.142676,22.847678 C 11.441267,23.153121 11.999812,22.970374 11.999812,22.5 Z M 24,11.5 c 0,0.277 -0.223,0.5 -0.5,0.5 l -20,0 C 3.223,12 3,11.777 3,11.5 3,11.223 3.223,11 3.5,11 l 20,0 c 0.277,0 0.5,0.223 0.5,0.5 z"/>
</svg>