<svg fill="#000000" height="24" viewBox="0 0 24 24" width="24" xmlns="http://www.w3.org/2000/svg">
<path d="M 8.5,5 C 8.442928,5.0005567 8.3639773,5.01111 8.3101713,5.031194 L 0.95476714,7.8367455 C 0.17258509,8.1347066 -0.19513202,9.0413632 0.10329386,9.8058953 L 4.0976193,20.041575 c 0.2991957,0.766504 1.1928093,1.212504 1.9679359,0.803257 l 3.627998,-1.885253 C 10.337434,18.650668 9.8510957,17.758257 9.2454093,18.070538 L 5.6193599,19.95384 C 5.4170362,20.060663 5.1221231,19.923026 5.0192368,19.659443 L 4.7289176,18.916625 6.7065957,17.928151 C 7.1883285,17.697711 7.0339237,16.994628 6.5,17 6.421916,17.000998 6.3451665,17.0204 6.2759281,17.05654 L 4.3645572,17.98469 1.0249114,9.4257129 C 0.92125594,9.1601599 1.0392261,8.8700196 1.2899008,8.7745288 L 8.6492019,5.9728769 C 9.1966409,5.7641815 9.0494339,5 8.5,5 Z m 4,6 c -0.07862,-4.78e-4 -0.15233,0.01759 -0.222656,0.05273 l -2,1 c -0.5981949,0.267526 -0.09577,1.193599 0.46875,0.882813 l 1.53125,-0.765625 0.77539,1.552734 c 0.123137,0.246826 0.422886,0.347325 0.669922,0.22461 l 3.554688,-1.777344 0.755859,1.52539 c 0.283694,0.634346 1.229665,0.163427 0.894532,-0.445312 L 17.947266,11.27734 C 17.824129,11.030514 17.52438,10.930015 17.277344,11.05273 l -3.554688,1.777344 -0.77539,-1.552734 C 12.863449,11.108823 12.692143,11.001678 12.5,11 Z M 13.097837,3.1120791 C 12.357731,2.7981973 11.496373,3.1668057 11.19119,3.9280063 L 7.1089731,14.110044 c -0.3051832,0.761201 0.053209,1.64711 0.7933152,1.960992 l 8.9998747,3.816885 c 0.740105,0.313882 1.601463,-0.05473 1.906646,-0.815927 L 22.891027,8.8899558 C 23.19621,8.1287547 22.837813,7.2428453 22.097712,6.9289635 Z m -0.37111,0.9256398 8.999874,3.8168844 c 0.257081,0.1090289 0.370446,0.3892564 0.264438,0.6536642 L 18.465488,17.301845 8.5656265,13.103273 12.091178,4.3096946 C 12.197185,4.045287 12.469646,3.9286901 12.726727,4.0377189 Z m -4.5322111,9.9911951 9.8998621,4.198571 -0.185556,0.46282 c -0.106008,0.264409 -0.378468,0.381005 -0.635549,0.271977 L 8.2733989,15.145396 C 8.0163185,15.036368 7.9029532,14.756141 8.0089605,14.491733 Z M 14,6 c -1.098647,0 -2,0.9013528 -2,2 0,1.0986472 0.901353,2 2,2 1.098647,0 2,-0.9013528 2,-2 0,-1.0986472 -0.901353,-2 -2,-2 z m 0,1 c 0.558207,0 1,0.4417929 1,1 0,0.5582071 -0.441793,1 -1,1 C 13.441793,9 13,8.5582071 13,8 13,7.4417929 13.441793,7 14,7 Z M 4.5,9 C 3.6774952,9 3,9.6774952 3,10.5 3,11.322505 3.6774952,12 4.5,12 5.3225048,12 6,11.322505 6,10.5 6,9.6774952 5.3225048,9 4.5,9 Z m 0,1 C 4.7820647,10 5,10.217935 5,10.5 5,10.782065 4.7820647,11 4.5,11 4.2179353,11 4,10.782065 4,10.5 4,10.217935 4.2179353,10 4.5,10 Z m 2,2 C 6.2809908,11.9982 6.0921299,12.133196 6.0253906,12.341797 l -1,3 C 4.949507,15.569448 5.0724696,16 5.5,16 c 0.099449,0 0.3606771,0 0.4746094,-0.341797 l 1,-3 C 7.0869243,12.334743 6.8423961,12.002488 6.5,12 Z"/>
</svg>