<svg fill="#000000" height="24" viewBox="0 0 24 24" width="24" xmlns="http://www.w3.org/2000/svg">
<path d="m 12,4 c -1.650932,0 -3,1.3490681 -3,3 0,1.6509319 1.349068,3 3,3 1.650932,0 3,-1.3490681 3,-3 0,-1.6509319 -1.349068,-3 -3,-3 z m 0,1 c 1.110492,0 2,0.8895082 2,2 0,1.1104918 -0.889508,2 -2,2 C 10.889508,9 10,8.1104918 10,7 10,5.8895082 10.889508,5 12,5 Z M 12,0 C 8.139929,0 5,3.139929 5,7 c 0,2.4530427 1.4318126,5.122101 2.9628906,7.230469 0.765539,1.054184 1.5627,1.962946 2.2460934,2.621093 0.341697,0.329074 0.653679,0.595379 0.933594,0.791016 C 11.422494,17.838216 11.627153,18 12,18 c 0.372847,0 0.577506,-0.161784 0.857422,-0.357422 0.279915,-0.195637 0.591897,-0.461942 0.933594,-0.791016 0.683393,-0.658147 1.480554,-1.566909 2.246093,-2.621093 C 17.568187,12.122101 19,9.4530427 19,7 19,3.1399291 15.860071,0 12,0 Z m 0,1 c 3.319631,0 6,2.6803691 6,6 0,2.0469573 -1.308977,4.627899 -2.773438,6.644531 -0.73223,1.008316 -1.498126,1.880804 -2.128906,2.488281 -0.315389,0.303739 -0.609489,0.525855 -0.8125,0.691407 -0.197693,0.161216 -0.379443,0.15927 -0.570312,0 -0.20113,-0.167833 -0.497111,-0.387668 -0.8125,-0.691407 C 10.271564,15.525335 9.5056677,14.652847 8.7734375,13.644531 7.308977,11.627899 6,9.0469573 6,7 6,3.6803692 8.6803692,1 12,1 Z M 3.5,9 C 3.2621384,9 3.0388903,9.1882711 3.0058594,9.4238281 l -2,12.9999999 C 0.9366185,22.873894 1.1288751,23.295817 1.4160156,23.568359 1.7031561,23.840902 2.0868863,24 2.5,24 l 19,0 c 0.413114,0 0.796844,-0.159098 1.083984,-0.431641 0.287141,-0.272542 0.479597,-0.694496 0.410157,-1.144531 L 21,9.5 C 20.950573,9.1385855 20.741298,9 20.5,9 20.055577,9 19.979441,9.4037346 20.011719,9.5917969 l 1.99414,12.9843751 C 22.070207,22.912039 21.933654,23 21.5,23 l -19,0 C 2.1007016,23 1.947902,22.913 1.9941406,22.576172 l 2,-13.0000001 C 4.0219155,9.4109546 3.9382113,9 3.5,9 Z"/>
</svg>