<svg fill="#000000" height="24" viewBox="0 0 24 24" width="24" xmlns="http://www.w3.org/2000/svg">
<path d="M 1.5 0 C 0.67764862 0 0 0.67764862 0 1.5 L 0 20.5 C 0 21.322351 0.67764862 22 1.5 22 L 2 22 L 2 23.5 C 2.0000276 23.776131 2.2238691 23.999972 2.5 24 L 5.5 24 C 5.7761309 23.999972 5.9999724 23.776131 6 23.5 L 6 22 L 18 22 L 18 23.5 C 18.000027 23.776131 18.223869 23.999972 18.5 24 L 21.5 24 C 21.776131 23.999972 21.999972 23.776131 22 23.5 L 22 22 L 22.5 22 C 23.322351 22 24 21.322351 24 20.5 L 24 1.5 C 24 0.67764862 23.322351 0 22.5 0 L 1.5 0 z M 1.5 1 L 22.5 1 C 22.785649 1 23 1.2143514 23 1.5 L 23 20.5 C 23 20.785649 22.785649 21 22.5 21 L 1.5 21 C 1.2143514 21 1 20.785649 1 20.5 L 1 1.5 C 1 1.2143514 1.2143514 1 1.5 1 z M 3.5 4 A 0.5 0.5 0 0 0 3 4.5 A 0.5 0.5 0 0 0 3.5 5 A 0.5 0.5 0 0 0 4 4.5 A 0.5 0.5 0 0 0 3.5 4 z M 6.5 4 A 0.5 0.5 0 0 0 6 4.5 A 0.5 0.5 0 0 0 6.5 5 A 0.5 0.5 0 0 0 7 4.5 A 0.5 0.5 0 0 0 6.5 4 z M 9.5 4 A 0.5 0.5 0 0 0 9 4.5 A 0.5 0.5 0 0 0 9.5 5 A 0.5 0.5 0 0 0 10 4.5 A 0.5 0.5 0 0 0 9.5 4 z M 2.5 7 C 2.223 7 2 7.223 2 7.5 C 2 7.777 2.223 8 2.5 8 L 21.5 8 C 21.777 8 22 7.777 22 7.5 C 22 7.223 21.777 7 21.5 7 L 2.5 7 z M 6.5 11 A 0.5 0.5 0 0 0 6 11.5 A 0.5 0.5 0 0 0 6.5 12 A 0.5 0.5 0 0 0 7 11.5 A 0.5 0.5 0 0 0 6.5 11 z M 9.5 11 A 0.5 0.5 0 0 0 9 11.5 A 0.5 0.5 0 0 0 9.5 12 A 0.5 0.5 0 0 0 10 11.5 A 0.5 0.5 0 0 0 9.5 11 z M 12.5 11 A 0.5 0.5 0 0 0 12 11.5 A 0.5 0.5 0 0 0 12.5 12 A 0.5 0.5 0 0 0 13 11.5 A 0.5 0.5 0 0 0 12.5 11 z M 2.5 14 C 2.223 14 2 14.223 2 14.5 C 2 14.777 2.223 15 2.5 15 L 21.5 15 C 21.777 15 22 14.777 22 14.5 C 22 14.223 21.777 14 21.5 14 L 2.5 14 z M 3.5 18 A 0.5 0.5 0 0 0 3 18.5 A 0.5 0.5 0 0 0 3.5 19 A 0.5 0.5 0 0 0 4 18.5 A 0.5 0.5 0 0 0 3.5 18 z M 6.5 18 A 0.5 0.5 0 0 0 6 18.5 A 0.5 0.5 0 0 0 6.5 19 A 0.5 0.5 0 0 0 7 18.5 A 0.5 0.5 0 0 0 6.5 18 z M 9.5 18 A 0.5 0.5 0 0 0 9 18.5 A 0.5 0.5 0 0 0 9.5 19 A 0.5 0.5 0 0 0 10 18.5 A 0.5 0.5 0 0 0 9.5 18 z M 3 22 L 5 22 L 5 23 L 3 23 L 3 22 z M 19 22 L 21 22 L 21 23 L 19 23 L 19 22 z "/>
</svg>