<svg fill="#000000" height="24" viewBox="0 0 24 24" width="24" xmlns="http://www.w3.org/2000/svg">
<path d="M 10.5,15 C 9.6776486,15 9,15.677649 9,16.5 9,17.322351 9.6776486,18 10.5,18 11.322351,18 12,17.322351 12,16.5 12,15.677649 11.322351,15 10.5,15 Z m 0,1 C 10.785649,16 11,16.214351 11,16.5 11,16.785649 10.785649,17 10.5,17 10.214351,17 10,16.785649 10,16.5 10,16.214351 10.214351,16 10.5,16 Z m 0,-7 C 9.6776486,9 9,9.6776486 9,10.5 9,11.322351 9.6776486,12 10.5,12 11.322351,12 12,11.322351 12,10.5 12,9.6776486 11.322351,9 10.5,9 Z m 0,1 C 10.785649,10 11,10.214351 11,10.5 11,10.785649 10.785649,11 10.5,11 10.214351,11 10,10.785649 10,10.5 10,10.214351 10.214351,10 10.5,10 Z M 20,2 c -1.098647,0 -2,0.9013528 -2,2 0,1.0986472 0.901353,2 2,2 1.098647,0 2,-0.9013528 2,-2 0,-1.0986472 -0.901353,-2 -2,-2 z m 0,1 c 0.558207,0 1,0.4417929 1,1 0,0.5582071 -0.441793,1 -1,1 C 19.441793,5 19,4.5582071 19,4 19,3.4417929 19.441793,3 20,3 Z M 14,0 C 13.452866,0 12.585115,-0.09488077 11.966797,0.5234375 L 0.44140625,12.046875 c -0.58878787,0.588789 -0.58878858,1.559649 0,2.148437 l 9.36328125,9.363282 c 0.5887895,0.588787 1.5596485,0.588787 2.1484375,0 L 23.476562,12.033203 c 0.618309,-0.618318 0.517242,-1.48216 0.517579,-2.029297 L 24,0.5 C 23.999972,0.22386906 23.776131,2.7608953e-5 23.5,0 Z m 0,1 9,0 -0.0059,9.003906 c -3.78e-4,0.581503 -0.04486,1.142514 -0.22461,1.322266 l -11.523437,11.52539 c -0.209283,0.209283 -0.525091,0.209284 -0.734375,0 L 1.1484375,13.488281 c -0.20928202,-0.209282 -0.20928273,-0.525092 0,-0.734375 L 12.673828,1.2304688 C 12.85358,1.0507163 13.426438,1 14,1 Z m -7.5,12 8,0 c 0.277,0 0.5,0.223 0.5,0.5 0,0.277 -0.223,0.5 -0.5,0.5 l -8,0 C 6.223,14 6,13.777 6,13.5 6,13.223 6.223,13 6.5,13 Z"/>
</svg>