<svg fill="#000000" height="24" viewBox="0 0 24 24" width="24" xmlns="http://www.w3.org/2000/svg">
<path d="m 15.5,2 c -0.449403,9.07e-5 -0.656174,0.5508573 -0.353516,0.8535156 0,0 0.215947,0.2164974 0.4375,0.5488282 C 15.805538,3.7346745 16,4.1666667 16,4.5 16,4.5833333 15.915191,4.8824174 15.742188,5.2207031 15.569184,5.5589888 15.326241,5.9514549 15.078125,6.3417969 14.830009,6.7321389 14.576427,7.1196071 14.376953,7.4707031 14.177479,7.8217992 14,8.087521 14,8.5 14,8.9166667 14.249492,9.3590704 14.679688,9.6171875 15.109883,9.8753046 15.694444,10 16.5,10 c 0.694444,0 1.109883,0.125305 1.304688,0.242188 C 17.999492,10.35907 18,10.416667 18,10.5 c 0,0.15625 0.07449,0.321893 0.164062,0.419922 0.08957,0.09803 0.181814,0.147537 0.263672,0.183594 0.163717,0.07211 0.311037,0.09669 0.472657,0.11914 0.323239,0.04489 0.697654,0.05422 1.058593,0.08789 0.454198,0.04237 1.024202,0.157163 1.023438,0.271488 -0.0017,0.250735 -0.231792,0.566636 -0.697266,0.876952 C 19.807995,12.777092 19.138889,13 18.5,13 17.694444,13 17.109883,13.124695 16.679688,13.382812 16.249492,13.64093 16,14.083333 16,14.5 16,14.911486 15.80766,15 15.5,15 15.083333,15 14.725052,15.192917 14.458984,15.458984 14.192917,15.725052 14,16.083333 14,16.5 c 0,0.416667 0.153328,1.058328 0.630859,1.876953 0.477532,0.818625 1.289879,1.759847 2.611329,2.552735 0.548793,0.329284 1.064425,-0.530106 0.515624,-0.859376 C 16.57927,19.363187 15.891609,18.554422 15.494141,17.873047 15.096672,17.191672 15,16.583333 15,16.5 14.973471,16.201694 15.214595,16 15.5,16 15.916667,16 16.274948,15.807083 16.541016,15.541016 16.807083,15.274948 17,14.916667 17,14.5 17,14.41667 17.000508,14.35907 17.195312,14.242188 17.390117,14.125305 17.805556,14 18.5,14 19.361111,14 20.192005,13.722908 20.839844,13.291016 21.487682,12.859123 22,12.25 22,11.5 c 0,-0.25 -0.115017,-0.49985 -0.273438,-0.660156 -0.15842,-0.160307 -0.341108,-0.251813 -0.52539,-0.31836 -0.368564,-0.133092 -0.771411,-0.174635 -1.160156,-0.207031 -0.388746,-0.0324 -0.867025,-0.03502 -0.981445,-0.199174 C 18.877813,9.8545209 18.750508,9.6409296 18.320312,9.3828125 17.890117,9.1246954 17.305556,9 16.5,9 15.805556,9 15.390117,8.8746954 15.195312,8.7578125 14.93034,8.604831 15.078521,8.2584723 15.248047,7.9648438 15.423573,7.6558985 15.669991,7.2751759 15.921875,6.8789062 16.173759,6.4826366 16.430816,6.0707601 16.632812,5.6757812 16.834809,5.2808024 17,4.9166667 17,4.5 17,3.8333333 16.694462,3.2653255 16.416016,2.8476562 16.137569,2.429987 15.853516,2.1464844 15.853516,2.1464844 15.759309,2.0491156 15.635483,2 15.5,2 Z M 2.5,9 C 2.1619193,8.99522 2,9.2476096 2,9.5 2,9.7523904 2.1619193,10.004782 2.5,10 l 0.8496094,0 C 3.7277237,10 3.859375,11 4.5,11 l 1,0 C 5.8242257,11.0055 6,11.226375 6,11.5 L 6,13 c 0,0.429618 0.062692,0.87717 0.2832031,1.273438 C 6.5037147,14.669705 6.9585785,15 7.5,15 l 1,0 C 8.8161522,15.0053 9,15.234067 9,15.5 l 0,5 c 0,0.666667 0.4080868,1.137637 0.7773438,1.322266 C 10.146601,22.006894 10.5,22 10.5,22 10.838081,22.0048 11,21.752391 11,21.5 11,21.247609 10.838081,20.995219 10.5,21 10.5,21 10.353399,20.9931 10.222656,20.92773 10.091913,20.862363 10,20.833333 10,20.5 l 0,-5 C 10,15.077411 9.7950129,14.732513 9.53125,14.46875 9.2674871,14.204987 8.9225888,14 8.5,14 l -1,0 C 7.0896101,14 7,13.5 7,13 L 7,11.5 C 7,11.077411 6.7950129,10.732513 6.53125,10.46875 6.2674871,10.204987 5.9225888,10 5.5,10 L 5,10 C 4.5,10 4.4318252,9.6803071 4.171875,9.3339844 4.0492498,9.1706151 3.7946278,9 3.5,9 Z M 12,0 C 5.3785053,0 0,5.3785053 0,12 0,18.621495 5.3785053,24 12,24 18.621495,24 24,18.621495 24,12 24,5.3785053 18.621495,0 12,0 Z m 0,1 C 18.081055,1 23,5.9189454 23,12 23,18.081055 18.081055,23 12,23 5.9189454,23 1,18.081055 1,12 1,5.9189454 5.9189454,1 12,1 Z"/>
</svg>