<svg fill="#000000" height="24" viewBox="0 0 24 24" width="24" xmlns="http://www.w3.org/2000/svg">
<path d="m 0.5,5 2,0 C 2.777,5 3,5.223 3,5.5 3,5.777 2.777,6 2.5,6 l -2,0 C 0.223,6 0,5.777 0,5.5 0,5.223 0.223,5 0.5,5 Z m 0,4 2,0 C 2.777,9 3,9.223 3,9.5 3,9.777 2.777,10 2.5,10 l -2,0 C 0.223,10 0,9.777 0,9.5 0,9.223 0.223,9 0.5,9 Z m 0,4 2,0 C 2.777,13 3,13.223 3,13.5 3,13.777 2.777,14 2.5,14 l -2,0 C 0.223,14 0,13.777 0,13.5 0,13.223 0.223,13 0.5,13 Z M 5.5,2 C 4.6776486,2 4,2.6776486 4,3.5 l 0,13 c 0,0.822351 0.6776562,1.49999 1.5,1.5 l 2.5,0 0,3.5 c 1.744e-4,0.445319 0.5385182,0.668294 0.8535156,0.353516 L 12.707031,18 22.5,18 c 0.822351,0 1.5,-0.677649 1.5,-1.5 l 0,-13 C 24,2.6776486 23.322351,2 22.5,2 Z m 0,1 17,0 C 22.785649,3 23,3.2143514 23,3.5 l 0,13 c 0,0.285649 -0.214351,0.5 -0.5,0.5 l -10,0 c -0.132599,2.5e-5 -0.25976,0.05272 -0.353516,0.146484 L 9,20.292969 9,17.5 C 8.9999724,17.223869 8.7761309,17.000028 8.5,17 l -3,0 C 5.2143438,16.999996 5,16.785649 5,16.5 L 5,3.5 C 5,3.2143514 5.2143514,3 5.5,3 Z"/>
</svg>