<svg fill="#000000" height="24" viewBox="0 0 24 24" width="24" xmlns="http://www.w3.org/2000/svg">
<path d="m 4.5,16 c 0.4457675,0 0.6556273,-0.551405 0.353516,-0.853516 L 1.207031,11.5 4.853516,7.853516 C 5.3004665,7.4243407 4.5680085,6.7075012 4.146484,7.146484 l -4,4 c -0.195185,0.195265 -0.195185,0.511767 0,0.707032 l 4,4 C 4.240691,15.950886 4.364517,16 4.5,16 Z m 9,-4 -10,0 C 3.223,12 3,11.777 3,11.5 3,11.223 3.223,11 3.5,11 l 10,0 c 0.277,0 0.5,0.223 0.5,0.5 0,0.277 -0.223,0.5 -0.5,0.5 z M 7.5,0 C 6.6776486,0 6,0.67764862 6,1.5 l 0,5 c 0,0.6645874 1,0.6566336 1,0 l 0,-5 C 7,1.2143514 7.2143514,1 7.5,1 l 15,0 C 22.785649,1 23,1.2143514 23,1.5 l 0,21 c 0,0.285649 -0.214351,0.5 -0.5,0.5 l -15,0 C 7.2143514,23 7,22.785649 7,22.5 l 0,-6 c 0,-0.668351 -1,-0.652727 -1,0 l 0,6 C 6,23.322351 6.6776486,24 7.5,24 l 15,0 c 0.822351,0 1.5,-0.677649 1.5,-1.5 l 0,-21 C 24,0.67764862 23.322351,0 22.5,0 Z"/>
</svg>