<svg fill="#000000" height="24" viewBox="0 0 24 24" width="24" xmlns="http://www.w3.org/2000/svg">
<path d="m 12,8 c -2.2032162,-1e-7 -4,1.7967838 -4,4 0,2.203216 1.7967838,4 4,4 2.203216,0 4,-1.796784 4,-4 0,-2.2032161 -1.796784,-4 -4,-4 z m 0,1 c 1.662776,0 3,1.337224 3,3 0,1.662776 -1.337224,3 -3,3 -1.662776,0 -3,-1.337224 -3,-3 0,-1.662776 1.337224,-3 3,-3 z M 11.5,0 C 10.677649,0 10,0.67764862 10,1.5 l 0,1.8164062 C 9.0150617,3.5470523 8.0840082,3.9396256 7.2304688,4.4824219 L 6.0019531,3.1738281 C 5.4262323,2.5606352 4.4507024,2.5805477 3.8691406,3.1621094 L 3.1621094,3.8691406 C 2.5805477,4.4507024 2.5606351,5.4262323 3.1738281,6.0019531 L 4.4804688,7.2304688 C 3.9407906,8.0844758 3.5482759,9.0157458 3.3203125,10 L 1.5,10 C 0.67764862,10 0,10.677649 0,11.5 l 0,1 C 0,13.322351 0.67764862,14 1.5,14 l 1.8144531,0 c 0.2263068,0.966072 0.607627,1.88205 1.1347657,2.722656 l -1.2871094,1.28711 c -0.5814447,0.581444 -0.5814441,1.539648 0,2.121093 l 0.7070312,0.707032 c 0.5814445,0.581445 1.539649,0.581445 2.1210938,0 L 7.2734375,19.554688 C 8.1160595,20.079032 9.0329176,20.458704 10,20.681641 L 10,22.5 c 0,0.822351 0.677649,1.5 1.5,1.5 l 1,0 c 0.822351,0 1.5,-0.677649 1.5,-1.5 l 0,-1.814453 c 0.966072,-0.226307 1.88205,-0.607627 2.722656,-1.134766 l 1.28711,1.28711 c 0.581444,0.581443 1.539648,0.581445 2.121093,0 l 0.707032,-0.707032 c 0.581445,-0.581445 0.581443,-1.539649 0,-2.121093 L 19.554688,16.726562 C 20.079032,15.88394 20.458704,14.967082 20.681641,14 L 22.5,14 c 0.822351,0 1.5,-0.677649 1.5,-1.5 l 0,-1 C 24,10.677649 23.322351,10 22.5,10 l -1.814453,0 C 20.45924,9.0339275 20.07792,8.1179502 19.550781,7.2773438 l 1.28711,-1.2871094 c 0.581445,-0.5814448 0.581445,-1.5396493 0,-2.1210938 L 20.130859,3.1621094 c -0.581445,-0.5814441 -1.539649,-0.5814447 -2.121093,0 L 16.726562,4.4453125 C 15.88394,3.9209682 14.967082,3.5412955 14,3.3183594 L 14,1.5 C 14,0.67764862 13.322351,0 12.5,0 l -1,0 z m 0,1 1,0 C 12.785649,1 13,1.2143514 13,1.5 l 0,2.140625 a 0.50005,0.50005 0 0 0 0.412109,0.4921875 c 1.133631,0.2022204 2.210219,0.6462011 3.15625,1.3027344 a 0.50005,0.50005 0 0 0 0.638672,-0.056641 l 1.509766,-1.5097656 c 0.202029,-0.2020293 0.505001,-0.2020301 0.707031,0 l 0.707031,0.7070313 c 0.202031,0.2020299 0.202031,0.5050008 0,0.7070312 l -1.515625,1.515625 a 0.50005,0.50005 0 0 0 -0.05664,0.640625 c 0.659713,0.9434515 1.108141,2.0178016 1.314453,3.1503912 A 0.50005,0.50005 0 0 0 20.365234,11 L 22.5,11 c 0.285649,0 0.5,0.214351 0.5,0.5 l 0,1 c 0,0.285649 -0.214351,0.5 -0.5,0.5 l -2.140625,0 a 0.50005,0.50005 0 0 0 -0.492187,0.412109 c -0.202221,1.133631 -0.646201,2.210219 -1.302735,3.15625 a 0.50005,0.50005 0 0 0 0.05664,0.638672 l 1.509765,1.509766 c 0.202031,0.202031 0.202031,0.505 0,0.707031 l -0.707031,0.707031 c -0.202031,0.202031 -0.505,0.202031 -0.707031,0 l -1.515625,-1.515625 a 0.50005,0.50005 0 0 0 -0.640625,-0.05664 c -0.943452,0.659713 -2.017802,1.10814 -3.150391,1.314453 A 0.50005,0.50005 0 0 0 13,20.365234 L 13,22.5 c 0,0.285649 -0.214351,0.5 -0.5,0.5 l -1,0 C 11.214351,23 11,22.785649 11,22.5 l 0,-2.140625 A 0.50005,0.50005 0 0 0 10.587891,19.867188 C 9.4542603,19.664967 8.3776718,19.220986 7.4316406,18.564453 a 0.50005,0.50005 0 0 0 -0.6386718,0.05664 l -1.5097657,1.509765 c -0.2020304,0.202031 -0.5050013,0.202031 -0.7070312,0 l -0.7070313,-0.70703 c -0.2020301,-0.20203 -0.2020293,-0.505002 0,-0.707031 l 1.515625,-1.515625 a 0.50005,0.50005 0 0 0 0.056641,-0.640625 C 4.7816925,15.617095 4.3332656,14.542745 4.1269531,13.410156 A 0.50005,0.50005 0 0 0 3.6347656,13 L 1.5,13 C 1.2143514,13 1,12.785649 1,12.5 l 0,-1 C 1,11.214351 1.2143514,11 1.5,11 l 2.140625,0 A 0.50005,0.50005 0 0 0 4.1328125,10.587891 C 4.3397901,9.4338302 4.79778,8.3402033 5.4746094,7.3828125 A 0.50005,0.50005 0 0 0 5.4082031,6.7285156 L 3.8574219,5.2714844 C 3.6628481,5.088801 3.6672281,4.7780845 3.8691406,4.5761719 L 4.5761719,3.8691406 C 4.7780845,3.6672281 5.0888008,3.662848 5.2714844,3.8574219 l 1.4589844,1.5546875 a 0.50005,0.50005 0 0 0 0.6542968,0.066406 C 8.340809,4.7986711 9.4356749,4.3369571 10.589844,4.1269531 A 0.50005,0.50005 0 0 0 11,3.6347656 L 11,1.5 C 11,1.2143514 11.214351,1 11.5,1 Z"/>
</svg>