<svg fill="#000000" height="24" viewBox="0 0 24 24" width="24" xmlns="http://www.w3.org/2000/svg">
<path d="m 15.50015,8.9805249 c 0.295444,0.0039 0.526777,0.2819119 0.493313,0.5757546 l -0.99832,9.9925065 c -0.06424,0.655827 -1.059421,0.565975 -0.994422,-0.09759 L 14.999042,9.4586925 C 15.020584,9.1966244 15.237469,8.976584 15.50015,8.9805249 Z M 8.5029083,9 C 8.2074635,9.0039 7.9730718,9.2624365 8.0065358,9.5562793 l 0.9983209,9.9925067 c 0.064999,0.663565 1.0594203,0.565975 0.9944217,-0.09759 L 9.000957,9.4586925 C 8.9794099,9.1966244 8.7655881,8.9960593 8.5029083,9 Z M 9.5,0 C 8.678332,0 8,0.67764862 8,1.5 L 8,3 4.5,3 C 4.2232302,3 4,3.223 4,3.5 4,3.777 4.2232302,4 4.5,4 l 15,0 C 19.77677,4 20,3.777 20,3.5 20,3.223 19.77677,3 19.5,3 L 16,3 16,1.5 C 16,0.67764862 15.321668,0 14.5,0 Z m 0,1 5,0 C 14.785412,1 15,1.2143514 15,1.5 L 15,3 9,3 9,1.5 C 9,1.2143514 9.2145888,1 9.5,1 Z m -4,4 C 4.67576,5 3.8996437,5.6745019 4.0105507,6.5625 l 1.998338,16 C 6.1012983,23.302391 6.6757601,24 7.5,24 l 9,0 c 0.82424,0 1.398696,-0.697614 1.491111,-1.4375 l 1.998338,-16 C 20.100356,5.6745019 19.32424,5 18.5,5 Z m 0,1 13,0 c 0.28284,0 0.524494,0.2260543 0.498085,0.4375 l -1.998338,16 C 16.954837,22.797058 16.78284,23 16.5,23 l -9,0 C 7.2171606,23 7.0451585,22.797053 7.0002518,22.4375 l -1.998338,-16 C 4.9755051,6.2260543 5.2171607,6 5.5,6 Z"/>
</svg>