<svg fill="#000000" height="24" viewBox="0 0 24 24" width="24" xmlns="http://www.w3.org/2000/svg">
<path d="m 19.5,0 c -0.129887,0.00207082 -0.261683,0.05460608 -0.353516,0.14648438 l -2,2.00000002 c -0.195184,0.1952649 -0.195184,0.5117663 0,0.7070312 l 4,4 c 0.195265,0.1951847 0.511767,0.1951847 0.707032,0 l 2,-2 c 0.195184,-0.1952649 0.195184,-0.5117663 0,-0.7070312 l -4,-4.00000002 C 19.757854,0.0507785 19.635301,-0.00207218 19.5,0 Z m 0,1.2070312 L 22.792969,4.5 21.5,5.7929688 18.207031,2.5 Z M 15.5,4 c -0.129887,0.00207 -0.261683,0.054606 -0.353516,0.1464844 L 0.14648438,19.146484 C 0.05271616,19.24024 2.5424639e-5,19.3674 0,19.5 l 0,4 c 2.7608953e-5,0.276131 0.22386906,0.499972 0.5,0.5 l 4,0 c 0.1325994,-2.5e-5 0.2597597,-0.05272 0.3535156,-0.146484 L 19.853516,8.8535156 c 0.195184,-0.1952649 0.195184,-0.5117663 0,-0.7070312 l -4,-4 C 15.757854,4.0507785 15.635301,3.9979278 15.5,4 Z m 0,1.2070312 L 18.792969,8.5 4.2929688,23 1,23 1,19.707031 Z"/>
</svg>