<svg fill="#000000" height="24" viewBox="0 0 24 24" width="24" xmlns="http://www.w3.org/2000/svg">
<path d="m 14.5,2.0000598 c -0.129916,0.00205 -0.261732,0.054596 -0.353516,0.1464844 L 11.501953,4.7871692 9.8574219,3.144591 c -0.1949301,-0.1939838 -0.510148,-0.1939838 -0.7050781,0 L 7.1542969,5.1406848 C 6.6802502,5.5635286 7.432292,6.3229155 7.859375,5.8457629 L 9.5039062,4.2031848 11.150391,5.8457629 c 0.19493,0.1939837 0.510148,0.1939837 0.705078,0 L 14.5,3.2051379 l 2.644531,2.640625 c 0.19493,0.1939837 0.510148,0.1939837 0.705078,0 L 19.5,4.2031848 21.140625,5.8457629 C 21.57026,6.3257683 22.321926,5.565469 21.845703,5.1406848 L 19.847656,3.144591 c -0.19493,-0.1939837 -0.510148,-0.1939837 -0.705078,0 L 17.5,4.7871692 14.853516,2.1465442 C 14.757906,2.0508272 14.63533,1.9979672 14.5,2.0000598 Z m -14,2 c -0.33808067,-0.00478 -0.5,0.2476093 -0.5,0.5 0,0.2523907 0.16191933,0.5047813 0.5,0.5 l 2.6015625,0 2.4101563,10.6113282 c 0.00182,0.0065 0.00377,0.01306 0.00586,0.01953 0.085362,0.317062 0.2175641,0.635081 0.4550781,0.902344 C 6.2101689,16.800528 6.5830936,17.00006 7,17.00006 l 13.462891,0 c 0.417679,0 0.790276,-0.203785 1.02539,-0.470703 0.235115,-0.266918 0.365806,-0.580499 0.455078,-0.890625 L 23.958984,8.6387317 C 24.094298,8.1686594 23.880424,7.7055328 23.582031,7.4317004 23.283639,7.157868 22.917679,7.0000598 22.5,7.0000598 l -16,0 c -0.3380805,-0.00478 -0.5,0.2476096 -0.5,0.5 0,0.2523903 0.1619195,0.5047813 0.5,0.5 l 15.978516,0 c 0.354295,0 0.569612,0.1744238 0.519531,0.3613281 l -2.015625,7.0000001 c -0.124355,0.464098 -0.285587,0.638672 -0.519531,0.638672 L 7,16.00006 c -0.3516868,0 -0.4230948,-0.279673 -0.515625,-0.625 L 3.9882812,4.3887317 C 3.9362609,4.1610427 3.7335558,3.9996896 3.5,4.0000598 Z m 7,6.0000002 c -0.277,0 -0.5,0.223 -0.5,0.5 0,0.277 0.223,0.5 0.5,0.5 l 13,0 c 0.277,0 0.5,-0.223 0.5,-0.5 0,-0.277 -0.223,-0.5 -0.5,-0.5 z m 1,3 c -0.277,0 -0.5,0.223 -0.5,0.5 0,0.277 0.223,0.5 0.5,0.5 l 11,0 c 0.277,0 0.5,-0.223 0.5,-0.5 0,-0.277 -0.223,-0.5 -0.5,-0.5 z m -0.5,5 c -1.0986472,0 -1.9999999,0.901353 -2,2 1e-7,1.098647 0.9013528,2 2,2 1.0986472,0 1.9999999,-0.901353 2,-2 -10e-8,-1.098647 -0.9013528,-2 -2,-2 z m 11,0 c -1.098647,0 -2,0.901353 -2,2 0,1.098647 0.901353,2 2,2 1.098647,0 2,-0.901353 2,-2 0,-1.098647 -0.901353,-2 -2,-2 z m -11,1 c 0.5582071,0 1,0.441793 1,1 0,0.558207 -0.4417929,1 -1,1 -0.5582071,0 -1,-0.441793 -1,-1 0,-0.558207 0.4417929,-1 1,-1 z m 11,0 c 0.558207,0 1,0.441793 1,1 0,0.558207 -0.441793,1 -1,1 -0.558207,0 -1,-0.441793 -1,-1 0,-0.558207 0.441793,-1 1,-1 z"/>
</svg>