<svg fill="#000000" height="24" viewBox="0 0 24 24" width="24" xmlns="http://www.w3.org/2000/svg">
<path d="m 21.484375,0 c -0.03897,0.00134698 -0.07764,0.00724642 -0.115234,0.01757813 l -11,2.99999997 C 10.151329,3.0766601 10.000085,3.2743168 10,3.5 l 0,14.816406 C 9.8803118,18.199977 9.7647118,18.08037 9.6289062,17.978516 8.8073881,17.362377 7.705902,17 6.5,17 5.294098,17 4.1926121,17.362377 3.3710938,17.978516 2.5495754,18.594654 2,19.491426 2,20.5 2,21.508574 2.5495753,22.405346 3.3710938,23.021484 4.1926119,23.637623 5.294098,24 6.5,24 7.705902,24 8.8073881,23.637623 9.6289062,23.021484 10.450425,22.405346 11,21.508574 11,20.5 L 11,3.8828125 21,1.1542969 21,15.316406 C 20.880312,15.199977 20.764712,15.08037 20.628906,14.978516 19.807388,14.362377 18.705902,14 17.5,14 16.294098,14 15.192612,14.362377 14.371094,14.978516 13.549575,15.594654 13,16.491426 13,17.5 c 0,1.008574 0.549575,1.905346 1.371094,2.521484 C 15.192612,20.637623 16.294098,21 17.5,21 18.705902,21 19.807388,20.637623 20.628906,20.021484 21.450425,19.405346 22,18.508574 22,17.5 l 0,-17 C 22.000109,0.21765109 21.766967,0 21.484375,0 Z m -1.988281,3.9980469 c -0.04504,0.00115 -0.08971,0.00837 -0.132813,0.021484 l -7,2 C 11.71659,6.1724191 12.03793,7.1409136 12.636719,6.9804688 l 7,-2 C 20.186945,4.8330363 20.084924,3.9980469 19.496094,3.9980469 Z M 17.5,15 c 1.003237,0 1.9031,0.309649 2.529297,0.779297 C 20.655494,16.248945 21,16.85172 21,17.5 21,18.14828 20.655494,18.751055 20.029297,19.220703 19.4031,19.690351 18.503237,20 17.5,20 16.496763,20 15.5969,19.690351 14.970703,19.220703 14.344506,18.751055 14,18.14828 14,17.5 14,16.85172 14.344506,16.248945 14.970703,15.779297 15.5969,15.309649 16.496763,15 17.5,15 Z m -11,3 c 1.003237,0 1.9031,0.309649 2.5292969,0.779297 C 9.6554938,19.248945 10,19.85172 10,20.5 10,21.14828 9.6554938,21.751055 9.0292969,22.220703 8.4031,22.690351 7.503237,23 6.5,23 5.496763,23 4.5969,22.690351 3.9707031,22.220703 3.3445062,21.751055 3,21.14828 3,20.5 3,19.85172 3.3445062,19.248945 3.9707031,18.779297 4.5969,18.309649 5.496763,18 6.5,18 Z"/>
</svg>