<svg fill="#000000" height="24" viewBox="0 0 24 24" width="24" xmlns="http://www.w3.org/2000/svg">
<path d="M 12.5,17 C 11.677495,17 11,17.677495 11,18.5 11,19.322505 11.677495,20 12.5,20 13.322505,20 14,19.322505 14,18.5 14,17.677495 13.322505,17 12.5,17 Z m 0,1 C 12.782065,18 13,18.217935 13,18.5 13,18.782065 12.782065,19 12.5,19 12.217935,19 12,18.782065 12,18.5 12,18.217935 12.217935,18 12.5,18 Z m 0,-14 C 11.097304,3.9819886 9.7179629,4.4441189 8.6054688,5.3085938 8.2387849,5.5887285 8,5.9888149 8,6.3789062 8,6.7606532 8.1258348,7.1281936 8.3496094,7.4082031 8.573384,7.6882126 8.9551289,8 9.5,8 9.8742339,8 10.151708,7.8939603 10.419922,7.6835938 l 0.0039,-0.00195 C 10.98643,7.2451966 11.785595,7 12.5,7 13.011916,7 13.392047,7.1144163 13.642572,7.2812532 13.893103,7.4480869 14,7.6897592 14,8 14,8.3605056 13.803611,8.4600611 13.505859,8.7578125 13.184461,9.0748559 12.722919,9.4575362 12.269531,9.9980469 11.805551,10.551187 11.422952,11.213554 11.208984,11.96875 10.993435,12.729546 11,13.439749 11,14 l 0,0.5 c 0,0.462857 0.187338,0.873408 0.480469,1.132812 C 11.773599,15.892217 12.138115,16.006066 12.5,16 12.861873,15.9939 13.234201,15.868765 13.521484,15.611328 13.808768,15.353892 14,14.952432 14,14.5 L 14,14 c 0,-0.529361 8.3e-4,-0.963766 0.07031,-1.208984 0.08014,-0.282854 0.246831,-0.587828 0.47461,-0.859375 0.229858,-0.274028 0.613025,-0.604945 1.048828,-1.035157 C 16.03982,10.456141 16.616005,9.8269523 16.875,8.9003906 16.966183,8.5741771 17,8.3288527 17,8 17,7.5697411 16.917931,7.141842 16.798828,6.796875 16.574093,6.1459575 16.184931,5.5967818 15.708984,5.1699219 14.766244,4.3244125 13.580534,4.0138745 12.5,4 Z m 0,1 c 0.900262,0.01156 1.816514,0.2642859 2.541014,0.9140625 0.360931,0.323707 0.647373,0.7307146 0.8125,1.2089844 C 15.930683,7.3465523 16,7.7081825 16,8 c 0,0.2802715 -0.01046,0.3468497 -0.08984,0.6308594 -0.187287,0.6700247 -0.606793,1.145294 -1.019531,1.5527346 -0.406135,0.400924 -0.798098,0.72972 -1.113281,1.105468 C 13.469,11.656661 13.234993,12.074221 13.109379,12.517578 12.974317,12.994226 13,13.486726 13,14 l 0,0.5 c 0,0.195009 -0.05877,0.288584 -0.146484,0.367188 C 12.765796,14.945788 12.638127,14.997679 12.5,15 12.361885,15.0023 12.226401,14.95722 12.144531,14.884766 12.062662,14.812316 12,14.718106 12,14.5 L 12,14 c 0,-0.563201 0.002,-1.160021 0.171875,-1.759766 0.170279,-0.600996 0.479381,-1.139609 0.865234,-1.599609 0.38682,-0.461151 0.803979,-0.8087252 1.173829,-1.1738281 l 0.002,0 0,-0.00195 C 14.487289,9.1904448 15,8.7758567 15,8 15,7.3784219 14.671775,6.7665186 14.195312,6.4492188 13.71885,6.1319189 13.155372,6 12.5,6 11.560085,6 10.564085,6.3050749 9.8066406,6.8945312 l -0.00195,0.00195 -0.00195,0 C 9.6618535,7.0077022 9.5678906,7.0161135 9.4570312,6.9941406 9.3461719,6.9721677 9.2193015,6.8938709 9.1308594,6.7832031 9.0424172,6.6725353 8.9998134,6.5412037 9.0058594,6.4355469 9.0119054,6.32989 9.0434997,6.2329249 9.2128906,6.1035156 l 0.00195,-0.00195 0,-0.00195 C 10.14543,5.3754114 11.324998,4.9849123 12.5,5 Z M 12,0 C 5.3785053,0 0,5.3785053 0,12 0,18.621495 5.3785053,24 12,24 18.621495,24 24,18.621495 24,12 24,5.3785053 18.621495,0 12,0 Z m 0,1 C 18.081055,1 23,5.9189454 23,12 23,18.081055 18.081055,23 12,23 5.9189454,23 1,18.081055 1,12 1,5.9189454 5.9189454,1 12,1 Z"/>
</svg>