<svg fill="#000000" height="24" viewBox="0 0 24 24" width="24" xmlns="http://www.w3.org/2000/svg">
<path d="M 6.5,4 C 5.1236486,4 4,5.1236486 4,6.5 L 4,7.109375 0.37890625,8.015625 C 0.15651553,8.0711561 3.5705796e-4,8.2707813 0,8.5 l 0,7 c 3.5705796e-4,0.229219 0.15651553,0.428844 0.37890625,0.484375 L 4,16.890625 4,17.5 C 4,18.876351 5.1236486,20 6.5,20 l 11,0 c 1.376351,0 2.5,-1.123649 2.5,-2.5 l 0,-0.609375 3.621094,-0.904297 C 23.843485,15.930797 23.999643,15.731172 24,15.501953 L 24,8.5019531 C 23.999643,8.2727345 23.843485,8.0731093 23.621094,8.0175781 L 20,7.1132812 20,6.5 C 20,5.1236486 18.876351,4 17.5,4 Z m 0,1 11,0 C 18.339649,5 19,5.6603514 19,6.5 l 0,11 c 0,0.839649 -0.660351,1.5 -1.5,1.5 l -11,0 C 5.6603514,19 5,18.339649 5,17.5 L 5,6.5 C 5,5.6603514 5.6603514,5 6.5,5 Z M 4,8.140625 l 0,7.71875 -3,-0.75 0,-6.21875 z m 16,0.00195 3,0.75 0,6.21875 -3,0.75 z M 10,15 a 1,1 0 0 1 -1,1 1,1 0 0 1 -1,-1 1,1 0 0 1 1,-1 1,1 0 0 1 1,1 z m 6,0 a 1,1 0 0 1 -1,1 1,1 0 0 1 -1,-1 1,1 0 0 1 1,-1 1,1 0 0 1 1,1 z m 0,-6 a 1,1 0 0 1 -1,1 1,1 0 0 1 -1,-1 1,1 0 0 1 1,-1 1,1 0 0 1 1,1 z M 10,9 A 1,1 0 0 1 9,10 1,1 0 0 1 8,9 1,1 0 0 1 9,8 1,1 0 0 1 10,9 Z M 10.5,7.5 C 10.5,8.3225048 11.177495,9 12,9 12.822505,9 13.5,8.3225048 13.5,7.5 13.5,6.6774952 12.822505,6 12,6 11.177495,6 10.5,6.6774952 10.5,7.5 Z m 1,0 C 11.5,7.2179353 11.717935,7 12,7 12.282065,7 12.5,7.2179353 12.5,7.5 12.5,7.7820647 12.282065,8 12,8 11.717935,8 11.5,7.7820647 11.5,7.5 Z m -1,9 c 0,0.822505 0.677495,1.5 1.5,1.5 0.822505,0 1.5,-0.677495 1.5,-1.5 0,-0.822505 -0.677495,-1.5 -1.5,-1.5 -0.822505,0 -1.5,0.677495 -1.5,1.5 z m 1,0 c 0,-0.282065 0.217935,-0.5 0.5,-0.5 0.282065,0 0.5,0.217935 0.5,0.5 0,0.282065 -0.217935,0.5 -0.5,0.5 -0.282065,0 -0.5,-0.217935 -0.5,-0.5 z m 5,-6 c -0.822505,0 -1.5,0.677495 -1.5,1.5 0,0.822505 0.677495,1.5 1.5,1.5 0.822505,0 1.5,-0.677495 1.5,-1.5 0,-0.822505 -0.677495,-1.5 -1.5,-1.5 z m 0,1 c 0.282065,0 0.5,0.217935 0.5,0.5 0,0.282065 -0.217935,0.5 -0.5,0.5 -0.282065,0 -0.5,-0.217935 -0.5,-0.5 0,-0.282065 0.217935,-0.5 0.5,-0.5 z m -9,-1 C 6.6774952,10.5 6,11.177495 6,12 6,12.822505 6.6774952,13.5 7.5,13.5 8.3225048,13.5 9,12.822505 9,12 9,11.177495 8.3225048,10.5 7.5,10.5 Z m 0,1 C 7.7820647,11.5 8,11.717935 8,12 8,12.282065 7.7820647,12.5 7.5,12.5 7.2179353,12.5 7,12.282065 7,12 7,11.717935 7.2179353,11.5 7.5,11.5 Z M 12,10 c -1.098647,0 -2,0.901353 -2,2 0,1.098647 0.901353,2 2,2 1.098647,0 2,-0.901353 2,-2 0,-1.098647 -0.901353,-2 -2,-2 z m 0,1 c 0.558207,0 1,0.441793 1,1 0,0.558207 -0.441793,1 -1,1 -0.558207,0 -1,-0.441793 -1,-1 0,-0.558207 0.441793,-1 1,-1 z"/>
</svg>