<svg fill="#000000" height="24" viewBox="0 0 24 24" width="24" xmlns="http://www.w3.org/2000/svg">
<path d="m 16.5,11 c 0.277,0 0.5,0.223 0.5,0.5 l 0,7 C 17,18.777 16.777,19 16.5,19 16.223,19 16,18.777 16,18.5 l 0,-7 C 16,11.223 16.223,11 16.5,11 Z m -5,0 c 0.277,0 0.5,0.223 0.5,0.5 l 0,7 C 12,18.777 11.777,19 11.5,19 11.223,19 11,18.777 11,18.5 l 0,-7 C 11,11.223 11.223,11 11.5,11 Z m -5.0000001,0 c 0.277,0 0.4999999,0.223 0.4999999,0.5 l 0,7 c 0,0.277 -0.2229999,0.5 -0.4999999,0.5 C 6.223,19 6,18.777 6,18.5 l 0,-7 C 6,11.223 6.223,11 6.4999999,11 Z M 15.512997,1 c 0.129469,0.0036 0.252463,0.056519 0.34298,0.1491568 l 3.991032,3.9909508 C 20.314866,5.5892964 19.592712,6.315419 19.141563,5.8455393 L 15.150531,1.8545885 C 14.851095,1.5551527 15.051429,1 15.512997,1 Z M 7.4873932,1.0001875 C 7.3579239,1.0037914 7.23493,1.0576001 7.1444139,1.1502379 L 3.1533816,5.1411887 C 2.6876384,5.5883482 3.4058044,6.3184516 3.8588276,5.8466204 L 7.84986,1.8556696 C 8.1665897,1.5460214 7.9343257,1.0001875 7.4873932,1.0001875 Z M 2.0332031,7 C 1.3437057,7 0.74285032,7.3088184 0.390625,7.8007812 0.03839968,8.2927441 -0.07373569,8.9350797 0.04492187,9.5898438 L 2.0390625,20.589844 c 0.1126782,0.621769 0.3653763,1.207493 0.78125,1.658203 C 3.2361862,22.698757 3.8358932,23 4.5253906,23 l 13.9496104,0 c 0.689498,0 1.289205,-0.301243 1.705079,-0.751953 0.415873,-0.45071 0.668571,-1.036434 0.78125,-1.658203 L 22.95547,9.5898438 C 23.074128,8.9350798 22.961992,8.2927441 22.609767,7.8007812 22.257542,7.3088184 21.656686,7 20.967189,7 Z m 0,1 18.9339859,0 c 0.414868,0 0.661466,0.1473073 0.830078,0.3828125 0.168612,0.2355052 0.252726,0.5919798 0.173828,1.0273437 L 19.976954,20.410156 c -0.08488,0.468359 -0.275883,0.883399 -0.53125,1.160156 C 19.190338,21.84707 18.88987,22 18.475001,22 L 4.5253906,22 C 4.1105219,22 3.8100539,21.84707 3.5546875,21.570312 3.2993211,21.293555 3.1083143,20.878515 3.0234375,20.410156 L 1.0292969,9.4101562 C 0.95039943,8.9747924 1.0345129,8.6183177 1.203125,8.3828125 1.3717371,8.1473073 1.6183345,8 2.0332031,8 Z"/>
</svg>