<svg fill="#000000" height="24" viewBox="0 0 24 24" width="24" xmlns="http://www.w3.org/2000/svg">
<path d="m 18,15 c -1.099035,-7.06e-4 -2,0.901353 -2,2 0,1.098647 0.900965,2.000706 2,2 0.369726,-2.37e-4 0.689095,-0.194502 1,-0.384766 0.310905,0.190264 0.630274,0.384529 1,0.384766 1.099035,7.06e-4 2,-0.901353 2,-2 0,-1.098647 -0.900965,-2.000706 -2,-2 -0.369726,2.37e-4 -0.689095,0.194502 -1,0.384766 C 18.689095,15.194502 18.369726,15.000237 18,15 Z m 0,1 c 0.245414,1.57e-4 0.482585,0.09087 0.666016,0.255859 0.190009,0.170517 0.477959,0.170517 0.667968,0 C 19.517415,16.090868 19.754586,16.000157 20,16 c 0.557819,-3.58e-4 1,0.441793 1,1 0,0.558207 -0.442181,1.000358 -1,1 -0.245414,-1.57e-4 -0.482585,-0.09087 -0.666016,-0.255859 -0.190009,-0.170517 -0.477959,-0.170517 -0.667968,0 C 18.482585,17.909132 18.245414,17.999843 18,18 c -0.557819,3.58e-4 -1,-0.441793 -1,-1 0,-0.558207 0.442181,-1.000358 1,-1 z M 1.5,3 C 0.67764862,3 0,3.6776486 0,4.5 l 0,10 C 0,15.322351 0.67764862,16 1.5,16 l 1,0 c 0.6878833,0 0.6371024,-1 0,-1 l -1,0 C 1.2143514,15 1,14.785649 1,14.5 L 1,10 2.5,10 C 2.777,10 3,9.777 3,9.5 3,9.223 2.777,9 2.5,9 L 1,9 1,6 19,6 19,6.5 c 0,0.6684226 1,0.6529603 1,0 l 0,-2 C 20,3.6776486 19.322351,3 18.5,3 Z m 0,1 17,0 C 18.785649,4 19,4.2143514 19,4.5 L 19,5 1,5 1,4.5 C 1,4.2143514 1.2143514,4 1.5,4 Z m 11,13 1,0 c 0.277,0 0.5,0.223 0.5,0.5 0,0.277 -0.223,0.5 -0.5,0.5 l -1,0 C 12.223,18 12,17.777 12,17.5 12,17.223 12.223,17 12.5,17 Z m -3,0 1,0 c 0.277,0 0.5,0.223 0.5,0.5 0,0.277 -0.223,0.5 -0.5,0.5 l -1,0 C 9.223,18 9,17.777 9,17.5 9,17.223 9.223,17 9.5,17 Z m -3,0 1,0 C 7.777,17 8,17.223 8,17.5 8,17.777 7.777,18 7.5,18 l -1,0 C 6.223,18 6,17.777 6,17.5 6,17.223 6.223,17 6.5,17 Z m 5,-5 10,0 c 0.277,0 0.5,0.223 0.5,0.5 0,0.277 -0.223,0.5 -0.5,0.5 l -10,0 C 11.223,13 11,12.777 11,12.5 11,12.223 11.223,12 11.5,12 Z m 5,-2 5,0 c 0.277,0 0.5,0.223 0.5,0.5 0,0.277 -0.223,0.5 -0.5,0.5 l -5,0 C 16.223,11 16,10.777 16,10.5 16,10.223 16.223,10 16.5,10 Z m -5,0 3,0 c 0.277,0 0.5,0.223 0.5,0.5 0,0.277 -0.223,0.5 -0.5,0.5 l -3,0 C 11.223,11 11,10.777 11,10.5 11,10.223 11.223,10 11.5,10 Z m -5,0 c -0.2761309,2.8e-5 -0.4999724,0.223869 -0.5,0.5 l 0,4 c 2.76e-5,0.276131 0.2238691,0.499972 0.5,0.5 l 3,0 c 0.2761309,-2.8e-5 0.4999724,-0.223869 0.5,-0.5 l 0,-4 C 9.9999724,10.223869 9.7761309,10.000028 9.5,10 Z m 0.5,1 2,0 0,3 -2,0 z M 5.5,8 C 4.6776486,8 4,8.6776486 4,9.5 l 0,10 C 4,20.322351 4.6776486,21 5.5,21 l 17,0 c 0.822351,0 1.5,-0.677649 1.5,-1.5 l 0,-10 C 24,8.6776486 23.322351,8 22.5,8 Z m 0,1 17,0 C 22.785649,9 23,9.2143514 23,9.5 l 0,10 c 0,0.285649 -0.214351,0.5 -0.5,0.5 l -17,0 C 5.2143514,20 5,19.785649 5,19.5 L 5,9.5 C 5,9.2143514 5.2143514,9 5.5,9 Z"/>
</svg>