<svg fill="#000000" height="24" viewBox="0 0 24 24" width="24" xmlns="http://www.w3.org/2000/svg">
<path d="m 8.5,12 c -1.3747896,0 -2.5000001,1.12521 -2.5,2.5 6.089e-4,0.769723 0.4060017,1.444602 1,1.914062 L 7,18.5 C 7,19.322351 7.6776486,20 8.5,20 9.3223514,20 10,19.322351 10,18.5 l 0,-2.087891 C 10.593505,15.943174 10.99864,15.268973 11,14.5 11,13.12521 9.8747896,12 8.5,12 Z m 0,1 c 0.8343494,0 1.5,0.665651 1.5,1.5 -9.473e-4,0.535746 -0.2860292,1.027049 -0.75,1.294922 A 0.50005,0.50005 0 0 0 9,16.228516 L 9,18.5 C 9,18.785649 8.7856486,19 8.5,19 8.2143514,19 8,18.785649 8,18.5 L 8,16.230469 A 0.50005,0.50005 0 0 0 7.75,15.796875 C 7.2855736,15.528739 7.0004242,15.036273 7,14.5 7,13.665651 7.6656506,13 8.5,13 Z M 18,1 c -3.307786,0 -6,2.6922138 -6,6 l 0,0.5 C 11.995219,7.8380807 12.247609,8 12.5,8 12.752391,8 13.004781,7.8380807 13,7.5 L 13,7 c 0,-2.767346 2.232654,-5 5,-5 2.767346,0 5,2.232654 5,5 l 0,0.5 C 22.995219,7.8380807 23.247609,8 23.5,8 23.752391,8 24.004781,7.8380807 24,7.5 L 24,7 C 24,3.6922138 21.307786,1 18,1 Z M 1.5,9 C 0.67764862,9 0,9.6776486 0,10.5 l 0,11 C 0,22.322351 0.67764862,23 1.5,23 l 14,0 c 0.822351,0 1.5,-0.677649 1.5,-1.5 l 0,-11 C 17,9.6776486 16.322351,9 15.5,9 l -14,0 z m 0,1 14,0 c 0.285649,0 0.5,0.214351 0.5,0.5 l 0,11 c 0,0.285649 -0.214351,0.5 -0.5,0.5 l -14,0 C 1.2143514,22 1,21.785649 1,21.5 l 0,-11 C 1,10.214351 1.2143514,10 1.5,10 Z"/>
</svg>