<svg fill="#000000" height="24" viewBox="0 0 24 24" width="24" xmlns="http://www.w3.org/2000/svg">
<path d="M 20.5,5 C 20.161476,5 20,5.2476093 20,5.5 20,5.7523907 20.161919,6 20.5,6 l 2,0 C 22.785649,6 23,6.2143514 23,6.5 l 0,16 c 0,0.285649 -0.214351,0.5 -0.5,0.5 l -16,0 C 6.2143514,23 6,22.785649 6,22.5 l 0,-2 C 6.0047813,20.161919 5.7523907,20 5.5,20 5.2476093,20 4.9952187,20.161919 5,20.5 l 0,2 C 5,23.322351 5.6776486,24 6.5,24 l 16,0 c 0.822351,0 1.5,-0.677649 1.5,-1.5 l 0,-16 C 24,5.6776486 23.322351,5 22.5,5 Z M 1.5,0 C 0.67764862,0 0,0.67764862 0,1.5 l 0,16 C 0,18.322351 0.67764862,19 1.5,19 l 16,0 c 0.822351,0 1.5,-0.677649 1.5,-1.5 l 0,-16 C 19,0.67764862 18.322351,0 17.5,0 Z m 0,1 16,0 C 17.785649,1 18,1.2143514 18,1.5 l 0,16 c 0,0.285649 -0.214351,0.5 -0.5,0.5 l -16,0 C 1.2143514,18 1,17.785649 1,17.5 L 1,1.5 C 1,1.2143514 1.2143514,1 1.5,1 Z"/>
</svg>