<svg fill="#000000" height="24" viewBox="0 0 24 24" width="24" xmlns="http://www.w3.org/2000/svg">
<path d="M 2.1445822,8.1234078 C 1.9631992,8.304563 1.9295855,8.6349975 2.1758433,8.881 l 3.9818703,3.964699 C 6.7197975,13.408304 7.3074722,13.80321 8,13.93846 l 0,0.561992 C 8,14.777202 8.2229025,15 8.5,15 8.7770976,15 9,14.776976 9,14.500226 L 9,14 l 6,0 0,0.500422 c 0,0.276749 0.222902,0.499548 0.5,0.499548 0.277097,0 0.497562,-0.222809 0.5,-0.499548 l 0.005,-0.561992 c 0.692528,-0.13525 1.282315,-0.530156 1.844399,-1.092761 l 3.9701,-3.9651636 C 22.044266,8.6559713 22.064119,8.3440702 21.851009,8.1311832 21.6379,7.9182963 21.342897,7.9827045 21.131756,8.1936272 L 17.161587,12.15882 C 16.726644,12.594167 16.382978,12.835476 16,12.939364 L 16.005176,12.5 C 16.008436,12.22327 15.777097,12 15.5,12 15.222902,12 15,12.223251 15,12.5 L 15,13 9,13 9,12.5 C 9,12.223251 8.7770976,12 8.5,12 8.2229025,12 8,12.223251 8,12.5 l 0,0.439364 C 7.6170222,12.835476 7.2803988,12.594167 6.8454557,12.15882 L 2.8635853,8.194 C 2.6523346,7.9830145 2.3259652,7.9422526 2.1445822,8.1234078 Z M 8.5,2 C 7.6776486,2 7,2.6776486 7,3.5 l 0,1 C 6.9962642,4.7641563 7.2358173,5 7.5,5 7.7641827,5 8.0037358,4.7641563 8,4.5 l 0,-1 C 8,3.2143514 8.2143514,3 8.5,3 l 7,0 C 15.785649,3 16,3.2143514 16,3.5 l 0,1 C 15.9963,4.7641563 16.235817,5 16.5,5 16.764183,5 17.003736,4.7641563 17,4.5 l 0,-1 C 17,2.6776486 16.322351,2 15.5,2 Z m -7,4 C 0.67764862,6 0,6.6776486 0,7.5 l 0,13 C 0,21.322351 0.67764862,22 1.5,22 l 21,0 c 0.822351,0 1.5,-0.677649 1.5,-1.5 l 0,-13 C 24,6.6776486 23.322351,6 22.5,6 Z m 0,1 21,0 C 22.785649,7 23,7.2143514 23,7.5 l 0,13 c 0,0.285649 -0.214351,0.5 -0.5,0.5 l -21,0 C 1.2143514,21 1,20.785649 1,20.5 L 1,7.5 C 1,7.2143514 1.2143514,7 1.5,7 Z"/>
</svg>