<svg fill="#000000" height="24" viewBox="0 0 24 24" width="24" xmlns="http://www.w3.org/2000/svg">
<path d="M 4.5,11 C 3.6776486,11 3,11.677649 3,12.5 l 0,3 C 3,16.322351 3.6776486,17 4.5,17 l 2,0 C 7.3223514,17 8,16.322351 8,15.5 l 0,-3 C 8,11.677649 7.3223514,11 6.5,11 l -2,0 z m 0,1 2,0 C 6.7856486,12 7,12.214351 7,12.5 l 0,3 C 7,15.785649 6.7856486,16 6.5,16 l -2,0 C 4.2143514,16 4,15.785649 4,15.5 l 0,-3 C 4,12.214351 4.2143514,12 4.5,12 Z m 5,3 10,0 c 0.277,0 0.5,0.223 0.5,0.5 0,0.277 -0.223,0.5 -0.5,0.5 l -10,0 C 9.223,16 9,15.777 9,15.5 9,15.223 9.223,15 9.5,15 Z m 0,-3 10,0 c 0.277,0 0.5,0.223 0.5,0.5 0,0.277 -0.223,0.5 -0.5,0.5 l -10,0 C 9.223,13 9,12.777 9,12.5 9,12.223 9.223,12 9.5,12 Z M 1.5,3 C 0.67764862,3 0,3.6776486 0,4.5 l 0,15 C 0,20.322351 0.67764862,21 1.5,21 l 21,0 c 0.822351,0 1.5,-0.677649 1.5,-1.5 l 0,-15 C 24,3.6776486 23.322351,3 22.5,3 Z m 0,1 21,0 C 22.785649,4 23,4.2143514 23,4.5 l 0,15 c 0,0.285649 -0.214351,0.5 -0.5,0.5 l -21,0 C 1.2143514,20 1,19.785649 1,19.5 L 1,4.5 C 1,4.2143514 1.2143514,4 1.5,4 Z m 1,1 C 2.2238576,5 2,5.2238576 2,5.5 2,5.7761424 2.2238576,6 2.5,6 2.7761424,6 3,5.7761424 3,5.5 3,5.2238576 2.7761424,5 2.5,5 Z m 2,0 C 4.2238576,5 4,5.2238576 4,5.5 4,5.7761424 4.2238576,6 4.5,6 4.7761424,6 5,5.7761424 5,5.5 5,5.2238576 4.7761424,5 4.5,5 Z m 2,0 C 6.2238576,5 6,5.2238576 6,5.5 6,5.7761424 6.2238576,6 6.5,6 6.7761424,6 7,5.7761424 7,5.5 7,5.2238576 6.7761424,5 6.5,5 Z m -4,2 C 2.223,7 2,7.223 2,7.5 2,7.777 2.223,8 2.5,8 l 19,0 C 21.777,8 22,7.777 22,7.5 22,7.223 21.777,7 21.5,7 Z"/>
</svg>