<svg fill="#000000" height="24" viewBox="0 0 24 24" width="24" xmlns="http://www.w3.org/2000/svg">
<path d="M 11.5,0 C 11.223,0 11,0.223 11,0.5 l 0,2 C 11,2.777 11.223,3 11.5,3 11.777,3 12,2.777 12,2.5 l 0,-2 C 12,0.223 11.777,0 11.5,0 Z m -7,3 C 4.0517314,3.0000915 3.8302277,3.5406614 4.1523438,3.8535156 L 5.1484375,4.8554688 C 5.6030496,5.3116959 6.3030964,4.5816243 5.8535156,4.1484375 L 4.8574219,3.1464844 C 4.7634522,3.0490162 4.6351414,3 4.5,3 Z m 13.999734,0 c -0.135142,0 -0.263452,0.049016 -0.357422,0.1464844 l -0.998047,1.0019531 c -0.449581,0.4331868 0.250466,1.1632584 0.705078,0.7070313 L 18.84739,3.8535156 C 19.169506,3.5406614 18.948002,3.0000915 18.499734,3 Z M 11.5,5 C 9.9301341,5 8.5313791,5.8951318 7.5566406,7.2597656 6.5819022,8.6243994 6,10.470496 6,12.5 c 1e-7,2.029504 0.5819022,3.875601 1.5566406,5.240234 C 8.5313791,19.104868 9.9301342,20 11.5,20 13.069866,20 14.468621,19.104868 15.443359,17.740234 16.418098,16.375601 17,14.529504 17,12.5 17,10.470496 16.418098,8.6243994 15.443359,7.2597656 14.468621,5.8951318 13.069866,5 11.5,5 Z m 0,1 c 1.191558,0 2.294001,0.672929 3.128906,1.8417969 C 15.463812,9.0106647 16,10.663511 16,12.5 c 0,1.836489 -0.536188,3.489335 -1.371094,4.658203 -0.466424,0.652994 -1.018783,1.144457 -1.621094,1.457031 0.01962,-1.280656 0.170771,-2.349673 0.398438,-3 0.280745,-0.801945 0.684923,-1.301491 1.335938,-1.677734 C 15.204068,13.6827 15.00132,13 14.480469,13 c -0.08317,0.0033 -0.164868,0.02956 -0.236328,0.07227 -0.844625,0.488139 -1.436859,1.234724 -1.779297,2.21289 -0.332427,0.949572 -0.45789,2.119817 -0.464844,3.582032 -0.37761,0.137957 -0.67757,0.110766 -1,0 -0.007,-1.462214 -0.132417,-2.63246 -0.464844,-3.582032 C 10.192718,14.30699 9.6004855,13.560405 8.7558594,13.072266 8.6843944,13.029556 8.6026981,13.00334 8.5195312,13 7.998681,13 7.7959303,13.6827 8.2578125,13.9375 c 0.6510132,0.376243 1.0551918,0.875789 1.3359375,1.677734 0.227542,0.649969 0.3786764,1.735688 0.3984375,3 C 9.3898772,18.30266 8.8375182,17.811197 8.3710938,17.158203 7.536188,15.989335 7.0000001,14.336489 7,12.5 7,10.663511 7.536188,9.0106647 8.3710938,7.8417969 9.2059993,6.672929 10.308442,6 11.5,6 Z m -10,6 C 1.223,12 1,12.223 1,12.5 1,12.777 1.223,13 1.5,13 l 2,0 C 3.777,13 4,12.777 4,12.5 4,12.223 3.777,12 3.5,12 Z m 17.999734,0 c -0.277,0 -0.5,0.223 -0.5,0.5 0,0.277 0.223,0.5 0.5,0.5 l 2,0 c 0.277,0 0.5,-0.223 0.5,-0.5 0,-0.277 -0.223,-0.5 -0.5,-0.5 z M 8.5,21 C 8.223,21 8,21.223 8,21.5 8,21.777 8.223,22 8.5,22 l 6,0 C 14.777,22 15,21.777 15,21.5 15,21.223 14.777,21 14.5,21 Z m 0,2 C 8.223,23 8,23.223 8,23.5 8,23.777 8.223,24 8.5,24 l 6,0 C 14.777,24 15,23.777 15,23.5 15,23.223 14.777,23 14.5,23 Z"/>
</svg>