<svg fill="#000000" height="24" viewBox="0 0 24 24" width="24" xmlns="http://www.w3.org/2000/svg">
<path d="m 8.4902344,14 c -0.1298076,7.88e-4 -0.2530304,0.05363 -0.34375,0.146484 L 0.42516853,21.865512 C 0.15302678,22.137573 0,22.469793 0,22.805678 0,23.133669 0.10266786,23.448568 0.31969979,23.6702 0.53673172,23.891831 0.85194542,24 1.1821307,24 1.5160404,24 1.8567424,23.847916 2.1321998,23.57254 L 9.8535156,15.853516 C 10.306509,15.418563 9.590407,14.702561 9.1464844,15.146484 l -7.7213159,7.719028 c -0.3290971,0.329097 -0.59375012,0.0078 -0.2929687,-0.292969 L 8.8535156,14.853516 C 9.1552199,14.558551 8.9537639,13.997187 8.4902344,14 Z M 15.199219,2.0566406 c -1.443623,0.1944402 -2.817273,0.9089999 -3.8125,2.1054688 -0.427083,0.5130204 0.326448,1.1728647 0.769531,0.640625 1.664003,-2.0004753 4.57109,-2.3912712 6.705078,-0.9023438 0.546875,0.3815105 1.119141,-0.438802 0.572266,-0.8203125 C 18.157272,2.1895621 16.642841,1.8622005 15.199219,2.0566406 Z M 16,0 c -4.412356,0 -8,3.5876443 -8,8 0,4.412356 3.587644,8 8,8 4.412356,0 8,-3.587644 8,-8 0,-4.4123557 -3.587644,-8 -8,-8 z m 0,1 c 3.871916,0 7,3.1280844 7,7 0,3.871916 -3.128084,7 -7,7 C 12.128084,15 9,11.871916 9,8 9,4.1280844 12.128084,1 16,1 Z"/>
</svg>