<svg fill="#000000" height="24" viewBox="0 0 24 24" width="24" xmlns="http://www.w3.org/2000/svg">
<path d="m 3.5117189,8.9960938 c -0.414258,0 -0.7889518,0.1905003 -1.0351563,0.4589844 C 2.2303581,9.7235623 2.089951,10.055726 2.0214845,10.398438 l -1.99609375,10 c -0.09156002,0.458307 0.1073792,0.892982 0.3984375,1.166015 C 0.71488655,21.837487 1.0994141,22 1.513672,22 l 18.978516,0 c 0.414258,0 0.788951,-0.194406 1.035156,-0.46289 0.246204,-0.268485 0.386612,-0.600648 0.455078,-0.94336 l 1.998047,-10 C 24.065125,10.17 23.871137,9.7007679 23.580078,9.4277344 23.28902,9.154701 22.904492,8.9960938 22.490234,8.9960938 Z m 0,1 18.9785151,0 c 0.13913,0 0.309077,0.069 0.40625,0.1601562 0.09717,0.09116 0.120484,0.157253 0.103516,0.242188 l -1.998047,10 C 20.879139,20.856785 20.750942,21 20.492188,21 L 1.513672,21 C 1.1085707,21 0.94475504,20.821795 1.0058595,20.59375 l 1.9960937,-10 c 0.040062,-0.200529 0.123174,-0.367185 0.2109376,-0.46289 0.087764,-0.09571 0.159699,-0.1347662 0.2988281,-0.1347662 z M 1.5,2 C 0.67764862,2 0,2.6776486 0,3.5 l 0,11 c 0,0.660564 1,0.664517 1,0 L 1,3.5 C 1,3.2143514 1.2143514,3 1.5,3 L 6.2929688,3 10.146484,6.8535156 C 10.24024,6.9472838 10.3674,6.9999746 10.5,7 L 21,7 21,7.5 c 0,0.6801406 1,0.6488199 1,0 l 0,-1 C 21.999972,6.2238691 21.776131,6.0000276 21.5,6 L 10.707031,6 6.8535156,2.1464844 C 6.7597597,2.0527163 6.6325995,2.0000255 6.5,2 Z"/>
</svg>