<svg fill="#000000" height="24" viewBox="0 0 24 24" width="24" xmlns="http://www.w3.org/2000/svg">
<path d="M 12,16.5 A 0.5,0.5 0 0 1 11.5,17 0.5,0.5 0 0 1 11,16.5 0.5,0.5 0 0 1 11.5,16 0.5,0.5 0 0 1 12,16.5 Z M 2.5,14 l 18,0 c 0.277,0 0.5,0.223 0.5,0.5 0,0.277 -0.223,0.5 -0.5,0.5 l -18,0 C 2.223,15 2,14.777 2,14.5 2,14.223 2.223,14 2.5,14 Z M 1.5,2 C 0.67764862,2 0,2.6776486 0,3.5 l 0,14 C 0,18.322351 0.67764862,19 1.5,19 L 9,19 9,21 7.5,21 C 7.223,21 7,21.223 7,21.5 7,21.777 7.223,22 7.5,22 l 8,0 C 15.777,22 16,21.777 16,21.5 16,21.223 15.777,21 15.5,21 l -1.5,0 0,-2 7.5,0 c 0.822351,0 1.5,-0.677649 1.5,-1.5 l 0,-14 C 23,2.6776486 22.322351,2 21.5,2 l -20,0 z m 0,1 20,0 C 21.785649,3 22,3.2143514 22,3.5 l 0,14 c 0,0.285649 -0.214351,0.5 -0.5,0.5 l -20,0 C 1.2143514,18 1,17.785649 1,17.5 L 1,3.5 C 1,3.2143514 1.2143514,3 1.5,3 Z m 8.5,16 3,0 0,2 -3,0 0,-2 z"/>
</svg>