<svg fill="#000000" height="24" viewBox="0 0 24 24" width="24" xmlns="http://www.w3.org/2000/svg">
<path d="M 20.5,8 C 20.161919,7.9952187 20,8.2476093 20,8.5 20,8.7523907 20.161919,9.0047813 20.5,9 l 2.5,0 0,2.5 c -0.0048,0.338081 0.247609,0.5 0.5,0.5 0.252391,0 0.504781,-0.161919 0.5,-0.5 l 0,-3 C 23.999972,8.2238691 23.776131,8.0000276 23.5,8 Z m -6,8.782352 -3.635528,-3.642061 c -0.195133,-0.194948 -0.511421,-0.194948 -0.706554,0 l -7.9945908,7.990296 c -0.4765619,0.457338 0.2356166,1.196378 0.7065532,0.706175 L 10.5,14.199551 l 3.655214,3.642061 c 0.195133,0.194949 0.511421,0.194949 0.706554,0 l 6.995266,-6.991508 c 0.204745,-0.204634 0.178596,-0.527213 -0.0086,-0.714273 -0.18716,-0.1870589 -0.519951,-0.1592685 -0.655827,-0.0067 z M 0.5,0 C 0.22385501,0.00430867 -0.00432086,0.2238552 0,0.5 l 0,23 c 2.7608953e-5,0.276131 0.22386906,0.499972 0.5,0.5 l 23,0 C 23.83808,24.0048 24,23.752395 24,23.5 24,23.247605 23.83808,22.995218 23.5,23 L 1,23 1,0.5 C 1.0044168,0.21773363 0.78226637,-0.00441684 0.5,0 Z"/>
</svg>