<svg fill="#000000" height="24" viewBox="0 0 24 24" width="24" xmlns="http://www.w3.org/2000/svg">
<path d="m 18.567077,0.43917978 c -0.585011,-0.58501065 -1.548739,-0.58639163 -2.133749,-0.001381 L 11.438005,5.4331216 c -0.585011,0.5850106 -0.58363,1.5487388 0.0014,2.1337495 l 4.993941,4.9939419 c 0.585011,0.58501 1.54874,0.586392 2.13375,0.0014 L 23.5624,7.5668713 C 24.147411,6.9818606 24.146029,6.0181321 23.561,5.4331214 L 18.567077,0.43917978 Z M 17.85997,1.1462866 22.853912,6.1402282 c 0.205505,0.205505 0.206885,0.5140327 0.0014,0.7195363 L 17.85999,11.855087 c -0.205505,0.205505 -0.514032,0.204124 -0.719537,-0.0014 L 12.146492,6.8597644 C 11.940987,6.6542593 11.939607,6.3457327 12.145112,6.1402283 l 4.995323,-4.9953227 c 0.205503,-0.20550364 0.51403,-0.20412407 0.719535,0.00138 z M 1.5,2 C 0.67764862,2 0,2.6776486 0,3.5 l 0,7 C 0,11.322351 0.67764862,12 1.5,12 l 7,0 C 9.3223514,12 10,11.322351 10,10.5 l 0,-7 C 10,2.6776486 9.3223514,2 8.5,2 l -7,0 z m 0,1 7,0 C 8.7856486,3 9,3.2143514 9,3.5 l 0,7 C 9,10.785649 8.7856486,11 8.5,11 l -7,0 C 1.2143514,11 1,10.785649 1,10.5 l 0,-7 C 1,3.2143514 1.2143514,3 1.5,3 Z m 12,11 C 12.677649,14 12,14.677649 12,15.5 l 0,7 c 0,0.822351 0.677649,1.5 1.5,1.5 l 7,0 c 0.822351,0 1.5,-0.677649 1.5,-1.5 l 0,-7 C 22,14.677649 21.322351,14 20.5,14 l -7,0 z m 0,1 7,0 c 0.285649,0 0.5,0.214351 0.5,0.5 l 0,7 c 0,0.285649 -0.214351,0.5 -0.5,0.5 l -7,0 C 13.214351,23 13,22.785649 13,22.5 l 0,-7 C 13,15.214351 13.214351,15 13.5,15 Z M 1.5,14 C 0.67764862,14 0,14.677649 0,15.5 l 0,7 C 0,23.322351 0.67764862,24 1.5,24 l 7,0 C 9.3223514,24 10,23.322351 10,22.5 l 0,-7 C 10,14.677649 9.3223514,14 8.5,14 l -7,0 z m 0,1 7,0 C 8.7856486,15 9,15.214351 9,15.5 l 0,7 C 9,22.785649 8.7856486,23 8.5,23 l -7,0 C 1.2143514,23 1,22.785649 1,22.5 l 0,-7 C 1,15.214351 1.2143514,15 1.5,15 Z"/>
</svg>