<svg fill="#000000" height="24" viewBox="0 0 24 24" width="24" xmlns="http://www.w3.org/2000/svg">
<path d="M 4.5,3 C 3.6776486,3 3,3.6776486 3,4.5 l 0,18 C 3,23.322351 3.6776486,24 4.5,24 l 12,0 c 0.822351,0 1.5,-0.677649 1.5,-1.5 0.0048,-0.338081 -0.247609,-0.5 -0.5,-0.5 -0.252391,0 -0.504781,0.161919 -0.5,0.5 0,0.285649 -0.214351,0.5 -0.5,0.5 l -12,0 C 4.2143514,23 4,22.785649 4,22.5 L 4,4.5 C 4,4.2143514 4.2143514,4 4.5,4 4.8409288,4.0048216 5.0018604,3.7512054 5,3.5 4.9981396,3.2487946 4.833487,3 4.5,3 Z m 11,-1 C 15.218597,2.0021543 15,2.2194517 15,2.5 l 0,2 C 15,5.3223514 15.677649,6 16.5,6 l 2,0 C 18.838081,6.0047813 19,5.7523907 19,5.5 19,5.2476093 18.838081,4.9952187 18.5,5 l -2,0 C 16.214351,5 16,4.7856486 16,4.5 l 0,-2 C 16,2.2176993 15.781403,1.9978457 15.5,2 Z M 7.5,0 C 6.6776486,0 6,0.67764862 6,1.5 l 0,18 C 6,20.322351 6.6776486,21 7.5,21 l 12,0 c 0.822351,0 1.5,-0.677649 1.5,-1.5 l 0,-14 c -2.5e-5,-0.1325994 -0.05272,-0.2597597 -0.146484,-0.3535156 l -5,-5.00000002 C 15.75976,0.05271616 15.6326,2.5424639e-5 15.5,0 Z m 0,1 7.792969,0 L 20,5.7070312 20,19.5 c 0,0.285649 -0.214351,0.5 -0.5,0.5 l -12,0 C 7.2143514,20 7,19.785649 7,19.5 L 7,1.5 C 7,1.2143514 7.2143514,1 7.5,1 Z"/>
</svg>