<svg fill="#000000" height="24" viewBox="0 0 24 24" width="24" xmlns="http://www.w3.org/2000/svg">
<path d="m 0.45505677,3.1011952 c -0.33808067,-0.00478 -0.5,0.2476093 -0.5,0.5 0,0.2523907 0.16191933,0.5047813 0.5,0.5 l 2.60156253,0 2.4101563,10.6113288 c 0.00182,0.0065 0.00377,0.01306 0.00586,0.01953 0.085362,0.317062 0.2175641,0.635081 0.4550781,0.902344 0.237512,0.267266 0.6104367,0.466798 1.0273431,0.466798 l 13.4628912,0 c 0.417679,0 0.790276,-0.203785 1.02539,-0.470703 0.235115,-0.266918 0.365806,-0.580499 0.455078,-0.890625 L 23.914041,7.7398671 C 24.049355,7.2697948 23.835481,6.8066682 23.537088,6.5328358 23.238696,6.2590034 22.851252,6.1011952 22.433573,6.1011952 l -15.9785162,0 c -0.3380805,-0.00478 -0.5,0.2476096 -0.5,0.5 0,0.2523903 0.1619195,0.5047813 0.5,0.5 l 15.9785162,0 c 0.354295,0 0.569612,0.1744238 0.519531,0.3613281 l -2.015625,7.0000007 c -0.124355,0.464098 -0.285587,0.638672 -0.519531,0.638672 l -13.4628912,0 c -0.1370936,0 -0.1913172,-0.03186 -0.2792969,-0.130859 -0.087006,-0.0979 -0.1776208,-0.279463 -0.2363281,-0.494141 L 3.943338,3.4898671 C 3.8913177,3.2621781 3.6886126,3.100825 3.4550568,3.1011952 Z M 7.4550568,9.1011954 c -0.277,0 -0.5,0.223 -0.5,0.5 0,0.277 0.223,0.5000006 0.5,0.5000006 l 13.0000002,0 c 0.277,0 0.5,-0.2230006 0.5,-0.5000006 0,-0.277 -0.223,-0.5 -0.5,-0.5 z m 1,3.0000006 c -0.277,0 -0.5,0.223 -0.5,0.5 0,0.277 0.223,0.5 0.5,0.5 l 11.0000002,0 c 0.277,0 0.5,-0.223 0.5,-0.5 0,-0.277 -0.223,-0.5 -0.5,-0.5 z m -0.5,5 c -1.0986472,0 -1.9999999,0.901353 -2,2 10e-8,1.098647 0.9013528,2 2,2 1.0986472,0 1.9999999,-0.901353 2,-2 -10e-8,-1.098647 -0.9013528,-2 -2,-2 z m 11.0000002,0 c -1.098647,0 -2,0.901353 -2,2 0,1.098647 0.901353,2 2,2 1.098647,0 2,-0.901353 2,-2 0,-1.098647 -0.901353,-2 -2,-2 z m -11.0000002,1 c 0.5582071,0 1,0.441793 1,1 0,0.558207 -0.4417929,1 -1,1 -0.5582071,0 -1,-0.441793 -1,-1 0,-0.558207 0.4417929,-1 1,-1 z m 11.0000002,0 c 0.558207,0 1,0.441793 1,1 0,0.558207 -0.441793,1 -1,1 -0.558207,0 -1,-0.441793 -1,-1 0,-0.558207 0.441793,-1 1,-1 z"/>
</svg>