<svg fill="#000000" height="24" viewBox="0 0 24 24" width="24" xmlns="http://www.w3.org/2000/svg">
<path d="M 5.5,1 C 4.6776486,1 4,1.6776486 4,2.5 l 0,3 a 0.50005,0.50005 0 1 0 1,0 l 0,-3 C 5,2.2143514 5.2143514,2 5.5,2 l 13,0 C 18.785649,2 19,2.2143514 19,2.5 l 0,3 a 0.50005,0.50005 0 1 0 1,0 l 0,-3 C 20,1.6776486 19.322351,1 18.5,1 l -13,0 z m 12,8 1,0 C 18.777,9 19,9.223 19,9.5 19,9.777 18.777,10 18.5,10 l -1,0 C 17.223,10 17,9.777 17,9.5 17,9.223 17.223,9 17.5,9 Z m 3,0 1,0 C 21.777,9 22,9.223 22,9.5 22,9.777 21.777,10 21.5,10 l -1,0 C 20.223,10 20,9.777 20,9.5 20,9.223 20.223,9 20.5,9 Z m -17,5 17,0 c 0.277,0 0.5,0.223 0.5,0.5 0,0.277 -0.223,0.5 -0.5,0.5 l -17,0 C 3.223,15 3,14.777 3,14.5 3,14.223 3.223,14 3.5,14 Z m 3,4 11,0 c 0.277,0 0.5,0.223 0.5,0.5 0,0.277 -0.223,0.5 -0.5,0.5 l -11,0 C 6.223,19 6,18.777 6,18.5 6,18.223 6.223,18 6.5,18 Z m 0,-2 11,0 c 0.277,0 0.5,0.223 0.5,0.5 0,0.277 -0.223,0.5 -0.5,0.5 l -11,0 C 6.223,17 6,16.777 6,16.5 6,16.223 6.223,16 6.5,16 Z M 1.5,7 C 0.67764862,7 0,7.6776486 0,8.5 l 0,9 C 0,18.322351 0.67764862,19 1.5,19 L 4,19 4,21.5 C 4,22.322351 4.6776486,23 5.5,23 l 13,0 c 0.822351,0 1.5,-0.677649 1.5,-1.5 l 0,-2.5 2.5,0 c 0.822351,0 1.5,-0.677649 1.5,-1.5 l 0,-9 C 24,7.6776486 23.322351,7 22.5,7 Z m 0,1 21,0 C 22.785649,8 23,8.2143514 23,8.5 l 0,9 C 23,17.785649 22.785649,18 22.5,18 L 20,18 20,16.5 C 20.00484,16.157779 19.752391,16 19.5,16 19.247609,16 19,16.160843 19,16.5 l 0,5 c 0,0.285649 -0.214351,0.5 -0.5,0.5 l -13,0 C 5.2143514,22 5,21.785649 5,21.5 l 0,-5 C 5.0044175,16.217672 4.7822662,15.995583 4.5,16 4.2238552,16.004309 4,16.218125 4,16.5 L 4,18 1.5,18 C 1.2143514,18 1,17.785649 1,17.5 l 0,-9 C 1,8.2143514 1.2143514,8 1.5,8 Z"/>
</svg>