<svg fill="#000000" height="24" viewBox="0 0 24 24" width="24" xmlns="http://www.w3.org/2000/svg">
<path d="m 16.945312,8 c -0.317401,0 -0.632138,0.045304 -0.917968,0.2324237 -0.243821,0.1596184 -0.422842,0.3891005 -0.525391,0.6542969 -0.03159,0.081703 -0.04062,0.1662045 -0.05664,0.25 -0.01187,-0.00426 -0.02119,-0.011528 -0.0332,-0.015625 -0.314995,-0.1074777 -0.663325,-0.1504335 -1.015625,-0.087891 -0.355233,0.063063 -0.695982,0.2321302 -0.955078,0.5136722 -0.250481,0.272181 -0.388922,0.6118732 -0.429687,0.9570312 -0.01022,0.08648 0.03171,0.161209 0.0332,0.246094 -0.02738,-0.009 -0.04621,-0.02909 -0.07422,-0.03711 -0.30275,-0.0867 -0.629807,-0.107168 -0.953125,-0.03711 -0.324385,0.07029 -0.629114,0.228723 -0.871094,0.470703 -0.232806,0.232807 -0.382981,0.525344 -0.457031,0.835938 L 8.7519528,10.046877 C 8.5796503,9.8747483 8.3919738,9.6870808 8.1640618,9.5136738 7.9354128,9.3397068 7.6709228,9.1858888 7.3671868,9.0937519 7.0617758,9.0011063 6.7299548,8.9751546 6.4003908,9.0449237 c -0.330892,0.070051 -0.637573,0.2332761 -0.88086,0.4765621 -0.243287,0.243287 -0.406512,0.5499682 -0.476562,0.8808602 -0.06977,0.329564 -0.04382,0.661386 0.04883,0.966797 0.09214,0.303736 0.245954,0.568226 0.419921,0.796875 0.173408,0.227913 0.3609628,0.415696 0.533204,0.587891 l 7.2480452,7.246093 -1.792969,0 c -0.25826,0 -0.539541,-0.0015 -0.837891,0.03906 -0.299265,0.04065 -0.609448,0.124695 -0.9023431,0.28125 -0.2944401,0.157382 -0.5582781,0.383036 -0.7500001,0.677735 -0.192463,0.295841 -0.298829,0.643188 -0.298829,1.001955 0,0.358766 0.106365,0.706116 0.298829,1.001953 0.191722,0.294699 0.45556,0.520353 0.7500001,0.677735 0.2928951,0.156555 0.6030741,0.240607 0.9023431,0.28125 C 10.960462,24.00146 11.24174,24 11.5,24 l 6,0 c 0.676161,0.0096 0.641033,-1 0,-1 l -6,0 C 11.243938,23 11.008166,22.9974 10.796875,22.96875 10.5865,22.94018 10.393119,22.88472 10.232422,22.798828 10.073269,22.713758 9.9364069,22.591497 9.8476559,22.455078 9.7596459,22.319798 9.7109369,22.155556 9.7109369,22 c 0,-0.155555 0.04871,-0.319797 0.136719,-0.455078 0.08875,-0.136419 0.2256131,-0.258681 0.3847661,-0.34375 0.160697,-0.0859 0.354074,-0.141349 0.564453,-0.169922 C 11.00817,21.00255 11.243938,21 11.5,21 l 3,0 c 0.445319,-1.72e-4 0.660615,-0.546415 0.353516,-0.853514 L 6.7519528,12.046877 c -0.1706851,-0.170644 -0.325103,-0.328333 -0.445312,-0.486328 -0.11965,-0.157258 -0.209189,-0.320177 -0.257813,-0.480468 -0.04812,-0.158617 -0.058,-0.325874 -0.02734,-0.470704 0.03038,-0.143502 0.105483,-0.281264 0.205078,-0.380859 0.09959,-0.0996 0.237357,-0.174698 0.38086,-0.205078 0.14483,-0.03066 0.312086,-0.02077 0.470703,0.02734 0.160292,0.04862 0.323209,0.138162 0.480468,0.257812 0.157996,0.120211 0.3156182,0.274695 0.486329,0.445313 l 3.6015622,3.599609 0.5,0.5 c 0.436748,0.454837 1.162273,-0.269895 0.707032,-0.707032 l -0.5,-0.5 c -0.167884,-0.167884 -0.318522,-0.3221 -0.433594,-0.476562 -0.114733,-0.154007 -0.200751,-0.316271 -0.246094,-0.47461 -0.04502,-0.157209 -0.05275,-0.322527 -0.02148,-0.466796 0.03103,-0.143208 0.10484,-0.278668 0.201172,-0.375 0.09633,-0.09633 0.231792,-0.17014 0.375,-0.201172 0.144274,-0.03126 0.309591,-0.02354 0.466796,0.02148 0.158344,0.04535 0.320604,0.131362 0.47461,0.246094 0.154463,0.115074 0.302953,0.271639 0.476562,0.433594 l 0.545162,0.508566 c 0.444911,0.415044 1.1095,-0.250975 0.657412,-0.703063 -0.4012,-0.401199 -0.643467,-0.691056 -0.77289,-1.034011 -0.06439,-0.170623 -0.09073,-0.34759 -0.07227,-0.503906 0.01813,-0.153542 0.08426,-0.301109 0.173828,-0.398438 0.09239,-0.100388 0.238709,-0.177416 0.394532,-0.205078 0.158754,-0.02818 0.341336,-0.01131 0.517578,0.04883 0.485204,0.20375 0.754216,0.484686 1.05664,0.78711 0.476144,0.476144 1.152538,-0.332473 0.707032,-0.707032 -0.123166,-0.103548 -0.223489,-0.2508792 -0.302739,-0.3398432 -0.07134,-0.101809 -0.119023,-0.205871 -0.136719,-0.298829 -0.0174,-0.09142 -0.0088,-0.186468 0.01953,-0.259765 0.02799,-0.07239 0.08357,-0.1410607 0.142578,-0.1796876 0.07078,-0.046335 0.18519,-0.076136 0.304687,-0.068359 0.123754,0.00805 0.262848,0.052373 0.402344,0.1269531 0.28547,0.1526255 0.55896,0.4222415 0.863281,0.7265625 l 5,5.0000002 c 0.449768,0.449769 1.154843,-0.259221 0.707032,-0.707032 l -5,-4.9999992 C 18.555055,8.8480338 18.222141,8.4953921 17.755859,8.2460956 17.519475,8.1197151 17.262713,8 16.945312,8 Z M 4.484375,12 c -0.1301012,9.09e-4 -0.2533485,0.05878 -0.34375,0.152344 l -1,1 c -0.4431052,0.42543 0.2779318,1.153958 0.7070312,0.707031 l 1,-1 C 5.1765043,12.541569 4.9455432,11.996779 4.484375,12 Z M 9.5,7 C 9.3702398,7.00361 9.2313445,7.047777 9.140625,7.140625 l -1,1 C 7.7044537,8.5594035 8.3765419,9.3187705 8.8476562,8.8476562 l 1,-1 C 10.144944,7.5570092 9.96689,7 9.5,7 Z m -6,0 C 3.0505977,7.0000914 2.8355968,7.5428702 3.1464844,7.84375 l 1,1 C 4.6041632,9.3204372 5.3019241,8.5672465 4.8535156,8.1367188 l -1,-1 C 3.7593083,7.03935 3.6354832,7 3.5,7 Z M 2,10.5 C 2,10.223 2.223,10 2.5,10 l 1,0 C 3.777,10 4,10.223 4,10.5 4,10.777 3.777,11 3.5,11 l -1,0 C 2.223,11 2,10.777 2,10.5 Z M 6.5,6 C 6.777,6 7,6.223 7,6.5 l 0,1 C 7,7.777 6.777,8 6.5,8 6.223,8 6,7.777 6,7.5 l 0,-1 C 6,6.223 6.223,6 6.5,6 Z m 0.5016359,13.499966 c 0,0.276142 -0.2238576,0.5 -0.5,0.5 -0.2761424,0 -0.5,-0.223858 -0.5,-0.5 0,-0.276142 0.2238576,-0.5 0.5,-0.5 0.2761424,0 0.5,0.223858 0.5,0.5 z m -1.5,-17.5 2,0 c 0.277,0 0.5,0.223 0.5,0.5 0,0.277 -0.223,0.5 -0.5,0.5 l -2,0 c -0.277,0 -0.5,-0.223 -0.5,-0.5 0,-0.277 0.223,-0.5 0.5,-0.5 z m -4,-2.000000015663 C 0.67928455,-3.4015663e-5 0.00163593,0.6776146 0.00163593,1.499966 l 0,19 c 0,0.822351 0.67764862,1.5 1.49999997,1.5 l 5,0 c 0.6761613,0.0096 0.6761613,-1.009563 0,-1 l -5,0 c -0.2856486,0 -0.5,-0.214351 -0.5,-0.5 l 0,-19 c 0,-0.2856486 0.2143514,-0.50000002 0.5,-0.50000002 l 10.0000001,0 c 0.285649,0 0.5,0.21435142 0.5,0.50000002 l 0,7 c -0.0096,0.6761613 1.009563,0.6761613 1,0 l 0,-7 c 0,-0.8223514 -0.677649,-1.500000015663 -1.5,-1.500000015663 z"/>
</svg>