<svg fill="#000000" height="24" viewBox="0 0 24 24" width="24" xmlns="http://www.w3.org/2000/svg">
<path d="m 12.146424,22.853817 c 0.194964,0.194911 0.511022,0.194911 0.705986,0 l 2.996301,-2.996083 c 0.484102,-0.470575 -0.235376,-1.19 -0.705985,-0.705934 l -2.643308,2.643117 -2.6419326,-2.641738 c -0.470609,-0.484128 -1.190148,0.235361 -0.705984,0.705934 z m 0.353668,-2.85348 c -0.276989,0 -0.49998,-0.222975 -0.49998,-0.499943 l 0,-4.999438 c 0,-0.276969 0.222991,-0.499944 0.49998,-0.499944 0.276989,0 0.49998,0.222975 0.49998,0.499944 l 0,4.999438 c 0,0.276968 -0.222991,0.499943 -0.49998,0.499943 z M 13.324282,1.0020235 C 12.047625,0.97308363 10.765954,1.254924 9.6193489,1.8241966 8.1775248,2.5400415 7.0079986,3.5903141 6.2366699,5.0015737 4.5909263,4.9346187 2.9377082,5.6388224 1.7661432,6.8021525 0.51570692,8.043799 -0.13664238,9.8338077 0.02402457,11.588724 c 0.12712146,1.388509 0.7529752,2.714659 1.74211863,3.69685 0.9891999,0.982247 2.3347387,1.713787 3.7127441,1.714651 l 1.0214441,0 c 0.276989,0 0.4999802,-0.222975 0.4999802,-0.499944 0,-0.276969 -0.2229912,-0.499944 -0.4999802,-0.499944 l -0.9511344,0 C 4.4032561,15.901532 3.2853034,15.385043 2.4692404,14.574717 1.6512133,13.762439 1.1251401,12.646442 1.0200789,11.49889 0.88779387,10.05398 1.4395131,8.5355 2.4692404,7.5130103 3.4990378,6.4904507 5.0209723,5.8590879 6.4651765,6.0014613 6.6716473,6.0214503 6.8690205,5.9392333 6.9612507,5.7534423 7.6233376,4.425408 8.7353193,3.3786181 10.064645,2.7186273 c 0.997012,-0.4950017 2.12093,-0.7419977 3.2362,-0.7167163 0.371162,0.00841 0.74428,0.050204 1.109331,0.1191272 1.65952,0.3133209 3.202731,1.2693572 4.220537,2.6168933 1.017791,1.3475167 1.515805,3.0813044 1.363228,4.7631365 -0.02286,0.2544497 0.1498,0.4500517 0.400374,0.499944 0.764943,0.150839 1.482751,0.648687 1.953048,1.271341 0.470326,0.622693 0.706698,1.435869 0.642553,2.212642 -0.03299,0.399516 -0.14531,0.790749 -0.332018,1.132686 -0.185847,0.340359 -0.452096,0.638782 -0.769501,0.857324 -0.317953,0.218922 -0.697035,0.367366 -1.095659,0.443311 -0.399109,0.07605 -0.830307,0.08202 -1.292918,0.08202 l -0.999961,0 c -0.276989,0 -0.49998,0.222975 -0.49998,0.499944 0,0.276969 0.222991,0.499944 0.49998,0.499944 l 0.999961,0 c 0.46916,-3.2e-5 0.964214,-0.0032 1.48041,-0.101551 0.516684,-0.09844 1.025071,-0.290061 1.474551,-0.599542 0.450027,-0.309858 0.821317,-0.723641 1.081988,-1.201037 0.259812,-0.47582 0.405518,-1.002049 0.449202,-1.531078 C 24.071041,12.53686 23.766666,11.49497 23.144207,10.670858 22.601132,9.9518477 21.860505,9.470527 20.99976,9.21399 21.070418,7.4050465 20.520297,5.5831825 19.427556,4.1364356 18.255306,2.584421 16.505015,1.4976214 14.593763,1.1367729 14.174896,1.0576438 13.750431,1.0116836 13.324282,1.0020235 Z"/>
</svg>