<svg fill="#000000" height="24" viewBox="0 0 24 24" width="24" xmlns="http://www.w3.org/2000/svg">
<path d="m 15.5,2 c -0.276145,0.00431 -0.504321,0.223855 -0.5,0.5 l 0,1.9902344 C 15,5.3175665 15.682434,6 16.509766,6 L 18.5,6 c 0.664445,0 0.652871,-1 0,-1 L 16.509766,5 C 16.219137,5 16,4.7808631 16,4.4902344 L 16,2.5 C 16.004417,2.2177338 15.782266,1.9955834 15.5,2 Z M 4.5097656,0 C 3.6824338,0 3,0.68243376 3,1.5097656 L 3,22.490234 C 3,23.317566 3.6824335,24 4.5097656,24 L 19.490234,24 C 20.317566,24 21,23.317566 21,22.490234 L 21,5.5 C 20.999975,5.3674006 20.94728,5.2402403 20.853516,5.1464844 l -5,-5.00000002 C 15.75976,0.05271616 15.6326,2.5424639e-5 15.5,0 Z m 0,1 L 15.292969,1 20,5.7070312 20,22.490234 C 20,22.780862 19.780862,23 19.490234,23 L 4.5097656,23 C 4.2191369,23 4,22.780863 4,22.490234 L 4,1.5097656 C 4,1.2191366 4.2191366,1 4.5097656,1 Z"/>
</svg>