<svg fill="#000000" height="24" viewBox="0 0 24 24" width="24" xmlns="http://www.w3.org/2000/svg">
<path d="M 15.5,8 C 15.777,8 16,8.223 16,8.5 l 0,2 C 16,10.777 15.777,11 15.5,11 15.223,11 15,10.777 15,10.5 l 0,-2 C 15,8.223 15.223,8 15.5,8 Z m -7,0 C 8.777,8 9,8.223 9,8.5 l 0,2 C 9,10.777 8.777,11 8.5,11 8.223,11 8,10.777 8,10.5 l 0,-2 C 8,8.223 8.223,8 8.5,8 Z M 12,19 c 1.825588,0 3.106374,-0.532728 3.864856,-1.088964 0.758483,-0.556236 1.073925,-1.174374 1.073925,-1.174374 0.330847,-0.604999 -0.61717,-1.041137 -0.883048,-0.442573 0,0 -0.17449,0.375712 -0.77122,0.813326 C 14.687783,17.545029 13.638021,18 12,18 10.361041,18 9.3858456,17.549337 8.7561316,17.111297 c -0.629714,-0.438039 -0.83099,-0.819149 -0.83099,-0.819149 -0.3617876,-0.648755 -1.167517,-0.06077 -0.861839,0.487219 0,0 0.347037,0.603268 1.131766,1.149139 C 8.9797976,18.474377 10.175349,19 12,19 Z M 12,0 C 5.3606486,0 0,5.3606486 0,12 0,18.639351 5.3606486,24 12,24 18.639351,24 24,18.639351 24,12 24,5.3606486 18.639351,0 12,0 Z m 0,1 C 18.102649,1 23,5.8973514 23,12 23,18.102649 18.102649,23 12,23 5.8973514,23 1,18.102649 1,12 1,5.8973514 5.8973514,1 12,1 Z"/>
</svg>