<svg fill="#000000" height="24" viewBox="0 0 24 24" width="24" xmlns="http://www.w3.org/2000/svg">
<path d="M 11,14.5 C 11,14.776142 10.776142,15 10.5,15 10.223858,15 10,14.776142 10,14.5 10,14.223858 10.223858,14 10.5,14 c 0.276142,0 0.5,0.223858 0.5,0.5 z m 7.5,-4.5 2,0 c 0.277,0 0.5,0.223 0.5,0.5 0,0.277 -0.223,0.5 -0.5,0.5 l -2,0 C 18.223,11 18,10.777 18,10.5 18,10.223 18.223,10 18.5,10 Z M 20,19.5 C 20,19.776142 19.776142,20 19.5,20 19.223858,20 19,19.776142 19,19.5 19,19.223858 19.223858,19 19.5,19 19.776142,19 20,19.223858 20,19.5 Z M 16.5,8 C 15.677649,8 15,8.6776486 15,9.5 l 0,11 c 0,0.822351 0.677649,1.5 1.5,1.5 l 6,0 c 0.822351,0 1.5,-0.677649 1.5,-1.5 l 0,-11 C 24,8.6776486 23.322351,8 22.5,8 Z m 0,1 6,0 C 22.785649,9 23,9.2143514 23,9.5 l 0,11 c 0,0.285649 -0.214351,0.5 -0.5,0.5 l -6,0 C 16.214351,21 16,20.785649 16,20.5 l 0,-11 C 16,9.2143514 16.214351,9 16.5,9 Z M 1.5,2 C 0.67764862,2 0,2.6776486 0,3.5 l 0,12 C 0,16.322351 0.67764862,17 1.5,17 L 9,17 9,19 7.5,19 C 7.223,19 7,19.217505 7,19.5 7,19.782495 7.223,20 7.5,20 l 6,0 C 13.777,20 14,19.782495 14,19.5 14,19.217505 13.777,19 13.5,19 l -1.5,0 0,-2 1.5,0 c 0.676161,0.0096 0.676161,-1.009563 0,-1 l -12,0 C 1.2143514,16 1,15.785649 1,15.5 L 1,13 13.5,13 C 13.777,13 14,12.777 14,12.5 14,12.223 13.777,12 13.5,12 L 1,12 1,3.5 C 1,3.2143514 1.2143514,3 1.5,3 l 18,0 C 19.785649,3 20,3.2143514 20,3.5 l 0,3 c -0.0096,0.6761613 1.009563,0.6761613 1,0 l 0,-3 C 21,2.6776486 20.322351,2 19.5,2 Z m 8.5,15 1,0 0,2 -1,0 z"/>
</svg>