<svg fill="#000000" height="24" viewBox="0 0 24 24" width="24" xmlns="http://www.w3.org/2000/svg">
<path d="M 11.5,8 C 9.5729254,8 8,9.5729252 8,11.5 8,13.427075 9.5729254,15 11.5,15 13.427075,15 15,13.427075 15,11.5 15,9.5729252 13.427075,8 11.5,8 Z m 0,1 C 12.886634,9 14,10.113365 14,11.5 14,12.886635 12.886634,14 11.5,14 10.113366,14 9,12.886635 9,11.5 9,10.113365 10.113366,9 11.5,9 Z m 0,-9 C 11.223,0 11,0.223 11,0.5 l 0,1.5253906 C 6.1589704,2.2787962 2.2787963,6.1589699 2.0253906,11 L 0.5,11 C 0.223,11 0,11.223 0,11.5 0,11.777 0.223,12 0.5,12 l 1.5253906,0 C 2.2787963,16.84103 6.1589704,20.721204 11,20.974609 L 11,22.5 c 0,0.277 0.223,0.5 0.5,0.5 0.277,0 0.5,-0.223 0.5,-0.5 l 0,-1.525391 C 16.841029,20.721204 20.721204,16.84103 20.974609,12 L 22.5,12 C 22.777,12 23,11.777 23,11.5 23,11.223 22.777,11 22.5,11 l -1.525391,0 C 20.721204,6.15897 16.841029,2.2787963 12,2.0253906 L 12,0.5 C 12,0.223 11.777,0 11.5,0 Z M 11,3.0253906 11,4.5 C 11,4.777 11.223,5 11.5,5 11.777,5 12,4.777 12,4.5 L 12,3.0253906 C 16.298724,3.275513 19.724487,6.7012751 19.974609,11 L 18.5,11 c -0.277,0 -0.5,0.223 -0.5,0.5 0,0.277 0.223,0.5 0.5,0.5 l 1.474609,0 C 19.724487,16.298725 16.298724,19.724487 12,19.974609 L 12,18.5 C 12,18.223 11.777,18 11.5,18 11.223,18 11,18.223 11,18.5 l 0,1.474609 C 6.7012755,19.724487 3.275513,16.298725 3.0253906,12 L 4.5,12 C 4.777,12 5,11.777 5,11.5 5,11.223 4.777,11 4.5,11 L 3.0253906,11 C 3.275513,6.701275 6.7012755,3.2755129 11,3.0253906 Z"/>
</svg>