<svg fill="#000000" height="24" viewBox="0 0 24 24" width="24" xmlns="http://www.w3.org/2000/svg">
<path d="m 17.901373,3.0106042 a 0.51146254,0.48889222 0 0 0 -0.258906,0.059995 L 13.898136,5.0241979 10.091041,3.1830908 A 0.51146254,0.48889222 0 0 0 9.3574735,3.709925 L 10.143999,7.7183636 7.1371581,10.611264 a 0.51146254,0.48889222 0 0 0 0.2961728,0.828685 l 4.2307601,0.523085 1.947679,3.627843 a 0.51146254,0.48889222 0 0 0 0.91794,-0.01312 l 1.828033,-3.684089 4.211147,-0.650574 a 0.51146254,0.48889222 0 0 0 0.270674,-0.83806 L 17.738576,7.6039975 18.393687,3.5749355 A 0.51146254,0.48889222 0 0 0 17.901373,3.0106042 Z M 17.224686,4.4036211 16.685299,7.7089894 A 0.51146254,0.48889222 0 0 0 16.84025,8.138331 l 2.543948,2.296696 -3.454042,0.534334 a 0.51146254,0.48889222 0 0 0 -0.380513,0.271854 l -1.500478,3.02414 -1.596588,-2.977269 a 0.51146254,0.48889222 0 0 0 -0.39032,-0.26248 L 8.5925238,10.59814 11.059977,8.2264492 a 0.51146254,0.48889222 0 0 0 0.13926,-0.4349663 L 10.553933,4.5048632 13.676497,6.014121 a 0.51146254,0.48889222 0 0 0 0.476623,-0.0075 L 17.224686,4.4036205 Z M 24,7.5 C 24,7.777 23.777,8 23.5,8 l -2,0 C 21.223,8 21,7.777 21,7.5 21,7.223 21.223,7 21.5,7 l 2,0 C 23.777,7 24,7.223 24,7.5 Z M 4.4824219,4.9960938 C 4,4.9960938 3.7905347,5.7147718 4.2773438,5.9472656 l 2,1 C 6.8259234,7.2492886 7.3299124,6.3243043 6.7226562,6.0527344 l -2,-1 C 4.6485692,5.0140774 4.5659748,4.9946044 4.4824219,4.9960934 Z M 17.5,14.000015 c -0.38725,-0.0028 -0.615059,0.385841 -0.44196,0.722656 l 1,2 c 0.287565,0.643003 1.149873,0.01849 0.894532,-0.445312 l -1,-2 C 17.871032,14.107802 17.68814,14.001392 17.5,14.000015 Z M 13.5,0 C 13.777,0 14,0.223 14,0.5 l 0,2 C 14,2.777 13.777,3 13.5,3 13.223,3 13,2.777 13,2.5 l 0,-2 C 13,0.223 13.223,0 13.5,0 Z M 9.4902344,13.000242 c -0.1298076,7.88e-4 -0.2530304,0.05363 -0.34375,0.146484 L 0.42516853,21.865512 C 0.15302768,22.137574 0,22.469793 0,22.805678 0,23.133669 0.10266786,23.448568 0.31969979,23.6702 0.53673172,23.891831 0.85194542,24 1.1821307,24 1.5160404,24 1.8567431,23.847917 2.1321998,23.57254 l 8.7213162,-8.718782 c 0.452993,-0.434953 -0.263109,-1.150955 -0.707032,-0.707032 l -8.7213155,8.718786 c -0.3290971,0.329097 -0.59375012,0.0078 -0.2929687,-0.292969 L 9.8535156,13.853758 C 10.15522,13.558793 9.9537639,12.997429 9.4902344,13.000242 Z"/>
</svg>