<svg fill="#000000" height="24" viewBox="0 0 24 24" width="24" xmlns="http://www.w3.org/2000/svg">
<path d="M 4.5,3 C 3.6774952,3 3,3.6774952 3,4.5 3,5.3225048 3.6774952,6 4.5,6 5.3225048,6 6,5.3225048 6,4.5 6,3.6774952 5.3225048,3 4.5,3 Z m 0,1 C 4.7820647,4 5,4.2179353 5,4.5 5,4.7820647 4.7820647,5 4.5,5 4.2179353,5 4,4.7820647 4,4.5 4,4.2179353 4.2179353,4 4.5,4 Z m 2,-4 C 2.9160714,0 0,2.9160714 0,6.5 0,10.083929 2.9160714,13 6.5,13 7.2837719,13 8.1004565,12.792758 8.828125,12.535156 l 11.318359,11.31836 A 0.50005,0.50005 0 0 0 20.5,24 l 3,0 A 0.50005,0.50005 0 0 0 24,23.5 l 0,-3 a 0.50005,0.50005 0 0 0 -0.146484,-0.353516 l -2,-2 A 0.50005,0.50005 0 0 0 21.5,18 l -0.5,0 0,-0.5 a 0.50005,0.50005 0 0 0 -0.146484,-0.353516 l -2,-2 A 0.50005,0.50005 0 0 0 18.5,15 l -1.5,0 0,-1.5 a 0.50005,0.50005 0 0 0 -0.146484,-0.353516 l -2,-2 A 0.50005,0.50005 0 0 0 14.5,11 L 14,11 14,10.5 A 0.50005,0.50005 0 0 0 13.853516,10.146484 L 12.535156,8.828125 C 12.792758,8.1004565 13,7.2837719 13,6.5 13,2.9160714 10.083929,0 6.5,0 Z m 0,1 C 9.5434884,1 12,3.4565116 12,6.5 12,7.2494087 11.810914,8.1619587 11.539062,8.8046875 a 0.50005,0.50005 0 0 0 0.107422,0.5488281 L 13,10.707031 13,11.5 A 0.50005,0.50005 0 0 0 13.5,12 L 14.292969,12 16,13.707031 16,15.5 A 0.50005,0.50005 0 0 0 16.5,16 L 18.292969,16 20,17.707031 20,18.5 A 0.50005,0.50005 0 0 0 20.5,19 L 21.292969,19 23,20.707031 23,23 20.707031,23 9.3535156,11.646484 A 0.50005,0.50005 0 0 0 8.8046875,11.539062 C 8.1619587,11.810914 7.2494087,12 6.5,12 3.4565116,12 1,9.5434884 1,6.5 1,3.4565116 3.4565116,1 6.5,1 Z"/>
</svg>