<svg fill="#000000" height="24" viewBox="0 0 24 24" width="24" xmlns="http://www.w3.org/2000/svg">
<path d="m 12,9 c -1.099351,0 -2,0.9006486 -2,2 l 0,7 c 0,1.099351 0.900649,2 2,2 1.099351,0 2,-0.900649 2,-2 l 0,-7 C 14,9.9006486 13.099351,9 12,9 Z m 0,1 c 0.562649,0 1,0.437351 1,1 l 0,7 c 0,0.562649 -0.437351,1 -1,1 -0.562649,0 -1,-0.437351 -1,-1 l 0,-7 c 0,-0.562649 0.437351,-1 1,-1 z m 0,-6 c -1.098647,0 -2,0.9013528 -2,2 0,1.0986472 0.901353,2 2,2 1.098647,0 2,-0.9013528 2,-2 0,-1.0986472 -0.901353,-2 -2,-2 z m 0,1 c 0.558207,0 1,0.4417929 1,1 0,0.5582071 -0.441793,1 -1,1 C 11.441793,7 11,6.5582071 11,6 11,5.4417929 11.441793,5 12,5 Z M 12,0 C 5.3785053,0 0,5.3785053 0,12 0,18.621495 5.3785053,24 12,24 18.621495,24 24,18.621495 24,12 24,5.3785053 18.621495,0 12,0 Z m 0,1 C 18.081055,1 23,5.9189454 23,12 23,18.081055 18.081055,23 12,23 5.9189454,23 1,18.081055 1,12 1,5.9189454 5.9189454,1 12,1 Z"/>
</svg>