<svg fill="#000000" height="24" viewBox="0 0 24 24" width="24" xmlns="http://www.w3.org/2000/svg">
<path d="m 6.5,11 10,0 c 0.277,0 0.5,0.223 0.5,0.5 0,0.277 -0.223,0.5 -0.5,0.5 l -10,0 C 6.223,12 6,11.777 6,11.5 6,11.223 6.223,11 6.5,11 Z M 21,11.5 C 21,11.776142 20.776142,12 20.5,12 20.223858,12 20,11.776142 20,11.5 20,11.223858 20.223858,11 20.5,11 c 0.276142,0 0.5,0.223858 0.5,0.5 z m -18,0 C 3,11.776142 2.7761424,12 2.5,12 2.2238576,12 2,11.776142 2,11.5 2,11.223858 2.2238576,11 2.5,11 2.7761424,11 3,11.223858 3,11.5 Z M 11.5,0 C 5.1546477,0 0,5.1546477 0,11.5 0,17.845352 5.1546477,23 11.5,23 17.845352,23 23,17.845352 23,11.5 23,5.1546477 17.845352,0 11.5,0 Z m 0,1 c 1.715857,0 3.313833,1.0909512 4.517578,2.9746094 C 13.168134,5.334759 9.8438702,5.3339894 6.9863281,3.9707031 8.1897263,2.0899285 9.7855699,1 11.5,1 Z M 7.46875,1.8027344 C 6.9127965,2.3448479 6.4815976,2.9643793 6.1035156,3.4960938 5.8456923,3.3412159 5.5926888,3.1750778 5.3457031,2.9960938 6.0012821,2.5213248 6.7110254,2.1175685 7.46875,1.8027344 Z m 8.0625,0 c 0.757725,0.3148341 1.467468,0.7185904 2.123047,1.1933594 C 17.407169,3.1752966 17.15471,3.3429286 16.896484,3.4980469 16.507667,2.852108 15.96365,2.2861077 15.53125,1.8027344 Z m 2.925781,1.8417968 C 20.627571,5.5665404 22,8.3681469 22,11.5 22,14.631853 20.627571,17.433459 18.457031,19.355469 18.111662,19.092552 17.756818,18.84965 17.390625,18.630859 18.403407,16.662024 19,14.189134 19,11.5 19,8.8101612 18.403893,6.3362736 17.390625,4.3671875 17.756563,4.1486047 18.11193,3.9071676 18.457031,3.6445312 Z M 4.5390625,3.6464844 C 4.885446,3.9100776 5.2444041,4.1461281 5.6113281,4.3652344 4.5973444,6.3346892 4,8.8091217 4,11.5 c 0,2.689839 0.5961074,5.163727 1.609375,7.132812 -0.3664944,0.218895 -0.7243727,0.4555 -1.0703125,0.71875 C 2.3709158,17.42965 1,14.629869 1,11.5 1,8.369667 2.3703557,5.5684197 4.5390625,3.6464844 Z M 6.4902344,4.8417969 C 9.6541643,6.3739924 13.354451,6.3717511 16.509766,4.84375 17.432183,6.6482773 18,8.9662208 18,11.5 18,14.032709 17.433446,16.350094 16.511719,18.154297 14.977156,17.410844 13.314365,17 11.644531,17 9.881158,17 8.1157629,17.369031 6.4902344,18.15625 5.5678168,16.351722 5,14.033779 5,11.5 5,8.9654953 5.5673484,6.6465442 6.4902344,4.8417969 Z M 11.630859,18 c 1.503255,0.01872 3.000858,0.361912 4.386719,1.023438 C 14.813732,20.907943 13.216276,22 11.5,22 9.7848566,22 8.1879467,20.909559 6.984375,19.027344 8.4525573,18.326595 10.042726,17.980227 11.630859,18 Z m -5.5273434,1.501953 c 0.3888178,0.645938 0.9328345,1.211939 1.3652344,1.695313 -0.7582096,-0.315036 -1.4690746,-0.718192 -2.125,-1.19336 0.2476871,-0.179589 0.5011738,-0.346613 0.7597656,-0.501953 z m 10.7949224,0 c 0.257866,0.154993 0.511018,0.320985 0.757812,0.5 -0.656189,0.475471 -1.366421,0.880123 -2.125,1.195313 0.556689,-0.543168 0.987937,-1.162633 1.367188,-1.695313 z"/>
</svg>