<svg fill="#000000" height="24" viewBox="0 0 24 24" width="24" xmlns="http://www.w3.org/2000/svg">
<path d="m 17.5,12 c 0.277,0 0.5,0.223 0.5,0.5 l 0,6 C 18,18.777 17.777,19 17.5,19 17.223,19 17,18.777 17,18.5 l 0,-6 C 17,12.223 17.223,12 17.5,12 Z m -12,0 C 5.777,12 6,12.223 6,12.5 l 0,6 C 6,18.777 5.777,19 5.5,19 5.223,19 5,18.777 5,18.5 l 0,-6 C 5,12.223 5.223,12 5.5,12 Z m 6,-6 C 11.777,6 12,6.223 12,6.5 l 0,6 C 12,12.777 11.777,13 11.5,13 11.223,13 11,12.777 11,12.5 l 0,-6 C 11,6.223 11.223,6 11.5,6 Z M 16,10.5 C 16,10.223 16.223,10 16.5,10 l 2,0 c 0.277,0 0.5,0.223 0.5,0.5 0,0.277 -0.223,0.5 -0.5,0.5 l -2,0 C 16.223,11 16,10.777 16,10.5 Z m -6,4 C 10,14.223 10.223,14 10.5,14 l 2,0 c 0.277,0 0.5,0.223 0.5,0.5 0,0.277 -0.223,0.5 -0.5,0.5 l -2,0 C 10.223,15 10,14.777 10,14.5 Z m -6,-4 C 4,10.223 4.223,10 4.5,10 l 2,0 C 6.777,10 7,10.223 7,10.5 7,10.777 6.777,11 6.5,11 l -2,0 C 4.223,11 4,10.777 4,10.5 Z m 7.5,5.5 c 0.277,0 0.5,0.223 0.5,0.5 l 0,2 C 12,18.777 11.777,19 11.5,19 11.223,19 11,18.777 11,18.5 l 0,-2 C 11,16.223 11.223,16 11.5,16 Z m 6,-10 C 17.777,6 18,6.223 18,6.5 l 0,2 C 18,8.777 17.777,9 17.5,9 17.223,9 17,8.777 17,8.5 l 0,-2 C 17,6.223 17.223,6 17.5,6 Z M 5.5,6 C 5.777,6 6,6.223 6,6.5 l 0,2 C 6,8.777 5.777,9 5.5,9 5.223,9 5,8.777 5,8.5 l 0,-2 C 5,6.223 5.223,6 5.5,6 Z M 1.5,0 C 0.67764862,0 0,0.67764862 0,1.5 l 0,21 C 0,23.322351 0.67764862,24 1.5,24 l 20,0 c 0.822351,0 1.5,-0.677649 1.5,-1.5 l 0,-21 C 23,0.67764862 22.322351,0 21.5,0 l -20,0 z m 0,1 20,0 C 21.785649,1 22,1.2143514 22,1.5 l 0,21 c 0,0.285649 -0.214351,0.5 -0.5,0.5 l -20,0 C 1.2143514,23 1,22.785649 1,22.5 L 1,1.5 C 1,1.2143514 1.2143514,1 1.5,1 Z"/>
</svg>