<svg fill="#000000" height="24" viewBox="0 0 24 24" width="24" xmlns="http://www.w3.org/2000/svg">
<path d="m 14.141917,11.151693 -1.642608,1.642417 -1.642608,-1.642417 c -0.439515,-0.452054 -1.1596643,0.264052 -0.70555,0.705468 l 1.642608,1.642417 -1.642608,1.642418 c -0.4580189,0.445211 0.244146,1.166872 0.70555,0.705468 l 1.642608,-1.642417 1.643986,1.643795 c 0.457521,0.457521 1.167632,-0.256352 0.705549,-0.705468 l -1.643986,-1.643796 1.642608,-1.642417 c 0.201708,-0.195478 0.202341,-0.518848 0.003,-0.713534 -0.19932,-0.194686 -0.516268,-0.190337 -0.708571,0.0081 z M 1.5,3 C 0.67764862,3 0,3.6776486 0,4.5 l 0,15 C 0,20.322351 0.67764862,21 1.5,21 l 21,0 c 0.822351,0 1.5,-0.677649 1.5,-1.5 l 0,-15 C 24,3.6776486 23.322351,3 22.5,3 Z m 0,1 21,0 C 22.785649,4 23,4.2143514 23,4.5 l 0,15 c 0,0.285649 -0.214351,0.5 -0.5,0.5 l -21,0 C 1.2143514,20 1,19.785649 1,19.5 L 1,4.5 C 1,4.2143514 1.2143514,4 1.5,4 Z m 1,1 C 2.2238576,5 2,5.2238576 2,5.5 2,5.7761424 2.2238576,6 2.5,6 2.7761424,6 3,5.7761424 3,5.5 3,5.2238576 2.7761424,5 2.5,5 Z m 2,0 C 4.2238576,5 4,5.2238576 4,5.5 4,5.7761424 4.2238576,6 4.5,6 4.7761424,6 5,5.7761424 5,5.5 5,5.2238576 4.7761424,5 4.5,5 Z m 2,0 C 6.2238576,5 6,5.2238576 6,5.5 6,5.7761424 6.2238576,6 6.5,6 6.7761424,6 7,5.7761424 7,5.5 7,5.2238576 6.7761424,5 6.5,5 Z m -4,2 C 2.223,7 2,7.223 2,7.5 2,7.777 2.223,8 2.5,8 l 19,0 C 21.777,8 22,7.777 22,7.5 22,7.223 21.777,7 21.5,7 Z"/>
</svg>