<svg fill="#000000" height="24" viewBox="0 0 24 24" width="24" xmlns="http://www.w3.org/2000/svg">
<path d="m 4.5,11 c -0.4852725,9.8e-5 -0.6550567,0.56242 -0.3386732,0.868629 l 6.9850372,6.98529 c 0.194848,0.194774 0.510673,0.194774 0.705521,0 l 6.985038,-6.98529 C 19.326646,11.398364 18.60165,10.673341 18.131402,11.163083 L 11.5,17.8 4.8668468,11.163083 C 4.7728411,11.065913 4.6351937,11 4.5,11 Z m 7,-9 C 11.777,2 12,2.223 12,2.5 l 0,13 C 12,15.777 11.777,16 11.5,16 11.223,16 11,15.777 11,15.5 l 0,-13 C 11,2.223 11.223,2 11.5,2 Z M 0.5,18 C 0.2238552,18.0043 -0.00432058,18.223855 0,18.5 l 0,2 C 0,21.322351 0.67764862,22 1.5,22 l 21,0 c 0.822351,0 1.5,-0.677649 1.5,-1.5 l 0,-2 C 24.0048,18.161919 23.752391,18 23.5,18 23.247609,18 22.995219,18.161919 23,18.5 l 0,2 c 0,0.285649 -0.214351,0.5 -0.5,0.5 l -21,0 C 1.2143514,21 1,20.785649 1,20.5 l 0,-2 C 1.00442,18.217734 0.78226617,17.995583 0.5,18 Z"/>
</svg>